# Furnace Text Export

generated by Furnace dev229 (229)

# Song Information

- name: On Hold
- author: TheDuccinator
- album: 
- system: Game Boy
- tuning: 448

- instruments: 13
- wavetables: 5
- samples: 0

# Sound Chips

- Game Boy
  - id: 06
  - volume: 1
  - panning: 0
  - front/rear: 0

# Instruments

## 00: Instrument 0

- type: 2
- Game Boy parameters:
  - volume: 15
  - direction: down
  - length: 2
  - sound length: 64
  - use software envelope: no
  - always initialize: no
- macros:
  - arp: 1073741876 1073741873 0
  - wave: 0 0 1

## 01: Instrument 0

- type: 2
- Game Boy parameters:
  - volume: 15
  - direction: down
  - length: 2
  - sound length: 64
  - use software envelope: no
  - always initialize: no
- macros:
  - wave: 1

## 02: Instrument 0

- type: 2
- Game Boy parameters:
  - volume: 15
  - direction: down
  - length: 2
  - sound length: 64
  - use software envelope: no
  - always initialize: no
- macros:
  - arp: 1073741879 1073741878 1073741876 0
  - wave: 0 0 0 1

## 03: Instrument 3

- type: 2
- Game Boy parameters:
  - volume: 15
  - direction: down
  - length: 1
  - sound length: 64
  - use software envelope: no
  - always initialize: no
- macros:
  - arp: 0 6

## 04: Instrument 4

- type: 2
- Game Boy parameters:
  - volume: 8
  - direction: down
  - length: 1
  - sound length: 10
  - use software envelope: no
  - always initialize: no

## 05: Instrument 4

- type: 2
- Game Boy parameters:
  - volume: 8
  - direction: down
  - length: 1
  - sound length: 23
  - use software envelope: no
  - always initialize: no

## 06: Instrument 6

- type: 2
- Game Boy parameters:
  - volume: 15
  - direction: down
  - length: 6
  - sound length: 64
  - use software envelope: no
  - always initialize: no

## 07: Instrument 7

- type: 2
- Game Boy parameters:
  - volume: 15
  - direction: down
  - length: 7
  - sound length: 64
  - use software envelope: no
  - always initialize: no
- macros:
  - arp: 7 0
  - duty: 2

## 08: Instrument 3

- type: 2
- Game Boy parameters:
  - volume: 15
  - direction: down
  - length: 7
  - sound length: 64
  - use software envelope: no
  - always initialize: no
- macros:
  - arp: 0
  - duty: 0

## 09: Instrument 9

- type: 2
- Game Boy parameters:
  - volume: 15
  - direction: down
  - length: 1
  - sound length: 64
  - use software envelope: no
  - always initialize: no
- macros:
  - arp: 12 0
  - duty: 2

## 0A: Instrument 10

- type: 2
- Game Boy parameters:
  - volume: 15
  - direction: down
  - length: 0
  - sound length: 64
  - use software envelope: no
  - always initialize: no
- macros:
  - duty: 2

## 0B: Instrument 11

- type: 2
- Game Boy parameters:
  - volume: 15
  - direction: down
  - length: 2
  - sound length: 64
  - use software envelope: yes
  - always initialize: yes
- Wavetable Synth parameters
  - Global: no
  - Type: 0
  - Wave 1: 4
  - Update Rate: 1
  - Speed: 0
  - Amount: 0

## 0C: Instrument 11

- type: 2
- Game Boy parameters:
  - volume: 15
  - direction: down
  - length: 2
  - sound length: 64
  - use software envelope: yes
  - always initialize: yes
- Wavetable Synth parameters
  - Global: no
  - Type: 0
  - Wave 1: 0
  - Update Rate: 1
  - Speed: 0
  - Amount: 0
- macros:
  - vol: [SPEED 3] 15 15 14 13 12 11 10 9 8 7 6 5


# Wavetables

- 0 (32x32): 0 0 0 0 0 0 0 0 0 0 0 0 0 0 0 0 31 31 31 31 31 31 31 31 31 31 31 31 31 31 31 31
- 1 (32x16): 15 15 12 12 10 10 8 8 8 8 6 6 4 4 4 4 2 2 2 2 0 0 0 0 0 0 0 0 0 0 0 0
- 2 (32x16): 14 13 11 9 8 6 5 4 3 2 1 1 0 0 0 0 0 0 0 0 1 1 2 3 3 5 6 7 9 10 12 13
- 3 (32x32): 0 1 2 3 4 5 6 7 8 9 10 11 12 13 14 15 16 17 18 19 20 21 22 23 24 25 26 27 28 29 30 31
- 4 (32x32): 8 8 8 8 8 8 8 8 8 8 8 8 8 8 8 8 24 24 24 24 24 24 24 24 24 24 24 24 24 24 24 24

# Samples


# Subsongs

## 0: 

- tick rate: 60
- speeds: 2
- virtual tempo: 150/150
- time base: 0
- pattern length: 128

orders:
```
00 | 00 00 00 00
01 | 00 00 00 00
02 | 02 01 01 01
03 | 03 02 02 01
04 | 02 03 01 01
05 | 04 04 03 02
06 | 02 05 04 03
07 | 04 06 05 04
08 | 02 07 04 03
09 | 04 08 05 04
0A | 05 09 01 01
0B | 05 09 02 01
0C | 06 0A 01 01
0D | 05 09 03 02
0E | 02 01 01 01
0F | 03 02 02 01
10 | 02 03 01 01
11 | 04 04 03 02
12 | 02 0B 04 03
13 | 03 02 05 04
14 | 02 03 04 03
15 | 03 04 05 04
16 | 00 0D 06 06
17 | 01 0C 07 05
18 | 08 0E 08 07
19 | 09 0F 09 08
1A | 08 0E 08 07
1B | 01 0C 0A 05
1C | 08 0E 0B 07
1D | 09 0F 0C 08
1E | 08 0E 0B 02
```

## Patterns

----- ORDER 00
00 |C#4 06 0F 1200 0400|OFF .. .. 0400|C#3 00 0F ....|C-5 04 .. ....
01 |... .. .. .... ....|... .. .. ....|... .. .. ....|... .. .. ....
02 |D#4 06 0F .... ....|... .. .. ....|... .. 04 ....|... .. .. ....
03 |... .. .. .... ....|... .. .. ....|... .. .. ....|... .. .. ....
04 |E-4 06 0E .... ....|... .. .. ....|C#3 04 0F ....|C-5 04 .. ....
05 |... .. .. .... ....|... .. .. ....|... .. .. ....|... .. .. ....
06 |G#4 06 0E .... ....|... .. .. ....|... .. 04 ....|... .. .. ....
07 |... .. .. .... ....|... .. .. ....|... .. .. ....|... .. .. ....
08 |C#4 06 0D 1201 ....|... .. .. ....|C#4 04 0F ....|C-5 05 .. ....
09 |... .. .. .... ....|... .. .. ....|... .. .. ....|... .. .. ....
0A |D#4 06 0D .... ....|... .. .. ....|... .. 04 ....|... .. .. ....
0B |... .. .. .... ....|... .. .. ....|... .. .. ....|... .. .. ....
0C |E-4 06 0C .... ....|... .. .. ....|C#4 04 0F ....|C-5 04 .. ....
0D |... .. .. .... ....|... .. .. ....|... .. .. ....|... .. .. ....
0E |G#4 06 0C .... ....|... .. .. ....|... .. 04 ....|... .. .. ....
0F |... .. .. .... ....|... .. .. ....|... .. .. ....|... .. .. ....
10 |C#4 06 0B 1202 ....|... .. .. ....|C#3 00 0F ....|C-5 04 .. ....
11 |... .. .. .... ....|... .. .. ....|... .. .. ....|... .. .. ....
12 |D#4 06 0B .... ....|... .. .. ....|... .. 04 ....|... .. .. ....
13 |... .. .. .... ....|... .. .. ....|... .. .. ....|... .. .. ....
14 |E-4 06 0A .... ....|... .. .. ....|C#3 04 0F ....|C-5 04 .. ....
15 |... .. .. .... ....|... .. .. ....|... .. .. ....|... .. .. ....
16 |G#4 06 0A .... ....|... .. .. ....|... .. 04 ....|... .. .. ....
17 |... .. .. .... ....|... .. .. ....|... .. .. ....|... .. .. ....
18 |C#4 06 09 1203 ....|... .. .. ....|C#4 04 0F ....|C-5 05 .. ....
19 |... .. .. .... ....|... .. .. ....|... .. .. ....|... .. .. ....
1A |D#4 06 09 .... ....|... .. .. ....|... .. 04 ....|... .. .. ....
1B |... .. .. .... ....|... .. .. ....|... .. .. ....|... .. .. ....
1C |E-4 06 08 .... ....|... .. .. ....|C#4 04 0F ....|C-5 04 .. ....
1D |... .. .. .... ....|... .. .. ....|... .. .. ....|... .. .. ....
1E |G#4 06 08 .... ....|... .. .. ....|... .. 04 ....|... .. .. ....
1F |... .. .. .... ....|... .. .. ....|... .. .. ....|... .. .. ....
20 |C#4 06 07 1203 ....|... .. .. ....|C#3 00 0F ....|C-5 04 .. ....
21 |... .. .. .... ....|... .. .. ....|... .. .. ....|... .. .. ....
22 |D#4 06 07 .... ....|... .. .. ....|... .. 04 ....|... .. .. ....
23 |... .. .. .... ....|... .. .. ....|... .. .. ....|... .. .. ....
24 |E-4 06 06 .... ....|... .. .. ....|C#3 04 0F ....|C-5 04 .. ....
25 |... .. .. .... ....|... .. .. ....|... .. .. ....|... .. .. ....
26 |G#4 06 06 .... ....|... .. .. ....|... .. 04 ....|... .. .. ....
27 |... .. .. .... ....|... .. .. ....|... .. .. ....|... .. .. ....
28 |C#4 06 05 1202 ....|... .. .. ....|C#4 04 0F ....|C-5 05 .. ....
29 |... .. .. .... ....|... .. .. ....|... .. .. ....|... .. .. ....
2A |D#4 06 05 .... ....|... .. .. ....|... .. 04 ....|... .. .. ....
2B |... .. .. .... ....|... .. .. ....|... .. .. ....|... .. .. ....
2C |E-4 06 04 .... ....|... .. .. ....|C#4 04 0F ....|C-5 04 .. ....
2D |... .. .. .... ....|... .. .. ....|... .. .. ....|... .. .. ....
2E |G#4 06 04 .... ....|... .. .. ....|... .. 04 ....|... .. .. ....
2F |... .. .. .... ....|... .. .. ....|... .. .. ....|... .. .. ....
30 |C#4 06 .. 1201 ....|... .. .. ....|C#3 00 0F ....|C-5 04 .. ....
31 |... .. .. .... ....|... .. .. ....|... .. .. ....|... .. .. ....
32 |D#4 06 .. .... ....|... .. .. ....|... .. 04 ....|... .. .. ....
33 |... .. .. .... ....|... .. .. ....|... .. .. ....|... .. .. ....
34 |E-4 06 .. .... ....|... .. .. ....|C#3 04 0F ....|C-5 04 .. ....
35 |... .. .. .... ....|... .. .. ....|... .. .. ....|... .. .. ....
36 |G#4 06 .. .... ....|... .. .. ....|... .. 04 ....|... .. .. ....
37 |... .. .. .... ....|... .. .. ....|... .. .. ....|... .. .. ....
38 |C#4 06 .. 1200 ....|... .. .. ....|C#4 04 0F ....|C-5 05 .. ....
39 |... .. .. .... ....|... .. .. ....|... .. .. ....|... .. .. ....
3A |D#4 06 .. .... ....|... .. .. ....|... .. 04 ....|... .. .. ....
3B |... .. .. .... ....|... .. .. ....|... .. .. ....|... .. .. ....
3C |E-4 06 .. .... ....|... .. .. ....|C#4 04 0F ....|C-5 04 .. ....
3D |... .. .. .... ....|... .. .. ....|... .. .. ....|... .. .. ....
3E |G#4 06 .. .... ....|... .. .. ....|... .. 04 ....|... .. .. ....
3F |... .. .. .... ....|... .. .. ....|... .. .. ....|... .. .. ....
40 |C#4 06 0F 1200 ....|... .. .. ....|C#3 00 0F ....|C-5 04 .. ....
41 |... .. .. .... ....|... .. .. ....|... .. .. ....|... .. .. ....
42 |D#4 06 0F .... ....|... .. .. ....|... .. 04 ....|... .. .. ....
43 |... .. .. .... ....|... .. .. ....|... .. .. ....|... .. .. ....
44 |E-4 06 0E .... ....|... .. .. ....|C#3 04 0F ....|C-5 04 .. ....
45 |... .. .. .... ....|... .. .. ....|... .. .. ....|... .. .. ....
46 |G#4 06 0E .... ....|... .. .. ....|... .. 04 ....|... .. .. ....
47 |... .. .. .... ....|... .. .. ....|... .. .. ....|... .. .. ....
48 |C#4 06 0D 1201 ....|... .. .. ....|C#4 04 0F ....|C-5 05 .. ....
49 |... .. .. .... ....|... .. .. ....|... .. .. ....|... .. .. ....
4A |D#4 06 0D .... ....|... .. .. ....|... .. 04 ....|... .. .. ....
4B |... .. .. .... ....|... .. .. ....|... .. .. ....|... .. .. ....
4C |E-4 06 0C .... ....|... .. .. ....|C#4 04 0F ....|C-5 04 .. ....
4D |... .. .. .... ....|... .. .. ....|... .. .. ....|... .. .. ....
4E |G#4 06 0C .... ....|... .. .. ....|... .. 04 ....|... .. .. ....
4F |... .. .. .... ....|... .. .. ....|... .. .. ....|... .. .. ....
50 |C#4 06 0B 1202 ....|... .. .. ....|C#3 00 0F ....|C-5 04 .. ....
51 |... .. .. .... ....|... .. .. ....|... .. .. ....|... .. .. ....
52 |D#4 06 0B .... ....|... .. .. ....|... .. 04 ....|... .. .. ....
53 |... .. .. .... ....|... .. .. ....|... .. .. ....|... .. .. ....
54 |E-4 06 0A .... ....|... .. .. ....|C#3 04 0F ....|C-5 04 .. ....
55 |... .. .. .... ....|... .. .. ....|... .. .. ....|... .. .. ....
56 |G#4 06 0A .... ....|... .. .. ....|... .. 04 ....|... .. .. ....
57 |... .. .. .... ....|... .. .. ....|... .. .. ....|... .. .. ....
58 |C#4 06 09 1203 ....|... .. .. ....|C#4 04 0F ....|C-5 05 .. ....
59 |... .. .. .... ....|... .. .. ....|... .. .. ....|... .. .. ....
5A |D#4 06 09 .... ....|... .. .. ....|... .. 04 ....|... .. .. ....
5B |... .. .. .... ....|... .. .. ....|... .. .. ....|... .. .. ....
5C |E-4 06 08 .... ....|... .. .. ....|C#4 04 0F ....|C-5 04 .. ....
5D |... .. .. .... ....|... .. .. ....|... .. .. ....|... .. .. ....
5E |G#4 06 08 .... ....|... .. .. ....|... .. 04 ....|... .. .. ....
5F |... .. .. .... ....|... .. .. ....|... .. .. ....|... .. .. ....
60 |C#4 06 07 1203 ....|... .. .. ....|C#3 00 0F ....|C-5 04 .. ....
61 |... .. .. .... ....|... .. .. ....|... .. .. ....|... .. .. ....
62 |D#4 06 07 .... ....|... .. .. ....|... .. 04 ....|... .. .. ....
63 |... .. .. .... ....|... .. .. ....|... .. .. ....|... .. .. ....
64 |E-4 06 06 .... ....|... .. .. ....|C#3 04 0F ....|C-5 04 .. ....
65 |... .. .. .... ....|... .. .. ....|... .. .. ....|... .. .. ....
66 |G#4 06 06 .... ....|... .. .. ....|... .. 04 ....|... .. .. ....
67 |... .. .. .... ....|... .. .. ....|... .. .. ....|... .. .. ....
68 |C#4 06 05 1202 ....|... .. .. ....|C#4 04 0F ....|C-5 05 .. ....
69 |... .. .. .... ....|... .. .. ....|... .. .. ....|... .. .. ....
6A |D#4 06 05 .... ....|... .. .. ....|... .. 04 ....|... .. .. ....
6B |... .. .. .... ....|... .. .. ....|... .. .. ....|... .. .. ....
6C |E-4 06 04 .... ....|... .. .. ....|C#4 04 0F ....|C-5 04 .. ....
6D |... .. .. .... ....|... .. .. ....|... .. .. ....|... .. .. ....
6E |G#4 06 04 .... ....|... .. .. ....|... .. 04 ....|... .. .. ....
6F |... .. .. .... ....|... .. .. ....|... .. .. ....|... .. .. ....
70 |C#4 06 .. 1201 ....|... .. .. ....|C#3 00 0F ....|C-5 04 .. ....
71 |... .. .. .... ....|... .. .. ....|... .. .. ....|... .. .. ....
72 |D#4 06 .. .... ....|... .. .. ....|... .. 04 ....|... .. .. ....
73 |... .. .. .... ....|... .. .. ....|... .. .. ....|... .. .. ....
74 |E-4 06 .. .... ....|... .. .. ....|C#3 04 0F ....|C-5 04 .. ....
75 |... .. .. .... ....|... .. .. ....|... .. .. ....|... .. .. ....
76 |G#4 06 .. .... ....|... .. .. ....|... .. 04 ....|... .. .. ....
77 |... .. .. .... ....|... .. .. ....|... .. .. ....|... .. .. ....
78 |C#4 06 .. 1200 ....|... .. .. ....|C#4 04 0F ....|C-5 05 .. ....
79 |... .. .. .... ....|... .. .. ....|... .. .. ....|... .. .. ....
7A |D#4 06 .. .... ....|... .. .. ....|... .. 04 ....|... .. .. ....
7B |... .. .. .... ....|... .. .. ....|... .. .. ....|... .. .. ....
7C |E-4 06 .. .... ....|... .. .. ....|C#4 04 0F ....|C-5 04 .. ....
7D |... .. .. .... ....|... .. .. ....|... .. .. ....|... .. .. ....
7E |G#4 06 .. .... ....|... .. .. ....|... .. 04 ....|... .. .. ....
7F |... .. .. .... ....|... .. .. ....|... .. .. ....|... .. .. ....
----- ORDER 01
00 |C#4 06 0F 1200 0400|OFF .. .. 0400|C#3 00 0F ....|C-5 04 .. ....
01 |... .. .. .... ....|... .. .. ....|... .. .. ....|... .. .. ....
02 |D#4 06 0F .... ....|... .. .. ....|... .. 04 ....|... .. .. ....
03 |... .. .. .... ....|... .. .. ....|... .. .. ....|... .. .. ....
04 |E-4 06 0E .... ....|... .. .. ....|C#3 04 0F ....|C-5 04 .. ....
05 |... .. .. .... ....|... .. .. ....|... .. .. ....|... .. .. ....
06 |G#4 06 0E .... ....|... .. .. ....|... .. 04 ....|... .. .. ....
07 |... .. .. .... ....|... .. .. ....|... .. .. ....|... .. .. ....
08 |C#4 06 0D 1201 ....|... .. .. ....|C#4 04 0F ....|C-5 05 .. ....
09 |... .. .. .... ....|... .. .. ....|... .. .. ....|... .. .. ....
0A |D#4 06 0D .... ....|... .. .. ....|... .. 04 ....|... .. .. ....
0B |... .. .. .... ....|... .. .. ....|... .. .. ....|... .. .. ....
0C |E-4 06 0C .... ....|... .. .. ....|C#4 04 0F ....|C-5 04 .. ....
0D |... .. .. .... ....|... .. .. ....|... .. .. ....|... .. .. ....
0E |G#4 06 0C .... ....|... .. .. ....|... .. 04 ....|... .. .. ....
0F |... .. .. .... ....|... .. .. ....|... .. .. ....|... .. .. ....
10 |C#4 06 0B 1202 ....|... .. .. ....|C#3 00 0F ....|C-5 04 .. ....
11 |... .. .. .... ....|... .. .. ....|... .. .. ....|... .. .. ....
12 |D#4 06 0B .... ....|... .. .. ....|... .. 04 ....|... .. .. ....
13 |... .. .. .... ....|... .. .. ....|... .. .. ....|... .. .. ....
14 |E-4 06 0A .... ....|... .. .. ....|C#3 04 0F ....|C-5 04 .. ....
15 |... .. .. .... ....|... .. .. ....|... .. .. ....|... .. .. ....
16 |G#4 06 0A .... ....|... .. .. ....|... .. 04 ....|... .. .. ....
17 |... .. .. .... ....|... .. .. ....|... .. .. ....|... .. .. ....
18 |C#4 06 09 1203 ....|... .. .. ....|C#4 04 0F ....|C-5 05 .. ....
19 |... .. .. .... ....|... .. .. ....|... .. .. ....|... .. .. ....
1A |D#4 06 09 .... ....|... .. .. ....|... .. 04 ....|... .. .. ....
1B |... .. .. .... ....|... .. .. ....|... .. .. ....|... .. .. ....
1C |E-4 06 08 .... ....|... .. .. ....|C#4 04 0F ....|C-5 04 .. ....
1D |... .. .. .... ....|... .. .. ....|... .. .. ....|... .. .. ....
1E |G#4 06 08 .... ....|... .. .. ....|... .. 04 ....|... .. .. ....
1F |... .. .. .... ....|... .. .. ....|... .. .. ....|... .. .. ....
20 |C#4 06 07 1203 ....|... .. .. ....|C#3 00 0F ....|C-5 04 .. ....
21 |... .. .. .... ....|... .. .. ....|... .. .. ....|... .. .. ....
22 |D#4 06 07 .... ....|... .. .. ....|... .. 04 ....|... .. .. ....
23 |... .. .. .... ....|... .. .. ....|... .. .. ....|... .. .. ....
24 |E-4 06 06 .... ....|... .. .. ....|C#3 04 0F ....|C-5 04 .. ....
25 |... .. .. .... ....|... .. .. ....|... .. .. ....|... .. .. ....
26 |G#4 06 06 .... ....|... .. .. ....|... .. 04 ....|... .. .. ....
27 |... .. .. .... ....|... .. .. ....|... .. .. ....|... .. .. ....
28 |C#4 06 05 1202 ....|... .. .. ....|C#4 04 0F ....|C-5 05 .. ....
29 |... .. .. .... ....|... .. .. ....|... .. .. ....|... .. .. ....
2A |D#4 06 05 .... ....|... .. .. ....|... .. 04 ....|... .. .. ....
2B |... .. .. .... ....|... .. .. ....|... .. .. ....|... .. .. ....
2C |E-4 06 04 .... ....|... .. .. ....|C#4 04 0F ....|C-5 04 .. ....
2D |... .. .. .... ....|... .. .. ....|... .. .. ....|... .. .. ....
2E |G#4 06 04 .... ....|... .. .. ....|... .. 04 ....|... .. .. ....
2F |... .. .. .... ....|... .. .. ....|... .. .. ....|... .. .. ....
30 |C#4 06 .. 1201 ....|... .. .. ....|C#3 00 0F ....|C-5 04 .. ....
31 |... .. .. .... ....|... .. .. ....|... .. .. ....|... .. .. ....
32 |D#4 06 .. .... ....|... .. .. ....|... .. 04 ....|... .. .. ....
33 |... .. .. .... ....|... .. .. ....|... .. .. ....|... .. .. ....
34 |E-4 06 .. .... ....|... .. .. ....|C#3 04 0F ....|C-5 04 .. ....
35 |... .. .. .... ....|... .. .. ....|... .. .. ....|... .. .. ....
36 |G#4 06 .. .... ....|... .. .. ....|... .. 04 ....|... .. .. ....
37 |... .. .. .... ....|... .. .. ....|... .. .. ....|... .. .. ....
38 |C#4 06 .. 1200 ....|... .. .. ....|C#4 04 0F ....|C-5 05 .. ....
39 |... .. .. .... ....|... .. .. ....|... .. .. ....|... .. .. ....
3A |D#4 06 .. .... ....|... .. .. ....|... .. 04 ....|... .. .. ....
3B |... .. .. .... ....|... .. .. ....|... .. .. ....|... .. .. ....
3C |E-4 06 .. .... ....|... .. .. ....|C#4 04 0F ....|C-5 04 .. ....
3D |... .. .. .... ....|... .. .. ....|... .. .. ....|... .. .. ....
3E |G#4 06 .. .... ....|... .. .. ....|... .. 04 ....|... .. .. ....
3F |... .. .. .... ....|... .. .. ....|... .. .. ....|... .. .. ....
40 |C#4 06 0F 1200 ....|... .. .. ....|C#3 00 0F ....|C-5 04 .. ....
41 |... .. .. .... ....|... .. .. ....|... .. .. ....|... .. .. ....
42 |D#4 06 0F .... ....|... .. .. ....|... .. 04 ....|... .. .. ....
43 |... .. .. .... ....|... .. .. ....|... .. .. ....|... .. .. ....
44 |E-4 06 0E .... ....|... .. .. ....|C#3 04 0F ....|C-5 04 .. ....
45 |... .. .. .... ....|... .. .. ....|... .. .. ....|... .. .. ....
46 |G#4 06 0E .... ....|... .. .. ....|... .. 04 ....|... .. .. ....
47 |... .. .. .... ....|... .. .. ....|... .. .. ....|... .. .. ....
48 |C#4 06 0D 1201 ....|... .. .. ....|C#4 04 0F ....|C-5 05 .. ....
49 |... .. .. .... ....|... .. .. ....|... .. .. ....|... .. .. ....
4A |D#4 06 0D .... ....|... .. .. ....|... .. 04 ....|... .. .. ....
4B |... .. .. .... ....|... .. .. ....|... .. .. ....|... .. .. ....
4C |E-4 06 0C .... ....|... .. .. ....|C#4 04 0F ....|C-5 04 .. ....
4D |... .. .. .... ....|... .. .. ....|... .. .. ....|... .. .. ....
4E |G#4 06 0C .... ....|... .. .. ....|... .. 04 ....|... .. .. ....
4F |... .. .. .... ....|... .. .. ....|... .. .. ....|... .. .. ....
50 |C#4 06 0B 1202 ....|... .. .. ....|C#3 00 0F ....|C-5 04 .. ....
51 |... .. .. .... ....|... .. .. ....|... .. .. ....|... .. .. ....
52 |D#4 06 0B .... ....|... .. .. ....|... .. 04 ....|... .. .. ....
53 |... .. .. .... ....|... .. .. ....|... .. .. ....|... .. .. ....
54 |E-4 06 0A .... ....|... .. .. ....|C#3 04 0F ....|C-5 04 .. ....
55 |... .. .. .... ....|... .. .. ....|... .. .. ....|... .. .. ....
56 |G#4 06 0A .... ....|... .. .. ....|... .. 04 ....|... .. .. ....
57 |... .. .. .... ....|... .. .. ....|... .. .. ....|... .. .. ....
58 |C#4 06 09 1203 ....|... .. .. ....|C#4 04 0F ....|C-5 05 .. ....
59 |... .. .. .... ....|... .. .. ....|... .. .. ....|... .. .. ....
5A |D#4 06 09 .... ....|... .. .. ....|... .. 04 ....|... .. .. ....
5B |... .. .. .... ....|... .. .. ....|... .. .. ....|... .. .. ....
5C |E-4 06 08 .... ....|... .. .. ....|C#4 04 0F ....|C-5 04 .. ....
5D |... .. .. .... ....|... .. .. ....|... .. .. ....|... .. .. ....
5E |G#4 06 08 .... ....|... .. .. ....|... .. 04 ....|... .. .. ....
5F |... .. .. .... ....|... .. .. ....|... .. .. ....|... .. .. ....
60 |C#4 06 07 1203 ....|... .. .. ....|C#3 00 0F ....|C-5 04 .. ....
61 |... .. .. .... ....|... .. .. ....|... .. .. ....|... .. .. ....
62 |D#4 06 07 .... ....|... .. .. ....|... .. 04 ....|... .. .. ....
63 |... .. .. .... ....|... .. .. ....|... .. .. ....|... .. .. ....
64 |E-4 06 06 .... ....|... .. .. ....|C#3 04 0F ....|C-5 04 .. ....
65 |... .. .. .... ....|... .. .. ....|... .. .. ....|... .. .. ....
66 |G#4 06 06 .... ....|... .. .. ....|... .. 04 ....|... .. .. ....
67 |... .. .. .... ....|... .. .. ....|... .. .. ....|... .. .. ....
68 |C#4 06 05 1202 ....|... .. .. ....|C#4 04 0F ....|C-5 05 .. ....
69 |... .. .. .... ....|... .. .. ....|... .. .. ....|... .. .. ....
6A |D#4 06 05 .... ....|... .. .. ....|... .. 04 ....|... .. .. ....
6B |... .. .. .... ....|... .. .. ....|... .. .. ....|... .. .. ....
6C |E-4 06 04 .... ....|... .. .. ....|C#4 04 0F ....|C-5 04 .. ....
6D |... .. .. .... ....|... .. .. ....|... .. .. ....|... .. .. ....
6E |G#4 06 04 .... ....|... .. .. ....|... .. 04 ....|... .. .. ....
6F |... .. .. .... ....|... .. .. ....|... .. .. ....|... .. .. ....
70 |C#4 06 .. 1201 ....|... .. .. ....|C#3 00 0F ....|C-5 04 .. ....
71 |... .. .. .... ....|... .. .. ....|... .. .. ....|... .. .. ....
72 |D#4 06 .. .... ....|... .. .. ....|... .. 04 ....|... .. .. ....
73 |... .. .. .... ....|... .. .. ....|... .. .. ....|... .. .. ....
74 |E-4 06 .. .... ....|... .. .. ....|C#3 04 0F ....|C-5 04 .. ....
75 |... .. .. .... ....|... .. .. ....|... .. .. ....|... .. .. ....
76 |G#4 06 .. .... ....|... .. .. ....|... .. 04 ....|... .. .. ....
77 |... .. .. .... ....|... .. .. ....|... .. .. ....|... .. .. ....
78 |C#4 06 .. 1200 ....|... .. .. ....|C#4 04 0F ....|C-5 05 .. ....
79 |... .. .. .... ....|... .. .. ....|... .. .. ....|... .. .. ....
7A |D#4 06 .. .... ....|... .. .. ....|... .. 04 ....|... .. .. ....
7B |... .. .. .... ....|... .. .. ....|... .. .. ....|... .. .. ....
7C |E-4 06 .. .... ....|... .. .. ....|C#4 04 0F ....|C-5 04 .. ....
7D |... .. .. .... ....|... .. .. ....|... .. .. ....|... .. .. ....
7E |G#4 06 .. .... ....|... .. .. ....|... .. 04 ....|... .. .. ....
7F |... .. .. .... ....|... .. .. ....|... .. .. ....|... .. .. ....
----- ORDER 02
00 |C#4 06 0F 1200 ....|G#4 07 .. 0400|C#3 00 0F ....|C-5 04 .. ....
01 |... .. .. .... ....|... .. .. ....|... .. .. ....|... .. .. ....
02 |D#4 06 0F .... ....|... .. .. ....|... .. 04 ....|... .. .. ....
03 |... .. .. .... ....|... .. .. ....|... .. .. ....|... .. .. ....
04 |E-4 06 0E .... ....|... .. .. 0462|C#3 04 0F ....|C-5 04 .. ....
05 |... .. .. .... ....|... .. .. ....|... .. .. ....|... .. .. ....
06 |G#4 06 0E .... ....|... .. .. ....|... .. 04 ....|... .. .. ....
07 |... .. .. .... ....|... .. .. ....|... .. .. ....|... .. .. ....
08 |C#4 06 0D 1201 ....|... .. .. ....|C#4 04 0F ....|C-5 05 .. ....
09 |... .. .. .... ....|... .. .. ....|... .. .. ....|... .. .. ....
0A |D#4 06 0D .... ....|... .. .. ....|... .. 04 ....|... .. .. ....
0B |... .. .. .... ....|... .. .. ....|... .. .. ....|... .. .. ....
0C |E-4 06 0C .... ....|... .. .. ....|C#4 04 0F ....|C-5 04 .. ....
0D |... .. .. .... ....|... .. .. ....|... .. .. ....|... .. .. ....
0E |G#4 06 0C .... ....|... .. .. ....|... .. 04 ....|... .. .. ....
0F |... .. .. .... ....|... .. .. ....|... .. .. ....|... .. .. ....
10 |C#4 06 0B 1202 ....|... .. .. ....|C#3 00 0F ....|C-5 04 .. ....
11 |... .. .. .... ....|... .. .. ....|... .. .. ....|... .. .. ....
12 |D#4 06 0B .... ....|... .. .. ....|... .. 04 ....|... .. .. ....
13 |... .. .. .... ....|... .. .. ....|... .. .. ....|... .. .. ....
14 |E-4 06 0A .... ....|... .. .. ....|C#3 04 0F ....|C-5 04 .. ....
15 |... .. .. .... ....|... .. .. ....|... .. .. ....|... .. .. ....
16 |G#4 06 0A .... ....|... .. .. ....|... .. 04 ....|... .. .. ....
17 |... .. .. .... ....|... .. .. ....|... .. .. ....|... .. .. ....
18 |C#4 06 09 1203 ....|E-4 07 .. 0400|C#4 04 0F ....|C-5 05 .. ....
19 |... .. .. .... ....|... .. .. ....|... .. .. ....|... .. .. ....
1A |D#4 06 09 .... ....|... .. .. ....|... .. 04 ....|... .. .. ....
1B |... .. .. .... ....|... .. .. ....|... .. .. ....|... .. .. ....
1C |E-4 06 08 .... ....|... .. .. 0462|C#4 04 0F ....|C-5 04 .. ....
1D |... .. .. .... ....|... .. .. ....|... .. .. ....|... .. .. ....
1E |G#4 06 08 .... ....|... .. .. ....|... .. 04 ....|... .. .. ....
1F |... .. .. .... ....|... .. .. ....|... .. .. ....|... .. .. ....
20 |C#4 06 07 1203 ....|F#4 07 .. 0400|C#3 00 0F ....|C-5 04 .. ....
21 |... .. .. .... ....|... .. .. ....|... .. .. ....|... .. .. ....
22 |D#4 06 07 .... ....|... .. .. ....|... .. 04 ....|... .. .. ....
23 |... .. .. .... ....|... .. .. ....|... .. .. ....|... .. .. ....
24 |E-4 06 06 .... ....|... .. .. 0462|C#3 04 0F ....|C-5 04 .. ....
25 |... .. .. .... ....|... .. .. ....|... .. .. ....|... .. .. ....
26 |G#4 06 06 .... ....|... .. .. ....|... .. 04 ....|... .. .. ....
27 |... .. .. .... ....|... .. .. ....|... .. .. ....|... .. .. ....
28 |C#4 06 05 1202 ....|... .. .. ....|C#4 04 0F ....|C-5 05 .. ....
29 |... .. .. .... ....|... .. .. ....|... .. .. ....|... .. .. ....
2A |D#4 06 05 .... ....|... .. .. ....|... .. 04 ....|... .. .. ....
2B |... .. .. .... ....|... .. .. ....|... .. .. ....|... .. .. ....
2C |E-4 06 04 .... ....|E-4 07 .. 0400|C#4 04 0F ....|C-5 04 .. ....
2D |... .. .. .... ....|... .. .. ....|... .. .. ....|... .. .. ....
2E |G#4 06 04 .... ....|... .. .. ....|... .. 04 ....|... .. .. ....
2F |... .. .. .... ....|... .. .. ....|... .. .. ....|... .. .. ....
30 |C#4 06 .. 1201 ....|... .. .. 0462|C#3 00 0F ....|C-5 04 .. ....
31 |... .. .. .... ....|... .. .. ....|... .. .. ....|... .. .. ....
32 |D#4 06 .. .... ....|... .. .. ....|... .. 04 ....|... .. .. ....
33 |... .. .. .... ....|... .. .. ....|... .. .. ....|... .. .. ....
34 |E-4 06 .. .... ....|... .. .. ....|C#3 04 0F ....|C-5 04 .. ....
35 |... .. .. .... ....|... .. .. ....|... .. .. ....|... .. .. ....
36 |G#4 06 .. .... ....|... .. .. ....|... .. 04 ....|... .. .. ....
37 |... .. .. .... ....|... .. .. ....|... .. .. ....|... .. .. ....
38 |C#4 06 .. 1200 ....|D#4 07 .. 0400|C#4 04 0F ....|C-5 05 .. ....
39 |... .. .. .... ....|... .. .. ....|... .. .. ....|... .. .. ....
3A |D#4 06 .. .... ....|... .. .. ....|... .. 04 ....|... .. .. ....
3B |... .. .. .... ....|... .. .. ....|... .. .. ....|... .. .. ....
3C |E-4 06 .. .... ....|... .. .. 0462|C#4 04 0F ....|C-5 04 .. ....
3D |... .. .. .... ....|... .. .. ....|... .. .. ....|... .. .. ....
3E |G#4 06 .. .... ....|... .. .. ....|... .. 04 ....|... .. .. ....
3F |... .. .. .... ....|... .. .. ....|... .. .. ....|... .. .. ....
40 |B-3 06 0F 1200 ....|... .. .. ....|B-2 00 0F ....|C-5 04 .. ....
41 |... .. .. .... ....|... .. .. ....|... .. .. ....|... .. .. ....
42 |C#4 06 0F .... ....|... .. .. ....|... .. 04 ....|... .. .. ....
43 |... .. .. .... ....|... .. .. ....|... .. .. ....|... .. .. ....
44 |D#4 06 0E .... ....|... .. .. ....|B-2 04 0F ....|C-5 04 .. ....
45 |... .. .. .... ....|... .. .. ....|... .. .. ....|... .. .. ....
46 |F#4 06 0E .... ....|... .. .. ....|... .. 04 ....|... .. .. ....
47 |... .. .. .... ....|... .. .. ....|... .. .. ....|... .. .. ....
48 |B-3 06 0D 1201 ....|... .. .. ....|B-3 04 0F ....|C-5 05 .. ....
49 |... .. .. .... ....|... .. .. ....|... .. .. ....|... .. .. ....
4A |C#4 06 0D .... ....|... .. .. ....|... .. 04 ....|... .. .. ....
4B |... .. .. .... ....|... .. .. ....|... .. .. ....|... .. .. ....
4C |D#4 06 0C .... ....|... .. .. ....|B-3 04 0F ....|C-5 04 .. ....
4D |... .. .. .... ....|... .. .. ....|... .. .. ....|... .. .. ....
4E |F#4 06 0C .... ....|... .. .. ....|... .. 04 ....|... .. .. ....
4F |... .. .. .... ....|... .. .. ....|... .. .. ....|... .. .. ....
50 |B-3 06 0B 1202 ....|... .. .. ....|B-2 00 0F ....|C-5 04 .. ....
51 |... .. .. .... ....|... .. .. ....|... .. .. ....|... .. .. ....
52 |C#4 06 0B .... ....|... .. .. ....|... .. 04 ....|... .. .. ....
53 |... .. .. .... ....|... .. .. ....|... .. .. ....|... .. .. ....
54 |D#4 06 0A .... ....|... .. .. ....|B-2 04 0F ....|C-5 04 .. ....
55 |... .. .. .... ....|... .. .. ....|... .. .. ....|... .. .. ....
56 |F#4 06 0A .... ....|... .. .. ....|... .. 04 ....|... .. .. ....
57 |... .. .. .... ....|... .. .. ....|... .. .. ....|... .. .. ....
58 |B-3 06 09 1203 ....|... .. .. ....|B-3 04 0F ....|C-5 05 .. ....
59 |... .. .. .... ....|... .. .. ....|... .. .. ....|... .. .. ....
5A |C#4 06 09 .... ....|... .. .. ....|... .. 04 ....|... .. .. ....
5B |... .. .. .... ....|... .. .. ....|... .. .. ....|... .. .. ....
5C |D#4 06 08 .... ....|... .. .. ....|B-3 04 0F ....|C-5 04 .. ....
5D |... .. .. .... ....|... .. .. ....|... .. .. ....|... .. .. ....
5E |F#4 06 08 .... ....|... .. .. ....|... .. 04 ....|... .. .. ....
5F |... .. .. .... ....|... .. .. ....|... .. .. ....|... .. .. ....
60 |B-3 06 07 1203 ....|... .. .. ....|B-2 00 0F ....|C-5 04 .. ....
61 |... .. .. .... ....|... .. .. ....|... .. .. ....|... .. .. ....
62 |C#4 06 07 .... ....|... .. .. ....|... .. 04 ....|... .. .. ....
63 |... .. .. .... ....|... .. .. ....|... .. .. ....|... .. .. ....
64 |D#4 06 06 .... ....|... .. .. ....|B-2 04 0F ....|C-5 04 .. ....
65 |... .. .. .... ....|... .. .. ....|... .. .. ....|... .. .. ....
66 |F#4 06 06 .... ....|... .. .. ....|... .. 04 ....|... .. .. ....
67 |... .. .. .... ....|... .. .. ....|... .. .. ....|... .. .. ....
68 |B-3 06 05 1202 ....|... .. .. ....|B-3 04 0F ....|C-5 05 .. ....
69 |... .. .. .... ....|... .. .. ....|... .. .. ....|... .. .. ....
6A |C#4 06 05 .... ....|... .. .. ....|... .. 04 ....|... .. .. ....
6B |... .. .. .... ....|... .. .. ....|... .. .. ....|... .. .. ....
6C |D#4 06 04 .... ....|... .. .. ....|B-3 04 0F ....|C-5 04 .. ....
6D |... .. .. .... ....|... .. .. ....|... .. .. ....|... .. .. ....
6E |F#4 06 04 .... ....|... .. .. ....|... .. 04 ....|... .. .. ....
6F |... .. .. .... ....|... .. .. ....|... .. .. ....|... .. .. ....
70 |B-3 06 .. 1201 ....|B-3 07 .. 0400|B-2 00 0F ....|C-5 04 .. ....
71 |... .. .. .... ....|... .. .. ....|... .. .. ....|... .. .. ....
72 |C#4 06 .. .... ....|... .. .. ....|... .. 04 ....|... .. .. ....
73 |... .. .. .... ....|... .. .. ....|... .. .. ....|... .. .. ....
74 |D#4 06 .. .... ....|... .. .. 0462|B-2 04 0F ....|C-5 04 .. ....
75 |... .. .. .... ....|... .. .. ....|... .. .. ....|... .. .. ....
76 |F#4 06 .. .... ....|... .. .. ....|... .. 04 ....|... .. .. ....
77 |... .. .. .... ....|... .. .. ....|... .. .. ....|... .. .. ....
78 |B-3 06 .. 1200 ....|... .. .. ....|B-3 04 0F ....|C-5 05 .. ....
79 |... .. .. .... ....|... .. .. ....|... .. .. ....|... .. .. ....
7A |C#4 06 .. .... ....|... .. .. ....|... .. 04 ....|... .. .. ....
7B |... .. .. .... ....|... .. .. ....|... .. .. ....|... .. .. ....
7C |D#4 06 .. .... ....|... .. .. ....|B-3 04 0F ....|C-5 04 .. ....
7D |... .. .. .... ....|... .. .. ....|... .. .. ....|... .. .. ....
7E |F#4 06 .. .... ....|... .. .. ....|... .. 04 ....|... .. .. ....
7F |... .. .. .... ....|... .. .. ....|... .. .. ....|... .. .. ....
----- ORDER 03
00 |A-3 06 0F 1200 ....|C#4 07 .. 0400|A-2 00 0F ....|C-5 04 .. ....
01 |... .. .. .... ....|... .. .. ....|... .. .. ....|... .. .. ....
02 |B-3 06 0F .... ....|... .. .. ....|... .. 04 ....|... .. .. ....
03 |... .. .. .... ....|... .. .. ....|... .. .. ....|... .. .. ....
04 |C#4 06 0E .... ....|... .. .. 0462|A-2 04 0F ....|C-5 04 .. ....
05 |... .. .. .... ....|... .. .. ....|... .. .. ....|... .. .. ....
06 |E-4 06 0E .... ....|... .. .. ....|... .. 04 ....|... .. .. ....
07 |... .. .. .... ....|... .. .. ....|... .. .. ....|... .. .. ....
08 |A-3 06 0D 1201 ....|... .. .. ....|A-3 04 0F ....|C-5 05 .. ....
09 |... .. .. .... ....|... .. .. ....|... .. .. ....|... .. .. ....
0A |B-3 06 0D .... ....|... .. .. ....|... .. 04 ....|... .. .. ....
0B |... .. .. .... ....|... .. .. ....|... .. .. ....|... .. .. ....
0C |C#4 06 0C .... ....|... .. .. ....|A-3 04 0F ....|C-5 04 .. ....
0D |... .. .. .... ....|... .. .. ....|... .. .. ....|... .. .. ....
0E |E-4 06 0C .... ....|... .. .. ....|... .. 04 ....|... .. .. ....
0F |... .. .. .... ....|... .. .. ....|... .. .. ....|... .. .. ....
10 |A-3 06 0B 1202 ....|... .. .. ....|A-2 00 0F ....|C-5 04 .. ....
11 |... .. .. .... ....|... .. .. ....|... .. .. ....|... .. .. ....
12 |B-3 06 0B .... ....|... .. .. ....|... .. 04 ....|... .. .. ....
13 |... .. .. .... ....|... .. .. ....|... .. .. ....|... .. .. ....
14 |C#4 06 0A .... ....|... .. .. ....|A-2 04 0F ....|C-5 04 .. ....
15 |... .. .. .... ....|... .. .. ....|... .. .. ....|... .. .. ....
16 |E-4 06 0A .... ....|... .. .. ....|... .. 04 ....|... .. .. ....
17 |... .. .. .... ....|... .. .. ....|... .. .. ....|... .. .. ....
18 |A-3 06 09 1203 ....|D#4 07 .. 0400|A-3 04 0F ....|C-5 05 .. ....
19 |... .. .. .... ....|... .. .. ....|... .. .. ....|... .. .. ....
1A |B-3 06 09 .... ....|... .. .. ....|... .. 04 ....|... .. .. ....
1B |... .. .. .... ....|... .. .. ....|... .. .. ....|... .. .. ....
1C |C#4 06 08 .... ....|... .. .. 0462|A-3 04 0F ....|C-5 04 .. ....
1D |... .. .. .... ....|... .. .. ....|... .. .. ....|... .. .. ....
1E |E-4 06 08 .... ....|... .. .. ....|... .. 04 ....|... .. .. ....
1F |... .. .. .... ....|... .. .. ....|... .. .. ....|... .. .. ....
20 |A-3 06 07 1203 ....|E-4 07 .. 0400|A-2 00 0F ....|C-5 04 .. ....
21 |... .. .. .... ....|... .. .. ....|... .. .. ....|... .. .. ....
22 |B-3 06 07 .... ....|... .. .. ....|... .. 04 ....|... .. .. ....
23 |... .. .. .... ....|... .. .. ....|... .. .. ....|... .. .. ....
24 |C#4 06 06 .... ....|... .. .. 0462|A-2 04 0F ....|C-5 04 .. ....
25 |... .. .. .... ....|... .. .. ....|... .. .. ....|... .. .. ....
26 |E-4 06 06 .... ....|... .. .. ....|... .. 04 ....|... .. .. ....
27 |... .. .. .... ....|... .. .. ....|... .. .. ....|... .. .. ....
28 |A-3 06 05 1202 ....|... .. .. ....|A-3 04 0F ....|C-5 05 .. ....
29 |... .. .. .... ....|... .. .. ....|... .. .. ....|... .. .. ....
2A |B-3 06 05 .... ....|... .. .. ....|... .. 04 ....|... .. .. ....
2B |... .. .. .... ....|... .. .. ....|... .. .. ....|... .. .. ....
2C |C#4 06 04 .... ....|D#4 07 .. 04..|A-3 04 0F ....|C-5 04 .. ....
2D |... .. .. .... ....|... .. .. ....|... .. .. ....|... .. .. ....
2E |E-4 06 04 .... ....|... .. .. ....|... .. 04 ....|... .. .. ....
2F |... .. .. .... ....|... .. .. ....|... .. .. ....|... .. .. ....
30 |A-3 06 .. 1201 ....|... .. .. 04..|A-2 00 0F ....|C-5 04 .. ....
31 |... .. .. .... ....|... .. .. ....|... .. .. ....|... .. .. ....
32 |B-3 06 .. .... ....|... .. .. ....|... .. 04 ....|... .. .. ....
33 |... .. .. .... ....|... .. .. ....|... .. .. ....|... .. .. ....
34 |C#4 06 .. .... ....|... .. .. ....|A-2 04 0F ....|C-5 04 .. ....
35 |... .. .. .... ....|... .. .. ....|... .. .. ....|... .. .. ....
36 |E-4 06 .. .... ....|... .. .. ....|... .. 04 ....|... .. .. ....
37 |... .. .. .... ....|... .. .. ....|... .. .. ....|... .. .. ....
38 |A-3 06 .. 1200 ....|E-4 07 .. 0400|A-3 04 0F ....|C-5 05 .. ....
39 |... .. .. .... ....|F#4 07 .. 0304|... .. .. ....|... .. .. ....
3A |B-3 06 .. .... ....|... .. .. ....|... .. 04 ....|... .. .. ....
3B |... .. .. .... ....|... .. .. ....|... .. .. ....|... .. .. ....
3C |C#4 06 .. .... ....|... .. .. 0462|A-3 04 0F ....|C-5 04 .. ....
3D |... .. .. .... ....|... .. .. ....|... .. .. ....|... .. .. ....
3E |E-4 06 .. .... ....|... .. .. ....|... .. 04 ....|... .. .. ....
3F |... .. .. .... ....|... .. .. ....|... .. .. ....|... .. .. ....
40 |B-3 06 0F 1200 ....|... .. .. ....|B-2 00 0F ....|C-5 04 .. ....
41 |... .. .. .... ....|... .. .. ....|... .. .. ....|... .. .. ....
42 |C#4 06 0F .... ....|... .. .. ....|... .. 04 ....|... .. .. ....
43 |... .. .. .... ....|... .. .. ....|... .. .. ....|... .. .. ....
44 |D#4 06 0E .... ....|... .. .. ....|B-2 04 0F ....|C-5 04 .. ....
45 |... .. .. .... ....|... .. .. ....|... .. .. ....|... .. .. ....
46 |F#4 06 0E .... ....|... .. .. ....|... .. 04 ....|... .. .. ....
47 |... .. .. .... ....|... .. .. ....|... .. .. ....|... .. .. ....
48 |B-3 06 0D 1201 ....|... .. .. ....|B-3 04 0F ....|C-5 05 .. ....
49 |... .. .. .... ....|... .. .. ....|... .. .. ....|... .. .. ....
4A |C#4 06 0D .... ....|... .. .. ....|... .. 04 ....|... .. .. ....
4B |... .. .. .... ....|... .. .. ....|... .. .. ....|... .. .. ....
4C |D#4 06 0C .... ....|... .. .. ....|B-3 04 0F ....|C-5 04 .. ....
4D |... .. .. .... ....|... .. .. ....|... .. .. ....|... .. .. ....
4E |F#4 06 0C .... ....|... .. .. ....|... .. 04 ....|... .. .. ....
4F |... .. .. .... ....|... .. .. ....|... .. .. ....|... .. .. ....
50 |B-3 06 0B 1202 ....|... .. .. ....|B-2 00 0F ....|C-5 04 .. ....
51 |... .. .. .... ....|... .. .. ....|... .. .. ....|... .. .. ....
52 |C#4 06 0B .... ....|... .. .. ....|... .. 04 ....|... .. .. ....
53 |... .. .. .... ....|... .. .. ....|... .. .. ....|... .. .. ....
54 |D#4 06 0A .... ....|... .. .. ....|B-2 04 0F ....|C-5 04 .. ....
55 |... .. .. .... ....|... .. .. ....|... .. .. ....|... .. .. ....
56 |F#4 06 0A .... ....|... .. .. ....|... .. 04 ....|... .. .. ....
57 |... .. .. .... ....|... .. .. ....|... .. .. ....|... .. .. ....
58 |B-3 06 09 1203 ....|... .. .. ....|B-3 04 0F ....|C-5 05 .. ....
59 |... .. .. .... ....|... .. .. ....|... .. .. ....|... .. .. ....
5A |C#4 06 09 .... ....|... .. .. ....|... .. 04 ....|... .. .. ....
5B |... .. .. .... ....|... .. .. ....|... .. .. ....|... .. .. ....
5C |D#4 06 08 .... ....|... .. .. ....|B-3 04 0F ....|C-5 04 .. ....
5D |... .. .. .... ....|... .. .. ....|... .. .. ....|... .. .. ....
5E |F#4 06 08 .... ....|... .. .. ....|... .. 04 ....|... .. .. ....
5F |... .. .. .... ....|... .. .. ....|... .. .. ....|... .. .. ....
60 |B-3 06 07 1203 ....|... .. .. ....|B-2 00 0F ....|C-5 04 .. ....
61 |... .. .. .... ....|... .. .. ....|... .. .. ....|... .. .. ....
62 |C#4 06 07 .... ....|... .. .. ....|... .. 04 ....|... .. .. ....
63 |... .. .. .... ....|... .. .. ....|... .. .. ....|... .. .. ....
64 |D#4 06 06 .... ....|... .. .. ....|B-2 04 0F ....|C-5 04 .. ....
65 |... .. .. .... ....|... .. .. ....|... .. .. ....|... .. .. ....
66 |F#4 06 06 .... ....|... .. .. ....|... .. 04 ....|... .. .. ....
67 |... .. .. .... ....|... .. .. ....|... .. .. ....|... .. .. ....
68 |B-3 06 05 1202 ....|... .. .. ....|B-3 04 0F ....|C-5 05 .. ....
69 |... .. .. .... ....|... .. .. ....|... .. .. ....|... .. .. ....
6A |C#4 06 05 .... ....|... .. .. ....|... .. 04 ....|... .. .. ....
6B |... .. .. .... ....|... .. .. ....|... .. .. ....|... .. .. ....
6C |D#4 06 04 .... ....|... .. .. ....|B-3 04 0F ....|C-5 04 .. ....
6D |... .. .. .... ....|... .. .. ....|... .. .. ....|... .. .. ....
6E |F#4 06 04 .... ....|... .. .. ....|... .. 04 ....|... .. .. ....
6F |... .. .. .... ....|... .. .. ....|... .. .. ....|... .. .. ....
70 |B-3 06 .. 1201 ....|... .. .. ....|B-2 00 0F ....|C-5 04 .. ....
71 |... .. .. .... ....|... .. .. ....|... .. .. ....|... .. .. ....
72 |C#4 06 .. .... ....|... .. .. ....|... .. 04 ....|... .. .. ....
73 |... .. .. .... ....|... .. .. ....|... .. .. ....|... .. .. ....
74 |D#4 06 .. .... ....|... .. .. ....|B-2 04 0F ....|C-5 04 .. ....
75 |... .. .. .... ....|... .. .. ....|... .. .. ....|... .. .. ....
76 |F#4 06 .. .... ....|... .. .. ....|... .. 04 ....|... .. .. ....
77 |... .. .. .... ....|... .. .. ....|... .. .. ....|... .. .. ....
78 |B-3 06 .. 1200 ....|... .. .. ....|B-3 04 0F ....|C-5 05 .. ....
79 |... .. .. .... ....|... .. .. ....|... .. .. ....|... .. .. ....
7A |C#4 06 .. .... ....|... .. .. ....|... .. 04 ....|... .. .. ....
7B |... .. .. .... ....|... .. .. ....|... .. .. ....|... .. .. ....
7C |D#4 06 .. .... ....|... .. .. ....|B-3 04 0F ....|C-5 04 .. ....
7D |... .. .. .... ....|... .. .. ....|... .. .. ....|... .. .. ....
7E |F#4 06 .. .... ....|... .. .. ....|... .. 04 ....|... .. .. ....
7F |... .. .. .... ....|... .. .. ....|... .. .. ....|... .. .. ....
----- ORDER 04
00 |C#4 06 0F 1200 ....|G#4 07 .. 0400|C#3 00 0F ....|C-5 04 .. ....
01 |... .. .. .... ....|... .. .. ....|... .. .. ....|... .. .. ....
02 |D#4 06 0F .... ....|... .. .. ....|... .. 04 ....|... .. .. ....
03 |... .. .. .... ....|... .. .. ....|... .. .. ....|... .. .. ....
04 |E-4 06 0E .... ....|... .. .. 0462|C#3 04 0F ....|C-5 04 .. ....
05 |... .. .. .... ....|... .. .. ....|... .. .. ....|... .. .. ....
06 |G#4 06 0E .... ....|... .. .. ....|... .. 04 ....|... .. .. ....
07 |... .. .. .... ....|... .. .. ....|... .. .. ....|... .. .. ....
08 |C#4 06 0D 1201 ....|... .. .. ....|C#4 04 0F ....|C-5 05 .. ....
09 |... .. .. .... ....|... .. .. ....|... .. .. ....|... .. .. ....
0A |D#4 06 0D .... ....|... .. .. ....|... .. 04 ....|... .. .. ....
0B |... .. .. .... ....|... .. .. ....|... .. .. ....|... .. .. ....
0C |E-4 06 0C .... ....|... .. .. ....|C#4 04 0F ....|C-5 04 .. ....
0D |... .. .. .... ....|... .. .. ....|... .. .. ....|... .. .. ....
0E |G#4 06 0C .... ....|... .. .. ....|... .. 04 ....|... .. .. ....
0F |... .. .. .... ....|... .. .. ....|... .. .. ....|... .. .. ....
10 |C#4 06 0B 1202 ....|... .. .. ....|C#3 00 0F ....|C-5 04 .. ....
11 |... .. .. .... ....|... .. .. ....|... .. .. ....|... .. .. ....
12 |D#4 06 0B .... ....|... .. .. ....|... .. 04 ....|... .. .. ....
13 |... .. .. .... ....|... .. .. ....|... .. .. ....|... .. .. ....
14 |E-4 06 0A .... ....|... .. .. ....|C#3 04 0F ....|C-5 04 .. ....
15 |... .. .. .... ....|... .. .. ....|... .. .. ....|... .. .. ....
16 |G#4 06 0A .... ....|... .. .. ....|... .. 04 ....|... .. .. ....
17 |... .. .. .... ....|... .. .. ....|... .. .. ....|... .. .. ....
18 |C#4 06 09 1203 ....|E-4 07 .. 0400|C#4 04 0F ....|C-5 05 .. ....
19 |... .. .. .... ....|... .. .. ....|... .. .. ....|... .. .. ....
1A |D#4 06 09 .... ....|... .. .. ....|... .. 04 ....|... .. .. ....
1B |... .. .. .... ....|... .. .. ....|... .. .. ....|... .. .. ....
1C |E-4 06 08 .... ....|... .. .. 0462|C#4 04 0F ....|C-5 04 .. ....
1D |... .. .. .... ....|... .. .. ....|... .. .. ....|... .. .. ....
1E |G#4 06 08 .... ....|... .. .. ....|... .. 04 ....|... .. .. ....
1F |... .. .. .... ....|... .. .. ....|... .. .. ....|... .. .. ....
20 |C#4 06 07 1203 ....|F#4 07 .. 0400|C#3 00 0F ....|C-5 04 .. ....
21 |... .. .. .... ....|... .. .. ....|... .. .. ....|... .. .. ....
22 |D#4 06 07 .... ....|... .. .. ....|... .. 04 ....|... .. .. ....
23 |... .. .. .... ....|... .. .. ....|... .. .. ....|... .. .. ....
24 |E-4 06 06 .... ....|... .. .. 0462|C#3 04 0F ....|C-5 04 .. ....
25 |... .. .. .... ....|... .. .. ....|... .. .. ....|... .. .. ....
26 |G#4 06 06 .... ....|... .. .. ....|... .. 04 ....|... .. .. ....
27 |... .. .. .... ....|... .. .. ....|... .. .. ....|... .. .. ....
28 |C#4 06 05 1202 ....|... .. .. ....|C#4 04 0F ....|C-5 05 .. ....
29 |... .. .. .... ....|... .. .. ....|... .. .. ....|... .. .. ....
2A |D#4 06 05 .... ....|... .. .. ....|... .. 04 ....|... .. .. ....
2B |... .. .. .... ....|... .. .. ....|... .. .. ....|... .. .. ....
2C |E-4 06 04 .... ....|G#4 07 .. 0400|C#4 04 0F ....|C-5 04 .. ....
2D |... .. .. .... ....|... .. .. ....|... .. .. ....|... .. .. ....
2E |G#4 06 04 .... ....|... .. .. ....|... .. 04 ....|... .. .. ....
2F |... .. .. .... ....|... .. .. ....|... .. .. ....|... .. .. ....
30 |C#4 06 .. 1201 ....|... .. .. 0462|C#3 00 0F ....|C-5 04 .. ....
31 |... .. .. .... ....|... .. .. ....|... .. .. ....|... .. .. ....
32 |D#4 06 .. .... ....|... .. .. ....|... .. 04 ....|... .. .. ....
33 |... .. .. .... ....|... .. .. ....|... .. .. ....|... .. .. ....
34 |E-4 06 .. .... ....|... .. .. ....|C#3 04 0F ....|C-5 04 .. ....
35 |... .. .. .... ....|... .. .. ....|... .. .. ....|... .. .. ....
36 |G#4 06 .. .... ....|... .. .. ....|... .. 04 ....|... .. .. ....
37 |... .. .. .... ....|... .. .. ....|... .. .. ....|... .. .. ....
38 |C#4 06 .. 1200 ....|B-4 07 .. 0400|C#4 04 0F ....|C-5 05 .. ....
39 |... .. .. .... ....|C#5 07 .. 0304|... .. .. ....|... .. .. ....
3A |D#4 06 .. .... ....|... .. .. ....|... .. 04 ....|... .. .. ....
3B |... .. .. .... ....|... .. .. ....|... .. .. ....|... .. .. ....
3C |E-4 06 .. .... ....|... .. .. 0462|C#4 04 0F ....|C-5 04 .. ....
3D |... .. .. .... ....|... .. .. ....|... .. .. ....|... .. .. ....
3E |G#4 06 .. .... ....|... .. .. ....|... .. 04 ....|... .. .. ....
3F |... .. .. .... ....|... .. .. ....|... .. .. ....|... .. .. ....
40 |B-3 06 0F 1200 ....|... .. .. ....|B-2 00 0F ....|C-5 04 .. ....
41 |... .. .. .... ....|... .. .. ....|... .. .. ....|... .. .. ....
42 |C#4 06 0F .... ....|... .. .. ....|... .. 04 ....|... .. .. ....
43 |... .. .. .... ....|... .. .. ....|... .. .. ....|... .. .. ....
44 |D#4 06 0E .... ....|... .. .. ....|B-2 04 0F ....|C-5 04 .. ....
45 |... .. .. .... ....|... .. .. ....|... .. .. ....|... .. .. ....
46 |F#4 06 0E .... ....|... .. .. ....|... .. 04 ....|... .. .. ....
47 |... .. .. .... ....|... .. .. ....|... .. .. ....|... .. .. ....
48 |B-3 06 0D 1201 ....|B-4 07 .. 0400|B-3 04 0F ....|C-5 05 .. ....
49 |... .. .. .... ....|... .. .. ....|... .. .. ....|... .. .. ....
4A |C#4 06 0D .... ....|... .. .. ....|... .. 04 ....|... .. .. ....
4B |... .. .. .... ....|... .. .. ....|... .. .. ....|... .. .. ....
4C |D#4 06 0C .... ....|... .. .. 0462|B-3 04 0F ....|C-5 04 .. ....
4D |... .. .. .... ....|... .. .. ....|... .. .. ....|... .. .. ....
4E |F#4 06 0C .... ....|... .. .. ....|... .. 04 ....|... .. .. ....
4F |... .. .. .... ....|... .. .. ....|... .. .. ....|... .. .. ....
50 |B-3 06 0B 1202 ....|... .. .. ....|B-2 00 0F ....|C-5 04 .. ....
51 |... .. .. .... ....|... .. .. ....|... .. .. ....|... .. .. ....
52 |C#4 06 0B .... ....|... .. .. ....|... .. 04 ....|... .. .. ....
53 |... .. .. .... ....|... .. .. ....|... .. .. ....|... .. .. ....
54 |D#4 06 0A .... ....|... .. .. ....|B-2 04 0F ....|C-5 04 .. ....
55 |... .. .. .... ....|... .. .. ....|... .. .. ....|... .. .. ....
56 |F#4 06 0A .... ....|... .. .. ....|... .. 04 ....|... .. .. ....
57 |... .. .. .... ....|... .. .. ....|... .. .. ....|... .. .. ....
58 |B-3 06 09 1203 ....|... .. .. ....|B-3 04 0F ....|C-5 05 .. ....
59 |... .. .. .... ....|... .. .. ....|... .. .. ....|... .. .. ....
5A |C#4 06 09 .... ....|... .. .. ....|... .. 04 ....|... .. .. ....
5B |... .. .. .... ....|... .. .. ....|... .. .. ....|... .. .. ....
5C |D#4 06 08 .... ....|... .. .. ....|B-3 04 0F ....|C-5 04 .. ....
5D |... .. .. .... ....|... .. .. ....|... .. .. ....|... .. .. ....
5E |F#4 06 08 .... ....|... .. .. ....|... .. 04 ....|... .. .. ....
5F |... .. .. .... ....|... .. .. ....|... .. .. ....|... .. .. ....
60 |B-3 06 07 1203 ....|... .. .. ....|B-2 00 0F ....|C-5 04 .. ....
61 |... .. .. .... ....|... .. .. ....|... .. .. ....|... .. .. ....
62 |C#4 06 07 .... ....|... .. .. ....|... .. 04 ....|... .. .. ....
63 |... .. .. .... ....|... .. .. ....|... .. .. ....|... .. .. ....
64 |D#4 06 06 .... ....|... .. .. ....|B-2 04 0F ....|C-5 04 .. ....
65 |... .. .. .... ....|... .. .. ....|... .. .. ....|... .. .. ....
66 |F#4 06 06 .... ....|... .. .. ....|... .. 04 ....|... .. .. ....
67 |... .. .. .... ....|... .. .. ....|... .. .. ....|... .. .. ....
68 |B-3 06 05 1202 ....|... .. .. ....|B-3 04 0F ....|C-5 05 .. ....
69 |... .. .. .... ....|... .. .. ....|... .. .. ....|... .. .. ....
6A |C#4 06 05 .... ....|... .. .. ....|... .. 04 ....|... .. .. ....
6B |... .. .. .... ....|... .. .. ....|... .. .. ....|... .. .. ....
6C |D#4 06 04 .... ....|... .. .. ....|B-3 04 0F ....|C-5 04 .. ....
6D |... .. .. .... ....|... .. .. ....|... .. .. ....|... .. .. ....
6E |F#4 06 04 .... ....|... .. .. ....|... .. 04 ....|... .. .. ....
6F |... .. .. .... ....|... .. .. ....|... .. .. ....|... .. .. ....
70 |B-3 06 .. 1201 ....|F#4 07 .. 0400|B-2 00 0F ....|C-5 04 .. ....
71 |... .. .. .... ....|... .. .. ....|... .. .. ....|... .. .. ....
72 |C#4 06 .. .... ....|... .. .. ....|... .. 04 ....|... .. .. ....
73 |... .. .. .... ....|... .. .. ....|... .. .. ....|... .. .. ....
74 |D#4 06 .. .... ....|E-4 07 .. ....|B-2 04 0F ....|C-5 04 .. ....
75 |... .. .. .... ....|... .. .. ....|... .. .. ....|... .. .. ....
76 |F#4 06 .. .... ....|... .. .. ....|... .. 04 ....|... .. .. ....
77 |... .. .. .... ....|... .. .. ....|... .. .. ....|... .. .. ....
78 |B-3 06 .. 1200 ....|C#4 07 .. ....|B-3 04 0F ....|C-5 05 .. ....
79 |... .. .. .... ....|... .. .. ....|... .. .. ....|... .. .. ....
7A |C#4 06 .. .... ....|... .. .. ....|... .. 04 ....|... .. .. ....
7B |... .. .. .... ....|... .. .. ....|... .. .. ....|... .. .. ....
7C |D#4 06 .. .... ....|D#4 07 .. ....|B-3 04 0F ....|C-5 04 .. ....
7D |... .. .. .... ....|... .. .. ....|... .. .. ....|... .. .. ....
7E |F#4 06 .. .... ....|... .. .. ....|... .. 04 ....|... .. .. ....
7F |... .. .. .... ....|... .. .. ....|... .. .. ....|... .. .. ....
----- ORDER 05
00 |A-3 06 0F 1200 ....|C#4 07 .. 0400|A-2 00 0F ....|C-5 04 .. ....
01 |... .. .. .... ....|... .. .. ....|... .. .. ....|... .. .. ....
02 |B-3 06 0F .... ....|... .. .. ....|... .. 04 ....|... .. .. ....
03 |... .. .. .... ....|... .. .. ....|... .. .. ....|... .. .. ....
04 |C#4 06 0E .... ....|... .. .. 0462|A-2 04 0F ....|C-5 04 .. ....
05 |... .. .. .... ....|... .. .. ....|... .. .. ....|... .. .. ....
06 |E-4 06 0E .... ....|... .. .. ....|... .. 04 ....|... .. .. ....
07 |... .. .. .... ....|... .. .. ....|... .. .. ....|... .. .. ....
08 |A-3 06 0D 1201 ....|... .. .. ....|A-3 04 0F ....|C-5 05 .. ....
09 |... .. .. .... ....|... .. .. ....|... .. .. ....|... .. .. ....
0A |B-3 06 0D .... ....|... .. .. ....|... .. 04 ....|... .. .. ....
0B |... .. .. .... ....|... .. .. ....|... .. .. ....|... .. .. ....
0C |C#4 06 0C .... ....|... .. .. ....|A-3 04 0F ....|C-5 04 .. ....
0D |... .. .. .... ....|... .. .. ....|... .. .. ....|... .. .. ....
0E |E-4 06 0C .... ....|... .. .. ....|... .. 04 ....|... .. .. ....
0F |... .. .. .... ....|... .. .. ....|... .. .. ....|... .. .. ....
10 |A-3 06 0B 1202 ....|... .. .. ....|A-2 00 0F ....|C-5 04 .. ....
11 |... .. .. .... ....|... .. .. ....|... .. .. ....|... .. .. ....
12 |B-3 06 0B .... ....|... .. .. ....|... .. 04 ....|... .. .. ....
13 |... .. .. .... ....|... .. .. ....|... .. .. ....|... .. .. ....
14 |C#4 06 0A .... ....|... .. .. ....|A-2 04 0F ....|C-5 04 .. ....
15 |... .. .. .... ....|... .. .. ....|... .. .. ....|... .. .. ....
16 |E-4 06 0A .... ....|... .. .. ....|... .. 04 ....|... .. .. ....
17 |... .. .. .... ....|... .. .. ....|... .. .. ....|... .. .. ....
18 |A-3 06 09 1203 ....|D#4 07 .. 0400|A-3 04 0F ....|C-5 05 .. ....
19 |... .. .. .... ....|... .. .. ....|... .. .. ....|... .. .. ....
1A |B-3 06 09 .... ....|... .. .. ....|... .. 04 ....|... .. .. ....
1B |... .. .. .... ....|... .. .. ....|... .. .. ....|... .. .. ....
1C |C#4 06 08 .... ....|... .. .. 0462|A-3 04 0F ....|C-5 04 .. ....
1D |... .. .. .... ....|... .. .. ....|... .. .. ....|... .. .. ....
1E |E-4 06 08 .... ....|... .. .. ....|... .. 04 ....|... .. .. ....
1F |... .. .. .... ....|... .. .. ....|... .. .. ....|... .. .. ....
20 |A-3 06 07 1203 ....|E-4 07 .. 0400|A-2 00 0F ....|C-5 04 .. ....
21 |... .. .. .... ....|... .. .. ....|... .. .. ....|... .. .. ....
22 |B-3 06 07 .... ....|... .. .. ....|... .. 04 ....|... .. .. ....
23 |... .. .. .... ....|... .. .. ....|... .. .. ....|... .. .. ....
24 |C#4 06 06 .... ....|... .. .. 0462|A-2 04 0F ....|C-5 04 .. ....
25 |... .. .. .... ....|... .. .. ....|... .. .. ....|... .. .. ....
26 |E-4 06 06 .... ....|... .. .. ....|... .. 04 ....|... .. .. ....
27 |... .. .. .... ....|... .. .. ....|... .. .. ....|... .. .. ....
28 |A-3 06 05 1202 ....|... .. .. ....|A-3 04 0F ....|C-5 05 .. ....
29 |... .. .. .... ....|... .. .. ....|... .. .. ....|... .. .. ....
2A |B-3 06 05 .... ....|... .. .. ....|... .. 04 ....|... .. .. ....
2B |... .. .. .... ....|... .. .. ....|... .. .. ....|... .. .. ....
2C |C#4 06 04 .... ....|D#4 07 .. 04..|A-3 04 0F ....|C-5 04 .. ....
2D |... .. .. .... ....|... .. .. ....|... .. .. ....|... .. .. ....
2E |E-4 06 04 .... ....|... .. .. ....|... .. 04 ....|... .. .. ....
2F |... .. .. .... ....|... .. .. ....|... .. .. ....|... .. .. ....
30 |A-3 06 .. 1201 ....|... .. .. 04..|A-2 00 0F ....|C-5 04 .. ....
31 |... .. .. .... ....|... .. .. ....|... .. .. ....|... .. .. ....
32 |B-3 06 .. .... ....|... .. .. ....|... .. 04 ....|... .. .. ....
33 |... .. .. .... ....|... .. .. ....|... .. .. ....|... .. .. ....
34 |C#4 06 .. .... ....|... .. .. ....|A-2 04 0F ....|C-5 04 .. ....
35 |... .. .. .... ....|... .. .. ....|... .. .. ....|... .. .. ....
36 |E-4 06 .. .... ....|... .. .. ....|... .. 04 ....|... .. .. ....
37 |... .. .. .... ....|... .. .. ....|... .. .. ....|... .. .. ....
38 |A-3 06 .. 1200 ....|E-4 07 .. 0400|A-3 04 0F ....|C-5 05 .. ....
39 |... .. .. .... ....|F#4 07 .. 0304|... .. .. ....|... .. .. ....
3A |B-3 06 .. .... ....|... .. .. ....|... .. 04 ....|... .. .. ....
3B |... .. .. .... ....|... .. .. ....|... .. .. ....|... .. .. ....
3C |C#4 06 .. .... ....|... .. .. 0462|A-3 04 0F ....|C-5 04 .. ....
3D |... .. .. .... ....|... .. .. ....|... .. .. ....|... .. .. ....
3E |E-4 06 .. .... ....|... .. .. ....|... .. 04 ....|... .. .. ....
3F |... .. .. .... ....|... .. .. ....|... .. .. ....|... .. .. ....
40 |B-3 06 0F 1200 ....|... .. .. ....|B-2 00 0F ....|C-5 04 .. ....
41 |... .. .. .... ....|... .. .. ....|... .. .. ....|... .. .. ....
42 |C#4 06 0F .... ....|... .. .. ....|... .. 04 ....|... .. .. ....
43 |... .. .. .... ....|... .. .. ....|... .. .. ....|... .. .. ....
44 |D#4 06 0E .... ....|... .. .. ....|B-2 04 0F ....|C-5 04 .. ....
45 |... .. .. .... ....|... .. .. ....|... .. .. ....|... .. .. ....
46 |F#4 06 0E .... ....|... .. .. ....|... .. 04 ....|... .. .. ....
47 |... .. .. .... ....|... .. .. ....|... .. .. ....|... .. .. ....
48 |B-3 06 0D 1201 ....|... .. .. ....|B-3 04 0F ....|C-5 05 .. ....
49 |... .. .. .... ....|... .. .. ....|... .. .. ....|... .. .. ....
4A |C#4 06 0D .... ....|... .. .. ....|... .. 04 ....|... .. .. ....
4B |... .. .. .... ....|... .. .. ....|... .. .. ....|... .. .. ....
4C |D#4 06 0C .... ....|... .. .. ....|B-3 04 0F ....|C-5 04 .. ....
4D |... .. .. .... ....|... .. .. ....|... .. .. ....|... .. .. ....
4E |F#4 06 0C .... ....|... .. .. ....|... .. 04 ....|... .. .. ....
4F |... .. .. .... ....|... .. .. ....|... .. .. ....|... .. .. ....
50 |B-3 06 0B 1202 ....|... .. .. ....|B-2 00 0F ....|C-5 04 .. ....
51 |... .. .. .... ....|... .. .. ....|... .. .. ....|... .. .. ....
52 |C#4 06 0B .... ....|... .. .. ....|... .. 04 ....|... .. .. ....
53 |... .. .. .... ....|... .. .. ....|... .. .. ....|... .. .. ....
54 |D#4 06 0A .... ....|... .. .. ....|B-2 04 0F ....|C-5 04 .. ....
55 |... .. .. .... ....|... .. .. ....|... .. .. ....|... .. .. ....
56 |F#4 06 0A .... ....|... .. .. ....|... .. 04 ....|... .. .. ....
57 |... .. .. .... ....|... .. .. ....|... .. .. ....|... .. .. ....
58 |B-3 06 09 1203 ....|... .. .. ....|B-3 04 0F ....|C-5 05 .. ....
59 |... .. .. .... ....|... .. .. ....|... .. .. ....|... .. .. ....
5A |C#4 06 09 .... ....|... .. .. ....|... .. 04 ....|... .. .. ....
5B |... .. .. .... ....|... .. .. ....|... .. .. ....|... .. .. ....
5C |D#4 06 08 .... ....|... .. .. ....|B-3 04 0F ....|C-5 04 .. ....
5D |... .. .. .... ....|... .. .. ....|... .. .. ....|... .. .. ....
5E |F#4 06 08 .... ....|... .. .. ....|... .. 04 ....|... .. .. ....
5F |... .. .. .... ....|... .. .. ....|... .. .. ....|... .. .. ....
60 |B-3 06 07 1203 ....|... .. .. ....|B-2 00 0F ....|C-5 04 .. ....
61 |... .. .. .... ....|... .. .. ....|... .. .. ....|... .. .. ....
62 |C#4 06 07 .... ....|... .. .. ....|... .. 04 ....|... .. .. ....
63 |... .. .. .... ....|... .. .. ....|... .. .. ....|... .. .. ....
64 |D#4 06 06 .... ....|... .. .. ....|B-2 04 0F ....|C-5 04 .. ....
65 |... .. .. .... ....|... .. .. ....|... .. .. ....|... .. .. ....
66 |F#4 06 06 .... ....|... .. .. ....|... .. 04 ....|... .. .. ....
67 |... .. .. .... ....|... .. .. ....|... .. .. ....|... .. .. ....
68 |B-3 06 05 1202 ....|... .. .. ....|B-3 04 0F ....|C-5 05 .. ....
69 |... .. .. .... ....|... .. .. ....|... .. .. ....|... .. .. ....
6A |C#4 06 05 .... ....|... .. .. ....|... .. 04 ....|... .. .. ....
6B |... .. .. .... ....|... .. .. ....|... .. .. ....|... .. .. ....
6C |D#4 06 04 .... ....|... .. .. ....|B-3 04 0F ....|C-5 04 .. ....
6D |... .. .. .... ....|... .. .. ....|... .. .. ....|... .. .. ....
6E |F#4 06 04 .... ....|... .. .. ....|... .. 04 ....|... .. .. ....
6F |... .. .. .... ....|... .. .. ....|... .. .. ....|... .. .. ....
70 |B-3 06 .. 1201 ....|E-4 07 0F 0400|B-2 02 0F ....|C-4 03 .. ....
71 |... .. .. .... ....|... .. .. ....|... .. .. ....|... .. .. ....
72 |C#4 06 .. .... ....|... .. .. ....|... .. 04 ....|... .. .. ....
73 |... .. .. .... ....|... .. .. ....|... .. .. ....|... .. .. ....
74 |D#4 06 .. .... ....|D#4 07 .. ....|B-2 02 0F ....|C-4 03 .. ....
75 |... .. .. .... ....|... .. .. ....|... .. .. ....|... .. .. ....
76 |F#4 06 .. .... ....|... .. .. ....|... .. 04 ....|... .. .. ....
77 |... .. .. .... ....|... .. .. ....|... .. .. ....|... .. .. ....
78 |B-3 06 .. 1200 ....|C#4 07 .. ....|B-3 02 0F ....|C-4 03 .. ....
79 |... .. .. .... ....|... .. .. ....|... .. .. ....|... .. .. ....
7A |C#4 06 .. .... ....|... .. .. ....|... .. 04 ....|... .. .. ....
7B |... .. .. .... ....|... .. .. ....|... .. .. ....|... .. .. ....
7C |D#4 06 .. .... ....|D#4 07 .. ....|B-3 02 0F ....|C-4 03 .. ....
7D |... .. .. .... ....|... .. .. ....|... .. .. ....|... .. .. ....
7E |F#4 06 .. .... ....|... .. .. ....|... .. 04 ....|... .. .. ....
7F |... .. .. .... ....|... .. .. ....|... .. .. ....|... .. .. ....
----- ORDER 06
00 |C#4 06 0F 1200 ....|G-4 08 .. 0104|C#3 00 0F ....|C-5 04 .. ....
01 |... .. .. .... ....|G#4 08 .. 0304|... .. .. ....|... .. .. ....
02 |D#4 06 0F .... ....|... .. .. ....|... .. 04 ....|... .. .. ....
03 |... .. .. .... ....|... .. .. ....|... .. .. ....|... .. .. ....
04 |E-4 06 0E .... ....|... .. .. 0463|C#3 04 0F ....|C-5 04 .. ....
05 |... .. .. .... ....|... .. .. ....|... .. .. ....|... .. .. ....
06 |G#4 06 0E .... ....|... .. .. ....|... .. 04 ....|... .. .. ....
07 |... .. .. .... ....|... .. .. ....|... .. .. ....|... .. .. ....
08 |C#4 06 0D 1201 ....|... .. .. ....|C#4 04 0F ....|C-5 05 .. ....
09 |... .. .. .... ....|... .. .. ....|... .. .. ....|... .. .. ....
0A |D#4 06 0D .... ....|... .. .. ....|... .. 04 ....|... .. .. ....
0B |... .. .. .... ....|... .. .. ....|... .. .. ....|... .. .. ....
0C |E-4 06 0C .... ....|... .. .. ....|C#4 04 0F ....|C-5 04 .. ....
0D |... .. .. .... ....|... .. .. ....|... .. .. ....|... .. .. ....
0E |G#4 06 0C .... ....|... .. .. ....|... .. 04 ....|... .. .. ....
0F |... .. .. .... ....|... .. .. ....|... .. .. ....|... .. .. ....
10 |C#4 06 0B 1202 ....|... .. .. ....|C#3 02 0F ....|C-4 03 .. ....
11 |... .. .. .... ....|... .. .. ....|... .. .. ....|... .. .. ....
12 |D#4 06 0B .... ....|... .. .. ....|... .. 04 ....|... .. .. ....
13 |... .. .. .... ....|... .. .. ....|... .. .. ....|... .. .. ....
14 |E-4 06 0A .... ....|... .. .. ....|C#3 04 0F ....|C-5 04 .. ....
15 |... .. .. .... ....|... .. .. ....|... .. .. ....|... .. .. ....
16 |G#4 06 0A .... ....|... .. .. ....|... .. 04 ....|... .. .. ....
17 |... .. .. .... ....|... .. .. ....|... .. .. ....|... .. .. ....
18 |C#4 06 09 1203 ....|F#4 08 .. 0400|C#4 04 0F ....|C-5 05 .. ....
19 |... .. .. .... ....|... .. .. ....|... .. .. ....|... .. .. ....
1A |D#4 06 09 .... ....|... .. .. ....|... .. 04 ....|... .. .. ....
1B |... .. .. .... ....|... .. .. ....|... .. .. ....|... .. .. ....
1C |E-4 06 08 .... ....|G#4 08 .. 0400|C#4 04 0F ....|C-5 04 .. ....
1D |... .. .. .... ....|... .. .. ....|... .. .. ....|... .. .. ....
1E |G#4 06 08 .... ....|... .. .. ....|... .. 04 ....|... .. .. ....
1F |... .. .. .... ....|... .. .. ....|... .. .. ....|... .. .. ....
20 |C#4 06 07 1203 ....|... .. .. 0463|C#3 00 0F ....|C-5 04 .. ....
21 |... .. .. .... ....|... .. .. ....|... .. .. ....|... .. .. ....
22 |D#4 06 07 .... ....|... .. .. ....|... .. 04 ....|... .. .. ....
23 |... .. .. .... ....|... .. .. ....|... .. .. ....|... .. .. ....
24 |E-4 06 06 .... ....|F#4 08 .. 0400|C#3 04 0F ....|C-5 04 .. ....
25 |... .. .. .... ....|... .. .. ....|... .. .. ....|... .. .. ....
26 |G#4 06 06 .... ....|... .. .. ....|... .. 04 ....|... .. .. ....
27 |... .. .. .... ....|... .. .. ....|... .. .. ....|... .. .. ....
28 |C#4 06 05 1202 ....|E-4 08 .. 0400|C#4 04 0F ....|C-5 05 .. ....
29 |... .. .. .... ....|... .. .. ....|... .. .. ....|... .. .. ....
2A |D#4 06 05 .... ....|... .. .. ....|... .. 04 ....|... .. .. ....
2B |... .. .. .... ....|... .. .. ....|... .. .. ....|... .. .. ....
2C |E-4 06 04 .... ....|... .. .. 0463|C#4 04 0F ....|C-5 04 .. ....
2D |... .. .. .... ....|... .. .. ....|... .. .. ....|... .. .. ....
2E |G#4 06 04 .... ....|... .. .. ....|... .. 04 ....|... .. .. ....
2F |... .. .. .... ....|... .. .. ....|... .. .. ....|... .. .. ....
30 |C#4 06 .. 1201 ....|F#4 08 .. 0400|C#3 02 0F ....|C-4 03 .. ....
31 |... .. .. .... ....|... .. .. ....|... .. .. ....|... .. .. ....
32 |D#4 06 .. .... ....|... .. .. ....|... .. 04 ....|... .. .. ....
33 |... .. .. .... ....|... .. .. ....|... .. .. ....|... .. .. ....
34 |E-4 06 .. .... ....|... .. .. 0463|C#3 04 0F ....|C-5 04 .. ....
35 |... .. .. .... ....|... .. .. ....|... .. .. ....|... .. .. ....
36 |G#4 06 .. .... ....|... .. .. ....|... .. 04 ....|... .. .. ....
37 |... .. .. .... ....|... .. .. ....|... .. .. ....|... .. .. ....
38 |C#4 06 .. 1200 ....|E-4 08 .. 0400|C#4 04 0F ....|C-5 05 .. ....
39 |... .. .. .... ....|... .. .. ....|... .. .. ....|... .. .. ....
3A |D#4 06 .. .... ....|... .. .. ....|... .. 04 ....|... .. .. ....
3B |... .. .. .... ....|... .. .. ....|... .. .. ....|... .. .. ....
3C |E-4 06 .. .... ....|D#4 08 .. 0400|C#4 04 0F ....|C-5 04 .. ....
3D |... .. .. .... ....|... .. .. ....|... .. .. ....|... .. .. ....
3E |G#4 06 .. .... ....|... .. .. ....|... .. 04 ....|... .. .. ....
3F |... .. .. .... ....|... .. .. ....|... .. .. ....|... .. .. ....
40 |B-3 06 0F 1200 ....|... .. .. 0463|B-2 00 0F ....|C-5 04 .. ....
41 |... .. .. .... ....|... .. .. ....|... .. .. ....|... .. .. ....
42 |C#4 06 0F .... ....|... .. .. ....|... .. 04 ....|... .. .. ....
43 |... .. .. .... ....|... .. .. ....|... .. .. ....|... .. .. ....
44 |D#4 06 0E .... ....|... .. .. ....|B-2 04 0F ....|C-5 04 .. ....
45 |... .. .. .... ....|... .. .. ....|... .. .. ....|... .. .. ....
46 |F#4 06 0E .... ....|... .. .. ....|... .. 04 ....|... .. .. ....
47 |... .. .. .... ....|... .. .. ....|... .. .. ....|... .. .. ....
48 |B-3 06 0D 1201 ....|... .. .. ....|B-3 04 0F ....|C-5 05 .. ....
49 |... .. .. .... ....|... .. .. ....|... .. .. ....|... .. .. ....
4A |C#4 06 0D .... ....|... .. .. ....|... .. 04 ....|... .. .. ....
4B |... .. .. .... ....|... .. .. ....|... .. .. ....|... .. .. ....
4C |D#4 06 0C .... ....|... .. .. ....|B-3 04 0F ....|C-5 04 .. ....
4D |... .. .. .... ....|... .. .. ....|... .. .. ....|... .. .. ....
4E |F#4 06 0C .... ....|... .. .. ....|... .. 04 ....|... .. .. ....
4F |... .. .. .... ....|... .. .. ....|... .. .. ....|... .. .. ....
50 |B-3 06 0B 1202 ....|... .. .. ....|B-2 02 0F ....|C-4 03 .. ....
51 |... .. .. .... ....|... .. .. ....|... .. .. ....|... .. .. ....
52 |C#4 06 0B .... ....|... .. .. ....|... .. 04 ....|... .. .. ....
53 |... .. .. .... ....|... .. .. ....|... .. .. ....|... .. .. ....
54 |D#4 06 0A .... ....|... .. .. ....|B-2 04 0F ....|C-5 04 .. ....
55 |... .. .. .... ....|... .. .. ....|... .. .. ....|... .. .. ....
56 |F#4 06 0A .... ....|... .. .. ....|... .. 04 ....|... .. .. ....
57 |... .. .. .... ....|... .. .. ....|... .. .. ....|... .. .. ....
58 |B-3 06 09 1203 ....|... .. .. ....|B-3 04 0F ....|C-5 05 .. ....
59 |... .. .. .... ....|... .. .. ....|... .. .. ....|... .. .. ....
5A |C#4 06 09 .... ....|... .. .. ....|... .. 04 ....|... .. .. ....
5B |... .. .. .... ....|... .. .. ....|... .. .. ....|... .. .. ....
5C |D#4 06 08 .... ....|... .. .. ....|B-3 04 0F ....|C-5 04 .. ....
5D |... .. .. .... ....|... .. .. ....|... .. .. ....|... .. .. ....
5E |F#4 06 08 .... ....|... .. .. ....|... .. 04 ....|... .. .. ....
5F |... .. .. .... ....|... .. .. ....|... .. .. ....|... .. .. ....
60 |B-3 06 07 1203 ....|... .. .. ....|B-2 00 0F ....|C-5 04 .. ....
61 |... .. .. .... ....|... .. .. ....|... .. .. ....|... .. .. ....
62 |C#4 06 07 .... ....|... .. .. ....|... .. 04 ....|... .. .. ....
63 |... .. .. .... ....|... .. .. ....|... .. .. ....|... .. .. ....
64 |D#4 06 06 .... ....|... .. .. ....|B-2 04 0F ....|C-5 04 .. ....
65 |... .. .. .... ....|... .. .. ....|... .. .. ....|... .. .. ....
66 |F#4 06 06 .... ....|... .. .. ....|... .. 04 ....|... .. .. ....
67 |... .. .. .... ....|... .. .. ....|... .. .. ....|... .. .. ....
68 |B-3 06 05 1202 ....|... .. .. ....|B-3 04 0F ....|C-5 05 .. ....
69 |... .. .. .... ....|... .. .. ....|... .. .. ....|... .. .. ....
6A |C#4 06 05 .... ....|... .. .. ....|... .. 04 ....|... .. .. ....
6B |... .. .. .... ....|... .. .. ....|... .. .. ....|... .. .. ....
6C |D#4 06 04 .... ....|... .. .. ....|B-3 04 0F ....|C-5 04 .. ....
6D |... .. .. .... ....|... .. .. ....|... .. .. ....|... .. .. ....
6E |F#4 06 04 .... ....|... .. .. ....|... .. 04 ....|... .. .. ....
6F |... .. .. .... ....|... .. .. ....|... .. .. ....|... .. .. ....
70 |B-3 06 .. 1201 ....|B-3 08 .. ....|B-2 02 0F ....|C-4 03 .. ....
71 |... .. .. .... ....|... .. .. ....|... .. .. ....|... .. .. ....
72 |C#4 06 .. .... ....|... .. .. ....|... .. 04 ....|... .. .. ....
73 |... .. .. .... ....|... .. .. ....|... .. .. ....|... .. .. ....
74 |D#4 06 .. .... ....|... .. .. ....|B-2 04 0F ....|C-5 04 .. ....
75 |... .. .. .... ....|... .. .. ....|... .. .. ....|... .. .. ....
76 |F#4 06 .. .... ....|... .. .. ....|... .. 04 ....|... .. .. ....
77 |... .. .. .... ....|... .. .. ....|... .. .. ....|... .. .. ....
78 |B-3 06 .. 1200 ....|... .. .. ....|B-3 04 0F ....|C-5 05 .. ....
79 |... .. .. .... ....|... .. .. ....|... .. .. ....|... .. .. ....
7A |C#4 06 .. .... ....|... .. .. ....|... .. 04 ....|... .. .. ....
7B |... .. .. .... ....|... .. .. ....|... .. .. ....|... .. .. ....
7C |D#4 06 .. .... ....|... .. .. ....|B-3 04 0F ....|C-5 04 .. ....
7D |... .. .. .... ....|... .. .. ....|... .. .. ....|... .. .. ....
7E |F#4 06 .. .... ....|... .. .. ....|... .. 04 ....|... .. .. ....
7F |... .. .. .... ....|... .. .. ....|... .. .. ....|... .. .. ....
----- ORDER 07
00 |A-3 06 0F 1200 ....|C-4 08 .. 0104|A-2 00 0F ....|C-5 04 .. ....
01 |... .. .. .... ....|C#4 08 .. 0304|... .. .. ....|... .. .. ....
02 |B-3 06 0F .... ....|... .. .. ....|... .. 04 ....|... .. .. ....
03 |... .. .. .... ....|... .. .. ....|... .. .. ....|... .. .. ....
04 |C#4 06 0E .... ....|... .. .. 0463|A-2 04 0F ....|C-5 04 .. ....
05 |... .. .. .... ....|... .. .. ....|... .. .. ....|... .. .. ....
06 |E-4 06 0E .... ....|... .. .. ....|... .. 04 ....|... .. .. ....
07 |... .. .. .... ....|... .. .. ....|... .. .. ....|... .. .. ....
08 |A-3 06 0D 1201 ....|... .. .. ....|A-3 04 0F ....|C-5 05 .. ....
09 |... .. .. .... ....|... .. .. ....|... .. .. ....|... .. .. ....
0A |B-3 06 0D .... ....|... .. .. ....|... .. 04 ....|... .. .. ....
0B |... .. .. .... ....|... .. .. ....|... .. .. ....|... .. .. ....
0C |C#4 06 0C .... ....|... .. .. ....|A-3 04 0F ....|C-5 04 .. ....
0D |... .. .. .... ....|... .. .. ....|... .. .. ....|... .. .. ....
0E |E-4 06 0C .... ....|... .. .. ....|... .. 04 ....|... .. .. ....
0F |... .. .. .... ....|... .. .. ....|... .. .. ....|... .. .. ....
10 |A-3 06 0B 1202 ....|... .. .. ....|A-2 02 0F ....|C-4 03 .. ....
11 |... .. .. .... ....|... .. .. ....|... .. .. ....|... .. .. ....
12 |B-3 06 0B .... ....|... .. .. ....|... .. 04 ....|... .. .. ....
13 |... .. .. .... ....|... .. .. ....|... .. .. ....|... .. .. ....
14 |C#4 06 0A .... ....|... .. .. ....|A-2 04 0F ....|C-5 04 .. ....
15 |... .. .. .... ....|... .. .. ....|... .. .. ....|... .. .. ....
16 |E-4 06 0A .... ....|... .. .. ....|... .. 04 ....|... .. .. ....
17 |... .. .. .... ....|... .. .. ....|... .. .. ....|... .. .. ....
18 |A-3 06 09 1203 ....|C#4 08 .. 0400|A-3 04 0F ....|C-5 05 .. ....
19 |... .. .. .... ....|... .. .. ....|... .. .. ....|... .. .. ....
1A |B-3 06 09 .... ....|... .. .. ....|... .. 04 ....|... .. .. ....
1B |... .. .. .... ....|... .. .. ....|... .. .. ....|... .. .. ....
1C |C#4 06 08 .... ....|D#4 08 .. 0400|A-3 04 0F ....|C-5 04 .. ....
1D |... .. .. .... ....|... .. .. ....|... .. .. ....|... .. .. ....
1E |E-4 06 08 .... ....|... .. .. ....|... .. 04 ....|... .. .. ....
1F |... .. .. .... ....|... .. .. ....|... .. .. ....|... .. .. ....
20 |A-3 06 07 1203 ....|... .. .. 0463|A-2 00 0F ....|C-5 04 .. ....
21 |... .. .. .... ....|... .. .. ....|... .. .. ....|... .. .. ....
22 |B-3 06 07 .... ....|... .. .. ....|... .. 04 ....|... .. .. ....
23 |... .. .. .... ....|... .. .. ....|... .. .. ....|... .. .. ....
24 |C#4 06 06 .... ....|D#4 08 .. 0400|A-2 04 0F ....|C-5 04 .. ....
25 |... .. .. .... ....|... .. .. ....|... .. .. ....|... .. .. ....
26 |E-4 06 06 .... ....|... .. .. ....|... .. 04 ....|... .. .. ....
27 |... .. .. .... ....|... .. .. ....|... .. .. ....|... .. .. ....
28 |A-3 06 05 1202 ....|E-4 08 .. 0400|A-3 04 0F ....|C-5 05 .. ....
29 |... .. .. .... ....|... .. .. ....|... .. .. ....|... .. .. ....
2A |B-3 06 05 .... ....|... .. .. ....|... .. 04 ....|... .. .. ....
2B |... .. .. .... ....|... .. .. ....|... .. .. ....|... .. .. ....
2C |C#4 06 04 .... ....|... .. .. 0463|A-3 04 0F ....|C-5 04 .. ....
2D |... .. .. .... ....|... .. .. ....|... .. .. ....|... .. .. ....
2E |E-4 06 04 .... ....|... .. .. ....|... .. 04 ....|... .. .. ....
2F |... .. .. .... ....|... .. .. ....|... .. .. ....|... .. .. ....
30 |A-3 06 .. 1201 ....|F#4 08 .. 0400|A-2 02 0F ....|C-4 03 .. ....
31 |... .. .. .... ....|... .. .. ....|... .. .. ....|... .. .. ....
32 |B-3 06 .. .... ....|... .. .. ....|... .. 04 ....|... .. .. ....
33 |... .. .. .... ....|... .. .. ....|... .. .. ....|... .. .. ....
34 |C#4 06 .. .... ....|... .. .. 0463|A-2 04 0F ....|C-5 04 .. ....
35 |... .. .. .... ....|... .. .. ....|... .. .. ....|... .. .. ....
36 |E-4 06 .. .... ....|... .. .. ....|... .. 04 ....|... .. .. ....
37 |... .. .. .... ....|... .. .. ....|... .. .. ....|... .. .. ....
38 |A-3 06 .. 1200 ....|E-4 08 .. 0400|A-3 04 0F ....|C-5 05 .. ....
39 |... .. .. .... ....|... .. .. ....|... .. .. ....|... .. .. ....
3A |B-3 06 .. .... ....|... .. .. ....|... .. 04 ....|... .. .. ....
3B |... .. .. .... ....|... .. .. ....|... .. .. ....|... .. .. ....
3C |C#4 06 .. .... ....|G#4 08 .. 0400|A-3 04 0F ....|C-5 04 .. ....
3D |... .. .. .... ....|... .. .. ....|... .. .. ....|... .. .. ....
3E |E-4 06 .. .... ....|... .. .. ....|... .. 04 ....|... .. .. ....
3F |... .. .. .... ....|... .. .. ....|... .. .. ....|... .. .. ....
40 |B-3 06 0F 1200 ....|... .. .. 0463|B-2 00 0F ....|C-5 04 .. ....
41 |... .. .. .... ....|... .. .. ....|... .. .. ....|... .. .. ....
42 |C#4 06 0F .... ....|... .. .. ....|... .. 04 ....|... .. .. ....
43 |... .. .. .... ....|... .. .. ....|... .. .. ....|... .. .. ....
44 |D#4 06 0E .... ....|... .. .. ....|B-2 04 0F ....|C-5 04 .. ....
45 |... .. .. .... ....|... .. .. ....|... .. .. ....|... .. .. ....
46 |F#4 06 0E .... ....|... .. .. ....|... .. 04 ....|... .. .. ....
47 |... .. .. .... ....|... .. .. ....|... .. .. ....|... .. .. ....
48 |B-3 06 0D 1201 ....|... .. .. ....|B-3 04 0F ....|C-5 05 .. ....
49 |... .. .. .... ....|... .. .. ....|... .. .. ....|... .. .. ....
4A |C#4 06 0D .... ....|... .. .. ....|... .. 04 ....|... .. .. ....
4B |... .. .. .... ....|... .. .. ....|... .. .. ....|... .. .. ....
4C |D#4 06 0C .... ....|... .. .. ....|B-3 04 0F ....|C-5 04 .. ....
4D |... .. .. .... ....|... .. .. ....|... .. .. ....|... .. .. ....
4E |F#4 06 0C .... ....|... .. .. ....|... .. 04 ....|... .. .. ....
4F |... .. .. .... ....|... .. .. ....|... .. .. ....|... .. .. ....
50 |B-3 06 0B 1202 ....|... .. .. ....|B-2 02 0F ....|C-4 03 .. ....
51 |... .. .. .... ....|... .. .. ....|... .. .. ....|... .. .. ....
52 |C#4 06 0B .... ....|... .. .. ....|... .. 04 ....|... .. .. ....
53 |... .. .. .... ....|... .. .. ....|... .. .. ....|... .. .. ....
54 |D#4 06 0A .... ....|... .. .. ....|B-2 04 0F ....|C-5 04 .. ....
55 |... .. .. .... ....|... .. .. ....|... .. .. ....|... .. .. ....
56 |F#4 06 0A .... ....|... .. .. ....|... .. 04 ....|... .. .. ....
57 |... .. .. .... ....|... .. .. ....|... .. .. ....|... .. .. ....
58 |B-3 06 09 1203 ....|... .. .. ....|B-3 04 0F ....|C-5 05 .. ....
59 |... .. .. .... ....|... .. .. ....|... .. .. ....|... .. .. ....
5A |C#4 06 09 .... ....|... .. .. ....|... .. 04 ....|... .. .. ....
5B |... .. .. .... ....|... .. .. ....|... .. .. ....|... .. .. ....
5C |D#4 06 08 .... ....|... .. .. ....|B-3 04 0F ....|C-5 04 .. ....
5D |... .. .. .... ....|... .. .. ....|... .. .. ....|... .. .. ....
5E |F#4 06 08 .... ....|... .. .. ....|... .. 04 ....|... .. .. ....
5F |... .. .. .... ....|... .. .. ....|... .. .. ....|... .. .. ....
60 |B-3 06 07 1203 ....|G#5 09 0F 0400|B-2 00 0F ....|C-5 04 .. ....
61 |... .. .. .... ....|... .. .. ....|... .. .. ....|... .. .. ....
62 |C#4 06 07 .... ....|... .. .. ....|... .. 04 ....|... .. .. ....
63 |... .. .. .... ....|... .. .. ....|... .. .. ....|... .. .. ....
64 |D#4 06 06 .... ....|F#5 09 0F ....|B-2 04 0F ....|C-5 04 .. ....
65 |... .. .. .... ....|... .. .. ....|... .. .. ....|... .. .. ....
66 |F#4 06 06 .... ....|G#5 09 08 ....|... .. 04 ....|... .. .. ....
67 |... .. .. .... ....|... .. .. ....|... .. .. ....|... .. .. ....
68 |B-3 06 05 1202 ....|E-5 09 0F ....|B-3 04 0F ....|C-5 05 .. ....
69 |... .. .. .... ....|... .. .. ....|... .. .. ....|... .. .. ....
6A |C#4 06 05 .... ....|F#5 09 08 ....|... .. 04 ....|... .. .. ....
6B |... .. .. .... ....|... .. .. ....|... .. .. ....|... .. .. ....
6C |D#4 06 04 .... ....|D#5 09 0F ....|B-3 04 0F ....|C-5 04 .. ....
6D |... .. .. .... ....|... .. .. ....|... .. .. ....|... .. .. ....
6E |F#4 06 04 .... ....|E-5 09 08 ....|... .. 04 ....|... .. .. ....
6F |... .. .. .... ....|... .. .. ....|... .. .. ....|... .. .. ....
70 |B-3 06 .. 1201 ....|F#5 09 0F ....|B-2 02 0F ....|C-4 03 .. ....
71 |... .. .. .... ....|... .. .. ....|... .. .. ....|... .. .. ....
72 |C#4 06 .. .... ....|D#5 09 08 ....|... .. 04 ....|... .. .. ....
73 |... .. .. .... ....|... .. .. ....|... .. .. ....|... .. .. ....
74 |D#4 06 .. .... ....|E-5 09 0F ....|B-2 02 0F ....|C-4 03 .. ....
75 |... .. .. .... ....|... .. .. ....|... .. .. ....|... .. .. ....
76 |F#4 06 .. .... ....|F#5 09 08 ....|... .. 04 ....|... .. .. ....
77 |... .. .. .... ....|... .. .. ....|... .. .. ....|... .. .. ....
78 |B-3 06 .. 1200 ....|D#5 09 0F ....|B-3 02 0F ....|C-4 03 .. ....
79 |... .. .. .... ....|... .. .. ....|... .. .. ....|... .. .. ....
7A |C#4 06 .. .... ....|E-5 09 08 ....|... .. 04 ....|... .. .. ....
7B |... .. .. .... ....|... .. .. ....|... .. .. ....|... .. .. ....
7C |D#4 06 .. .... ....|B-4 09 0F ....|B-3 02 0F ....|C-4 03 .. ....
7D |... .. .. .... ....|... .. .. ....|... .. .. ....|... .. .. ....
7E |F#4 06 .. .... ....|D#5 09 08 ....|... .. 04 ....|... .. .. ....
7F |... .. .. .... ....|... .. .. ....|... .. .. ....|... .. .. ....
----- ORDER 08
00 |C#4 06 0F 1200 ....|C#5 09 0F 0400|C#3 00 0F ....|C-5 04 .. ....
01 |... .. .. .... ....|... .. .. ....|... .. .. ....|... .. .. ....
02 |D#4 06 0F .... ....|... .. .. ....|... .. 04 ....|... .. .. ....
03 |... .. .. .... ....|... .. .. ....|... .. .. ....|... .. .. ....
04 |E-4 06 0E .... ....|... .. .. 0463|C#3 04 0F ....|C-5 04 .. ....
05 |... .. .. .... ....|... .. .. ....|... .. .. ....|... .. .. ....
06 |G#4 06 0E .... ....|... .. .. ....|... .. 04 ....|... .. .. ....
07 |... .. .. .... ....|... .. .. ....|... .. .. ....|... .. .. ....
08 |C#4 06 0D 1201 ....|C#4 08 .. 0400|C#4 04 0F ....|C-5 05 .. ....
09 |... .. .. .... ....|... .. .. ....|... .. .. ....|... .. .. ....
0A |D#4 06 0D .... ....|... .. .. ....|... .. 04 ....|... .. .. ....
0B |... .. .. .... ....|... .. .. ....|... .. .. ....|... .. .. ....
0C |E-4 06 0C .... ....|... .. .. 0463|C#4 04 0F ....|C-5 04 .. ....
0D |... .. .. .... ....|... .. .. ....|... .. .. ....|... .. .. ....
0E |G#4 06 0C .... ....|... .. .. ....|... .. 04 ....|... .. .. ....
0F |... .. .. .... ....|... .. .. ....|... .. .. ....|... .. .. ....
10 |C#4 06 0B 1202 ....|D#4 08 .. 0400|C#3 02 0F ....|C-4 03 .. ....
11 |... .. .. .... ....|... .. .. ....|... .. .. ....|... .. .. ....
12 |D#4 06 0B .... ....|... .. .. ....|... .. 04 ....|... .. .. ....
13 |... .. .. .... ....|... .. .. ....|... .. .. ....|... .. .. ....
14 |E-4 06 0A .... ....|... .. .. 0463|C#3 04 0F ....|C-5 04 .. ....
15 |... .. .. .... ....|... .. .. ....|... .. .. ....|... .. .. ....
16 |G#4 06 0A .... ....|... .. .. ....|... .. 04 ....|... .. .. ....
17 |... .. .. .... ....|... .. .. ....|... .. .. ....|... .. .. ....
18 |C#4 06 09 1203 ....|E-4 08 .. 0400|C#4 04 0F ....|C-5 05 .. ....
19 |... .. .. .... ....|... .. .. ....|... .. .. ....|... .. .. ....
1A |D#4 06 09 .... ....|... .. .. ....|... .. 04 ....|... .. .. ....
1B |... .. .. .... ....|... .. .. ....|... .. .. ....|... .. .. ....
1C |E-4 06 08 .... ....|... .. .. 0463|C#4 04 0F ....|C-5 04 .. ....
1D |... .. .. .... ....|... .. .. ....|... .. .. ....|... .. .. ....
1E |G#4 06 08 .... ....|... .. .. ....|... .. 04 ....|... .. .. ....
1F |... .. .. .... ....|... .. .. ....|... .. .. ....|... .. .. ....
20 |C#4 06 07 1203 ....|F#4 08 .. 0400|C#3 00 0F ....|C-5 04 .. ....
21 |... .. .. .... ....|... .. .. ....|... .. .. ....|... .. .. ....
22 |D#4 06 07 .... ....|... .. .. ....|... .. 04 ....|... .. .. ....
23 |... .. .. .... ....|... .. .. ....|... .. .. ....|... .. .. ....
24 |E-4 06 06 .... ....|... .. .. 0463|C#3 04 0F ....|C-5 04 .. ....
25 |... .. .. .... ....|... .. .. ....|... .. .. ....|... .. .. ....
26 |G#4 06 06 .... ....|... .. .. ....|... .. 04 ....|... .. .. ....
27 |... .. .. .... ....|... .. .. ....|... .. .. ....|... .. .. ....
28 |C#4 06 05 1202 ....|G#4 08 .. 0400|C#4 04 0F ....|C-5 05 .. ....
29 |... .. .. .... ....|... .. .. ....|... .. .. ....|... .. .. ....
2A |D#4 06 05 .... ....|... .. .. ....|... .. 04 ....|... .. .. ....
2B |... .. .. .... ....|... .. .. ....|... .. .. ....|... .. .. ....
2C |E-4 06 04 .... ....|... .. .. 0463|C#4 04 0F ....|C-5 04 .. ....
2D |... .. .. .... ....|... .. .. ....|... .. .. ....|... .. .. ....
2E |G#4 06 04 .... ....|... .. .. ....|... .. 04 ....|... .. .. ....
2F |... .. .. .... ....|... .. .. ....|... .. .. ....|... .. .. ....
30 |C#4 06 .. 1201 ....|... .. .. ....|C#3 02 0F ....|C-4 03 .. ....
31 |... .. .. .... ....|... .. .. ....|... .. .. ....|... .. .. ....
32 |D#4 06 .. .... ....|... .. .. ....|... .. 04 ....|... .. .. ....
33 |... .. .. .... ....|... .. .. ....|... .. .. ....|... .. .. ....
34 |E-4 06 .. .... ....|G#4 08 .. 0400|C#3 04 0F ....|C-5 04 .. ....
35 |... .. .. .... ....|... .. .. ....|... .. .. ....|... .. .. ....
36 |G#4 06 .. .... ....|... .. .. ....|... .. 04 ....|... .. .. ....
37 |... .. .. .... ....|... .. .. ....|... .. .. ....|... .. .. ....
38 |C#4 06 .. 1200 ....|C#5 08 .. 0400|C#4 04 0F ....|C-5 05 .. ....
39 |... .. .. .... ....|... .. .. ....|... .. .. ....|... .. .. ....
3A |D#4 06 .. .... ....|... .. .. ....|... .. 04 ....|... .. .. ....
3B |... .. .. .... ....|... .. .. ....|... .. .. ....|... .. .. ....
3C |E-4 06 .. .... ....|... .. .. 0463|C#4 04 0F ....|C-5 04 .. ....
3D |... .. .. .... ....|... .. .. ....|... .. .. ....|... .. .. ....
3E |G#4 06 .. .... ....|... .. .. ....|... .. 04 ....|... .. .. ....
3F |... .. .. .... ....|... .. .. ....|... .. .. ....|... .. .. ....
40 |B-3 06 0F 1200 ....|... .. .. ....|B-2 00 0F ....|C-5 04 .. ....
41 |... .. .. .... ....|... .. .. ....|... .. .. ....|... .. .. ....
42 |C#4 06 0F .... ....|... .. .. ....|... .. 04 ....|... .. .. ....
43 |... .. .. .... ....|... .. .. ....|... .. .. ....|... .. .. ....
44 |D#4 06 0E .... ....|... .. .. ....|B-2 04 0F ....|C-5 04 .. ....
45 |... .. .. .... ....|... .. .. ....|... .. .. ....|... .. .. ....
46 |F#4 06 0E .... ....|... .. .. ....|... .. 04 ....|... .. .. ....
47 |... .. .. .... ....|... .. .. ....|... .. .. ....|... .. .. ....
48 |B-3 06 0D 1201 ....|B-4 08 .. 0400|B-3 04 0F ....|C-5 05 .. ....
49 |... .. .. .... ....|... .. .. ....|... .. .. ....|... .. .. ....
4A |C#4 06 0D .... ....|... .. .. ....|... .. 04 ....|... .. .. ....
4B |... .. .. .... ....|... .. .. ....|... .. .. ....|... .. .. ....
4C |D#4 06 0C .... ....|... .. .. 0463|B-3 04 0F ....|C-5 04 .. ....
4D |... .. .. .... ....|... .. .. ....|... .. .. ....|... .. .. ....
4E |F#4 06 0C .... ....|... .. .. ....|... .. 04 ....|... .. .. ....
4F |... .. .. .... ....|... .. .. ....|... .. .. ....|... .. .. ....
50 |B-3 06 0B 1202 ....|... .. .. ....|B-2 02 0F ....|C-4 03 .. ....
51 |... .. .. .... ....|... .. .. ....|... .. .. ....|... .. .. ....
52 |C#4 06 0B .... ....|... .. .. ....|... .. 04 ....|... .. .. ....
53 |... .. .. .... ....|... .. .. ....|... .. .. ....|... .. .. ....
54 |D#4 06 0A .... ....|... .. .. ....|B-2 04 0F ....|C-5 04 .. ....
55 |... .. .. .... ....|... .. .. ....|... .. .. ....|... .. .. ....
56 |F#4 06 0A .... ....|... .. .. ....|... .. 04 ....|... .. .. ....
57 |... .. .. .... ....|... .. .. ....|... .. .. ....|... .. .. ....
58 |B-3 06 09 1203 ....|... .. .. ....|B-3 04 0F ....|C-5 05 .. ....
59 |... .. .. .... ....|... .. .. ....|... .. .. ....|... .. .. ....
5A |C#4 06 09 .... ....|... .. .. ....|... .. 04 ....|... .. .. ....
5B |... .. .. .... ....|... .. .. ....|... .. .. ....|... .. .. ....
5C |D#4 06 08 .... ....|... .. .. ....|B-3 04 0F ....|C-5 04 .. ....
5D |... .. .. .... ....|... .. .. ....|... .. .. ....|... .. .. ....
5E |F#4 06 08 .... ....|... .. .. ....|... .. 04 ....|... .. .. ....
5F |... .. .. .... ....|... .. .. ....|... .. .. ....|... .. .. ....
60 |B-3 06 07 1203 ....|... .. .. ....|B-2 00 0F ....|C-5 04 .. ....
61 |... .. .. .... ....|... .. .. ....|... .. .. ....|... .. .. ....
62 |C#4 06 07 .... ....|... .. .. ....|... .. 04 ....|... .. .. ....
63 |... .. .. .... ....|... .. .. ....|... .. .. ....|... .. .. ....
64 |D#4 06 06 .... ....|... .. .. ....|B-2 04 0F ....|C-5 04 .. ....
65 |... .. .. .... ....|... .. .. ....|... .. .. ....|... .. .. ....
66 |F#4 06 06 .... ....|... .. .. ....|... .. 04 ....|... .. .. ....
67 |... .. .. .... ....|... .. .. ....|... .. .. ....|... .. .. ....
68 |B-3 06 05 1202 ....|F#4 08 .. 0400|B-3 04 0F ....|C-5 05 .. ....
69 |... .. .. .... ....|... .. .. ....|... .. .. ....|... .. .. ....
6A |C#4 06 05 .... ....|... .. .. ....|... .. 04 ....|... .. .. ....
6B |... .. .. .... ....|... .. .. ....|... .. .. ....|... .. .. ....
6C |D#4 06 04 .... ....|... .. .. 0463|B-3 04 0F ....|C-5 04 .. ....
6D |... .. .. .... ....|... .. .. ....|... .. .. ....|... .. .. ....
6E |F#4 06 04 .... ....|... .. .. ....|... .. 04 ....|... .. .. ....
6F |... .. .. .... ....|... .. .. ....|... .. .. ....|... .. .. ....
70 |B-3 06 .. 1201 ....|C#4 08 .. 0400|B-2 02 0F ....|C-4 03 .. ....
71 |... .. .. .... ....|... .. .. ....|... .. .. ....|... .. .. ....
72 |C#4 06 .. .... ....|... .. .. ....|... .. 04 ....|... .. .. ....
73 |... .. .. .... ....|... .. .. ....|... .. .. ....|... .. .. ....
74 |D#4 06 .. .... ....|... .. .. 0463|B-2 04 0F ....|C-5 04 .. ....
75 |... .. .. .... ....|... .. .. ....|... .. .. ....|... .. .. ....
76 |F#4 06 .. .... ....|... .. .. ....|... .. 04 ....|... .. .. ....
77 |... .. .. .... ....|... .. .. ....|... .. .. ....|... .. .. ....
78 |B-3 06 .. 1200 ....|D#4 08 .. 0400|B-3 04 0F ....|C-5 05 .. ....
79 |... .. .. .... ....|... .. .. ....|... .. .. ....|... .. .. ....
7A |C#4 06 .. .... ....|... .. .. ....|... .. 04 ....|... .. .. ....
7B |... .. .. .... ....|... .. .. ....|... .. .. ....|... .. .. ....
7C |D#4 06 .. .... ....|... .. .. 0463|B-3 04 0F ....|C-5 04 .. ....
7D |... .. .. .... ....|... .. .. ....|... .. .. ....|... .. .. ....
7E |F#4 06 .. .... ....|... .. .. ....|... .. 04 ....|... .. .. ....
7F |... .. .. .... ....|... .. .. ....|... .. .. ....|... .. .. ....
----- ORDER 09
00 |A-3 06 0F 1200 ....|E-4 08 .. ....|A-2 00 0F ....|C-5 04 .. ....
01 |... .. .. .... ....|... .. .. ....|... .. .. ....|... .. .. ....
02 |B-3 06 0F .... ....|... .. .. ....|... .. 04 ....|... .. .. ....
03 |... .. .. .... ....|... .. .. ....|... .. .. ....|... .. .. ....
04 |C#4 06 0E .... ....|... .. .. ....|A-2 04 0F ....|C-5 04 .. ....
05 |... .. .. .... ....|... .. .. ....|... .. .. ....|... .. .. ....
06 |E-4 06 0E .... ....|... .. .. ....|... .. 04 ....|... .. .. ....
07 |... .. .. .... ....|... .. .. ....|... .. .. ....|... .. .. ....
08 |A-3 06 0D 1201 ....|F#4 08 .. ....|A-3 04 0F ....|C-5 05 .. ....
09 |... .. .. .... ....|... .. .. ....|... .. .. ....|... .. .. ....
0A |B-3 06 0D .... ....|... .. .. ....|... .. 04 ....|... .. .. ....
0B |... .. .. .... ....|... .. .. ....|... .. .. ....|... .. .. ....
0C |C#4 06 0C .... ....|... .. .. ....|A-3 04 0F ....|C-5 04 .. ....
0D |... .. .. .... ....|... .. .. ....|... .. .. ....|... .. .. ....
0E |E-4 06 0C .... ....|... .. .. ....|... .. 04 ....|... .. .. ....
0F |... .. .. .... ....|... .. .. ....|... .. .. ....|... .. .. ....
10 |A-3 06 0B 1202 ....|... .. .. ....|A-2 02 0F ....|C-4 03 .. ....
11 |... .. .. .... ....|... .. .. ....|... .. .. ....|... .. .. ....
12 |B-3 06 0B .... ....|... .. .. ....|... .. 04 ....|... .. .. ....
13 |... .. .. .... ....|... .. .. ....|... .. .. ....|... .. .. ....
14 |C#4 06 0A .... ....|... .. .. ....|A-2 04 0F ....|C-5 04 .. ....
15 |... .. .. .... ....|... .. .. ....|... .. .. ....|... .. .. ....
16 |E-4 06 0A .... ....|... .. .. ....|... .. 04 ....|... .. .. ....
17 |... .. .. .... ....|... .. .. ....|... .. .. ....|... .. .. ....
18 |A-3 06 09 1203 ....|E-4 08 .. 0400|A-3 04 0F ....|C-5 05 .. ....
19 |... .. .. .... ....|F#4 08 .. 0304|... .. .. ....|... .. .. ....
1A |B-3 06 09 .... ....|... .. .. ....|... .. 04 ....|... .. .. ....
1B |... .. .. .... ....|... .. .. ....|... .. .. ....|... .. .. ....
1C |C#4 06 08 .... ....|... .. .. ....|A-3 04 0F ....|C-5 04 .. ....
1D |... .. .. .... ....|... .. .. ....|... .. .. ....|... .. .. ....
1E |E-4 06 08 .... ....|... .. .. ....|... .. 04 ....|... .. .. ....
1F |... .. .. .... ....|... .. .. ....|... .. .. ....|... .. .. ....
20 |A-3 06 07 1203 ....|... .. .. 0463|A-2 00 0F ....|C-5 04 .. ....
21 |... .. .. .... ....|... .. .. ....|... .. .. ....|... .. .. ....
22 |B-3 06 07 .... ....|... .. .. ....|... .. 04 ....|... .. .. ....
23 |... .. .. .... ....|... .. .. ....|... .. .. ....|... .. .. ....
24 |C#4 06 06 .... ....|... .. .. ....|A-2 04 0F ....|C-5 04 .. ....
25 |... .. .. .... ....|... .. .. ....|... .. .. ....|... .. .. ....
26 |E-4 06 06 .... ....|... .. .. ....|... .. 04 ....|... .. .. ....
27 |... .. .. .... ....|... .. .. ....|... .. .. ....|... .. .. ....
28 |A-3 06 05 1202 ....|... .. .. ....|A-3 04 0F ....|C-5 05 .. ....
29 |... .. .. .... ....|... .. .. ....|... .. .. ....|... .. .. ....
2A |B-3 06 05 .... ....|... .. .. ....|... .. 04 ....|... .. .. ....
2B |... .. .. .... ....|... .. .. ....|... .. .. ....|... .. .. ....
2C |C#4 06 04 .... ....|... .. .. ....|A-3 04 0F ....|C-5 04 .. ....
2D |... .. .. .... ....|... .. .. ....|... .. .. ....|... .. .. ....
2E |E-4 06 04 .... ....|... .. .. ....|... .. 04 ....|... .. .. ....
2F |... .. .. .... ....|... .. .. ....|... .. .. ....|... .. .. ....
30 |A-3 06 .. 1201 ....|... .. .. ....|A-2 02 0F ....|C-4 03 .. ....
31 |... .. .. .... ....|... .. .. ....|... .. .. ....|... .. .. ....
32 |B-3 06 .. .... ....|... .. .. ....|... .. 04 ....|... .. .. ....
33 |... .. .. .... ....|... .. .. ....|... .. .. ....|... .. .. ....
34 |C#4 06 .. .... ....|... .. .. ....|A-2 04 0F ....|C-5 04 .. ....
35 |... .. .. .... ....|... .. .. ....|... .. .. ....|... .. .. ....
36 |E-4 06 .. .... ....|... .. .. ....|... .. 04 ....|... .. .. ....
37 |... .. .. .... ....|... .. .. ....|... .. .. ....|... .. .. ....
38 |A-3 06 .. 1200 ....|... .. .. ....|A-3 04 0F ....|C-5 05 .. ....
39 |... .. .. .... ....|... .. .. ....|... .. .. ....|... .. .. ....
3A |B-3 06 .. .... ....|... .. .. ....|... .. 04 ....|... .. .. ....
3B |... .. .. .... ....|... .. .. ....|... .. .. ....|... .. .. ....
3C |C#4 06 .. .... ....|... .. .. ....|A-3 04 0F ....|C-5 04 .. ....
3D |... .. .. .... ....|... .. .. ....|... .. .. ....|... .. .. ....
3E |E-4 06 .. .... ....|... .. .. ....|... .. 04 ....|... .. .. ....
3F |... .. .. .... ....|... .. .. ....|... .. .. ....|... .. .. ....
40 |B-3 06 0F 1200 ....|... .. .. ....|B-2 00 0F ....|C-5 04 .. ....
41 |... .. .. .... ....|... .. .. ....|... .. .. ....|... .. .. ....
42 |C#4 06 0F .... ....|... .. .. ....|... .. 04 ....|... .. .. ....
43 |... .. .. .... ....|... .. .. ....|... .. .. ....|... .. .. ....
44 |D#4 06 0E .... ....|... .. .. ....|B-2 04 0F ....|C-5 04 .. ....
45 |... .. .. .... ....|... .. .. ....|... .. .. ....|... .. .. ....
46 |F#4 06 0E .... ....|... .. .. ....|... .. 04 ....|... .. .. ....
47 |... .. .. .... ....|... .. .. ....|... .. .. ....|... .. .. ....
48 |B-3 06 0D 1201 ....|... .. .. ....|B-3 04 0F ....|C-5 05 .. ....
49 |... .. .. .... ....|... .. .. ....|... .. .. ....|... .. .. ....
4A |C#4 06 0D .... ....|... .. .. ....|... .. 04 ....|... .. .. ....
4B |... .. .. .... ....|... .. .. ....|... .. .. ....|... .. .. ....
4C |D#4 06 0C .... ....|... .. .. ....|B-3 04 0F ....|C-5 04 .. ....
4D |... .. .. .... ....|... .. .. ....|... .. .. ....|... .. .. ....
4E |F#4 06 0C .... ....|... .. .. ....|... .. 04 ....|... .. .. ....
4F |... .. .. .... ....|... .. .. ....|... .. .. ....|... .. .. ....
50 |B-3 06 0B 1202 ....|... .. .. ....|B-2 02 0F ....|C-4 03 .. ....
51 |... .. .. .... ....|... .. .. ....|... .. .. ....|... .. .. ....
52 |C#4 06 0B .... ....|... .. .. ....|... .. 04 ....|... .. .. ....
53 |... .. .. .... ....|... .. .. ....|... .. .. ....|... .. .. ....
54 |D#4 06 0A .... ....|... .. .. ....|B-2 04 0F ....|C-5 04 .. ....
55 |... .. .. .... ....|... .. .. ....|... .. .. ....|... .. .. ....
56 |F#4 06 0A .... ....|... .. .. ....|... .. 04 ....|... .. .. ....
57 |... .. .. .... ....|... .. .. ....|... .. .. ....|... .. .. ....
58 |B-3 06 09 1203 ....|... .. .. ....|B-3 04 0F ....|C-5 05 .. ....
59 |... .. .. .... ....|... .. .. ....|... .. .. ....|... .. .. ....
5A |C#4 06 09 .... ....|... .. .. ....|... .. 04 ....|... .. .. ....
5B |... .. .. .... ....|... .. .. ....|... .. .. ....|... .. .. ....
5C |D#4 06 08 .... ....|... .. .. ....|B-3 04 0F ....|C-5 04 .. ....
5D |... .. .. .... ....|... .. .. ....|... .. .. ....|... .. .. ....
5E |F#4 06 08 .... ....|... .. .. ....|... .. 04 ....|... .. .. ....
5F |... .. .. .... ....|... .. .. ....|... .. .. ....|... .. .. ....
60 |B-3 06 07 1203 ....|... .. .. ....|B-2 00 0F ....|C-5 04 .. ....
61 |... .. .. .... ....|... .. .. ....|... .. .. ....|... .. .. ....
62 |C#4 06 07 .... ....|... .. .. ....|... .. 04 ....|... .. .. ....
63 |... .. .. .... ....|... .. .. ....|... .. .. ....|... .. .. ....
64 |D#4 06 06 .... ....|... .. .. ....|B-2 04 0F ....|C-5 04 .. ....
65 |... .. .. .... ....|... .. .. ....|... .. .. ....|... .. .. ....
66 |F#4 06 06 .... ....|... .. .. ....|... .. 04 ....|... .. .. ....
67 |... .. .. .... ....|... .. .. ....|... .. .. ....|... .. .. ....
68 |B-3 06 05 1202 ....|... .. .. ....|B-3 04 0F ....|C-5 05 .. ....
69 |... .. .. .... ....|... .. .. ....|... .. .. ....|... .. .. ....
6A |C#4 06 05 .... ....|... .. .. ....|... .. 04 ....|... .. .. ....
6B |... .. .. .... ....|... .. .. ....|... .. .. ....|... .. .. ....
6C |D#4 06 04 .... ....|... .. .. ....|B-3 04 0F ....|C-5 04 .. ....
6D |... .. .. .... ....|... .. .. ....|... .. .. ....|... .. .. ....
6E |F#4 06 04 .... ....|... .. .. ....|... .. 04 ....|... .. .. ....
6F |... .. .. .... ....|... .. .. ....|... .. .. ....|... .. .. ....
70 |B-3 06 .. 1201 ....|... .. .. ....|B-2 02 0F ....|C-4 03 .. ....
71 |... .. .. .... ....|... .. .. ....|... .. .. ....|... .. .. ....
72 |C#4 06 .. .... ....|... .. .. ....|... .. 04 ....|... .. .. ....
73 |... .. .. .... ....|... .. .. ....|... .. .. ....|... .. .. ....
74 |D#4 06 .. .... ....|... .. .. ....|B-2 02 0F ....|C-4 03 .. ....
75 |... .. .. .... ....|... .. .. ....|... .. .. ....|... .. .. ....
76 |F#4 06 .. .... ....|... .. .. ....|... .. 04 ....|... .. .. ....
77 |... .. .. .... ....|... .. .. ....|... .. .. ....|... .. .. ....
78 |B-3 06 .. 1200 ....|... .. .. ....|B-3 02 0F ....|C-4 03 .. ....
79 |... .. .. .... ....|... .. .. ....|... .. .. ....|... .. .. ....
7A |C#4 06 .. .... ....|... .. .. ....|... .. 04 ....|... .. .. ....
7B |... .. .. .... ....|... .. .. ....|... .. .. ....|... .. .. ....
7C |D#4 06 .. .... ....|... .. .. ....|B-3 02 0F ....|C-4 03 .. ....
7D |... .. .. .... ....|... .. .. ....|... .. .. ....|... .. .. ....
7E |F#4 06 .. .... ....|... .. .. ....|... .. 04 ....|... .. .. ....
7F |... .. .. .... ....|... .. .. ....|... .. .. ....|... .. .. ....
----- ORDER 0A
00 |E-4 06 0F .... ....|G#4 06 .. ....|C#3 00 0F ....|C-5 04 .. ....
01 |... .. .. .... ....|... .. .. ....|... .. .. ....|... .. .. ....
02 |... .. .. .... ....|... .. .. ....|... .. 04 ....|... .. .. ....
03 |... .. .. .... ....|... .. .. ....|... .. .. ....|... .. .. ....
04 |... .. .. .... ....|... .. .. ....|C#3 04 0F ....|C-5 04 .. ....
05 |... .. .. .... ....|... .. .. ....|... .. .. ....|... .. .. ....
06 |... .. .. .... ....|... .. .. ....|... .. 04 ....|... .. .. ....
07 |... .. .. .... ....|... .. .. ....|... .. .. ....|... .. .. ....
08 |... .. .. .... ....|... .. .. ....|C#4 04 0F ....|C-5 05 .. ....
09 |... .. .. .... ....|... .. .. ....|... .. .. ....|... .. .. ....
0A |... .. .. .... ....|... .. .. ....|... .. 04 ....|... .. .. ....
0B |... .. .. .... ....|... .. .. ....|... .. .. ....|... .. .. ....
0C |... .. .. .... ....|... .. .. ....|C#4 04 0F ....|C-5 04 .. ....
0D |... .. .. .... ....|... .. .. ....|... .. .. ....|... .. .. ....
0E |... .. .. .... ....|... .. .. ....|... .. 04 ....|... .. .. ....
0F |... .. .. .... ....|... .. .. ....|... .. .. ....|... .. .. ....
10 |C#4 06 .. .... ....|... .. .. ....|C#3 00 0F ....|C-5 04 .. ....
11 |... .. .. .... ....|... .. .. ....|... .. .. ....|... .. .. ....
12 |... .. .. .... ....|... .. .. ....|... .. 04 ....|... .. .. ....
13 |... .. .. .... ....|... .. .. ....|... .. .. ....|... .. .. ....
14 |... .. .. .... ....|... .. .. ....|C#3 04 0F ....|C-5 04 .. ....
15 |... .. .. .... ....|... .. .. ....|... .. .. ....|... .. .. ....
16 |... .. .. .... ....|... .. .. ....|... .. 04 ....|... .. .. ....
17 |... .. .. .... ....|... .. .. ....|... .. .. ....|... .. .. ....
18 |D#4 06 .. .... ....|... .. .. ....|C#4 04 0F ....|C-5 05 .. ....
19 |... .. .. .... ....|... .. .. ....|... .. .. ....|... .. .. ....
1A |... .. .. .... ....|... .. .. ....|... .. 04 ....|... .. .. ....
1B |... .. .. .... ....|... .. .. ....|... .. .. ....|... .. .. ....
1C |... .. .. .... ....|... .. .. ....|C#4 04 0F ....|C-5 04 .. ....
1D |... .. .. .... ....|... .. .. ....|... .. .. ....|... .. .. ....
1E |... .. .. .... ....|... .. .. ....|... .. 04 ....|... .. .. ....
1F |... .. .. .... ....|... .. .. ....|... .. .. ....|... .. .. ....
20 |E-4 06 .. .... ....|G#4 06 .. ....|C#3 00 0F ....|C-5 04 .. ....
21 |... .. .. .... ....|... .. .. ....|... .. .. ....|... .. .. ....
22 |... .. .. .... ....|... .. .. ....|... .. 04 ....|... .. .. ....
23 |... .. .. .... ....|... .. .. ....|... .. .. ....|... .. .. ....
24 |... .. .. .... ....|... .. .. ....|C#3 04 0F ....|C-5 04 .. ....
25 |... .. .. .... ....|... .. .. ....|... .. .. ....|... .. .. ....
26 |... .. .. .... ....|... .. .. ....|... .. 04 ....|... .. .. ....
27 |... .. .. .... ....|... .. .. ....|... .. .. ....|... .. .. ....
28 |C#4 06 .. .... ....|... .. .. ....|C#4 04 0F ....|C-5 05 .. ....
29 |... .. .. .... ....|... .. .. ....|... .. .. ....|... .. .. ....
2A |... .. .. .... ....|... .. .. ....|... .. 04 ....|... .. .. ....
2B |... .. .. .... ....|... .. .. ....|... .. .. ....|... .. .. ....
2C |... .. .. .... ....|... .. .. ....|C#4 04 0F ....|C-5 04 .. ....
2D |... .. .. .... ....|... .. .. ....|... .. .. ....|... .. .. ....
2E |... .. .. .... ....|... .. .. ....|... .. 04 ....|... .. .. ....
2F |... .. .. .... ....|... .. .. ....|... .. .. ....|... .. .. ....
30 |E-4 06 .. .... ....|G#4 06 .. ....|C#3 00 0F ....|C-5 04 .. ....
31 |... .. .. .... ....|... .. .. ....|... .. .. ....|... .. .. ....
32 |... .. .. .... ....|... .. .. ....|... .. 04 ....|... .. .. ....
33 |... .. .. .... ....|... .. .. ....|... .. .. ....|... .. .. ....
34 |... .. .. .... ....|... .. .. ....|C#3 04 0F ....|C-5 04 .. ....
35 |... .. .. .... ....|... .. .. ....|... .. .. ....|... .. .. ....
36 |... .. .. .... ....|... .. .. ....|... .. 04 ....|... .. .. ....
37 |... .. .. .... ....|... .. .. ....|... .. .. ....|... .. .. ....
38 |C#4 06 .. .... ....|... .. .. ....|C#4 04 0F ....|C-5 05 .. ....
39 |... .. .. .... ....|... .. .. ....|... .. .. ....|... .. .. ....
3A |... .. .. .... ....|... .. .. ....|... .. 04 ....|... .. .. ....
3B |... .. .. .... ....|... .. .. ....|... .. .. ....|... .. .. ....
3C |... .. .. .... ....|... .. .. ....|C#4 04 0F ....|C-5 04 .. ....
3D |... .. .. .... ....|... .. .. ....|... .. .. ....|... .. .. ....
3E |... .. .. .... ....|... .. .. ....|... .. 04 ....|... .. .. ....
3F |... .. .. .... ....|... .. .. ....|... .. .. ....|... .. .. ....
40 |D#4 06 .. .... ....|F#4 06 .. ....|B-2 00 0F ....|C-5 04 .. ....
41 |... .. .. .... ....|... .. .. ....|... .. .. ....|... .. .. ....
42 |... .. .. .... ....|... .. .. ....|... .. 04 ....|... .. .. ....
43 |... .. .. .... ....|... .. .. ....|... .. .. ....|... .. .. ....
44 |... .. .. .... ....|... .. .. ....|B-2 04 0F ....|C-5 04 .. ....
45 |... .. .. .... ....|... .. .. ....|... .. .. ....|... .. .. ....
46 |... .. .. .... ....|... .. .. ....|... .. 04 ....|... .. .. ....
47 |... .. .. .... ....|... .. .. ....|... .. .. ....|... .. .. ....
48 |... .. .. .... ....|... .. .. ....|B-3 04 0F ....|C-5 05 .. ....
49 |... .. .. .... ....|... .. .. ....|... .. .. ....|... .. .. ....
4A |... .. .. .... ....|... .. .. ....|... .. 04 ....|... .. .. ....
4B |... .. .. .... ....|... .. .. ....|... .. .. ....|... .. .. ....
4C |... .. .. .... ....|... .. .. ....|B-3 04 0F ....|C-5 04 .. ....
4D |... .. .. .... ....|... .. .. ....|... .. .. ....|... .. .. ....
4E |... .. .. .... ....|... .. .. ....|... .. 04 ....|... .. .. ....
4F |... .. .. .... ....|... .. .. ....|... .. .. ....|... .. .. ....
50 |B-3 06 .. .... ....|... .. .. ....|B-2 00 0F ....|C-5 04 .. ....
51 |... .. .. .... ....|... .. .. ....|... .. .. ....|... .. .. ....
52 |... .. .. .... ....|... .. .. ....|... .. 04 ....|... .. .. ....
53 |... .. .. .... ....|... .. .. ....|... .. .. ....|... .. .. ....
54 |... .. .. .... ....|... .. .. ....|B-2 04 0F ....|C-5 04 .. ....
55 |... .. .. .... ....|... .. .. ....|... .. .. ....|... .. .. ....
56 |... .. .. .... ....|... .. .. ....|... .. 04 ....|... .. .. ....
57 |... .. .. .... ....|... .. .. ....|... .. .. ....|... .. .. ....
58 |C#4 06 .. .... ....|... .. .. ....|B-3 04 0F ....|C-5 05 .. ....
59 |... .. .. .... ....|... .. .. ....|... .. .. ....|... .. .. ....
5A |... .. .. .... ....|... .. .. ....|... .. 04 ....|... .. .. ....
5B |... .. .. .... ....|... .. .. ....|... .. .. ....|... .. .. ....
5C |... .. .. .... ....|... .. .. ....|B-3 04 0F ....|C-5 04 .. ....
5D |... .. .. .... ....|... .. .. ....|... .. .. ....|... .. .. ....
5E |... .. .. .... ....|... .. .. ....|... .. 04 ....|... .. .. ....
5F |... .. .. .... ....|... .. .. ....|... .. .. ....|... .. .. ....
60 |D#4 06 .. .... ....|F#4 06 .. ....|B-2 00 0F ....|C-5 04 .. ....
61 |... .. .. .... ....|... .. .. ....|... .. .. ....|... .. .. ....
62 |... .. .. .... ....|... .. .. ....|... .. 04 ....|... .. .. ....
63 |... .. .. .... ....|... .. .. ....|... .. .. ....|... .. .. ....
64 |... .. .. .... ....|... .. .. ....|B-2 04 0F ....|C-5 04 .. ....
65 |... .. .. .... ....|... .. .. ....|... .. .. ....|... .. .. ....
66 |... .. .. .... ....|... .. .. ....|... .. 04 ....|... .. .. ....
67 |... .. .. .... ....|... .. .. ....|... .. .. ....|... .. .. ....
68 |... .. .. .... ....|... .. .. ....|B-3 04 0F ....|C-5 05 .. ....
69 |... .. .. .... ....|... .. .. ....|... .. .. ....|... .. .. ....
6A |... .. .. .... ....|... .. .. ....|... .. 04 ....|... .. .. ....
6B |... .. .. .... ....|... .. .. ....|... .. .. ....|... .. .. ....
6C |... .. .. .... ....|... .. .. ....|B-3 04 0F ....|C-5 04 .. ....
6D |... .. .. .... ....|... .. .. ....|... .. .. ....|... .. .. ....
6E |... .. .. .... ....|... .. .. ....|... .. 04 ....|... .. .. ....
6F |... .. .. .... ....|... .. .. ....|... .. .. ....|... .. .. ....
70 |... .. .. .... ....|... .. .. ....|B-2 00 0F ....|C-5 04 .. ....
71 |... .. .. .... ....|... .. .. ....|... .. .. ....|... .. .. ....
72 |... .. .. .... ....|... .. .. ....|... .. 04 ....|... .. .. ....
73 |... .. .. .... ....|... .. .. ....|... .. .. ....|... .. .. ....
74 |... .. .. .... ....|... .. .. ....|B-2 04 0F ....|C-5 04 .. ....
75 |... .. .. .... ....|... .. .. ....|... .. .. ....|... .. .. ....
76 |... .. .. .... ....|... .. .. ....|... .. 04 ....|... .. .. ....
77 |... .. .. .... ....|... .. .. ....|... .. .. ....|... .. .. ....
78 |... .. .. .... ....|... .. .. ....|B-3 04 0F ....|C-5 05 .. ....
79 |... .. .. .... ....|... .. .. ....|... .. .. ....|... .. .. ....
7A |... .. .. .... ....|... .. .. ....|... .. 04 ....|... .. .. ....
7B |... .. .. .... ....|... .. .. ....|... .. .. ....|... .. .. ....
7C |... .. .. .... ....|... .. .. ....|B-3 04 0F ....|C-5 04 .. ....
7D |... .. .. .... ....|... .. .. ....|... .. .. ....|... .. .. ....
7E |... .. .. .... ....|... .. .. ....|... .. 04 ....|... .. .. ....
7F |... .. .. .... ....|... .. .. ....|... .. .. ....|... .. .. ....
----- ORDER 0B
00 |E-4 06 0F .... ....|G#4 06 .. ....|A-2 00 0F ....|C-5 04 .. ....
01 |... .. .. .... ....|... .. .. ....|... .. .. ....|... .. .. ....
02 |... .. .. .... ....|... .. .. ....|... .. 04 ....|... .. .. ....
03 |... .. .. .... ....|... .. .. ....|... .. .. ....|... .. .. ....
04 |... .. .. .... ....|... .. .. ....|A-2 04 0F ....|C-5 04 .. ....
05 |... .. .. .... ....|... .. .. ....|... .. .. ....|... .. .. ....
06 |... .. .. .... ....|... .. .. ....|... .. 04 ....|... .. .. ....
07 |... .. .. .... ....|... .. .. ....|... .. .. ....|... .. .. ....
08 |... .. .. .... ....|... .. .. ....|A-3 04 0F ....|C-5 05 .. ....
09 |... .. .. .... ....|... .. .. ....|... .. .. ....|... .. .. ....
0A |... .. .. .... ....|... .. .. ....|... .. 04 ....|... .. .. ....
0B |... .. .. .... ....|... .. .. ....|... .. .. ....|... .. .. ....
0C |... .. .. .... ....|... .. .. ....|A-3 04 0F ....|C-5 04 .. ....
0D |... .. .. .... ....|... .. .. ....|... .. .. ....|... .. .. ....
0E |... .. .. .... ....|... .. .. ....|... .. 04 ....|... .. .. ....
0F |... .. .. .... ....|... .. .. ....|... .. .. ....|... .. .. ....
10 |C#4 06 .. .... ....|... .. .. ....|A-2 00 0F ....|C-5 04 .. ....
11 |... .. .. .... ....|... .. .. ....|... .. .. ....|... .. .. ....
12 |... .. .. .... ....|... .. .. ....|... .. 04 ....|... .. .. ....
13 |... .. .. .... ....|... .. .. ....|... .. .. ....|... .. .. ....
14 |... .. .. .... ....|... .. .. ....|A-2 04 0F ....|C-5 04 .. ....
15 |... .. .. .... ....|... .. .. ....|... .. .. ....|... .. .. ....
16 |... .. .. .... ....|... .. .. ....|... .. 04 ....|... .. .. ....
17 |... .. .. .... ....|... .. .. ....|... .. .. ....|... .. .. ....
18 |D#4 06 .. .... ....|... .. .. ....|A-3 04 0F ....|C-5 05 .. ....
19 |... .. .. .... ....|... .. .. ....|... .. .. ....|... .. .. ....
1A |... .. .. .... ....|... .. .. ....|... .. 04 ....|... .. .. ....
1B |... .. .. .... ....|... .. .. ....|... .. .. ....|... .. .. ....
1C |... .. .. .... ....|... .. .. ....|A-3 04 0F ....|C-5 04 .. ....
1D |... .. .. .... ....|... .. .. ....|... .. .. ....|... .. .. ....
1E |... .. .. .... ....|... .. .. ....|... .. 04 ....|... .. .. ....
1F |... .. .. .... ....|... .. .. ....|... .. .. ....|... .. .. ....
20 |E-4 06 .. .... ....|G#4 06 .. ....|A-2 00 0F ....|C-5 04 .. ....
21 |... .. .. .... ....|... .. .. ....|... .. .. ....|... .. .. ....
22 |... .. .. .... ....|... .. .. ....|... .. 04 ....|... .. .. ....
23 |... .. .. .... ....|... .. .. ....|... .. .. ....|... .. .. ....
24 |... .. .. .... ....|... .. .. ....|A-2 04 0F ....|C-5 04 .. ....
25 |... .. .. .... ....|... .. .. ....|... .. .. ....|... .. .. ....
26 |... .. .. .... ....|... .. .. ....|... .. 04 ....|... .. .. ....
27 |... .. .. .... ....|... .. .. ....|... .. .. ....|... .. .. ....
28 |C#4 06 .. .... ....|... .. .. ....|A-3 04 0F ....|C-5 05 .. ....
29 |... .. .. .... ....|... .. .. ....|... .. .. ....|... .. .. ....
2A |... .. .. .... ....|... .. .. ....|... .. 04 ....|... .. .. ....
2B |... .. .. .... ....|... .. .. ....|... .. .. ....|... .. .. ....
2C |... .. .. .... ....|... .. .. ....|A-3 04 0F ....|C-5 04 .. ....
2D |... .. .. .... ....|... .. .. ....|... .. .. ....|... .. .. ....
2E |... .. .. .... ....|... .. .. ....|... .. 04 ....|... .. .. ....
2F |... .. .. .... ....|... .. .. ....|... .. .. ....|... .. .. ....
30 |E-4 06 .. .... ....|G#4 06 .. ....|A-2 00 0F ....|C-5 04 .. ....
31 |... .. .. .... ....|... .. .. ....|... .. .. ....|... .. .. ....
32 |... .. .. .... ....|... .. .. ....|... .. 04 ....|... .. .. ....
33 |... .. .. .... ....|... .. .. ....|... .. .. ....|... .. .. ....
34 |... .. .. .... ....|... .. .. ....|A-2 04 0F ....|C-5 04 .. ....
35 |... .. .. .... ....|... .. .. ....|... .. .. ....|... .. .. ....
36 |... .. .. .... ....|... .. .. ....|... .. 04 ....|... .. .. ....
37 |... .. .. .... ....|... .. .. ....|... .. .. ....|... .. .. ....
38 |C#4 06 .. .... ....|... .. .. ....|A-3 04 0F ....|C-5 05 .. ....
39 |... .. .. .... ....|... .. .. ....|... .. .. ....|... .. .. ....
3A |... .. .. .... ....|... .. .. ....|... .. 04 ....|... .. .. ....
3B |... .. .. .... ....|... .. .. ....|... .. .. ....|... .. .. ....
3C |... .. .. .... ....|... .. .. ....|A-3 04 0F ....|C-5 04 .. ....
3D |... .. .. .... ....|... .. .. ....|... .. .. ....|... .. .. ....
3E |... .. .. .... ....|... .. .. ....|... .. 04 ....|... .. .. ....
3F |... .. .. .... ....|... .. .. ....|... .. .. ....|... .. .. ....
40 |D#4 06 .. .... ....|F#4 06 .. ....|B-2 00 0F ....|C-5 04 .. ....
41 |... .. .. .... ....|... .. .. ....|... .. .. ....|... .. .. ....
42 |... .. .. .... ....|... .. .. ....|... .. 04 ....|... .. .. ....
43 |... .. .. .... ....|... .. .. ....|... .. .. ....|... .. .. ....
44 |... .. .. .... ....|... .. .. ....|B-2 04 0F ....|C-5 04 .. ....
45 |... .. .. .... ....|... .. .. ....|... .. .. ....|... .. .. ....
46 |... .. .. .... ....|... .. .. ....|... .. 04 ....|... .. .. ....
47 |... .. .. .... ....|... .. .. ....|... .. .. ....|... .. .. ....
48 |... .. .. .... ....|... .. .. ....|B-3 04 0F ....|C-5 05 .. ....
49 |... .. .. .... ....|... .. .. ....|... .. .. ....|... .. .. ....
4A |... .. .. .... ....|... .. .. ....|... .. 04 ....|... .. .. ....
4B |... .. .. .... ....|... .. .. ....|... .. .. ....|... .. .. ....
4C |... .. .. .... ....|... .. .. ....|B-3 04 0F ....|C-5 04 .. ....
4D |... .. .. .... ....|... .. .. ....|... .. .. ....|... .. .. ....
4E |... .. .. .... ....|... .. .. ....|... .. 04 ....|... .. .. ....
4F |... .. .. .... ....|... .. .. ....|... .. .. ....|... .. .. ....
50 |B-3 06 .. .... ....|... .. .. ....|B-2 00 0F ....|C-5 04 .. ....
51 |... .. .. .... ....|... .. .. ....|... .. .. ....|... .. .. ....
52 |... .. .. .... ....|... .. .. ....|... .. 04 ....|... .. .. ....
53 |... .. .. .... ....|... .. .. ....|... .. .. ....|... .. .. ....
54 |... .. .. .... ....|... .. .. ....|B-2 04 0F ....|C-5 04 .. ....
55 |... .. .. .... ....|... .. .. ....|... .. .. ....|... .. .. ....
56 |... .. .. .... ....|... .. .. ....|... .. 04 ....|... .. .. ....
57 |... .. .. .... ....|... .. .. ....|... .. .. ....|... .. .. ....
58 |C#4 06 .. .... ....|... .. .. ....|B-3 04 0F ....|C-5 05 .. ....
59 |... .. .. .... ....|... .. .. ....|... .. .. ....|... .. .. ....
5A |... .. .. .... ....|... .. .. ....|... .. 04 ....|... .. .. ....
5B |... .. .. .... ....|... .. .. ....|... .. .. ....|... .. .. ....
5C |... .. .. .... ....|... .. .. ....|B-3 04 0F ....|C-5 04 .. ....
5D |... .. .. .... ....|... .. .. ....|... .. .. ....|... .. .. ....
5E |... .. .. .... ....|... .. .. ....|... .. 04 ....|... .. .. ....
5F |... .. .. .... ....|... .. .. ....|... .. .. ....|... .. .. ....
60 |D#4 06 .. .... ....|F#4 06 .. ....|B-2 00 0F ....|C-5 04 .. ....
61 |... .. .. .... ....|... .. .. ....|... .. .. ....|... .. .. ....
62 |... .. .. .... ....|... .. .. ....|... .. 04 ....|... .. .. ....
63 |... .. .. .... ....|... .. .. ....|... .. .. ....|... .. .. ....
64 |... .. .. .... ....|... .. .. ....|B-2 04 0F ....|C-5 04 .. ....
65 |... .. .. .... ....|... .. .. ....|... .. .. ....|... .. .. ....
66 |... .. .. .... ....|... .. .. ....|... .. 04 ....|... .. .. ....
67 |... .. .. .... ....|... .. .. ....|... .. .. ....|... .. .. ....
68 |... .. .. .... ....|... .. .. ....|B-3 04 0F ....|C-5 05 .. ....
69 |... .. .. .... ....|... .. .. ....|... .. .. ....|... .. .. ....
6A |... .. .. .... ....|... .. .. ....|... .. 04 ....|... .. .. ....
6B |... .. .. .... ....|... .. .. ....|... .. .. ....|... .. .. ....
6C |... .. .. .... ....|... .. .. ....|B-3 04 0F ....|C-5 04 .. ....
6D |... .. .. .... ....|... .. .. ....|... .. .. ....|... .. .. ....
6E |... .. .. .... ....|... .. .. ....|... .. 04 ....|... .. .. ....
6F |... .. .. .... ....|... .. .. ....|... .. .. ....|... .. .. ....
70 |... .. .. .... ....|... .. .. ....|B-2 00 0F ....|C-5 04 .. ....
71 |... .. .. .... ....|... .. .. ....|... .. .. ....|... .. .. ....
72 |... .. .. .... ....|... .. .. ....|... .. 04 ....|... .. .. ....
73 |... .. .. .... ....|... .. .. ....|... .. .. ....|... .. .. ....
74 |... .. .. .... ....|... .. .. ....|B-2 04 0F ....|C-5 04 .. ....
75 |... .. .. .... ....|... .. .. ....|... .. .. ....|... .. .. ....
76 |... .. .. .... ....|... .. .. ....|... .. 04 ....|... .. .. ....
77 |... .. .. .... ....|... .. .. ....|... .. .. ....|... .. .. ....
78 |... .. .. .... ....|... .. .. ....|B-3 04 0F ....|C-5 05 .. ....
79 |... .. .. .... ....|... .. .. ....|... .. .. ....|... .. .. ....
7A |... .. .. .... ....|... .. .. ....|... .. 04 ....|... .. .. ....
7B |... .. .. .... ....|... .. .. ....|... .. .. ....|... .. .. ....
7C |... .. .. .... ....|... .. .. ....|B-3 04 0F ....|C-5 04 .. ....
7D |... .. .. .... ....|... .. .. ....|... .. .. ....|... .. .. ....
7E |... .. .. .... ....|... .. .. ....|... .. 04 ....|... .. .. ....
7F |... .. .. .... ....|... .. .. ....|... .. .. ....|... .. .. ....
----- ORDER 0C
00 |E-4 06 0F .... ....|G#4 06 .. ....|C#3 00 0F ....|C-5 04 .. ....
01 |... .. .. .... ....|... .. .. ....|... .. .. ....|... .. .. ....
02 |... .. .. .... ....|... .. .. ....|... .. 04 ....|... .. .. ....
03 |... .. .. .... ....|... .. .. ....|... .. .. ....|... .. .. ....
04 |... .. .. .... ....|... .. .. ....|C#3 04 0F ....|C-5 04 .. ....
05 |... .. .. .... ....|... .. .. ....|... .. .. ....|... .. .. ....
06 |... .. .. .... ....|... .. .. ....|... .. 04 ....|... .. .. ....
07 |... .. .. .... ....|... .. .. ....|... .. .. ....|... .. .. ....
08 |... .. .. .... ....|... .. .. ....|C#4 04 0F ....|C-5 05 .. ....
09 |... .. .. .... ....|... .. .. ....|... .. .. ....|... .. .. ....
0A |... .. .. .... ....|... .. .. ....|... .. 04 ....|... .. .. ....
0B |... .. .. .... ....|... .. .. ....|... .. .. ....|... .. .. ....
0C |... .. .. .... ....|... .. .. ....|C#4 04 0F ....|C-5 04 .. ....
0D |... .. .. .... ....|... .. .. ....|... .. .. ....|... .. .. ....
0E |... .. .. .... ....|... .. .. ....|... .. 04 ....|... .. .. ....
0F |... .. .. .... ....|... .. .. ....|... .. .. ....|... .. .. ....
10 |C#4 06 .. .... ....|... .. .. ....|C#3 00 0F ....|C-5 04 .. ....
11 |... .. .. .... ....|... .. .. ....|... .. .. ....|... .. .. ....
12 |... .. .. .... ....|... .. .. ....|... .. 04 ....|... .. .. ....
13 |... .. .. .... ....|... .. .. ....|... .. .. ....|... .. .. ....
14 |... .. .. .... ....|... .. .. ....|C#3 04 0F ....|C-5 04 .. ....
15 |... .. .. .... ....|... .. .. ....|... .. .. ....|... .. .. ....
16 |... .. .. .... ....|... .. .. ....|... .. 04 ....|... .. .. ....
17 |... .. .. .... ....|... .. .. ....|... .. .. ....|... .. .. ....
18 |D#4 06 .. .... ....|... .. .. ....|C#4 04 0F ....|C-5 05 .. ....
19 |... .. .. .... ....|... .. .. ....|... .. .. ....|... .. .. ....
1A |... .. .. .... ....|... .. .. ....|... .. 04 ....|... .. .. ....
1B |... .. .. .... ....|... .. .. ....|... .. .. ....|... .. .. ....
1C |... .. .. .... ....|... .. .. ....|C#4 04 0F ....|C-5 04 .. ....
1D |... .. .. .... ....|... .. .. ....|... .. .. ....|... .. .. ....
1E |... .. .. .... ....|... .. .. ....|... .. 04 ....|... .. .. ....
1F |... .. .. .... ....|... .. .. ....|... .. .. ....|... .. .. ....
20 |E-4 06 .. .... ....|G#4 06 .. ....|C#3 00 0F ....|C-5 04 .. ....
21 |... .. .. .... ....|... .. .. ....|... .. .. ....|... .. .. ....
22 |... .. .. .... ....|... .. .. ....|... .. 04 ....|... .. .. ....
23 |... .. .. .... ....|... .. .. ....|... .. .. ....|... .. .. ....
24 |... .. .. .... ....|... .. .. ....|C#3 04 0F ....|C-5 04 .. ....
25 |... .. .. .... ....|... .. .. ....|... .. .. ....|... .. .. ....
26 |... .. .. .... ....|... .. .. ....|... .. 04 ....|... .. .. ....
27 |... .. .. .... ....|... .. .. ....|... .. .. ....|... .. .. ....
28 |C#4 06 .. .... ....|... .. .. ....|C#4 04 0F ....|C-5 05 .. ....
29 |... .. .. .... ....|... .. .. ....|... .. .. ....|... .. .. ....
2A |... .. .. .... ....|... .. .. ....|... .. 04 ....|... .. .. ....
2B |... .. .. .... ....|... .. .. ....|... .. .. ....|... .. .. ....
2C |... .. .. .... ....|... .. .. ....|C#4 04 0F ....|C-5 04 .. ....
2D |... .. .. .... ....|... .. .. ....|... .. .. ....|... .. .. ....
2E |... .. .. .... ....|... .. .. ....|... .. 04 ....|... .. .. ....
2F |... .. .. .... ....|... .. .. ....|... .. .. ....|... .. .. ....
30 |E-4 06 .. .... ....|G#4 06 .. ....|C#3 00 0F ....|C-5 04 .. ....
31 |... .. .. .... ....|... .. .. ....|... .. .. ....|... .. .. ....
32 |... .. .. .... ....|... .. .. ....|... .. 04 ....|... .. .. ....
33 |... .. .. .... ....|... .. .. ....|... .. .. ....|... .. .. ....
34 |... .. .. .... ....|... .. .. ....|C#3 04 0F ....|C-5 04 .. ....
35 |... .. .. .... ....|... .. .. ....|... .. .. ....|... .. .. ....
36 |... .. .. .... ....|... .. .. ....|... .. 04 ....|... .. .. ....
37 |... .. .. .... ....|... .. .. ....|... .. .. ....|... .. .. ....
38 |C#4 06 .. .... ....|... .. .. ....|C#4 04 0F ....|C-5 05 .. ....
39 |... .. .. .... ....|... .. .. ....|... .. .. ....|... .. .. ....
3A |... .. .. .... ....|... .. .. ....|... .. 04 ....|... .. .. ....
3B |... .. .. .... ....|... .. .. ....|... .. .. ....|... .. .. ....
3C |... .. .. .... ....|... .. .. ....|C#4 04 0F ....|C-5 04 .. ....
3D |... .. .. .... ....|... .. .. ....|... .. .. ....|... .. .. ....
3E |... .. .. .... ....|... .. .. ....|... .. 04 ....|... .. .. ....
3F |... .. .. .... ....|... .. .. ....|... .. .. ....|... .. .. ....
40 |G#4 06 .. .... ....|C#5 06 .. ....|B-2 00 0F ....|C-5 04 .. ....
41 |... .. .. .... ....|... .. .. ....|... .. .. ....|... .. .. ....
42 |... .. .. .... ....|... .. .. ....|... .. 04 ....|... .. .. ....
43 |... .. .. .... ....|... .. .. ....|... .. .. ....|... .. .. ....
44 |... .. .. .... ....|... .. .. ....|B-2 04 0F ....|C-5 04 .. ....
45 |... .. .. .... ....|... .. .. ....|... .. .. ....|... .. .. ....
46 |... .. .. .... ....|... .. .. ....|... .. 04 ....|... .. .. ....
47 |... .. .. .... ....|... .. .. ....|... .. .. ....|... .. .. ....
48 |F#4 06 .. .... ....|B-4 06 .. ....|B-3 04 0F ....|C-5 05 .. ....
49 |... .. .. .... ....|... .. .. ....|... .. .. ....|... .. .. ....
4A |... .. .. .... ....|... .. .. ....|... .. 04 ....|... .. .. ....
4B |... .. .. .... ....|... .. .. ....|... .. .. ....|... .. .. ....
4C |... .. .. .... ....|... .. .. ....|B-3 04 0F ....|C-5 04 .. ....
4D |... .. .. .... ....|... .. .. ....|... .. .. ....|... .. .. ....
4E |... .. .. .... ....|... .. .. ....|... .. 04 ....|... .. .. ....
4F |... .. .. .... ....|... .. .. ....|... .. .. ....|... .. .. ....
50 |B-3 06 .. .... ....|... .. .. ....|B-2 00 0F ....|C-5 04 .. ....
51 |... .. .. .... ....|... .. .. ....|... .. .. ....|... .. .. ....
52 |... .. .. .... ....|... .. .. ....|... .. 04 ....|... .. .. ....
53 |... .. .. .... ....|... .. .. ....|... .. .. ....|... .. .. ....
54 |... .. .. .... ....|... .. .. ....|B-2 04 0F ....|C-5 04 .. ....
55 |... .. .. .... ....|... .. .. ....|... .. .. ....|... .. .. ....
56 |... .. .. .... ....|... .. .. ....|... .. 04 ....|... .. .. ....
57 |... .. .. .... ....|... .. .. ....|... .. .. ....|... .. .. ....
58 |C#4 06 .. .... ....|... .. .. ....|B-3 04 0F ....|C-5 05 .. ....
59 |... .. .. .... ....|... .. .. ....|... .. .. ....|... .. .. ....
5A |... .. .. .... ....|... .. .. ....|... .. 04 ....|... .. .. ....
5B |... .. .. .... ....|... .. .. ....|... .. .. ....|... .. .. ....
5C |... .. .. .... ....|... .. .. ....|B-3 04 0F ....|C-5 04 .. ....
5D |... .. .. .... ....|... .. .. ....|... .. .. ....|... .. .. ....
5E |... .. .. .... ....|... .. .. ....|... .. 04 ....|... .. .. ....
5F |... .. .. .... ....|... .. .. ....|... .. .. ....|... .. .. ....
60 |D#4 06 .. .... ....|F#4 06 .. ....|B-2 00 0F ....|C-5 04 .. ....
61 |... .. .. .... ....|... .. .. ....|... .. .. ....|... .. .. ....
62 |... .. .. .... ....|... .. .. ....|... .. 04 ....|... .. .. ....
63 |... .. .. .... ....|... .. .. ....|... .. .. ....|... .. .. ....
64 |... .. .. .... ....|... .. .. ....|B-2 04 0F ....|C-5 04 .. ....
65 |... .. .. .... ....|... .. .. ....|... .. .. ....|... .. .. ....
66 |... .. .. .... ....|... .. .. ....|... .. 04 ....|... .. .. ....
67 |... .. .. .... ....|... .. .. ....|... .. .. ....|... .. .. ....
68 |... .. .. .... ....|... .. .. ....|B-3 04 0F ....|C-5 05 .. ....
69 |... .. .. .... ....|... .. .. ....|... .. .. ....|... .. .. ....
6A |... .. .. .... ....|... .. .. ....|... .. 04 ....|... .. .. ....
6B |... .. .. .... ....|... .. .. ....|... .. .. ....|... .. .. ....
6C |... .. .. .... ....|... .. .. ....|B-3 04 0F ....|C-5 04 .. ....
6D |... .. .. .... ....|... .. .. ....|... .. .. ....|... .. .. ....
6E |... .. .. .... ....|... .. .. ....|... .. 04 ....|... .. .. ....
6F |... .. .. .... ....|... .. .. ....|... .. .. ....|... .. .. ....
70 |... .. .. .... ....|... .. .. ....|B-2 00 0F ....|C-5 04 .. ....
71 |... .. .. .... ....|... .. .. ....|... .. .. ....|... .. .. ....
72 |... .. .. .... ....|... .. .. ....|... .. 04 ....|... .. .. ....
73 |... .. .. .... ....|... .. .. ....|... .. .. ....|... .. .. ....
74 |... .. .. .... ....|... .. .. ....|B-2 04 0F ....|C-5 04 .. ....
75 |... .. .. .... ....|... .. .. ....|... .. .. ....|... .. .. ....
76 |... .. .. .... ....|... .. .. ....|... .. 04 ....|... .. .. ....
77 |... .. .. .... ....|... .. .. ....|... .. .. ....|... .. .. ....
78 |... .. .. .... ....|... .. .. ....|B-3 04 0F ....|C-5 05 .. ....
79 |... .. .. .... ....|... .. .. ....|... .. .. ....|... .. .. ....
7A |... .. .. .... ....|... .. .. ....|... .. 04 ....|... .. .. ....
7B |... .. .. .... ....|... .. .. ....|... .. .. ....|... .. .. ....
7C |... .. .. .... ....|... .. .. ....|B-3 04 0F ....|C-5 04 .. ....
7D |... .. .. .... ....|... .. .. ....|... .. .. ....|... .. .. ....
7E |... .. .. .... ....|... .. .. ....|... .. 04 ....|... .. .. ....
7F |... .. .. .... ....|... .. .. ....|... .. .. ....|... .. .. ....
----- ORDER 0D
00 |E-4 06 0F .... ....|G#4 06 .. ....|A-2 00 0F ....|C-5 04 .. ....
01 |... .. .. .... ....|... .. .. ....|... .. .. ....|... .. .. ....
02 |... .. .. .... ....|... .. .. ....|... .. 04 ....|... .. .. ....
03 |... .. .. .... ....|... .. .. ....|... .. .. ....|... .. .. ....
04 |... .. .. .... ....|... .. .. ....|A-2 04 0F ....|C-5 04 .. ....
05 |... .. .. .... ....|... .. .. ....|... .. .. ....|... .. .. ....
06 |... .. .. .... ....|... .. .. ....|... .. 04 ....|... .. .. ....
07 |... .. .. .... ....|... .. .. ....|... .. .. ....|... .. .. ....
08 |... .. .. .... ....|... .. .. ....|A-3 04 0F ....|C-5 05 .. ....
09 |... .. .. .... ....|... .. .. ....|... .. .. ....|... .. .. ....
0A |... .. .. .... ....|... .. .. ....|... .. 04 ....|... .. .. ....
0B |... .. .. .... ....|... .. .. ....|... .. .. ....|... .. .. ....
0C |... .. .. .... ....|... .. .. ....|A-3 04 0F ....|C-5 04 .. ....
0D |... .. .. .... ....|... .. .. ....|... .. .. ....|... .. .. ....
0E |... .. .. .... ....|... .. .. ....|... .. 04 ....|... .. .. ....
0F |... .. .. .... ....|... .. .. ....|... .. .. ....|... .. .. ....
10 |C#4 06 .. .... ....|... .. .. ....|A-2 00 0F ....|C-5 04 .. ....
11 |... .. .. .... ....|... .. .. ....|... .. .. ....|... .. .. ....
12 |... .. .. .... ....|... .. .. ....|... .. 04 ....|... .. .. ....
13 |... .. .. .... ....|... .. .. ....|... .. .. ....|... .. .. ....
14 |... .. .. .... ....|... .. .. ....|A-2 04 0F ....|C-5 04 .. ....
15 |... .. .. .... ....|... .. .. ....|... .. .. ....|... .. .. ....
16 |... .. .. .... ....|... .. .. ....|... .. 04 ....|... .. .. ....
17 |... .. .. .... ....|... .. .. ....|... .. .. ....|... .. .. ....
18 |D#4 06 .. .... ....|... .. .. ....|A-3 04 0F ....|C-5 05 .. ....
19 |... .. .. .... ....|... .. .. ....|... .. .. ....|... .. .. ....
1A |... .. .. .... ....|... .. .. ....|... .. 04 ....|... .. .. ....
1B |... .. .. .... ....|... .. .. ....|... .. .. ....|... .. .. ....
1C |... .. .. .... ....|... .. .. ....|A-3 04 0F ....|C-5 04 .. ....
1D |... .. .. .... ....|... .. .. ....|... .. .. ....|... .. .. ....
1E |... .. .. .... ....|... .. .. ....|... .. 04 ....|... .. .. ....
1F |... .. .. .... ....|... .. .. ....|... .. .. ....|... .. .. ....
20 |E-4 06 .. .... ....|G#4 06 .. ....|A-2 00 0F ....|C-5 04 .. ....
21 |... .. .. .... ....|... .. .. ....|... .. .. ....|... .. .. ....
22 |... .. .. .... ....|... .. .. ....|... .. 04 ....|... .. .. ....
23 |... .. .. .... ....|... .. .. ....|... .. .. ....|... .. .. ....
24 |... .. .. .... ....|... .. .. ....|A-2 04 0F ....|C-5 04 .. ....
25 |... .. .. .... ....|... .. .. ....|... .. .. ....|... .. .. ....
26 |... .. .. .... ....|... .. .. ....|... .. 04 ....|... .. .. ....
27 |... .. .. .... ....|... .. .. ....|... .. .. ....|... .. .. ....
28 |C#4 06 .. .... ....|... .. .. ....|A-3 04 0F ....|C-5 05 .. ....
29 |... .. .. .... ....|... .. .. ....|... .. .. ....|... .. .. ....
2A |... .. .. .... ....|... .. .. ....|... .. 04 ....|... .. .. ....
2B |... .. .. .... ....|... .. .. ....|... .. .. ....|... .. .. ....
2C |... .. .. .... ....|... .. .. ....|A-3 04 0F ....|C-5 04 .. ....
2D |... .. .. .... ....|... .. .. ....|... .. .. ....|... .. .. ....
2E |... .. .. .... ....|... .. .. ....|... .. 04 ....|... .. .. ....
2F |... .. .. .... ....|... .. .. ....|... .. .. ....|... .. .. ....
30 |E-4 06 .. .... ....|G#4 06 .. ....|A-2 00 0F ....|C-5 04 .. ....
31 |... .. .. .... ....|... .. .. ....|... .. .. ....|... .. .. ....
32 |... .. .. .... ....|... .. .. ....|... .. 04 ....|... .. .. ....
33 |... .. .. .... ....|... .. .. ....|... .. .. ....|... .. .. ....
34 |... .. .. .... ....|... .. .. ....|A-2 04 0F ....|C-5 04 .. ....
35 |... .. .. .... ....|... .. .. ....|... .. .. ....|... .. .. ....
36 |... .. .. .... ....|... .. .. ....|... .. 04 ....|... .. .. ....
37 |... .. .. .... ....|... .. .. ....|... .. .. ....|... .. .. ....
38 |C#4 06 .. .... ....|... .. .. ....|A-3 04 0F ....|C-5 05 .. ....
39 |... .. .. .... ....|... .. .. ....|... .. .. ....|... .. .. ....
3A |... .. .. .... ....|... .. .. ....|... .. 04 ....|... .. .. ....
3B |... .. .. .... ....|... .. .. ....|... .. .. ....|... .. .. ....
3C |... .. .. .... ....|... .. .. ....|A-3 04 0F ....|C-5 04 .. ....
3D |... .. .. .... ....|... .. .. ....|... .. .. ....|... .. .. ....
3E |... .. .. .... ....|... .. .. ....|... .. 04 ....|... .. .. ....
3F |... .. .. .... ....|... .. .. ....|... .. .. ....|... .. .. ....
40 |D#4 06 .. .... ....|F#4 06 .. ....|B-2 00 0F ....|C-5 04 .. ....
41 |... .. .. .... ....|... .. .. ....|... .. .. ....|... .. .. ....
42 |... .. .. .... ....|... .. .. ....|... .. 04 ....|... .. .. ....
43 |... .. .. .... ....|... .. .. ....|... .. .. ....|... .. .. ....
44 |... .. .. .... ....|... .. .. ....|B-2 04 0F ....|C-5 04 .. ....
45 |... .. .. .... ....|... .. .. ....|... .. .. ....|... .. .. ....
46 |... .. .. .... ....|... .. .. ....|... .. 04 ....|... .. .. ....
47 |... .. .. .... ....|... .. .. ....|... .. .. ....|... .. .. ....
48 |... .. .. .... ....|... .. .. ....|B-3 04 0F ....|C-5 05 .. ....
49 |... .. .. .... ....|... .. .. ....|... .. .. ....|... .. .. ....
4A |... .. .. .... ....|... .. .. ....|... .. 04 ....|... .. .. ....
4B |... .. .. .... ....|... .. .. ....|... .. .. ....|... .. .. ....
4C |... .. .. .... ....|... .. .. ....|B-3 04 0F ....|C-5 04 .. ....
4D |... .. .. .... ....|... .. .. ....|... .. .. ....|... .. .. ....
4E |... .. .. .... ....|... .. .. ....|... .. 04 ....|... .. .. ....
4F |... .. .. .... ....|... .. .. ....|... .. .. ....|... .. .. ....
50 |B-3 06 .. .... ....|... .. .. ....|B-2 00 0F ....|C-5 04 .. ....
51 |... .. .. .... ....|... .. .. ....|... .. .. ....|... .. .. ....
52 |... .. .. .... ....|... .. .. ....|... .. 04 ....|... .. .. ....
53 |... .. .. .... ....|... .. .. ....|... .. .. ....|... .. .. ....
54 |... .. .. .... ....|... .. .. ....|B-2 04 0F ....|C-5 04 .. ....
55 |... .. .. .... ....|... .. .. ....|... .. .. ....|... .. .. ....
56 |... .. .. .... ....|... .. .. ....|... .. 04 ....|... .. .. ....
57 |... .. .. .... ....|... .. .. ....|... .. .. ....|... .. .. ....
58 |C#4 06 .. .... ....|... .. .. ....|B-3 04 0F ....|C-5 05 .. ....
59 |... .. .. .... ....|... .. .. ....|... .. .. ....|... .. .. ....
5A |... .. .. .... ....|... .. .. ....|... .. 04 ....|... .. .. ....
5B |... .. .. .... ....|... .. .. ....|... .. .. ....|... .. .. ....
5C |... .. .. .... ....|... .. .. ....|B-3 04 0F ....|C-5 04 .. ....
5D |... .. .. .... ....|... .. .. ....|... .. .. ....|... .. .. ....
5E |... .. .. .... ....|... .. .. ....|... .. 04 ....|... .. .. ....
5F |... .. .. .... ....|... .. .. ....|... .. .. ....|... .. .. ....
60 |D#4 06 .. .... ....|F#4 06 .. ....|B-2 00 0F ....|C-5 04 .. ....
61 |... .. .. .... ....|... .. .. ....|... .. .. ....|... .. .. ....
62 |... .. .. .... ....|... .. .. ....|... .. 04 ....|... .. .. ....
63 |... .. .. .... ....|... .. .. ....|... .. .. ....|... .. .. ....
64 |... .. .. .... ....|... .. .. ....|B-2 04 0F ....|C-5 04 .. ....
65 |... .. .. .... ....|... .. .. ....|... .. .. ....|... .. .. ....
66 |... .. .. .... ....|... .. .. ....|... .. 04 ....|... .. .. ....
67 |... .. .. .... ....|... .. .. ....|... .. .. ....|... .. .. ....
68 |... .. .. .... ....|... .. .. ....|B-3 04 0F ....|C-5 05 .. ....
69 |... .. .. .... ....|... .. .. ....|... .. .. ....|... .. .. ....
6A |... .. .. .... ....|... .. .. ....|... .. 04 ....|... .. .. ....
6B |... .. .. .... ....|... .. .. ....|... .. .. ....|... .. .. ....
6C |... .. .. .... ....|... .. .. ....|B-3 04 0F ....|C-5 04 .. ....
6D |... .. .. .... ....|... .. .. ....|... .. .. ....|... .. .. ....
6E |... .. .. .... ....|... .. .. ....|... .. 04 ....|... .. .. ....
6F |... .. .. .... ....|... .. .. ....|... .. .. ....|... .. .. ....
70 |... .. .. .... ....|... .. .. ....|B-2 02 0F ....|C-4 03 .. ....
71 |... .. .. .... ....|... .. .. ....|... .. .. ....|... .. .. ....
72 |... .. .. .... ....|... .. .. ....|... .. 04 ....|... .. .. ....
73 |... .. .. .... ....|... .. .. ....|... .. .. ....|... .. .. ....
74 |... .. .. .... ....|... .. .. ....|B-2 02 0F ....|C-4 03 .. ....
75 |... .. .. .... ....|... .. .. ....|... .. .. ....|... .. .. ....
76 |... .. .. .... ....|... .. .. ....|... .. 04 ....|... .. .. ....
77 |... .. .. .... ....|... .. .. ....|... .. .. ....|... .. .. ....
78 |... .. .. .... ....|... .. .. ....|B-3 02 0F ....|C-4 03 .. ....
79 |... .. .. .... ....|... .. .. ....|... .. .. ....|... .. .. ....
7A |... .. .. .... ....|... .. .. ....|... .. 04 ....|... .. .. ....
7B |... .. .. .... ....|... .. .. ....|... .. .. ....|... .. .. ....
7C |... .. .. .... ....|... .. .. ....|B-3 02 0F ....|C-4 03 .. ....
7D |... .. .. .... ....|... .. .. ....|... .. .. ....|... .. .. ....
7E |... .. .. .... ....|... .. .. ....|... .. 04 ....|... .. .. ....
7F |... .. .. .... ....|... .. .. ....|... .. .. ....|... .. .. ....
----- ORDER 0E
00 |C#4 06 0F 1200 ....|G#4 07 .. 0400|C#3 00 0F ....|C-5 04 .. ....
01 |... .. .. .... ....|... .. .. ....|... .. .. ....|... .. .. ....
02 |D#4 06 0F .... ....|... .. .. ....|... .. 04 ....|... .. .. ....
03 |... .. .. .... ....|... .. .. ....|... .. .. ....|... .. .. ....
04 |E-4 06 0E .... ....|... .. .. 0462|C#3 04 0F ....|C-5 04 .. ....
05 |... .. .. .... ....|... .. .. ....|... .. .. ....|... .. .. ....
06 |G#4 06 0E .... ....|... .. .. ....|... .. 04 ....|... .. .. ....
07 |... .. .. .... ....|... .. .. ....|... .. .. ....|... .. .. ....
08 |C#4 06 0D 1201 ....|... .. .. ....|C#4 04 0F ....|C-5 05 .. ....
09 |... .. .. .... ....|... .. .. ....|... .. .. ....|... .. .. ....
0A |D#4 06 0D .... ....|... .. .. ....|... .. 04 ....|... .. .. ....
0B |... .. .. .... ....|... .. .. ....|... .. .. ....|... .. .. ....
0C |E-4 06 0C .... ....|... .. .. ....|C#4 04 0F ....|C-5 04 .. ....
0D |... .. .. .... ....|... .. .. ....|... .. .. ....|... .. .. ....
0E |G#4 06 0C .... ....|... .. .. ....|... .. 04 ....|... .. .. ....
0F |... .. .. .... ....|... .. .. ....|... .. .. ....|... .. .. ....
10 |C#4 06 0B 1202 ....|... .. .. ....|C#3 00 0F ....|C-5 04 .. ....
11 |... .. .. .... ....|... .. .. ....|... .. .. ....|... .. .. ....
12 |D#4 06 0B .... ....|... .. .. ....|... .. 04 ....|... .. .. ....
13 |... .. .. .... ....|... .. .. ....|... .. .. ....|... .. .. ....
14 |E-4 06 0A .... ....|... .. .. ....|C#3 04 0F ....|C-5 04 .. ....
15 |... .. .. .... ....|... .. .. ....|... .. .. ....|... .. .. ....
16 |G#4 06 0A .... ....|... .. .. ....|... .. 04 ....|... .. .. ....
17 |... .. .. .... ....|... .. .. ....|... .. .. ....|... .. .. ....
18 |C#4 06 09 1203 ....|E-4 07 .. 0400|C#4 04 0F ....|C-5 05 .. ....
19 |... .. .. .... ....|... .. .. ....|... .. .. ....|... .. .. ....
1A |D#4 06 09 .... ....|... .. .. ....|... .. 04 ....|... .. .. ....
1B |... .. .. .... ....|... .. .. ....|... .. .. ....|... .. .. ....
1C |E-4 06 08 .... ....|... .. .. 0462|C#4 04 0F ....|C-5 04 .. ....
1D |... .. .. .... ....|... .. .. ....|... .. .. ....|... .. .. ....
1E |G#4 06 08 .... ....|... .. .. ....|... .. 04 ....|... .. .. ....
1F |... .. .. .... ....|... .. .. ....|... .. .. ....|... .. .. ....
20 |C#4 06 07 1203 ....|F#4 07 .. 0400|C#3 00 0F ....|C-5 04 .. ....
21 |... .. .. .... ....|... .. .. ....|... .. .. ....|... .. .. ....
22 |D#4 06 07 .... ....|... .. .. ....|... .. 04 ....|... .. .. ....
23 |... .. .. .... ....|... .. .. ....|... .. .. ....|... .. .. ....
24 |E-4 06 06 .... ....|... .. .. 0462|C#3 04 0F ....|C-5 04 .. ....
25 |... .. .. .... ....|... .. .. ....|... .. .. ....|... .. .. ....
26 |G#4 06 06 .... ....|... .. .. ....|... .. 04 ....|... .. .. ....
27 |... .. .. .... ....|... .. .. ....|... .. .. ....|... .. .. ....
28 |C#4 06 05 1202 ....|... .. .. ....|C#4 04 0F ....|C-5 05 .. ....
29 |... .. .. .... ....|... .. .. ....|... .. .. ....|... .. .. ....
2A |D#4 06 05 .... ....|... .. .. ....|... .. 04 ....|... .. .. ....
2B |... .. .. .... ....|... .. .. ....|... .. .. ....|... .. .. ....
2C |E-4 06 04 .... ....|E-4 07 .. 0400|C#4 04 0F ....|C-5 04 .. ....
2D |... .. .. .... ....|... .. .. ....|... .. .. ....|... .. .. ....
2E |G#4 06 04 .... ....|... .. .. ....|... .. 04 ....|... .. .. ....
2F |... .. .. .... ....|... .. .. ....|... .. .. ....|... .. .. ....
30 |C#4 06 .. 1201 ....|... .. .. 0462|C#3 00 0F ....|C-5 04 .. ....
31 |... .. .. .... ....|... .. .. ....|... .. .. ....|... .. .. ....
32 |D#4 06 .. .... ....|... .. .. ....|... .. 04 ....|... .. .. ....
33 |... .. .. .... ....|... .. .. ....|... .. .. ....|... .. .. ....
34 |E-4 06 .. .... ....|... .. .. ....|C#3 04 0F ....|C-5 04 .. ....
35 |... .. .. .... ....|... .. .. ....|... .. .. ....|... .. .. ....
36 |G#4 06 .. .... ....|... .. .. ....|... .. 04 ....|... .. .. ....
37 |... .. .. .... ....|... .. .. ....|... .. .. ....|... .. .. ....
38 |C#4 06 .. 1200 ....|D#4 07 .. 0400|C#4 04 0F ....|C-5 05 .. ....
39 |... .. .. .... ....|... .. .. ....|... .. .. ....|... .. .. ....
3A |D#4 06 .. .... ....|... .. .. ....|... .. 04 ....|... .. .. ....
3B |... .. .. .... ....|... .. .. ....|... .. .. ....|... .. .. ....
3C |E-4 06 .. .... ....|... .. .. 0462|C#4 04 0F ....|C-5 04 .. ....
3D |... .. .. .... ....|... .. .. ....|... .. .. ....|... .. .. ....
3E |G#4 06 .. .... ....|... .. .. ....|... .. 04 ....|... .. .. ....
3F |... .. .. .... ....|... .. .. ....|... .. .. ....|... .. .. ....
40 |B-3 06 0F 1200 ....|... .. .. ....|B-2 00 0F ....|C-5 04 .. ....
41 |... .. .. .... ....|... .. .. ....|... .. .. ....|... .. .. ....
42 |C#4 06 0F .... ....|... .. .. ....|... .. 04 ....|... .. .. ....
43 |... .. .. .... ....|... .. .. ....|... .. .. ....|... .. .. ....
44 |D#4 06 0E .... ....|... .. .. ....|B-2 04 0F ....|C-5 04 .. ....
45 |... .. .. .... ....|... .. .. ....|... .. .. ....|... .. .. ....
46 |F#4 06 0E .... ....|... .. .. ....|... .. 04 ....|... .. .. ....
47 |... .. .. .... ....|... .. .. ....|... .. .. ....|... .. .. ....
48 |B-3 06 0D 1201 ....|... .. .. ....|B-3 04 0F ....|C-5 05 .. ....
49 |... .. .. .... ....|... .. .. ....|... .. .. ....|... .. .. ....
4A |C#4 06 0D .... ....|... .. .. ....|... .. 04 ....|... .. .. ....
4B |... .. .. .... ....|... .. .. ....|... .. .. ....|... .. .. ....
4C |D#4 06 0C .... ....|... .. .. ....|B-3 04 0F ....|C-5 04 .. ....
4D |... .. .. .... ....|... .. .. ....|... .. .. ....|... .. .. ....
4E |F#4 06 0C .... ....|... .. .. ....|... .. 04 ....|... .. .. ....
4F |... .. .. .... ....|... .. .. ....|... .. .. ....|... .. .. ....
50 |B-3 06 0B 1202 ....|... .. .. ....|B-2 00 0F ....|C-5 04 .. ....
51 |... .. .. .... ....|... .. .. ....|... .. .. ....|... .. .. ....
52 |C#4 06 0B .... ....|... .. .. ....|... .. 04 ....|... .. .. ....
53 |... .. .. .... ....|... .. .. ....|... .. .. ....|... .. .. ....
54 |D#4 06 0A .... ....|... .. .. ....|B-2 04 0F ....|C-5 04 .. ....
55 |... .. .. .... ....|... .. .. ....|... .. .. ....|... .. .. ....
56 |F#4 06 0A .... ....|... .. .. ....|... .. 04 ....|... .. .. ....
57 |... .. .. .... ....|... .. .. ....|... .. .. ....|... .. .. ....
58 |B-3 06 09 1203 ....|... .. .. ....|B-3 04 0F ....|C-5 05 .. ....
59 |... .. .. .... ....|... .. .. ....|... .. .. ....|... .. .. ....
5A |C#4 06 09 .... ....|... .. .. ....|... .. 04 ....|... .. .. ....
5B |... .. .. .... ....|... .. .. ....|... .. .. ....|... .. .. ....
5C |D#4 06 08 .... ....|... .. .. ....|B-3 04 0F ....|C-5 04 .. ....
5D |... .. .. .... ....|... .. .. ....|... .. .. ....|... .. .. ....
5E |F#4 06 08 .... ....|... .. .. ....|... .. 04 ....|... .. .. ....
5F |... .. .. .... ....|... .. .. ....|... .. .. ....|... .. .. ....
60 |B-3 06 07 1203 ....|... .. .. ....|B-2 00 0F ....|C-5 04 .. ....
61 |... .. .. .... ....|... .. .. ....|... .. .. ....|... .. .. ....
62 |C#4 06 07 .... ....|... .. .. ....|... .. 04 ....|... .. .. ....
63 |... .. .. .... ....|... .. .. ....|... .. .. ....|... .. .. ....
64 |D#4 06 06 .... ....|... .. .. ....|B-2 04 0F ....|C-5 04 .. ....
65 |... .. .. .... ....|... .. .. ....|... .. .. ....|... .. .. ....
66 |F#4 06 06 .... ....|... .. .. ....|... .. 04 ....|... .. .. ....
67 |... .. .. .... ....|... .. .. ....|... .. .. ....|... .. .. ....
68 |B-3 06 05 1202 ....|... .. .. ....|B-3 04 0F ....|C-5 05 .. ....
69 |... .. .. .... ....|... .. .. ....|... .. .. ....|... .. .. ....
6A |C#4 06 05 .... ....|... .. .. ....|... .. 04 ....|... .. .. ....
6B |... .. .. .... ....|... .. .. ....|... .. .. ....|... .. .. ....
6C |D#4 06 04 .... ....|... .. .. ....|B-3 04 0F ....|C-5 04 .. ....
6D |... .. .. .... ....|... .. .. ....|... .. .. ....|... .. .. ....
6E |F#4 06 04 .... ....|... .. .. ....|... .. 04 ....|... .. .. ....
6F |... .. .. .... ....|... .. .. ....|... .. .. ....|... .. .. ....
70 |B-3 06 .. 1201 ....|B-3 07 .. 0400|B-2 00 0F ....|C-5 04 .. ....
71 |... .. .. .... ....|... .. .. ....|... .. .. ....|... .. .. ....
72 |C#4 06 .. .... ....|... .. .. ....|... .. 04 ....|... .. .. ....
73 |... .. .. .... ....|... .. .. ....|... .. .. ....|... .. .. ....
74 |D#4 06 .. .... ....|... .. .. 0462|B-2 04 0F ....|C-5 04 .. ....
75 |... .. .. .... ....|... .. .. ....|... .. .. ....|... .. .. ....
76 |F#4 06 .. .... ....|... .. .. ....|... .. 04 ....|... .. .. ....
77 |... .. .. .... ....|... .. .. ....|... .. .. ....|... .. .. ....
78 |B-3 06 .. 1200 ....|... .. .. ....|B-3 04 0F ....|C-5 05 .. ....
79 |... .. .. .... ....|... .. .. ....|... .. .. ....|... .. .. ....
7A |C#4 06 .. .... ....|... .. .. ....|... .. 04 ....|... .. .. ....
7B |... .. .. .... ....|... .. .. ....|... .. .. ....|... .. .. ....
7C |D#4 06 .. .... ....|... .. .. ....|B-3 04 0F ....|C-5 04 .. ....
7D |... .. .. .... ....|... .. .. ....|... .. .. ....|... .. .. ....
7E |F#4 06 .. .... ....|... .. .. ....|... .. 04 ....|... .. .. ....
7F |... .. .. .... ....|... .. .. ....|... .. .. ....|... .. .. ....
----- ORDER 0F
00 |A-3 06 0F 1200 ....|C#4 07 .. 0400|A-2 00 0F ....|C-5 04 .. ....
01 |... .. .. .... ....|... .. .. ....|... .. .. ....|... .. .. ....
02 |B-3 06 0F .... ....|... .. .. ....|... .. 04 ....|... .. .. ....
03 |... .. .. .... ....|... .. .. ....|... .. .. ....|... .. .. ....
04 |C#4 06 0E .... ....|... .. .. 0462|A-2 04 0F ....|C-5 04 .. ....
05 |... .. .. .... ....|... .. .. ....|... .. .. ....|... .. .. ....
06 |E-4 06 0E .... ....|... .. .. ....|... .. 04 ....|... .. .. ....
07 |... .. .. .... ....|... .. .. ....|... .. .. ....|... .. .. ....
08 |A-3 06 0D 1201 ....|... .. .. ....|A-3 04 0F ....|C-5 05 .. ....
09 |... .. .. .... ....|... .. .. ....|... .. .. ....|... .. .. ....
0A |B-3 06 0D .... ....|... .. .. ....|... .. 04 ....|... .. .. ....
0B |... .. .. .... ....|... .. .. ....|... .. .. ....|... .. .. ....
0C |C#4 06 0C .... ....|... .. .. ....|A-3 04 0F ....|C-5 04 .. ....
0D |... .. .. .... ....|... .. .. ....|... .. .. ....|... .. .. ....
0E |E-4 06 0C .... ....|... .. .. ....|... .. 04 ....|... .. .. ....
0F |... .. .. .... ....|... .. .. ....|... .. .. ....|... .. .. ....
10 |A-3 06 0B 1202 ....|... .. .. ....|A-2 00 0F ....|C-5 04 .. ....
11 |... .. .. .... ....|... .. .. ....|... .. .. ....|... .. .. ....
12 |B-3 06 0B .... ....|... .. .. ....|... .. 04 ....|... .. .. ....
13 |... .. .. .... ....|... .. .. ....|... .. .. ....|... .. .. ....
14 |C#4 06 0A .... ....|... .. .. ....|A-2 04 0F ....|C-5 04 .. ....
15 |... .. .. .... ....|... .. .. ....|... .. .. ....|... .. .. ....
16 |E-4 06 0A .... ....|... .. .. ....|... .. 04 ....|... .. .. ....
17 |... .. .. .... ....|... .. .. ....|... .. .. ....|... .. .. ....
18 |A-3 06 09 1203 ....|D#4 07 .. 0400|A-3 04 0F ....|C-5 05 .. ....
19 |... .. .. .... ....|... .. .. ....|... .. .. ....|... .. .. ....
1A |B-3 06 09 .... ....|... .. .. ....|... .. 04 ....|... .. .. ....
1B |... .. .. .... ....|... .. .. ....|... .. .. ....|... .. .. ....
1C |C#4 06 08 .... ....|... .. .. 0462|A-3 04 0F ....|C-5 04 .. ....
1D |... .. .. .... ....|... .. .. ....|... .. .. ....|... .. .. ....
1E |E-4 06 08 .... ....|... .. .. ....|... .. 04 ....|... .. .. ....
1F |... .. .. .... ....|... .. .. ....|... .. .. ....|... .. .. ....
20 |A-3 06 07 1203 ....|E-4 07 .. 0400|A-2 00 0F ....|C-5 04 .. ....
21 |... .. .. .... ....|... .. .. ....|... .. .. ....|... .. .. ....
22 |B-3 06 07 .... ....|... .. .. ....|... .. 04 ....|... .. .. ....
23 |... .. .. .... ....|... .. .. ....|... .. .. ....|... .. .. ....
24 |C#4 06 06 .... ....|... .. .. 0462|A-2 04 0F ....|C-5 04 .. ....
25 |... .. .. .... ....|... .. .. ....|... .. .. ....|... .. .. ....
26 |E-4 06 06 .... ....|... .. .. ....|... .. 04 ....|... .. .. ....
27 |... .. .. .... ....|... .. .. ....|... .. .. ....|... .. .. ....
28 |A-3 06 05 1202 ....|... .. .. ....|A-3 04 0F ....|C-5 05 .. ....
29 |... .. .. .... ....|... .. .. ....|... .. .. ....|... .. .. ....
2A |B-3 06 05 .... ....|... .. .. ....|... .. 04 ....|... .. .. ....
2B |... .. .. .... ....|... .. .. ....|... .. .. ....|... .. .. ....
2C |C#4 06 04 .... ....|D#4 07 .. 04..|A-3 04 0F ....|C-5 04 .. ....
2D |... .. .. .... ....|... .. .. ....|... .. .. ....|... .. .. ....
2E |E-4 06 04 .... ....|... .. .. ....|... .. 04 ....|... .. .. ....
2F |... .. .. .... ....|... .. .. ....|... .. .. ....|... .. .. ....
30 |A-3 06 .. 1201 ....|... .. .. 04..|A-2 00 0F ....|C-5 04 .. ....
31 |... .. .. .... ....|... .. .. ....|... .. .. ....|... .. .. ....
32 |B-3 06 .. .... ....|... .. .. ....|... .. 04 ....|... .. .. ....
33 |... .. .. .... ....|... .. .. ....|... .. .. ....|... .. .. ....
34 |C#4 06 .. .... ....|... .. .. ....|A-2 04 0F ....|C-5 04 .. ....
35 |... .. .. .... ....|... .. .. ....|... .. .. ....|... .. .. ....
36 |E-4 06 .. .... ....|... .. .. ....|... .. 04 ....|... .. .. ....
37 |... .. .. .... ....|... .. .. ....|... .. .. ....|... .. .. ....
38 |A-3 06 .. 1200 ....|E-4 07 .. 0400|A-3 04 0F ....|C-5 05 .. ....
39 |... .. .. .... ....|F#4 07 .. 0304|... .. .. ....|... .. .. ....
3A |B-3 06 .. .... ....|... .. .. ....|... .. 04 ....|... .. .. ....
3B |... .. .. .... ....|... .. .. ....|... .. .. ....|... .. .. ....
3C |C#4 06 .. .... ....|... .. .. 0462|A-3 04 0F ....|C-5 04 .. ....
3D |... .. .. .... ....|... .. .. ....|... .. .. ....|... .. .. ....
3E |E-4 06 .. .... ....|... .. .. ....|... .. 04 ....|... .. .. ....
3F |... .. .. .... ....|... .. .. ....|... .. .. ....|... .. .. ....
40 |B-3 06 0F 1200 ....|... .. .. ....|B-2 00 0F ....|C-5 04 .. ....
41 |... .. .. .... ....|... .. .. ....|... .. .. ....|... .. .. ....
42 |C#4 06 0F .... ....|... .. .. ....|... .. 04 ....|... .. .. ....
43 |... .. .. .... ....|... .. .. ....|... .. .. ....|... .. .. ....
44 |D#4 06 0E .... ....|... .. .. ....|B-2 04 0F ....|C-5 04 .. ....
45 |... .. .. .... ....|... .. .. ....|... .. .. ....|... .. .. ....
46 |F#4 06 0E .... ....|... .. .. ....|... .. 04 ....|... .. .. ....
47 |... .. .. .... ....|... .. .. ....|... .. .. ....|... .. .. ....
48 |B-3 06 0D 1201 ....|... .. .. ....|B-3 04 0F ....|C-5 05 .. ....
49 |... .. .. .... ....|... .. .. ....|... .. .. ....|... .. .. ....
4A |C#4 06 0D .... ....|... .. .. ....|... .. 04 ....|... .. .. ....
4B |... .. .. .... ....|... .. .. ....|... .. .. ....|... .. .. ....
4C |D#4 06 0C .... ....|... .. .. ....|B-3 04 0F ....|C-5 04 .. ....
4D |... .. .. .... ....|... .. .. ....|... .. .. ....|... .. .. ....
4E |F#4 06 0C .... ....|... .. .. ....|... .. 04 ....|... .. .. ....
4F |... .. .. .... ....|... .. .. ....|... .. .. ....|... .. .. ....
50 |B-3 06 0B 1202 ....|... .. .. ....|B-2 00 0F ....|C-5 04 .. ....
51 |... .. .. .... ....|... .. .. ....|... .. .. ....|... .. .. ....
52 |C#4 06 0B .... ....|... .. .. ....|... .. 04 ....|... .. .. ....
53 |... .. .. .... ....|... .. .. ....|... .. .. ....|... .. .. ....
54 |D#4 06 0A .... ....|... .. .. ....|B-2 04 0F ....|C-5 04 .. ....
55 |... .. .. .... ....|... .. .. ....|... .. .. ....|... .. .. ....
56 |F#4 06 0A .... ....|... .. .. ....|... .. 04 ....|... .. .. ....
57 |... .. .. .... ....|... .. .. ....|... .. .. ....|... .. .. ....
58 |B-3 06 09 1203 ....|... .. .. ....|B-3 04 0F ....|C-5 05 .. ....
59 |... .. .. .... ....|... .. .. ....|... .. .. ....|... .. .. ....
5A |C#4 06 09 .... ....|... .. .. ....|... .. 04 ....|... .. .. ....
5B |... .. .. .... ....|... .. .. ....|... .. .. ....|... .. .. ....
5C |D#4 06 08 .... ....|... .. .. ....|B-3 04 0F ....|C-5 04 .. ....
5D |... .. .. .... ....|... .. .. ....|... .. .. ....|... .. .. ....
5E |F#4 06 08 .... ....|... .. .. ....|... .. 04 ....|... .. .. ....
5F |... .. .. .... ....|... .. .. ....|... .. .. ....|... .. .. ....
60 |B-3 06 07 1203 ....|... .. .. ....|B-2 00 0F ....|C-5 04 .. ....
61 |... .. .. .... ....|... .. .. ....|... .. .. ....|... .. .. ....
62 |C#4 06 07 .... ....|... .. .. ....|... .. 04 ....|... .. .. ....
63 |... .. .. .... ....|... .. .. ....|... .. .. ....|... .. .. ....
64 |D#4 06 06 .... ....|... .. .. ....|B-2 04 0F ....|C-5 04 .. ....
65 |... .. .. .... ....|... .. .. ....|... .. .. ....|... .. .. ....
66 |F#4 06 06 .... ....|... .. .. ....|... .. 04 ....|... .. .. ....
67 |... .. .. .... ....|... .. .. ....|... .. .. ....|... .. .. ....
68 |B-3 06 05 1202 ....|... .. .. ....|B-3 04 0F ....|C-5 05 .. ....
69 |... .. .. .... ....|... .. .. ....|... .. .. ....|... .. .. ....
6A |C#4 06 05 .... ....|... .. .. ....|... .. 04 ....|... .. .. ....
6B |... .. .. .... ....|... .. .. ....|... .. .. ....|... .. .. ....
6C |D#4 06 04 .... ....|... .. .. ....|B-3 04 0F ....|C-5 04 .. ....
6D |... .. .. .... ....|... .. .. ....|... .. .. ....|... .. .. ....
6E |F#4 06 04 .... ....|... .. .. ....|... .. 04 ....|... .. .. ....
6F |... .. .. .... ....|... .. .. ....|... .. .. ....|... .. .. ....
70 |B-3 06 .. 1201 ....|... .. .. ....|B-2 00 0F ....|C-5 04 .. ....
71 |... .. .. .... ....|... .. .. ....|... .. .. ....|... .. .. ....
72 |C#4 06 .. .... ....|... .. .. ....|... .. 04 ....|... .. .. ....
73 |... .. .. .... ....|... .. .. ....|... .. .. ....|... .. .. ....
74 |D#4 06 .. .... ....|... .. .. ....|B-2 04 0F ....|C-5 04 .. ....
75 |... .. .. .... ....|... .. .. ....|... .. .. ....|... .. .. ....
76 |F#4 06 .. .... ....|... .. .. ....|... .. 04 ....|... .. .. ....
77 |... .. .. .... ....|... .. .. ....|... .. .. ....|... .. .. ....
78 |B-3 06 .. 1200 ....|... .. .. ....|B-3 04 0F ....|C-5 05 .. ....
79 |... .. .. .... ....|... .. .. ....|... .. .. ....|... .. .. ....
7A |C#4 06 .. .... ....|... .. .. ....|... .. 04 ....|... .. .. ....
7B |... .. .. .... ....|... .. .. ....|... .. .. ....|... .. .. ....
7C |D#4 06 .. .... ....|... .. .. ....|B-3 04 0F ....|C-5 04 .. ....
7D |... .. .. .... ....|... .. .. ....|... .. .. ....|... .. .. ....
7E |F#4 06 .. .... ....|... .. .. ....|... .. 04 ....|... .. .. ....
7F |... .. .. .... ....|... .. .. ....|... .. .. ....|... .. .. ....
----- ORDER 10
00 |C#4 06 0F 1200 ....|G#4 07 .. 0400|C#3 00 0F ....|C-5 04 .. ....
01 |... .. .. .... ....|... .. .. ....|... .. .. ....|... .. .. ....
02 |D#4 06 0F .... ....|... .. .. ....|... .. 04 ....|... .. .. ....
03 |... .. .. .... ....|... .. .. ....|... .. .. ....|... .. .. ....
04 |E-4 06 0E .... ....|... .. .. 0462|C#3 04 0F ....|C-5 04 .. ....
05 |... .. .. .... ....|... .. .. ....|... .. .. ....|... .. .. ....
06 |G#4 06 0E .... ....|... .. .. ....|... .. 04 ....|... .. .. ....
07 |... .. .. .... ....|... .. .. ....|... .. .. ....|... .. .. ....
08 |C#4 06 0D 1201 ....|... .. .. ....|C#4 04 0F ....|C-5 05 .. ....
09 |... .. .. .... ....|... .. .. ....|... .. .. ....|... .. .. ....
0A |D#4 06 0D .... ....|... .. .. ....|... .. 04 ....|... .. .. ....
0B |... .. .. .... ....|... .. .. ....|... .. .. ....|... .. .. ....
0C |E-4 06 0C .... ....|... .. .. ....|C#4 04 0F ....|C-5 04 .. ....
0D |... .. .. .... ....|... .. .. ....|... .. .. ....|... .. .. ....
0E |G#4 06 0C .... ....|... .. .. ....|... .. 04 ....|... .. .. ....
0F |... .. .. .... ....|... .. .. ....|... .. .. ....|... .. .. ....
10 |C#4 06 0B 1202 ....|... .. .. ....|C#3 00 0F ....|C-5 04 .. ....
11 |... .. .. .... ....|... .. .. ....|... .. .. ....|... .. .. ....
12 |D#4 06 0B .... ....|... .. .. ....|... .. 04 ....|... .. .. ....
13 |... .. .. .... ....|... .. .. ....|... .. .. ....|... .. .. ....
14 |E-4 06 0A .... ....|... .. .. ....|C#3 04 0F ....|C-5 04 .. ....
15 |... .. .. .... ....|... .. .. ....|... .. .. ....|... .. .. ....
16 |G#4 06 0A .... ....|... .. .. ....|... .. 04 ....|... .. .. ....
17 |... .. .. .... ....|... .. .. ....|... .. .. ....|... .. .. ....
18 |C#4 06 09 1203 ....|E-4 07 .. 0400|C#4 04 0F ....|C-5 05 .. ....
19 |... .. .. .... ....|... .. .. ....|... .. .. ....|... .. .. ....
1A |D#4 06 09 .... ....|... .. .. ....|... .. 04 ....|... .. .. ....
1B |... .. .. .... ....|... .. .. ....|... .. .. ....|... .. .. ....
1C |E-4 06 08 .... ....|... .. .. 0462|C#4 04 0F ....|C-5 04 .. ....
1D |... .. .. .... ....|... .. .. ....|... .. .. ....|... .. .. ....
1E |G#4 06 08 .... ....|... .. .. ....|... .. 04 ....|... .. .. ....
1F |... .. .. .... ....|... .. .. ....|... .. .. ....|... .. .. ....
20 |C#4 06 07 1203 ....|F#4 07 .. 0400|C#3 00 0F ....|C-5 04 .. ....
21 |... .. .. .... ....|... .. .. ....|... .. .. ....|... .. .. ....
22 |D#4 06 07 .... ....|... .. .. ....|... .. 04 ....|... .. .. ....
23 |... .. .. .... ....|... .. .. ....|... .. .. ....|... .. .. ....
24 |E-4 06 06 .... ....|... .. .. 0462|C#3 04 0F ....|C-5 04 .. ....
25 |... .. .. .... ....|... .. .. ....|... .. .. ....|... .. .. ....
26 |G#4 06 06 .... ....|... .. .. ....|... .. 04 ....|... .. .. ....
27 |... .. .. .... ....|... .. .. ....|... .. .. ....|... .. .. ....
28 |C#4 06 05 1202 ....|... .. .. ....|C#4 04 0F ....|C-5 05 .. ....
29 |... .. .. .... ....|... .. .. ....|... .. .. ....|... .. .. ....
2A |D#4 06 05 .... ....|... .. .. ....|... .. 04 ....|... .. .. ....
2B |... .. .. .... ....|... .. .. ....|... .. .. ....|... .. .. ....
2C |E-4 06 04 .... ....|G#4 07 .. 0400|C#4 04 0F ....|C-5 04 .. ....
2D |... .. .. .... ....|... .. .. ....|... .. .. ....|... .. .. ....
2E |G#4 06 04 .... ....|... .. .. ....|... .. 04 ....|... .. .. ....
2F |... .. .. .... ....|... .. .. ....|... .. .. ....|... .. .. ....
30 |C#4 06 .. 1201 ....|... .. .. 0462|C#3 00 0F ....|C-5 04 .. ....
31 |... .. .. .... ....|... .. .. ....|... .. .. ....|... .. .. ....
32 |D#4 06 .. .... ....|... .. .. ....|... .. 04 ....|... .. .. ....
33 |... .. .. .... ....|... .. .. ....|... .. .. ....|... .. .. ....
34 |E-4 06 .. .... ....|... .. .. ....|C#3 04 0F ....|C-5 04 .. ....
35 |... .. .. .... ....|... .. .. ....|... .. .. ....|... .. .. ....
36 |G#4 06 .. .... ....|... .. .. ....|... .. 04 ....|... .. .. ....
37 |... .. .. .... ....|... .. .. ....|... .. .. ....|... .. .. ....
38 |C#4 06 .. 1200 ....|B-4 07 .. 0400|C#4 04 0F ....|C-5 05 .. ....
39 |... .. .. .... ....|C#5 07 .. 0304|... .. .. ....|... .. .. ....
3A |D#4 06 .. .... ....|... .. .. ....|... .. 04 ....|... .. .. ....
3B |... .. .. .... ....|... .. .. ....|... .. .. ....|... .. .. ....
3C |E-4 06 .. .... ....|... .. .. 0462|C#4 04 0F ....|C-5 04 .. ....
3D |... .. .. .... ....|... .. .. ....|... .. .. ....|... .. .. ....
3E |G#4 06 .. .... ....|... .. .. ....|... .. 04 ....|... .. .. ....
3F |... .. .. .... ....|... .. .. ....|... .. .. ....|... .. .. ....
40 |B-3 06 0F 1200 ....|... .. .. ....|B-2 00 0F ....|C-5 04 .. ....
41 |... .. .. .... ....|... .. .. ....|... .. .. ....|... .. .. ....
42 |C#4 06 0F .... ....|... .. .. ....|... .. 04 ....|... .. .. ....
43 |... .. .. .... ....|... .. .. ....|... .. .. ....|... .. .. ....
44 |D#4 06 0E .... ....|... .. .. ....|B-2 04 0F ....|C-5 04 .. ....
45 |... .. .. .... ....|... .. .. ....|... .. .. ....|... .. .. ....
46 |F#4 06 0E .... ....|... .. .. ....|... .. 04 ....|... .. .. ....
47 |... .. .. .... ....|... .. .. ....|... .. .. ....|... .. .. ....
48 |B-3 06 0D 1201 ....|B-4 07 .. 0400|B-3 04 0F ....|C-5 05 .. ....
49 |... .. .. .... ....|... .. .. ....|... .. .. ....|... .. .. ....
4A |C#4 06 0D .... ....|... .. .. ....|... .. 04 ....|... .. .. ....
4B |... .. .. .... ....|... .. .. ....|... .. .. ....|... .. .. ....
4C |D#4 06 0C .... ....|... .. .. 0462|B-3 04 0F ....|C-5 04 .. ....
4D |... .. .. .... ....|... .. .. ....|... .. .. ....|... .. .. ....
4E |F#4 06 0C .... ....|... .. .. ....|... .. 04 ....|... .. .. ....
4F |... .. .. .... ....|... .. .. ....|... .. .. ....|... .. .. ....
50 |B-3 06 0B 1202 ....|... .. .. ....|B-2 00 0F ....|C-5 04 .. ....
51 |... .. .. .... ....|... .. .. ....|... .. .. ....|... .. .. ....
52 |C#4 06 0B .... ....|... .. .. ....|... .. 04 ....|... .. .. ....
53 |... .. .. .... ....|... .. .. ....|... .. .. ....|... .. .. ....
54 |D#4 06 0A .... ....|... .. .. ....|B-2 04 0F ....|C-5 04 .. ....
55 |... .. .. .... ....|... .. .. ....|... .. .. ....|... .. .. ....
56 |F#4 06 0A .... ....|... .. .. ....|... .. 04 ....|... .. .. ....
57 |... .. .. .... ....|... .. .. ....|... .. .. ....|... .. .. ....
58 |B-3 06 09 1203 ....|... .. .. ....|B-3 04 0F ....|C-5 05 .. ....
59 |... .. .. .... ....|... .. .. ....|... .. .. ....|... .. .. ....
5A |C#4 06 09 .... ....|... .. .. ....|... .. 04 ....|... .. .. ....
5B |... .. .. .... ....|... .. .. ....|... .. .. ....|... .. .. ....
5C |D#4 06 08 .... ....|... .. .. ....|B-3 04 0F ....|C-5 04 .. ....
5D |... .. .. .... ....|... .. .. ....|... .. .. ....|... .. .. ....
5E |F#4 06 08 .... ....|... .. .. ....|... .. 04 ....|... .. .. ....
5F |... .. .. .... ....|... .. .. ....|... .. .. ....|... .. .. ....
60 |B-3 06 07 1203 ....|... .. .. ....|B-2 00 0F ....|C-5 04 .. ....
61 |... .. .. .... ....|... .. .. ....|... .. .. ....|... .. .. ....
62 |C#4 06 07 .... ....|... .. .. ....|... .. 04 ....|... .. .. ....
63 |... .. .. .... ....|... .. .. ....|... .. .. ....|... .. .. ....
64 |D#4 06 06 .... ....|... .. .. ....|B-2 04 0F ....|C-5 04 .. ....
65 |... .. .. .... ....|... .. .. ....|... .. .. ....|... .. .. ....
66 |F#4 06 06 .... ....|... .. .. ....|... .. 04 ....|... .. .. ....
67 |... .. .. .... ....|... .. .. ....|... .. .. ....|... .. .. ....
68 |B-3 06 05 1202 ....|... .. .. ....|B-3 04 0F ....|C-5 05 .. ....
69 |... .. .. .... ....|... .. .. ....|... .. .. ....|... .. .. ....
6A |C#4 06 05 .... ....|... .. .. ....|... .. 04 ....|... .. .. ....
6B |... .. .. .... ....|... .. .. ....|... .. .. ....|... .. .. ....
6C |D#4 06 04 .... ....|... .. .. ....|B-3 04 0F ....|C-5 04 .. ....
6D |... .. .. .... ....|... .. .. ....|... .. .. ....|... .. .. ....
6E |F#4 06 04 .... ....|... .. .. ....|... .. 04 ....|... .. .. ....
6F |... .. .. .... ....|... .. .. ....|... .. .. ....|... .. .. ....
70 |B-3 06 .. 1201 ....|F#4 07 .. 0400|B-2 00 0F ....|C-5 04 .. ....
71 |... .. .. .... ....|... .. .. ....|... .. .. ....|... .. .. ....
72 |C#4 06 .. .... ....|... .. .. ....|... .. 04 ....|... .. .. ....
73 |... .. .. .... ....|... .. .. ....|... .. .. ....|... .. .. ....
74 |D#4 06 .. .... ....|E-4 07 .. ....|B-2 04 0F ....|C-5 04 .. ....
75 |... .. .. .... ....|... .. .. ....|... .. .. ....|... .. .. ....
76 |F#4 06 .. .... ....|... .. .. ....|... .. 04 ....|... .. .. ....
77 |... .. .. .... ....|... .. .. ....|... .. .. ....|... .. .. ....
78 |B-3 06 .. 1200 ....|C#4 07 .. ....|B-3 04 0F ....|C-5 05 .. ....
79 |... .. .. .... ....|... .. .. ....|... .. .. ....|... .. .. ....
7A |C#4 06 .. .... ....|... .. .. ....|... .. 04 ....|... .. .. ....
7B |... .. .. .... ....|... .. .. ....|... .. .. ....|... .. .. ....
7C |D#4 06 .. .... ....|D#4 07 .. ....|B-3 04 0F ....|C-5 04 .. ....
7D |... .. .. .... ....|... .. .. ....|... .. .. ....|... .. .. ....
7E |F#4 06 .. .... ....|... .. .. ....|... .. 04 ....|... .. .. ....
7F |... .. .. .... ....|... .. .. ....|... .. .. ....|... .. .. ....
----- ORDER 11
00 |A-3 06 0F 1200 ....|C#4 07 .. 0400|A-2 00 0F ....|C-5 04 .. ....
01 |... .. .. .... ....|... .. .. ....|... .. .. ....|... .. .. ....
02 |B-3 06 0F .... ....|... .. .. ....|... .. 04 ....|... .. .. ....
03 |... .. .. .... ....|... .. .. ....|... .. .. ....|... .. .. ....
04 |C#4 06 0E .... ....|... .. .. 0462|A-2 04 0F ....|C-5 04 .. ....
05 |... .. .. .... ....|... .. .. ....|... .. .. ....|... .. .. ....
06 |E-4 06 0E .... ....|... .. .. ....|... .. 04 ....|... .. .. ....
07 |... .. .. .... ....|... .. .. ....|... .. .. ....|... .. .. ....
08 |A-3 06 0D 1201 ....|... .. .. ....|A-3 04 0F ....|C-5 05 .. ....
09 |... .. .. .... ....|... .. .. ....|... .. .. ....|... .. .. ....
0A |B-3 06 0D .... ....|... .. .. ....|... .. 04 ....|... .. .. ....
0B |... .. .. .... ....|... .. .. ....|... .. .. ....|... .. .. ....
0C |C#4 06 0C .... ....|... .. .. ....|A-3 04 0F ....|C-5 04 .. ....
0D |... .. .. .... ....|... .. .. ....|... .. .. ....|... .. .. ....
0E |E-4 06 0C .... ....|... .. .. ....|... .. 04 ....|... .. .. ....
0F |... .. .. .... ....|... .. .. ....|... .. .. ....|... .. .. ....
10 |A-3 06 0B 1202 ....|... .. .. ....|A-2 00 0F ....|C-5 04 .. ....
11 |... .. .. .... ....|... .. .. ....|... .. .. ....|... .. .. ....
12 |B-3 06 0B .... ....|... .. .. ....|... .. 04 ....|... .. .. ....
13 |... .. .. .... ....|... .. .. ....|... .. .. ....|... .. .. ....
14 |C#4 06 0A .... ....|... .. .. ....|A-2 04 0F ....|C-5 04 .. ....
15 |... .. .. .... ....|... .. .. ....|... .. .. ....|... .. .. ....
16 |E-4 06 0A .... ....|... .. .. ....|... .. 04 ....|... .. .. ....
17 |... .. .. .... ....|... .. .. ....|... .. .. ....|... .. .. ....
18 |A-3 06 09 1203 ....|D#4 07 .. 0400|A-3 04 0F ....|C-5 05 .. ....
19 |... .. .. .... ....|... .. .. ....|... .. .. ....|... .. .. ....
1A |B-3 06 09 .... ....|... .. .. ....|... .. 04 ....|... .. .. ....
1B |... .. .. .... ....|... .. .. ....|... .. .. ....|... .. .. ....
1C |C#4 06 08 .... ....|... .. .. 0462|A-3 04 0F ....|C-5 04 .. ....
1D |... .. .. .... ....|... .. .. ....|... .. .. ....|... .. .. ....
1E |E-4 06 08 .... ....|... .. .. ....|... .. 04 ....|... .. .. ....
1F |... .. .. .... ....|... .. .. ....|... .. .. ....|... .. .. ....
20 |A-3 06 07 1203 ....|E-4 07 .. 0400|A-2 00 0F ....|C-5 04 .. ....
21 |... .. .. .... ....|... .. .. ....|... .. .. ....|... .. .. ....
22 |B-3 06 07 .... ....|... .. .. ....|... .. 04 ....|... .. .. ....
23 |... .. .. .... ....|... .. .. ....|... .. .. ....|... .. .. ....
24 |C#4 06 06 .... ....|... .. .. 0462|A-2 04 0F ....|C-5 04 .. ....
25 |... .. .. .... ....|... .. .. ....|... .. .. ....|... .. .. ....
26 |E-4 06 06 .... ....|... .. .. ....|... .. 04 ....|... .. .. ....
27 |... .. .. .... ....|... .. .. ....|... .. .. ....|... .. .. ....
28 |A-3 06 05 1202 ....|... .. .. ....|A-3 04 0F ....|C-5 05 .. ....
29 |... .. .. .... ....|... .. .. ....|... .. .. ....|... .. .. ....
2A |B-3 06 05 .... ....|... .. .. ....|... .. 04 ....|... .. .. ....
2B |... .. .. .... ....|... .. .. ....|... .. .. ....|... .. .. ....
2C |C#4 06 04 .... ....|D#4 07 .. 04..|A-3 04 0F ....|C-5 04 .. ....
2D |... .. .. .... ....|... .. .. ....|... .. .. ....|... .. .. ....
2E |E-4 06 04 .... ....|... .. .. ....|... .. 04 ....|... .. .. ....
2F |... .. .. .... ....|... .. .. ....|... .. .. ....|... .. .. ....
30 |A-3 06 .. 1201 ....|... .. .. 04..|A-2 00 0F ....|C-5 04 .. ....
31 |... .. .. .... ....|... .. .. ....|... .. .. ....|... .. .. ....
32 |B-3 06 .. .... ....|... .. .. ....|... .. 04 ....|... .. .. ....
33 |... .. .. .... ....|... .. .. ....|... .. .. ....|... .. .. ....
34 |C#4 06 .. .... ....|... .. .. ....|A-2 04 0F ....|C-5 04 .. ....
35 |... .. .. .... ....|... .. .. ....|... .. .. ....|... .. .. ....
36 |E-4 06 .. .... ....|... .. .. ....|... .. 04 ....|... .. .. ....
37 |... .. .. .... ....|... .. .. ....|... .. .. ....|... .. .. ....
38 |A-3 06 .. 1200 ....|E-4 07 .. 0400|A-3 04 0F ....|C-5 05 .. ....
39 |... .. .. .... ....|F#4 07 .. 0304|... .. .. ....|... .. .. ....
3A |B-3 06 .. .... ....|... .. .. ....|... .. 04 ....|... .. .. ....
3B |... .. .. .... ....|... .. .. ....|... .. .. ....|... .. .. ....
3C |C#4 06 .. .... ....|... .. .. 0462|A-3 04 0F ....|C-5 04 .. ....
3D |... .. .. .... ....|... .. .. ....|... .. .. ....|... .. .. ....
3E |E-4 06 .. .... ....|... .. .. ....|... .. 04 ....|... .. .. ....
3F |... .. .. .... ....|... .. .. ....|... .. .. ....|... .. .. ....
40 |B-3 06 0F 1200 ....|... .. .. ....|B-2 00 0F ....|C-5 04 .. ....
41 |... .. .. .... ....|... .. .. ....|... .. .. ....|... .. .. ....
42 |C#4 06 0F .... ....|... .. .. ....|... .. 04 ....|... .. .. ....
43 |... .. .. .... ....|... .. .. ....|... .. .. ....|... .. .. ....
44 |D#4 06 0E .... ....|... .. .. ....|B-2 04 0F ....|C-5 04 .. ....
45 |... .. .. .... ....|... .. .. ....|... .. .. ....|... .. .. ....
46 |F#4 06 0E .... ....|... .. .. ....|... .. 04 ....|... .. .. ....
47 |... .. .. .... ....|... .. .. ....|... .. .. ....|... .. .. ....
48 |B-3 06 0D 1201 ....|... .. .. ....|B-3 04 0F ....|C-5 05 .. ....
49 |... .. .. .... ....|... .. .. ....|... .. .. ....|... .. .. ....
4A |C#4 06 0D .... ....|... .. .. ....|... .. 04 ....|... .. .. ....
4B |... .. .. .... ....|... .. .. ....|... .. .. ....|... .. .. ....
4C |D#4 06 0C .... ....|... .. .. ....|B-3 04 0F ....|C-5 04 .. ....
4D |... .. .. .... ....|... .. .. ....|... .. .. ....|... .. .. ....
4E |F#4 06 0C .... ....|... .. .. ....|... .. 04 ....|... .. .. ....
4F |... .. .. .... ....|... .. .. ....|... .. .. ....|... .. .. ....
50 |B-3 06 0B 1202 ....|... .. .. ....|B-2 00 0F ....|C-5 04 .. ....
51 |... .. .. .... ....|... .. .. ....|... .. .. ....|... .. .. ....
52 |C#4 06 0B .... ....|... .. .. ....|... .. 04 ....|... .. .. ....
53 |... .. .. .... ....|... .. .. ....|... .. .. ....|... .. .. ....
54 |D#4 06 0A .... ....|... .. .. ....|B-2 04 0F ....|C-5 04 .. ....
55 |... .. .. .... ....|... .. .. ....|... .. .. ....|... .. .. ....
56 |F#4 06 0A .... ....|... .. .. ....|... .. 04 ....|... .. .. ....
57 |... .. .. .... ....|... .. .. ....|... .. .. ....|... .. .. ....
58 |B-3 06 09 1203 ....|... .. .. ....|B-3 04 0F ....|C-5 05 .. ....
59 |... .. .. .... ....|... .. .. ....|... .. .. ....|... .. .. ....
5A |C#4 06 09 .... ....|... .. .. ....|... .. 04 ....|... .. .. ....
5B |... .. .. .... ....|... .. .. ....|... .. .. ....|... .. .. ....
5C |D#4 06 08 .... ....|... .. .. ....|B-3 04 0F ....|C-5 04 .. ....
5D |... .. .. .... ....|... .. .. ....|... .. .. ....|... .. .. ....
5E |F#4 06 08 .... ....|... .. .. ....|... .. 04 ....|... .. .. ....
5F |... .. .. .... ....|... .. .. ....|... .. .. ....|... .. .. ....
60 |B-3 06 07 1203 ....|... .. .. ....|B-2 00 0F ....|C-5 04 .. ....
61 |... .. .. .... ....|... .. .. ....|... .. .. ....|... .. .. ....
62 |C#4 06 07 .... ....|... .. .. ....|... .. 04 ....|... .. .. ....
63 |... .. .. .... ....|... .. .. ....|... .. .. ....|... .. .. ....
64 |D#4 06 06 .... ....|... .. .. ....|B-2 04 0F ....|C-5 04 .. ....
65 |... .. .. .... ....|... .. .. ....|... .. .. ....|... .. .. ....
66 |F#4 06 06 .... ....|... .. .. ....|... .. 04 ....|... .. .. ....
67 |... .. .. .... ....|... .. .. ....|... .. .. ....|... .. .. ....
68 |B-3 06 05 1202 ....|... .. .. ....|B-3 04 0F ....|C-5 05 .. ....
69 |... .. .. .... ....|... .. .. ....|... .. .. ....|... .. .. ....
6A |C#4 06 05 .... ....|... .. .. ....|... .. 04 ....|... .. .. ....
6B |... .. .. .... ....|... .. .. ....|... .. .. ....|... .. .. ....
6C |D#4 06 04 .... ....|... .. .. ....|B-3 04 0F ....|C-5 04 .. ....
6D |... .. .. .... ....|... .. .. ....|... .. .. ....|... .. .. ....
6E |F#4 06 04 .... ....|... .. .. ....|... .. 04 ....|... .. .. ....
6F |... .. .. .... ....|... .. .. ....|... .. .. ....|... .. .. ....
70 |B-3 06 .. 1201 ....|E-4 07 0F 0400|B-2 02 0F ....|C-4 03 .. ....
71 |... .. .. .... ....|... .. .. ....|... .. .. ....|... .. .. ....
72 |C#4 06 .. .... ....|... .. .. ....|... .. 04 ....|... .. .. ....
73 |... .. .. .... ....|... .. .. ....|... .. .. ....|... .. .. ....
74 |D#4 06 .. .... ....|D#4 07 .. ....|B-2 02 0F ....|C-4 03 .. ....
75 |... .. .. .... ....|... .. .. ....|... .. .. ....|... .. .. ....
76 |F#4 06 .. .... ....|... .. .. ....|... .. 04 ....|... .. .. ....
77 |... .. .. .... ....|... .. .. ....|... .. .. ....|... .. .. ....
78 |B-3 06 .. 1200 ....|C#4 07 .. ....|B-3 02 0F ....|C-4 03 .. ....
79 |... .. .. .... ....|... .. .. ....|... .. .. ....|... .. .. ....
7A |C#4 06 .. .... ....|... .. .. ....|... .. 04 ....|... .. .. ....
7B |... .. .. .... ....|... .. .. ....|... .. .. ....|... .. .. ....
7C |D#4 06 .. .... ....|D#4 07 .. ....|B-3 02 0F ....|C-4 03 .. ....
7D |... .. .. .... ....|... .. .. ....|... .. .. ....|... .. .. ....
7E |F#4 06 .. .... ....|... .. .. ....|... .. 04 ....|... .. .. ....
7F |... .. .. .... ....|... .. .. ....|... .. .. ....|... .. .. ....
----- ORDER 12
00 |C#4 06 0F 1200 ....|C#4 07 .. 0400|C#3 00 0F ....|C-5 04 .. ....
01 |... .. .. .... ....|... .. .. ....|... .. .. ....|... .. .. ....
02 |D#4 06 0F .... ....|... .. .. ....|... .. 04 ....|... .. .. ....
03 |... .. .. .... ....|... .. .. ....|... .. .. ....|... .. .. ....
04 |E-4 06 0E .... ....|... .. .. 0462|C#3 04 0F ....|C-5 04 .. ....
05 |... .. .. .... ....|... .. .. ....|... .. .. ....|... .. .. ....
06 |G#4 06 0E .... ....|... .. .. ....|... .. 04 ....|... .. .. ....
07 |... .. .. .... ....|... .. .. ....|... .. .. ....|... .. .. ....
08 |C#4 06 0D 1201 ....|... .. .. ....|C#4 04 0F ....|C-5 05 .. ....
09 |... .. .. .... ....|... .. .. ....|... .. .. ....|... .. .. ....
0A |D#4 06 0D .... ....|... .. .. ....|... .. 04 ....|... .. .. ....
0B |... .. .. .... ....|... .. .. ....|... .. .. ....|... .. .. ....
0C |E-4 06 0C .... ....|... .. .. ....|C#4 04 0F ....|C-5 04 .. ....
0D |... .. .. .... ....|... .. .. ....|... .. .. ....|... .. .. ....
0E |G#4 06 0C .... ....|... .. .. ....|... .. 04 ....|... .. .. ....
0F |... .. .. .... ....|... .. .. ....|... .. .. ....|... .. .. ....
10 |C#4 06 0B 1202 ....|... .. .. ....|C#3 02 0F ....|C-4 03 .. ....
11 |... .. .. .... ....|... .. .. ....|... .. .. ....|... .. .. ....
12 |D#4 06 0B .... ....|... .. .. ....|... .. 04 ....|... .. .. ....
13 |... .. .. .... ....|... .. .. ....|... .. .. ....|... .. .. ....
14 |E-4 06 0A .... ....|... .. .. ....|C#3 04 0F ....|C-5 04 .. ....
15 |... .. .. .... ....|... .. .. ....|... .. .. ....|... .. .. ....
16 |G#4 06 0A .... ....|... .. .. ....|... .. 04 ....|... .. .. ....
17 |... .. .. .... ....|... .. .. ....|... .. .. ....|... .. .. ....
18 |C#4 06 09 1203 ....|D#4 07 .. 0400|C#4 04 0F ....|C-5 05 .. ....
19 |... .. .. .... ....|... .. .. ....|... .. .. ....|... .. .. ....
1A |D#4 06 09 .... ....|... .. .. ....|... .. 04 ....|... .. .. ....
1B |... .. .. .... ....|... .. .. ....|... .. .. ....|... .. .. ....
1C |E-4 06 08 .... ....|... .. .. 0462|C#4 04 0F ....|C-5 04 .. ....
1D |... .. .. .... ....|... .. .. ....|... .. .. ....|... .. .. ....
1E |G#4 06 08 .... ....|... .. .. ....|... .. 04 ....|... .. .. ....
1F |... .. .. .... ....|... .. .. ....|... .. .. ....|... .. .. ....
20 |C#4 06 07 1203 ....|E-4 07 .. 0400|C#3 00 0F ....|C-5 04 .. ....
21 |... .. .. .... ....|... .. .. ....|... .. .. ....|... .. .. ....
22 |D#4 06 07 .... ....|... .. .. ....|... .. 04 ....|... .. .. ....
23 |... .. .. .... ....|... .. .. ....|... .. .. ....|... .. .. ....
24 |E-4 06 06 .... ....|... .. .. 0462|C#3 04 0F ....|C-5 04 .. ....
25 |... .. .. .... ....|... .. .. ....|... .. .. ....|... .. .. ....
26 |G#4 06 06 .... ....|... .. .. ....|... .. 04 ....|... .. .. ....
27 |... .. .. .... ....|... .. .. ....|... .. .. ....|... .. .. ....
28 |C#4 06 05 1202 ....|... .. .. ....|C#4 04 0F ....|C-5 05 .. ....
29 |... .. .. .... ....|... .. .. ....|... .. .. ....|... .. .. ....
2A |D#4 06 05 .... ....|... .. .. ....|... .. 04 ....|... .. .. ....
2B |... .. .. .... ....|... .. .. ....|... .. .. ....|... .. .. ....
2C |E-4 06 04 .... ....|C#4 07 .. 0400|C#4 04 0F ....|C-5 04 .. ....
2D |... .. .. .... ....|... .. .. ....|... .. .. ....|... .. .. ....
2E |G#4 06 04 .... ....|... .. .. ....|... .. 04 ....|... .. .. ....
2F |... .. .. .... ....|... .. .. ....|... .. .. ....|... .. .. ....
30 |C#4 06 .. 1201 ....|... .. .. 0462|C#3 02 0F ....|C-4 03 .. ....
31 |... .. .. .... ....|... .. .. ....|... .. .. ....|... .. .. ....
32 |D#4 06 .. .... ....|... .. .. ....|... .. 04 ....|... .. .. ....
33 |... .. .. .... ....|... .. .. ....|... .. .. ....|... .. .. ....
34 |E-4 06 .. .... ....|... .. .. ....|C#3 04 0F ....|C-5 04 .. ....
35 |... .. .. .... ....|... .. .. ....|... .. .. ....|... .. .. ....
36 |G#4 06 .. .... ....|... .. .. ....|... .. 04 ....|... .. .. ....
37 |... .. .. .... ....|... .. .. ....|... .. .. ....|... .. .. ....
38 |C#4 06 .. 1200 ....|B-3 07 .. 0400|C#4 04 0F ....|C-5 05 .. ....
39 |... .. .. .... ....|... .. .. ....|... .. .. ....|... .. .. ....
3A |D#4 06 .. .... ....|... .. .. ....|... .. 04 ....|... .. .. ....
3B |... .. .. .... ....|... .. .. ....|... .. .. ....|... .. .. ....
3C |E-4 06 .. .... ....|... .. .. 0462|C#4 04 0F ....|C-5 04 .. ....
3D |... .. .. .... ....|... .. .. ....|... .. .. ....|... .. .. ....
3E |G#4 06 .. .... ....|... .. .. ....|... .. 04 ....|... .. .. ....
3F |... .. .. .... ....|... .. .. ....|... .. .. ....|... .. .. ....
40 |B-3 06 0F 1200 ....|... .. .. ....|B-2 00 0F ....|C-5 04 .. ....
41 |... .. .. .... ....|... .. .. ....|... .. .. ....|... .. .. ....
42 |C#4 06 0F .... ....|... .. .. ....|... .. 04 ....|... .. .. ....
43 |... .. .. .... ....|... .. .. ....|... .. .. ....|... .. .. ....
44 |D#4 06 0E .... ....|... .. .. ....|B-2 04 0F ....|C-5 04 .. ....
45 |... .. .. .... ....|... .. .. ....|... .. .. ....|... .. .. ....
46 |F#4 06 0E .... ....|... .. .. ....|... .. 04 ....|... .. .. ....
47 |... .. .. .... ....|... .. .. ....|... .. .. ....|... .. .. ....
48 |B-3 06 0D 1201 ....|... .. .. ....|B-3 04 0F ....|C-5 05 .. ....
49 |... .. .. .... ....|... .. .. ....|... .. .. ....|... .. .. ....
4A |C#4 06 0D .... ....|... .. .. ....|... .. 04 ....|... .. .. ....
4B |... .. .. .... ....|... .. .. ....|... .. .. ....|... .. .. ....
4C |D#4 06 0C .... ....|... .. .. ....|B-3 04 0F ....|C-5 04 .. ....
4D |... .. .. .... ....|... .. .. ....|... .. .. ....|... .. .. ....
4E |F#4 06 0C .... ....|... .. .. ....|... .. 04 ....|... .. .. ....
4F |... .. .. .... ....|... .. .. ....|... .. .. ....|... .. .. ....
50 |B-3 06 0B 1202 ....|... .. .. ....|B-2 02 0F ....|C-4 03 .. ....
51 |... .. .. .... ....|... .. .. ....|... .. .. ....|... .. .. ....
52 |C#4 06 0B .... ....|... .. .. ....|... .. 04 ....|... .. .. ....
53 |... .. .. .... ....|... .. .. ....|... .. .. ....|... .. .. ....
54 |D#4 06 0A .... ....|... .. .. ....|B-2 04 0F ....|C-5 04 .. ....
55 |... .. .. .... ....|... .. .. ....|... .. .. ....|... .. .. ....
56 |F#4 06 0A .... ....|... .. .. ....|... .. 04 ....|... .. .. ....
57 |... .. .. .... ....|... .. .. ....|... .. .. ....|... .. .. ....
58 |B-3 06 09 1203 ....|... .. .. ....|B-3 04 0F ....|C-5 05 .. ....
59 |... .. .. .... ....|... .. .. ....|... .. .. ....|... .. .. ....
5A |C#4 06 09 .... ....|... .. .. ....|... .. 04 ....|... .. .. ....
5B |... .. .. .... ....|... .. .. ....|... .. .. ....|... .. .. ....
5C |D#4 06 08 .... ....|... .. .. ....|B-3 04 0F ....|C-5 04 .. ....
5D |... .. .. .... ....|... .. .. ....|... .. .. ....|... .. .. ....
5E |F#4 06 08 .... ....|... .. .. ....|... .. 04 ....|... .. .. ....
5F |... .. .. .... ....|... .. .. ....|... .. .. ....|... .. .. ....
60 |B-3 06 07 1203 ....|... .. .. ....|B-2 00 0F ....|C-5 04 .. ....
61 |... .. .. .... ....|... .. .. ....|... .. .. ....|... .. .. ....
62 |C#4 06 07 .... ....|... .. .. ....|... .. 04 ....|... .. .. ....
63 |... .. .. .... ....|... .. .. ....|... .. .. ....|... .. .. ....
64 |D#4 06 06 .... ....|... .. .. ....|B-2 04 0F ....|C-5 04 .. ....
65 |... .. .. .... ....|... .. .. ....|... .. .. ....|... .. .. ....
66 |F#4 06 06 .... ....|... .. .. ....|... .. 04 ....|... .. .. ....
67 |... .. .. .... ....|... .. .. ....|... .. .. ....|... .. .. ....
68 |B-3 06 05 1202 ....|... .. .. ....|B-3 04 0F ....|C-5 05 .. ....
69 |... .. .. .... ....|... .. .. ....|... .. .. ....|... .. .. ....
6A |C#4 06 05 .... ....|... .. .. ....|... .. 04 ....|... .. .. ....
6B |... .. .. .... ....|... .. .. ....|... .. .. ....|... .. .. ....
6C |D#4 06 04 .... ....|... .. .. ....|B-3 04 0F ....|C-5 04 .. ....
6D |... .. .. .... ....|... .. .. ....|... .. .. ....|... .. .. ....
6E |F#4 06 04 .... ....|... .. .. ....|... .. 04 ....|... .. .. ....
6F |... .. .. .... ....|... .. .. ....|... .. .. ....|... .. .. ....
70 |B-3 06 .. 1201 ....|D#4 07 .. 0400|B-2 02 0F ....|C-4 03 .. ....
71 |... .. .. .... ....|... .. .. ....|... .. .. ....|... .. .. ....
72 |C#4 06 .. .... ....|... .. .. ....|... .. 04 ....|... .. .. ....
73 |... .. .. .... ....|... .. .. ....|... .. .. ....|... .. .. ....
74 |D#4 06 .. .... ....|... .. .. 0462|B-2 04 0F ....|C-5 04 .. ....
75 |... .. .. .... ....|... .. .. ....|... .. .. ....|... .. .. ....
76 |F#4 06 .. .... ....|... .. .. ....|... .. 04 ....|... .. .. ....
77 |... .. .. .... ....|... .. .. ....|... .. .. ....|... .. .. ....
78 |B-3 06 .. 1200 ....|... .. .. ....|B-3 04 0F ....|C-5 05 .. ....
79 |... .. .. .... ....|... .. .. ....|... .. .. ....|... .. .. ....
7A |C#4 06 .. .... ....|... .. .. ....|... .. 04 ....|... .. .. ....
7B |... .. .. .... ....|... .. .. ....|... .. .. ....|... .. .. ....
7C |D#4 06 .. .... ....|... .. .. ....|B-3 04 0F ....|C-5 04 .. ....
7D |... .. .. .... ....|... .. .. ....|... .. .. ....|... .. .. ....
7E |F#4 06 .. .... ....|... .. .. ....|... .. 04 ....|... .. .. ....
7F |... .. .. .... ....|... .. .. ....|... .. .. ....|... .. .. ....
----- ORDER 13
00 |A-3 06 0F 1200 ....|C#4 07 .. 0400|A-2 00 0F ....|C-5 04 .. ....
01 |... .. .. .... ....|... .. .. ....|... .. .. ....|... .. .. ....
02 |B-3 06 0F .... ....|... .. .. ....|... .. 04 ....|... .. .. ....
03 |... .. .. .... ....|... .. .. ....|... .. .. ....|... .. .. ....
04 |C#4 06 0E .... ....|... .. .. 0462|A-2 04 0F ....|C-5 04 .. ....
05 |... .. .. .... ....|... .. .. ....|... .. .. ....|... .. .. ....
06 |E-4 06 0E .... ....|... .. .. ....|... .. 04 ....|... .. .. ....
07 |... .. .. .... ....|... .. .. ....|... .. .. ....|... .. .. ....
08 |A-3 06 0D 1201 ....|... .. .. ....|A-3 04 0F ....|C-5 05 .. ....
09 |... .. .. .... ....|... .. .. ....|... .. .. ....|... .. .. ....
0A |B-3 06 0D .... ....|... .. .. ....|... .. 04 ....|... .. .. ....
0B |... .. .. .... ....|... .. .. ....|... .. .. ....|... .. .. ....
0C |C#4 06 0C .... ....|... .. .. ....|A-3 04 0F ....|C-5 04 .. ....
0D |... .. .. .... ....|... .. .. ....|... .. .. ....|... .. .. ....
0E |E-4 06 0C .... ....|... .. .. ....|... .. 04 ....|... .. .. ....
0F |... .. .. .... ....|... .. .. ....|... .. .. ....|... .. .. ....
10 |A-3 06 0B 1202 ....|... .. .. ....|A-2 02 0F ....|C-4 03 .. ....
11 |... .. .. .... ....|... .. .. ....|... .. .. ....|... .. .. ....
12 |B-3 06 0B .... ....|... .. .. ....|... .. 04 ....|... .. .. ....
13 |... .. .. .... ....|... .. .. ....|... .. .. ....|... .. .. ....
14 |C#4 06 0A .... ....|... .. .. ....|A-2 04 0F ....|C-5 04 .. ....
15 |... .. .. .... ....|... .. .. ....|... .. .. ....|... .. .. ....
16 |E-4 06 0A .... ....|... .. .. ....|... .. 04 ....|... .. .. ....
17 |... .. .. .... ....|... .. .. ....|... .. .. ....|... .. .. ....
18 |A-3 06 09 1203 ....|D#4 07 .. 0400|A-3 04 0F ....|C-5 05 .. ....
19 |... .. .. .... ....|... .. .. ....|... .. .. ....|... .. .. ....
1A |B-3 06 09 .... ....|... .. .. ....|... .. 04 ....|... .. .. ....
1B |... .. .. .... ....|... .. .. ....|... .. .. ....|... .. .. ....
1C |C#4 06 08 .... ....|... .. .. 0462|A-3 04 0F ....|C-5 04 .. ....
1D |... .. .. .... ....|... .. .. ....|... .. .. ....|... .. .. ....
1E |E-4 06 08 .... ....|... .. .. ....|... .. 04 ....|... .. .. ....
1F |... .. .. .... ....|... .. .. ....|... .. .. ....|... .. .. ....
20 |A-3 06 07 1203 ....|E-4 07 .. 0400|A-2 00 0F ....|C-5 04 .. ....
21 |... .. .. .... ....|... .. .. ....|... .. .. ....|... .. .. ....
22 |B-3 06 07 .... ....|... .. .. ....|... .. 04 ....|... .. .. ....
23 |... .. .. .... ....|... .. .. ....|... .. .. ....|... .. .. ....
24 |C#4 06 06 .... ....|... .. .. 0462|A-2 04 0F ....|C-5 04 .. ....
25 |... .. .. .... ....|... .. .. ....|... .. .. ....|... .. .. ....
26 |E-4 06 06 .... ....|... .. .. ....|... .. 04 ....|... .. .. ....
27 |... .. .. .... ....|... .. .. ....|... .. .. ....|... .. .. ....
28 |A-3 06 05 1202 ....|... .. .. ....|A-3 04 0F ....|C-5 05 .. ....
29 |... .. .. .... ....|... .. .. ....|... .. .. ....|... .. .. ....
2A |B-3 06 05 .... ....|... .. .. ....|... .. 04 ....|... .. .. ....
2B |... .. .. .... ....|... .. .. ....|... .. .. ....|... .. .. ....
2C |C#4 06 04 .... ....|D#4 07 .. 04..|A-3 04 0F ....|C-5 04 .. ....
2D |... .. .. .... ....|... .. .. ....|... .. .. ....|... .. .. ....
2E |E-4 06 04 .... ....|... .. .. ....|... .. 04 ....|... .. .. ....
2F |... .. .. .... ....|... .. .. ....|... .. .. ....|... .. .. ....
30 |A-3 06 .. 1201 ....|... .. .. 04..|A-2 02 0F ....|C-4 03 .. ....
31 |... .. .. .... ....|... .. .. ....|... .. .. ....|... .. .. ....
32 |B-3 06 .. .... ....|... .. .. ....|... .. 04 ....|... .. .. ....
33 |... .. .. .... ....|... .. .. ....|... .. .. ....|... .. .. ....
34 |C#4 06 .. .... ....|... .. .. ....|A-2 04 0F ....|C-5 04 .. ....
35 |... .. .. .... ....|... .. .. ....|... .. .. ....|... .. .. ....
36 |E-4 06 .. .... ....|... .. .. ....|... .. 04 ....|... .. .. ....
37 |... .. .. .... ....|... .. .. ....|... .. .. ....|... .. .. ....
38 |A-3 06 .. 1200 ....|E-4 07 .. 0400|A-3 04 0F ....|C-5 05 .. ....
39 |... .. .. .... ....|F#4 07 .. 0304|... .. .. ....|... .. .. ....
3A |B-3 06 .. .... ....|... .. .. ....|... .. 04 ....|... .. .. ....
3B |... .. .. .... ....|... .. .. ....|... .. .. ....|... .. .. ....
3C |C#4 06 .. .... ....|... .. .. 0462|A-3 04 0F ....|C-5 04 .. ....
3D |... .. .. .... ....|... .. .. ....|... .. .. ....|... .. .. ....
3E |E-4 06 .. .... ....|... .. .. ....|... .. 04 ....|... .. .. ....
3F |... .. .. .... ....|... .. .. ....|... .. .. ....|... .. .. ....
40 |B-3 06 0F 1200 ....|... .. .. ....|B-2 00 0F ....|C-5 04 .. ....
41 |... .. .. .... ....|... .. .. ....|... .. .. ....|... .. .. ....
42 |C#4 06 0F .... ....|... .. .. ....|... .. 04 ....|... .. .. ....
43 |... .. .. .... ....|... .. .. ....|... .. .. ....|... .. .. ....
44 |D#4 06 0E .... ....|... .. .. ....|B-2 04 0F ....|C-5 04 .. ....
45 |... .. .. .... ....|... .. .. ....|... .. .. ....|... .. .. ....
46 |F#4 06 0E .... ....|... .. .. ....|... .. 04 ....|... .. .. ....
47 |... .. .. .... ....|... .. .. ....|... .. .. ....|... .. .. ....
48 |B-3 06 0D 1201 ....|... .. .. ....|B-3 04 0F ....|C-5 05 .. ....
49 |... .. .. .... ....|... .. .. ....|... .. .. ....|... .. .. ....
4A |C#4 06 0D .... ....|... .. .. ....|... .. 04 ....|... .. .. ....
4B |... .. .. .... ....|... .. .. ....|... .. .. ....|... .. .. ....
4C |D#4 06 0C .... ....|... .. .. ....|B-3 04 0F ....|C-5 04 .. ....
4D |... .. .. .... ....|... .. .. ....|... .. .. ....|... .. .. ....
4E |F#4 06 0C .... ....|... .. .. ....|... .. 04 ....|... .. .. ....
4F |... .. .. .... ....|... .. .. ....|... .. .. ....|... .. .. ....
50 |B-3 06 0B 1202 ....|... .. .. ....|B-2 02 0F ....|C-4 03 .. ....
51 |... .. .. .... ....|... .. .. ....|... .. .. ....|... .. .. ....
52 |C#4 06 0B .... ....|... .. .. ....|... .. 04 ....|... .. .. ....
53 |... .. .. .... ....|... .. .. ....|... .. .. ....|... .. .. ....
54 |D#4 06 0A .... ....|... .. .. ....|B-2 04 0F ....|C-5 04 .. ....
55 |... .. .. .... ....|... .. .. ....|... .. .. ....|... .. .. ....
56 |F#4 06 0A .... ....|... .. .. ....|... .. 04 ....|... .. .. ....
57 |... .. .. .... ....|... .. .. ....|... .. .. ....|... .. .. ....
58 |B-3 06 09 1203 ....|... .. .. ....|B-3 04 0F ....|C-5 05 .. ....
59 |... .. .. .... ....|... .. .. ....|... .. .. ....|... .. .. ....
5A |C#4 06 09 .... ....|... .. .. ....|... .. 04 ....|... .. .. ....
5B |... .. .. .... ....|... .. .. ....|... .. .. ....|... .. .. ....
5C |D#4 06 08 .... ....|... .. .. ....|B-3 04 0F ....|C-5 04 .. ....
5D |... .. .. .... ....|... .. .. ....|... .. .. ....|... .. .. ....
5E |F#4 06 08 .... ....|... .. .. ....|... .. 04 ....|... .. .. ....
5F |... .. .. .... ....|... .. .. ....|... .. .. ....|... .. .. ....
60 |B-3 06 07 1203 ....|... .. .. ....|B-2 00 0F ....|C-5 04 .. ....
61 |... .. .. .... ....|... .. .. ....|... .. .. ....|... .. .. ....
62 |C#4 06 07 .... ....|... .. .. ....|... .. 04 ....|... .. .. ....
63 |... .. .. .... ....|... .. .. ....|... .. .. ....|... .. .. ....
64 |D#4 06 06 .... ....|... .. .. ....|B-2 04 0F ....|C-5 04 .. ....
65 |... .. .. .... ....|... .. .. ....|... .. .. ....|... .. .. ....
66 |F#4 06 06 .... ....|... .. .. ....|... .. 04 ....|... .. .. ....
67 |... .. .. .... ....|... .. .. ....|... .. .. ....|... .. .. ....
68 |B-3 06 05 1202 ....|... .. .. ....|B-3 04 0F ....|C-5 05 .. ....
69 |... .. .. .... ....|... .. .. ....|... .. .. ....|... .. .. ....
6A |C#4 06 05 .... ....|... .. .. ....|... .. 04 ....|... .. .. ....
6B |... .. .. .... ....|... .. .. ....|... .. .. ....|... .. .. ....
6C |D#4 06 04 .... ....|... .. .. ....|B-3 04 0F ....|C-5 04 .. ....
6D |... .. .. .... ....|... .. .. ....|... .. .. ....|... .. .. ....
6E |F#4 06 04 .... ....|... .. .. ....|... .. 04 ....|... .. .. ....
6F |... .. .. .... ....|... .. .. ....|... .. .. ....|... .. .. ....
70 |B-3 06 .. 1201 ....|... .. .. ....|B-2 02 0F ....|C-4 03 .. ....
71 |... .. .. .... ....|... .. .. ....|... .. .. ....|... .. .. ....
72 |C#4 06 .. .... ....|... .. .. ....|... .. 04 ....|... .. .. ....
73 |... .. .. .... ....|... .. .. ....|... .. .. ....|... .. .. ....
74 |D#4 06 .. .... ....|... .. .. ....|B-2 02 0F ....|C-4 03 .. ....
75 |... .. .. .... ....|... .. .. ....|... .. .. ....|... .. .. ....
76 |F#4 06 .. .... ....|... .. .. ....|... .. 04 ....|... .. .. ....
77 |... .. .. .... ....|... .. .. ....|... .. .. ....|... .. .. ....
78 |B-3 06 .. 1200 ....|... .. .. ....|B-3 02 0F ....|C-4 03 .. ....
79 |... .. .. .... ....|... .. .. ....|... .. .. ....|... .. .. ....
7A |C#4 06 .. .... ....|... .. .. ....|... .. 04 ....|... .. .. ....
7B |... .. .. .... ....|... .. .. ....|... .. .. ....|... .. .. ....
7C |D#4 06 .. .... ....|... .. .. ....|B-3 02 0F ....|C-4 03 .. ....
7D |... .. .. .... ....|... .. .. ....|... .. .. ....|... .. .. ....
7E |F#4 06 .. .... ....|... .. .. ....|... .. 04 ....|... .. .. ....
7F |... .. .. .... ....|... .. .. ....|... .. .. ....|... .. .. ....
----- ORDER 14
00 |C#4 06 0F 1200 ....|G#4 07 .. 0400|C#3 00 0F ....|C-5 04 .. ....
01 |... .. .. .... ....|... .. .. ....|... .. .. ....|... .. .. ....
02 |D#4 06 0F .... ....|... .. .. ....|... .. 04 ....|... .. .. ....
03 |... .. .. .... ....|... .. .. ....|... .. .. ....|... .. .. ....
04 |E-4 06 0E .... ....|... .. .. 0462|C#3 04 0F ....|C-5 04 .. ....
05 |... .. .. .... ....|... .. .. ....|... .. .. ....|... .. .. ....
06 |G#4 06 0E .... ....|... .. .. ....|... .. 04 ....|... .. .. ....
07 |... .. .. .... ....|... .. .. ....|... .. .. ....|... .. .. ....
08 |C#4 06 0D 1201 ....|... .. .. ....|C#4 04 0F ....|C-5 05 .. ....
09 |... .. .. .... ....|... .. .. ....|... .. .. ....|... .. .. ....
0A |D#4 06 0D .... ....|... .. .. ....|... .. 04 ....|... .. .. ....
0B |... .. .. .... ....|... .. .. ....|... .. .. ....|... .. .. ....
0C |E-4 06 0C .... ....|... .. .. ....|C#4 04 0F ....|C-5 04 .. ....
0D |... .. .. .... ....|... .. .. ....|... .. .. ....|... .. .. ....
0E |G#4 06 0C .... ....|... .. .. ....|... .. 04 ....|... .. .. ....
0F |... .. .. .... ....|... .. .. ....|... .. .. ....|... .. .. ....
10 |C#4 06 0B 1202 ....|... .. .. ....|C#3 02 0F ....|C-4 03 .. ....
11 |... .. .. .... ....|... .. .. ....|... .. .. ....|... .. .. ....
12 |D#4 06 0B .... ....|... .. .. ....|... .. 04 ....|... .. .. ....
13 |... .. .. .... ....|... .. .. ....|... .. .. ....|... .. .. ....
14 |E-4 06 0A .... ....|... .. .. ....|C#3 04 0F ....|C-5 04 .. ....
15 |... .. .. .... ....|... .. .. ....|... .. .. ....|... .. .. ....
16 |G#4 06 0A .... ....|... .. .. ....|... .. 04 ....|... .. .. ....
17 |... .. .. .... ....|... .. .. ....|... .. .. ....|... .. .. ....
18 |C#4 06 09 1203 ....|E-4 07 .. 0400|C#4 04 0F ....|C-5 05 .. ....
19 |... .. .. .... ....|... .. .. ....|... .. .. ....|... .. .. ....
1A |D#4 06 09 .... ....|... .. .. ....|... .. 04 ....|... .. .. ....
1B |... .. .. .... ....|... .. .. ....|... .. .. ....|... .. .. ....
1C |E-4 06 08 .... ....|... .. .. 0462|C#4 04 0F ....|C-5 04 .. ....
1D |... .. .. .... ....|... .. .. ....|... .. .. ....|... .. .. ....
1E |G#4 06 08 .... ....|... .. .. ....|... .. 04 ....|... .. .. ....
1F |... .. .. .... ....|... .. .. ....|... .. .. ....|... .. .. ....
20 |C#4 06 07 1203 ....|F#4 07 .. 0400|C#3 00 0F ....|C-5 04 .. ....
21 |... .. .. .... ....|... .. .. ....|... .. .. ....|... .. .. ....
22 |D#4 06 07 .... ....|... .. .. ....|... .. 04 ....|... .. .. ....
23 |... .. .. .... ....|... .. .. ....|... .. .. ....|... .. .. ....
24 |E-4 06 06 .... ....|... .. .. 0462|C#3 04 0F ....|C-5 04 .. ....
25 |... .. .. .... ....|... .. .. ....|... .. .. ....|... .. .. ....
26 |G#4 06 06 .... ....|... .. .. ....|... .. 04 ....|... .. .. ....
27 |... .. .. .... ....|... .. .. ....|... .. .. ....|... .. .. ....
28 |C#4 06 05 1202 ....|... .. .. ....|C#4 04 0F ....|C-5 05 .. ....
29 |... .. .. .... ....|... .. .. ....|... .. .. ....|... .. .. ....
2A |D#4 06 05 .... ....|... .. .. ....|... .. 04 ....|... .. .. ....
2B |... .. .. .... ....|... .. .. ....|... .. .. ....|... .. .. ....
2C |E-4 06 04 .... ....|G#4 07 .. 0400|C#4 04 0F ....|C-5 04 .. ....
2D |... .. .. .... ....|... .. .. ....|... .. .. ....|... .. .. ....
2E |G#4 06 04 .... ....|... .. .. ....|... .. 04 ....|... .. .. ....
2F |... .. .. .... ....|... .. .. ....|... .. .. ....|... .. .. ....
30 |C#4 06 .. 1201 ....|... .. .. 0462|C#3 02 0F ....|C-4 03 .. ....
31 |... .. .. .... ....|... .. .. ....|... .. .. ....|... .. .. ....
32 |D#4 06 .. .... ....|... .. .. ....|... .. 04 ....|... .. .. ....
33 |... .. .. .... ....|... .. .. ....|... .. .. ....|... .. .. ....
34 |E-4 06 .. .... ....|... .. .. ....|C#3 04 0F ....|C-5 04 .. ....
35 |... .. .. .... ....|... .. .. ....|... .. .. ....|... .. .. ....
36 |G#4 06 .. .... ....|... .. .. ....|... .. 04 ....|... .. .. ....
37 |... .. .. .... ....|... .. .. ....|... .. .. ....|... .. .. ....
38 |C#4 06 .. 1200 ....|B-4 07 .. 0400|C#4 04 0F ....|C-5 05 .. ....
39 |... .. .. .... ....|C#5 07 .. 0304|... .. .. ....|... .. .. ....
3A |D#4 06 .. .... ....|... .. .. ....|... .. 04 ....|... .. .. ....
3B |... .. .. .... ....|... .. .. ....|... .. .. ....|... .. .. ....
3C |E-4 06 .. .... ....|... .. .. 0462|C#4 04 0F ....|C-5 04 .. ....
3D |... .. .. .... ....|... .. .. ....|... .. .. ....|... .. .. ....
3E |G#4 06 .. .... ....|... .. .. ....|... .. 04 ....|... .. .. ....
3F |... .. .. .... ....|... .. .. ....|... .. .. ....|... .. .. ....
40 |B-3 06 0F 1200 ....|... .. .. ....|B-2 00 0F ....|C-5 04 .. ....
41 |... .. .. .... ....|... .. .. ....|... .. .. ....|... .. .. ....
42 |C#4 06 0F .... ....|... .. .. ....|... .. 04 ....|... .. .. ....
43 |... .. .. .... ....|... .. .. ....|... .. .. ....|... .. .. ....
44 |D#4 06 0E .... ....|... .. .. ....|B-2 04 0F ....|C-5 04 .. ....
45 |... .. .. .... ....|... .. .. ....|... .. .. ....|... .. .. ....
46 |F#4 06 0E .... ....|... .. .. ....|... .. 04 ....|... .. .. ....
47 |... .. .. .... ....|... .. .. ....|... .. .. ....|... .. .. ....
48 |B-3 06 0D 1201 ....|B-4 07 .. 0400|B-3 04 0F ....|C-5 05 .. ....
49 |... .. .. .... ....|... .. .. ....|... .. .. ....|... .. .. ....
4A |C#4 06 0D .... ....|... .. .. ....|... .. 04 ....|... .. .. ....
4B |... .. .. .... ....|... .. .. ....|... .. .. ....|... .. .. ....
4C |D#4 06 0C .... ....|... .. .. 0462|B-3 04 0F ....|C-5 04 .. ....
4D |... .. .. .... ....|... .. .. ....|... .. .. ....|... .. .. ....
4E |F#4 06 0C .... ....|... .. .. ....|... .. 04 ....|... .. .. ....
4F |... .. .. .... ....|... .. .. ....|... .. .. ....|... .. .. ....
50 |B-3 06 0B 1202 ....|... .. .. ....|B-2 02 0F ....|C-4 03 .. ....
51 |... .. .. .... ....|... .. .. ....|... .. .. ....|... .. .. ....
52 |C#4 06 0B .... ....|... .. .. ....|... .. 04 ....|... .. .. ....
53 |... .. .. .... ....|... .. .. ....|... .. .. ....|... .. .. ....
54 |D#4 06 0A .... ....|... .. .. ....|B-2 04 0F ....|C-5 04 .. ....
55 |... .. .. .... ....|... .. .. ....|... .. .. ....|... .. .. ....
56 |F#4 06 0A .... ....|... .. .. ....|... .. 04 ....|... .. .. ....
57 |... .. .. .... ....|... .. .. ....|... .. .. ....|... .. .. ....
58 |B-3 06 09 1203 ....|... .. .. ....|B-3 04 0F ....|C-5 05 .. ....
59 |... .. .. .... ....|... .. .. ....|... .. .. ....|... .. .. ....
5A |C#4 06 09 .... ....|... .. .. ....|... .. 04 ....|... .. .. ....
5B |... .. .. .... ....|... .. .. ....|... .. .. ....|... .. .. ....
5C |D#4 06 08 .... ....|... .. .. ....|B-3 04 0F ....|C-5 04 .. ....
5D |... .. .. .... ....|... .. .. ....|... .. .. ....|... .. .. ....
5E |F#4 06 08 .... ....|... .. .. ....|... .. 04 ....|... .. .. ....
5F |... .. .. .... ....|... .. .. ....|... .. .. ....|... .. .. ....
60 |B-3 06 07 1203 ....|... .. .. ....|B-2 00 0F ....|C-5 04 .. ....
61 |... .. .. .... ....|... .. .. ....|... .. .. ....|... .. .. ....
62 |C#4 06 07 .... ....|... .. .. ....|... .. 04 ....|... .. .. ....
63 |... .. .. .... ....|... .. .. ....|... .. .. ....|... .. .. ....
64 |D#4 06 06 .... ....|... .. .. ....|B-2 04 0F ....|C-5 04 .. ....
65 |... .. .. .... ....|... .. .. ....|... .. .. ....|... .. .. ....
66 |F#4 06 06 .... ....|... .. .. ....|... .. 04 ....|... .. .. ....
67 |... .. .. .... ....|... .. .. ....|... .. .. ....|... .. .. ....
68 |B-3 06 05 1202 ....|... .. .. ....|B-3 04 0F ....|C-5 05 .. ....
69 |... .. .. .... ....|... .. .. ....|... .. .. ....|... .. .. ....
6A |C#4 06 05 .... ....|... .. .. ....|... .. 04 ....|... .. .. ....
6B |... .. .. .... ....|... .. .. ....|... .. .. ....|... .. .. ....
6C |D#4 06 04 .... ....|... .. .. ....|B-3 04 0F ....|C-5 04 .. ....
6D |... .. .. .... ....|... .. .. ....|... .. .. ....|... .. .. ....
6E |F#4 06 04 .... ....|... .. .. ....|... .. 04 ....|... .. .. ....
6F |... .. .. .... ....|... .. .. ....|... .. .. ....|... .. .. ....
70 |B-3 06 .. 1201 ....|F#4 07 .. 0400|B-2 02 0F ....|C-4 03 .. ....
71 |... .. .. .... ....|... .. .. ....|... .. .. ....|... .. .. ....
72 |C#4 06 .. .... ....|... .. .. ....|... .. 04 ....|... .. .. ....
73 |... .. .. .... ....|... .. .. ....|... .. .. ....|... .. .. ....
74 |D#4 06 .. .... ....|E-4 07 .. ....|B-2 04 0F ....|C-5 04 .. ....
75 |... .. .. .... ....|... .. .. ....|... .. .. ....|... .. .. ....
76 |F#4 06 .. .... ....|... .. .. ....|... .. 04 ....|... .. .. ....
77 |... .. .. .... ....|... .. .. ....|... .. .. ....|... .. .. ....
78 |B-3 06 .. 1200 ....|C#4 07 .. ....|B-3 04 0F ....|C-5 05 .. ....
79 |... .. .. .... ....|... .. .. ....|... .. .. ....|... .. .. ....
7A |C#4 06 .. .... ....|... .. .. ....|... .. 04 ....|... .. .. ....
7B |... .. .. .... ....|... .. .. ....|... .. .. ....|... .. .. ....
7C |D#4 06 .. .... ....|D#4 07 .. ....|B-3 04 0F ....|C-5 04 .. ....
7D |... .. .. .... ....|... .. .. ....|... .. .. ....|... .. .. ....
7E |F#4 06 .. .... ....|... .. .. ....|... .. 04 ....|... .. .. ....
7F |... .. .. .... ....|... .. .. ....|... .. .. ....|... .. .. ....
----- ORDER 15
00 |A-3 06 0F 1200 ....|C#4 07 .. 0400|A-2 00 0F ....|C-5 04 .. ....
01 |... .. .. .... ....|... .. .. ....|... .. .. ....|... .. .. ....
02 |B-3 06 0F .... ....|... .. .. ....|... .. 04 ....|... .. .. ....
03 |... .. .. .... ....|... .. .. ....|... .. .. ....|... .. .. ....
04 |C#4 06 0E .... ....|... .. .. 0462|A-2 04 0F ....|C-5 04 .. ....
05 |... .. .. .... ....|... .. .. ....|... .. .. ....|... .. .. ....
06 |E-4 06 0E .... ....|... .. .. ....|... .. 04 ....|... .. .. ....
07 |... .. .. .... ....|... .. .. ....|... .. .. ....|... .. .. ....
08 |A-3 06 0D 1201 ....|... .. .. ....|A-3 04 0F ....|C-5 05 .. ....
09 |... .. .. .... ....|... .. .. ....|... .. .. ....|... .. .. ....
0A |B-3 06 0D .... ....|... .. .. ....|... .. 04 ....|... .. .. ....
0B |... .. .. .... ....|... .. .. ....|... .. .. ....|... .. .. ....
0C |C#4 06 0C .... ....|... .. .. ....|A-3 04 0F ....|C-5 04 .. ....
0D |... .. .. .... ....|... .. .. ....|... .. .. ....|... .. .. ....
0E |E-4 06 0C .... ....|... .. .. ....|... .. 04 ....|... .. .. ....
0F |... .. .. .... ....|... .. .. ....|... .. .. ....|... .. .. ....
10 |A-3 06 0B 1202 ....|... .. .. ....|A-2 02 0F ....|C-4 03 .. ....
11 |... .. .. .... ....|... .. .. ....|... .. .. ....|... .. .. ....
12 |B-3 06 0B .... ....|... .. .. ....|... .. 04 ....|... .. .. ....
13 |... .. .. .... ....|... .. .. ....|... .. .. ....|... .. .. ....
14 |C#4 06 0A .... ....|... .. .. ....|A-2 04 0F ....|C-5 04 .. ....
15 |... .. .. .... ....|... .. .. ....|... .. .. ....|... .. .. ....
16 |E-4 06 0A .... ....|... .. .. ....|... .. 04 ....|... .. .. ....
17 |... .. .. .... ....|... .. .. ....|... .. .. ....|... .. .. ....
18 |A-3 06 09 1203 ....|D#4 07 .. 0400|A-3 04 0F ....|C-5 05 .. ....
19 |... .. .. .... ....|... .. .. ....|... .. .. ....|... .. .. ....
1A |B-3 06 09 .... ....|... .. .. ....|... .. 04 ....|... .. .. ....
1B |... .. .. .... ....|... .. .. ....|... .. .. ....|... .. .. ....
1C |C#4 06 08 .... ....|... .. .. 0462|A-3 04 0F ....|C-5 04 .. ....
1D |... .. .. .... ....|... .. .. ....|... .. .. ....|... .. .. ....
1E |E-4 06 08 .... ....|... .. .. ....|... .. 04 ....|... .. .. ....
1F |... .. .. .... ....|... .. .. ....|... .. .. ....|... .. .. ....
20 |A-3 06 07 1203 ....|E-4 07 .. 0400|A-2 00 0F ....|C-5 04 .. ....
21 |... .. .. .... ....|... .. .. ....|... .. .. ....|... .. .. ....
22 |B-3 06 07 .... ....|... .. .. ....|... .. 04 ....|... .. .. ....
23 |... .. .. .... ....|... .. .. ....|... .. .. ....|... .. .. ....
24 |C#4 06 06 .... ....|... .. .. 0462|A-2 04 0F ....|C-5 04 .. ....
25 |... .. .. .... ....|... .. .. ....|... .. .. ....|... .. .. ....
26 |E-4 06 06 .... ....|... .. .. ....|... .. 04 ....|... .. .. ....
27 |... .. .. .... ....|... .. .. ....|... .. .. ....|... .. .. ....
28 |A-3 06 05 1202 ....|... .. .. ....|A-3 04 0F ....|C-5 05 .. ....
29 |... .. .. .... ....|... .. .. ....|... .. .. ....|... .. .. ....
2A |B-3 06 05 .... ....|... .. .. ....|... .. 04 ....|... .. .. ....
2B |... .. .. .... ....|... .. .. ....|... .. .. ....|... .. .. ....
2C |C#4 06 04 .... ....|D#4 07 .. 04..|A-3 04 0F ....|C-5 04 .. ....
2D |... .. .. .... ....|... .. .. ....|... .. .. ....|... .. .. ....
2E |E-4 06 04 .... ....|... .. .. ....|... .. 04 ....|... .. .. ....
2F |... .. .. .... ....|... .. .. ....|... .. .. ....|... .. .. ....
30 |A-3 06 .. 1201 ....|... .. .. 04..|A-2 02 0F ....|C-4 03 .. ....
31 |... .. .. .... ....|... .. .. ....|... .. .. ....|... .. .. ....
32 |B-3 06 .. .... ....|... .. .. ....|... .. 04 ....|... .. .. ....
33 |... .. .. .... ....|... .. .. ....|... .. .. ....|... .. .. ....
34 |C#4 06 .. .... ....|... .. .. ....|A-2 04 0F ....|C-5 04 .. ....
35 |... .. .. .... ....|... .. .. ....|... .. .. ....|... .. .. ....
36 |E-4 06 .. .... ....|... .. .. ....|... .. 04 ....|... .. .. ....
37 |... .. .. .... ....|... .. .. ....|... .. .. ....|... .. .. ....
38 |A-3 06 .. 1200 ....|E-4 07 .. 0400|A-3 04 0F ....|C-5 05 .. ....
39 |... .. .. .... ....|F#4 07 .. 0304|... .. .. ....|... .. .. ....
3A |B-3 06 .. .... ....|... .. .. ....|... .. 04 ....|... .. .. ....
3B |... .. .. .... ....|... .. .. ....|... .. .. ....|... .. .. ....
3C |C#4 06 .. .... ....|... .. .. 0462|A-3 04 0F ....|C-5 04 .. ....
3D |... .. .. .... ....|... .. .. ....|... .. .. ....|... .. .. ....
3E |E-4 06 .. .... ....|... .. .. ....|... .. 04 ....|... .. .. ....
3F |... .. .. .... ....|... .. .. ....|... .. .. ....|... .. .. ....
40 |B-3 06 0F 1200 ....|... .. .. ....|B-2 00 0F ....|C-5 04 .. ....
41 |... .. .. .... ....|... .. .. ....|... .. .. ....|... .. .. ....
42 |C#4 06 0F .... ....|... .. .. ....|... .. 04 ....|... .. .. ....
43 |... .. .. .... ....|... .. .. ....|... .. .. ....|... .. .. ....
44 |D#4 06 0E .... ....|... .. .. ....|B-2 04 0F ....|C-5 04 .. ....
45 |... .. .. .... ....|... .. .. ....|... .. .. ....|... .. .. ....
46 |F#4 06 0E .... ....|... .. .. ....|... .. 04 ....|... .. .. ....
47 |... .. .. .... ....|... .. .. ....|... .. .. ....|... .. .. ....
48 |B-3 06 0D 1201 ....|... .. .. ....|B-3 04 0F ....|C-5 05 .. ....
49 |... .. .. .... ....|... .. .. ....|... .. .. ....|... .. .. ....
4A |C#4 06 0D .... ....|... .. .. ....|... .. 04 ....|... .. .. ....
4B |... .. .. .... ....|... .. .. ....|... .. .. ....|... .. .. ....
4C |D#4 06 0C .... ....|... .. .. ....|B-3 04 0F ....|C-5 04 .. ....
4D |... .. .. .... ....|... .. .. ....|... .. .. ....|... .. .. ....
4E |F#4 06 0C .... ....|... .. .. ....|... .. 04 ....|... .. .. ....
4F |... .. .. .... ....|... .. .. ....|... .. .. ....|... .. .. ....
50 |B-3 06 0B 1202 ....|... .. .. ....|B-2 02 0F ....|C-4 03 .. ....
51 |... .. .. .... ....|... .. .. ....|... .. .. ....|... .. .. ....
52 |C#4 06 0B .... ....|... .. .. ....|... .. 04 ....|... .. .. ....
53 |... .. .. .... ....|... .. .. ....|... .. .. ....|... .. .. ....
54 |D#4 06 0A .... ....|... .. .. ....|B-2 04 0F ....|C-5 04 .. ....
55 |... .. .. .... ....|... .. .. ....|... .. .. ....|... .. .. ....
56 |F#4 06 0A .... ....|... .. .. ....|... .. 04 ....|... .. .. ....
57 |... .. .. .... ....|... .. .. ....|... .. .. ....|... .. .. ....
58 |B-3 06 09 1203 ....|... .. .. ....|B-3 04 0F ....|C-5 05 .. ....
59 |... .. .. .... ....|... .. .. ....|... .. .. ....|... .. .. ....
5A |C#4 06 09 .... ....|... .. .. ....|... .. 04 ....|... .. .. ....
5B |... .. .. .... ....|... .. .. ....|... .. .. ....|... .. .. ....
5C |D#4 06 08 .... ....|... .. .. ....|B-3 04 0F ....|C-5 04 .. ....
5D |... .. .. .... ....|... .. .. ....|... .. .. ....|... .. .. ....
5E |F#4 06 08 .... ....|... .. .. ....|... .. 04 ....|... .. .. ....
5F |... .. .. .... ....|... .. .. ....|... .. .. ....|... .. .. ....
60 |B-3 06 07 1203 ....|... .. .. ....|B-2 00 0F ....|C-5 04 .. ....
61 |... .. .. .... ....|... .. .. ....|... .. .. ....|... .. .. ....
62 |C#4 06 07 .... ....|... .. .. ....|... .. 04 ....|... .. .. ....
63 |... .. .. .... ....|... .. .. ....|... .. .. ....|... .. .. ....
64 |D#4 06 06 .... ....|... .. .. ....|B-2 04 0F ....|C-5 04 .. ....
65 |... .. .. .... ....|... .. .. ....|... .. .. ....|... .. .. ....
66 |F#4 06 06 .... ....|... .. .. ....|... .. 04 ....|... .. .. ....
67 |... .. .. .... ....|... .. .. ....|... .. .. ....|... .. .. ....
68 |B-3 06 05 1202 ....|... .. .. ....|B-3 04 0F ....|C-5 05 .. ....
69 |... .. .. .... ....|... .. .. ....|... .. .. ....|... .. .. ....
6A |C#4 06 05 .... ....|... .. .. ....|... .. 04 ....|... .. .. ....
6B |... .. .. .... ....|... .. .. ....|... .. .. ....|... .. .. ....
6C |D#4 06 04 .... ....|... .. .. ....|B-3 04 0F ....|C-5 04 .. ....
6D |... .. .. .... ....|... .. .. ....|... .. .. ....|... .. .. ....
6E |F#4 06 04 .... ....|... .. .. ....|... .. 04 ....|... .. .. ....
6F |... .. .. .... ....|... .. .. ....|... .. .. ....|... .. .. ....
70 |B-3 06 .. 1201 ....|E-4 07 0F 0400|B-2 02 0F ....|C-4 03 .. ....
71 |... .. .. .... ....|... .. .. ....|... .. .. ....|... .. .. ....
72 |C#4 06 .. .... ....|... .. .. ....|... .. 04 ....|... .. .. ....
73 |... .. .. .... ....|... .. .. ....|... .. .. ....|... .. .. ....
74 |D#4 06 .. .... ....|D#4 07 .. ....|B-2 02 0F ....|C-4 03 .. ....
75 |... .. .. .... ....|... .. .. ....|... .. .. ....|... .. .. ....
76 |F#4 06 .. .... ....|... .. .. ....|... .. 04 ....|... .. .. ....
77 |... .. .. .... ....|... .. .. ....|... .. .. ....|... .. .. ....
78 |B-3 06 .. 1200 ....|C#4 07 .. ....|B-3 02 0F ....|C-4 03 .. ....
79 |... .. .. .... ....|... .. .. ....|... .. .. ....|... .. .. ....
7A |C#4 06 .. .... ....|... .. .. ....|... .. 04 ....|... .. .. ....
7B |... .. .. .... ....|... .. .. ....|... .. .. ....|... .. .. ....
7C |D#4 06 .. .... ....|D#4 07 .. ....|B-3 02 0F ....|C-4 03 .. ....
7D |... .. .. .... ....|... .. .. ....|... .. .. ....|... .. .. ....
7E |F#4 06 .. .... ....|... .. .. ....|... .. 04 ....|... .. .. ....
7F |... .. .. .... ....|... .. .. ....|... .. .. ....|... .. .. ....
----- ORDER 16
00 |C#4 06 0F 1200 0400|... .. .. ....|C#3 00 0F ....|C-5 04 .. ....
01 |... .. .. .... ....|... .. .. ....|... .. .. ....|... .. .. ....
02 |D#4 06 0F .... ....|... .. .. ....|... .. 04 ....|... .. .. ....
03 |... .. .. .... ....|... .. .. ....|... .. .. ....|... .. .. ....
04 |E-4 06 0E .... ....|... .. .. ....|C#3 04 0F ....|C-5 04 .. ....
05 |... .. .. .... ....|... .. .. ....|... .. .. ....|... .. .. ....
06 |G#4 06 0E .... ....|... .. .. ....|... .. 04 ....|... .. .. ....
07 |... .. .. .... ....|... .. .. ....|... .. .. ....|... .. .. ....
08 |C#4 06 0D 1201 ....|C#4 07 .. 0400|C#4 04 0F ....|C-5 05 .. ....
09 |... .. .. .... ....|... .. .. ....|... .. .. ....|... .. .. ....
0A |D#4 06 0D .... ....|... .. .. ....|... .. 04 ....|... .. .. ....
0B |... .. .. .... ....|... .. .. ....|... .. .. ....|... .. .. ....
0C |E-4 06 0C .... ....|... .. .. 0462|C#4 04 0F ....|C-5 04 .. ....
0D |... .. .. .... ....|... .. .. ....|... .. .. ....|... .. .. ....
0E |G#4 06 0C .... ....|... .. .. ....|... .. 04 ....|... .. .. ....
0F |... .. .. .... ....|... .. .. ....|... .. .. ....|... .. .. ....
10 |C#4 06 0B 1202 ....|... .. .. ....|C#3 02 0F ....|C-4 03 .. ....
11 |... .. .. .... ....|... .. .. ....|... .. .. ....|... .. .. ....
12 |D#4 06 0B .... ....|... .. .. ....|... .. 04 ....|... .. .. ....
13 |... .. .. .... ....|... .. .. ....|... .. .. ....|... .. .. ....
14 |E-4 06 0A .... ....|... .. .. ....|C#3 04 0F ....|C-5 04 .. ....
15 |... .. .. .... ....|... .. .. ....|... .. .. ....|... .. .. ....
16 |G#4 06 0A .... ....|... .. .. ....|... .. 04 ....|... .. .. ....
17 |... .. .. .... ....|... .. .. ....|... .. .. ....|... .. .. ....
18 |C#4 06 09 1203 ....|... .. .. ....|C#4 04 0F ....|C-5 05 .. ....
19 |... .. .. .... ....|... .. .. ....|... .. .. ....|... .. .. ....
1A |D#4 06 09 .... ....|... .. .. ....|... .. 04 ....|... .. .. ....
1B |... .. .. .... ....|... .. .. ....|... .. .. ....|... .. .. ....
1C |E-4 06 08 .... ....|... .. .. ....|C#4 04 0F ....|C-5 04 .. ....
1D |... .. .. .... ....|... .. .. ....|... .. .. ....|... .. .. ....
1E |G#4 06 08 .... ....|... .. .. ....|... .. 04 ....|... .. .. ....
1F |... .. .. .... ....|... .. .. ....|... .. .. ....|... .. .. ....
20 |C#4 06 07 1203 ....|... .. .. ....|C#3 00 0F ....|C-5 04 .. ....
21 |... .. .. .... ....|... .. .. ....|... .. .. ....|... .. .. ....
22 |D#4 06 07 .... ....|... .. .. ....|... .. 04 ....|... .. .. ....
23 |... .. .. .... ....|... .. .. ....|... .. .. ....|... .. .. ....
24 |E-4 06 06 .... ....|... .. .. ....|C#3 04 0F ....|C-5 04 .. ....
25 |... .. .. .... ....|... .. .. ....|... .. .. ....|... .. .. ....
26 |G#4 06 06 .... ....|... .. .. ....|... .. 04 ....|... .. .. ....
27 |... .. .. .... ....|... .. .. ....|... .. .. ....|... .. .. ....
28 |C#4 06 05 1202 ....|... .. .. ....|C#4 04 0F ....|C-5 05 .. ....
29 |... .. .. .... ....|... .. .. ....|... .. .. ....|... .. .. ....
2A |D#4 06 05 .... ....|... .. .. ....|... .. 04 ....|... .. .. ....
2B |... .. .. .... ....|... .. .. ....|... .. .. ....|... .. .. ....
2C |E-4 06 04 .... ....|... .. .. ....|C#4 04 0F ....|C-5 04 .. ....
2D |... .. .. .... ....|... .. .. ....|... .. .. ....|... .. .. ....
2E |G#4 06 04 .... ....|... .. .. ....|... .. 04 ....|... .. .. ....
2F |... .. .. .... ....|... .. .. ....|... .. .. ....|... .. .. ....
30 |C#4 06 .. 1201 ....|... .. .. ....|C#3 02 0F ....|C-4 03 .. ....
31 |... .. .. .... ....|... .. .. ....|... .. .. ....|... .. .. ....
32 |D#4 06 .. .... ....|... .. .. ....|... .. 04 ....|... .. .. ....
33 |... .. .. .... ....|... .. .. ....|... .. .. ....|... .. .. ....
34 |E-4 06 .. .... ....|... .. .. ....|C#3 04 0F ....|C-5 04 .. ....
35 |... .. .. .... ....|... .. .. ....|... .. .. ....|... .. .. ....
36 |G#4 06 .. .... ....|... .. .. ....|... .. 04 ....|... .. .. ....
37 |... .. .. .... ....|... .. .. ....|... .. .. ....|... .. .. ....
38 |C#4 06 .. 1200 ....|... .. .. ....|C#4 04 0F ....|C-5 05 .. ....
39 |... .. .. .... ....|... .. .. ....|... .. .. ....|... .. .. ....
3A |D#4 06 .. .... ....|... .. .. ....|... .. 04 ....|... .. .. ....
3B |... .. .. .... ....|... .. .. ....|... .. .. ....|... .. .. ....
3C |E-4 06 .. .... ....|... .. .. ....|C#4 04 0F ....|C-5 04 .. ....
3D |... .. .. .... ....|... .. .. ....|... .. .. ....|... .. .. ....
3E |G#4 06 .. .... ....|... .. .. ....|... .. 04 ....|... .. .. ....
3F |... .. .. .... ....|... .. .. ....|... .. .. ....|... .. .. ....
40 |C#4 06 0F 1200 ....|... .. .. ....|C#3 00 0F ....|C-5 04 .. ....
41 |... .. .. .... ....|... .. .. ....|... .. .. ....|... .. .. ....
42 |D#4 06 0F .... ....|... .. .. ....|... .. 04 ....|... .. .. ....
43 |... .. .. .... ....|... .. .. ....|... .. .. ....|... .. .. ....
44 |E-4 06 0E .... ....|... .. .. ....|C#3 04 0F ....|C-5 04 .. ....
45 |... .. .. .... ....|... .. .. ....|... .. .. ....|... .. .. ....
46 |G#4 06 0E .... ....|... .. .. ....|... .. 04 ....|... .. .. ....
47 |... .. .. .... ....|... .. .. ....|... .. .. ....|... .. .. ....
48 |C#4 06 0D 1201 ....|... .. .. ....|C#4 04 0F ....|C-5 05 .. ....
49 |... .. .. .... ....|... .. .. ....|... .. .. ....|... .. .. ....
4A |D#4 06 0D .... ....|... .. .. ....|... .. 04 ....|... .. .. ....
4B |... .. .. .... ....|... .. .. ....|... .. .. ....|... .. .. ....
4C |E-4 06 0C .... ....|... .. .. ....|C#4 04 0F ....|C-5 04 .. ....
4D |... .. .. .... ....|... .. .. ....|... .. .. ....|... .. .. ....
4E |G#4 06 0C .... ....|... .. .. ....|... .. 04 ....|... .. .. ....
4F |... .. .. .... ....|... .. .. ....|... .. .. ....|... .. .. ....
50 |C#4 06 0B 1202 ....|... .. .. ....|C#3 02 0F ....|C-4 03 .. ....
51 |... .. .. .... ....|... .. .. ....|... .. .. ....|... .. .. ....
52 |D#4 06 0B .... ....|... .. .. ....|... .. 04 ....|... .. .. ....
53 |... .. .. .... ....|... .. .. ....|... .. .. ....|... .. .. ....
54 |E-4 06 0A .... ....|... .. .. ....|C#3 04 0F ....|C-5 04 .. ....
55 |... .. .. .... ....|... .. .. ....|... .. .. ....|... .. .. ....
56 |G#4 06 0A .... ....|... .. .. ....|... .. 04 ....|... .. .. ....
57 |... .. .. .... ....|... .. .. ....|... .. .. ....|... .. .. ....
58 |C#4 06 09 1203 ....|... .. .. ....|C#4 04 0F ....|C-5 05 .. ....
59 |... .. .. .... ....|... .. .. ....|... .. .. ....|... .. .. ....
5A |D#4 06 09 .... ....|... .. .. ....|... .. 04 ....|... .. .. ....
5B |... .. .. .... ....|... .. .. ....|... .. .. ....|... .. .. ....
5C |E-4 06 08 .... ....|... .. .. ....|C#4 04 0F ....|C-5 04 .. ....
5D |... .. .. .... ....|... .. .. ....|... .. .. ....|... .. .. ....
5E |G#4 06 08 .... ....|... .. .. ....|... .. 04 ....|... .. .. ....
5F |... .. .. .... ....|... .. .. ....|... .. .. ....|... .. .. ....
60 |C#4 06 07 1203 ....|... .. .. ....|C#3 00 0F ....|C-5 04 .. ....
61 |... .. .. .... ....|... .. .. ....|... .. .. ....|... .. .. ....
62 |D#4 06 07 .... ....|... .. .. ....|... .. 04 ....|... .. .. ....
63 |... .. .. .... ....|... .. .. ....|... .. .. ....|... .. .. ....
64 |E-4 06 06 .... ....|... .. .. ....|C#3 04 0F ....|C-5 04 .. ....
65 |... .. .. .... ....|... .. .. ....|... .. .. ....|... .. .. ....
66 |G#4 06 06 .... ....|... .. .. ....|... .. 04 ....|... .. .. ....
67 |... .. .. .... ....|... .. .. ....|... .. .. ....|... .. .. ....
68 |C#4 06 05 1202 ....|... .. .. ....|C#4 04 0F ....|C-5 05 .. ....
69 |... .. .. .... ....|... .. .. ....|... .. .. ....|... .. .. ....
6A |D#4 06 05 .... ....|... .. .. ....|... .. 04 ....|... .. .. ....
6B |... .. .. .... ....|... .. .. ....|... .. .. ....|... .. .. ....
6C |E-4 06 04 .... ....|... .. .. ....|C#4 04 0F ....|C-5 04 .. ....
6D |... .. .. .... ....|... .. .. ....|... .. .. ....|... .. .. ....
6E |G#4 06 04 .... ....|... .. .. ....|... .. 04 ....|... .. .. ....
6F |... .. .. .... ....|... .. .. ....|... .. .. ....|... .. .. ....
70 |C#4 06 .. 1201 ....|... .. .. ....|C#3 02 0F ....|C-4 03 .. ....
71 |... .. .. .... ....|... .. .. ....|... .. .. ....|... .. .. ....
72 |D#4 06 .. .... ....|... .. .. ....|... .. 04 ....|... .. .. ....
73 |... .. .. .... ....|... .. .. ....|... .. .. ....|... .. .. ....
74 |E-4 06 .. .... ....|... .. .. ....|C#3 02 0F ....|C-4 03 .. ....
75 |... .. .. .... ....|... .. .. ....|... .. .. ....|... .. .. ....
76 |G#4 06 .. .... ....|... .. .. ....|... .. 04 ....|... .. .. ....
77 |... .. .. .... ....|... .. .. ....|... .. .. ....|... .. .. ....
78 |C#4 06 .. 1200 ....|... .. .. ....|C#4 02 0F ....|C-4 03 .. ....
79 |... .. .. .... ....|... .. .. ....|... .. .. ....|... .. .. ....
7A |D#4 06 .. .... ....|... .. .. ....|... .. 04 ....|... .. .. ....
7B |... .. .. .... ....|... .. .. ....|... .. .. ....|... .. .. ....
7C |E-4 06 .. .... ....|... .. .. ....|C#4 02 0F ....|C-4 03 .. ....
7D |... .. .. .... ....|... .. .. ....|... .. .. ....|... .. .. ....
7E |G#4 06 .. .... ....|... .. .. ....|... .. 04 ....|... .. .. ....
7F |... .. .. .... ....|... .. .. ....|... .. .. ....|... .. .. ....
----- ORDER 17
00 |C#4 0A 0A 0463 ....|E-4 0A 0A 0463|G#4 0B 0F 0463|... .. .. ....
01 |... .. .. .... ....|... .. .. ....|... .. .. ....|... .. .. ....
02 |... .. .. .... ....|... .. .. ....|... .. .. ....|... .. .. ....
03 |... .. .. .... ....|... .. .. ....|... .. .. ....|... .. .. ....
04 |... .. .. .... ....|... .. .. ....|... .. .. ....|... .. .. ....
05 |... .. .. .... ....|... .. .. ....|... .. .. ....|... .. .. ....
06 |... .. .. .... ....|... .. .. ....|... .. .. ....|... .. .. ....
07 |... .. .. .... ....|... .. .. ....|... .. .. ....|... .. .. ....
08 |... .. .. .... ....|... .. .. ....|... .. .. ....|... .. .. ....
09 |... .. .. .... ....|... .. .. ....|... .. .. ....|... .. .. ....
0A |... .. .. .... ....|... .. .. ....|... .. .. ....|... .. .. ....
0B |... .. .. .... ....|... .. .. ....|... .. .. ....|... .. .. ....
0C |... .. .. .... ....|... .. .. ....|... .. .. ....|... .. .. ....
0D |... .. .. .... ....|... .. .. ....|... .. .. ....|... .. .. ....
0E |... .. .. .... ....|... .. .. ....|... .. .. ....|... .. .. ....
0F |... .. .. .... ....|... .. .. ....|... .. .. ....|... .. .. ....
10 |... .. .. .... ....|... .. .. ....|... .. .. ....|... .. .. ....
11 |... .. .. .... ....|... .. .. ....|... .. .. ....|... .. .. ....
12 |... .. .. .... ....|... .. .. ....|... .. .. ....|... .. .. ....
13 |... .. .. .... ....|... .. .. ....|... .. .. ....|... .. .. ....
14 |... .. .. .... ....|... .. .. ....|... .. .. ....|... .. .. ....
15 |... .. .. .... ....|... .. .. ....|... .. .. ....|... .. .. ....
16 |... .. .. .... ....|... .. .. ....|... .. .. ....|... .. .. ....
17 |... .. .. .... ....|... .. .. ....|... .. .. ....|... .. .. ....
18 |... .. .. .... ....|... .. .. ....|... .. .. ....|... .. .. ....
19 |... .. .. .... ....|... .. .. ....|... .. .. ....|... .. .. ....
1A |... .. .. .... ....|... .. .. ....|... .. .. ....|... .. .. ....
1B |... .. .. .... ....|... .. .. ....|... .. .. ....|... .. .. ....
1C |... .. .. .... ....|... .. .. ....|... .. .. ....|... .. .. ....
1D |... .. .. .... ....|... .. .. ....|... .. .. ....|... .. .. ....
1E |... .. .. .... ....|... .. .. ....|... .. .. ....|... .. .. ....
1F |... .. .. .... ....|... .. .. ....|... .. .. ....|... .. .. ....
20 |... .. .. .... ....|... .. .. ....|... .. .. ....|... .. .. ....
21 |... .. .. .... ....|... .. .. ....|... .. .. ....|... .. .. ....
22 |... .. .. .... ....|... .. .. ....|... .. .. ....|... .. .. ....
23 |... .. .. .... ....|... .. .. ....|... .. .. ....|... .. .. ....
24 |... .. .. .... ....|... .. .. ....|... .. .. ....|... .. .. ....
25 |... .. .. .... ....|... .. .. ....|... .. .. ....|... .. .. ....
26 |... .. .. .... ....|... .. .. ....|... .. .. ....|... .. .. ....
27 |... .. .. .... ....|... .. .. ....|... .. .. ....|... .. .. ....
28 |... .. .. .... ....|... .. .. ....|... .. .. ....|... .. .. ....
29 |... .. .. .... ....|... .. .. ....|... .. .. ....|... .. .. ....
2A |... .. .. .... ....|... .. .. ....|... .. .. ....|... .. .. ....
2B |... .. .. .... ....|... .. .. ....|... .. .. ....|... .. .. ....
2C |... .. .. .... ....|... .. .. ....|... .. .. ....|... .. .. ....
2D |... .. .. .... ....|... .. .. ....|... .. .. ....|... .. .. ....
2E |... .. .. .... ....|... .. .. ....|... .. .. ....|... .. .. ....
2F |... .. .. .... ....|... .. .. ....|... .. .. ....|... .. .. ....
30 |... .. .. .... ....|... .. .. ....|... .. .. ....|... .. .. ....
31 |... .. .. .... ....|... .. .. ....|... .. .. ....|... .. .. ....
32 |... .. .. .... ....|... .. .. ....|... .. .. ....|... .. .. ....
33 |... .. .. .... ....|... .. .. ....|... .. .. ....|... .. .. ....
34 |... .. .. .... ....|... .. .. ....|... .. .. ....|... .. .. ....
35 |... .. .. .... ....|... .. .. ....|... .. .. ....|... .. .. ....
36 |... .. .. .... ....|... .. .. ....|... .. .. ....|... .. .. ....
37 |... .. .. .... ....|... .. .. ....|... .. .. ....|... .. .. ....
38 |... .. .. .... ....|... .. .. ....|... .. .. ....|... .. .. ....
39 |... .. .. .... ....|... .. .. ....|... .. .. ....|... .. .. ....
3A |... .. .. .... ....|... .. .. ....|... .. .. ....|... .. .. ....
3B |... .. .. .... ....|... .. .. ....|... .. .. ....|... .. .. ....
3C |... .. .. .... ....|... .. .. ....|... .. .. ....|... .. .. ....
3D |... .. .. .... ....|... .. .. ....|... .. .. ....|... .. .. ....
3E |... .. .. .... ....|... .. .. ....|... .. .. ....|... .. .. ....
3F |... .. .. .... ....|... .. .. ....|... .. .. ....|... .. .. ....
40 |B-3 0A .. 0463 ....|D#4 0A .. 0463|F#4 0B 0F 0463|... .. .. ....
41 |... .. .. .... ....|... .. .. ....|... .. .. ....|... .. .. ....
42 |... .. .. .... ....|... .. .. ....|... .. .. ....|... .. .. ....
43 |... .. .. .... ....|... .. .. ....|... .. .. ....|... .. .. ....
44 |... .. .. .... ....|... .. .. ....|... .. .. ....|... .. .. ....
45 |... .. .. .... ....|... .. .. ....|... .. .. ....|... .. .. ....
46 |... .. .. .... ....|... .. .. ....|... .. .. ....|... .. .. ....
47 |... .. .. .... ....|... .. .. ....|... .. .. ....|... .. .. ....
48 |... .. .. .... ....|... .. .. ....|... .. .. ....|... .. .. ....
49 |... .. .. .... ....|... .. .. ....|... .. .. ....|... .. .. ....
4A |... .. .. .... ....|... .. .. ....|... .. .. ....|... .. .. ....
4B |... .. .. .... ....|... .. .. ....|... .. .. ....|... .. .. ....
4C |... .. .. .... ....|... .. .. ....|... .. .. ....|... .. .. ....
4D |... .. .. .... ....|... .. .. ....|... .. .. ....|... .. .. ....
4E |... .. .. .... ....|... .. .. ....|... .. .. ....|... .. .. ....
4F |... .. .. .... ....|... .. .. ....|... .. .. ....|... .. .. ....
50 |... .. .. .... ....|... .. .. ....|... .. .. ....|... .. .. ....
51 |... .. .. .... ....|... .. .. ....|... .. .. ....|... .. .. ....
52 |... .. .. .... ....|... .. .. ....|... .. .. ....|... .. .. ....
53 |... .. .. .... ....|... .. .. ....|... .. .. ....|... .. .. ....
54 |... .. .. .... ....|... .. .. ....|... .. .. ....|... .. .. ....
55 |... .. .. .... ....|... .. .. ....|... .. .. ....|... .. .. ....
56 |... .. .. .... ....|... .. .. ....|... .. .. ....|... .. .. ....
57 |... .. .. .... ....|... .. .. ....|... .. .. ....|... .. .. ....
58 |... .. .. .... ....|... .. .. ....|... .. .. ....|... .. .. ....
59 |... .. .. .... ....|... .. .. ....|... .. .. ....|... .. .. ....
5A |... .. .. .... ....|... .. .. ....|... .. .. ....|... .. .. ....
5B |... .. .. .... ....|... .. .. ....|... .. .. ....|... .. .. ....
5C |... .. .. .... ....|... .. .. ....|... .. .. ....|... .. .. ....
5D |... .. .. .... ....|... .. .. ....|... .. .. ....|... .. .. ....
5E |... .. .. .... ....|... .. .. ....|... .. .. ....|... .. .. ....
5F |... .. .. .... ....|... .. .. ....|... .. .. ....|... .. .. ....
60 |... .. .. .... ....|... .. .. ....|... .. .. ....|... .. .. ....
61 |... .. .. .... ....|... .. .. ....|... .. .. ....|... .. .. ....
62 |... .. .. .... ....|... .. .. ....|... .. .. ....|... .. .. ....
63 |... .. .. .... ....|... .. .. ....|... .. .. ....|... .. .. ....
64 |... .. .. .... ....|... .. .. ....|... .. .. ....|... .. .. ....
65 |... .. .. .... ....|... .. .. ....|... .. .. ....|... .. .. ....
66 |... .. .. .... ....|... .. .. ....|... .. .. ....|... .. .. ....
67 |... .. .. .... ....|... .. .. ....|... .. .. ....|... .. .. ....
68 |... .. .. .... ....|... .. .. ....|... .. .. ....|... .. .. ....
69 |... .. .. .... ....|... .. .. ....|... .. .. ....|... .. .. ....
6A |... .. .. .... ....|... .. .. ....|... .. .. ....|... .. .. ....
6B |... .. .. .... ....|... .. .. ....|... .. .. ....|... .. .. ....
6C |... .. .. .... ....|... .. .. ....|... .. .. ....|... .. .. ....
6D |... .. .. .... ....|... .. .. ....|... .. .. ....|... .. .. ....
6E |... .. .. .... ....|... .. .. ....|... .. .. ....|... .. .. ....
6F |... .. .. .... ....|... .. .. ....|... .. .. ....|... .. .. ....
70 |... .. .. .... ....|... .. .. ....|... .. .. ....|... .. .. ....
71 |... .. .. .... ....|... .. .. ....|... .. .. ....|... .. .. ....
72 |... .. .. .... ....|... .. .. ....|... .. .. ....|... .. .. ....
73 |... .. .. .... ....|... .. .. ....|... .. .. ....|... .. .. ....
74 |... .. .. .... ....|... .. .. ....|... .. .. ....|... .. .. ....
75 |... .. .. .... ....|... .. .. ....|... .. .. ....|... .. .. ....
76 |... .. .. .... ....|... .. .. ....|... .. .. ....|... .. .. ....
77 |... .. .. .... ....|... .. .. ....|... .. .. ....|... .. .. ....
78 |... .. .. .... ....|... .. .. ....|... .. .. ....|... .. .. ....
79 |... .. .. .... ....|... .. .. ....|... .. .. ....|... .. .. ....
7A |... .. .. .... ....|... .. .. ....|... .. .. ....|... .. .. ....
7B |... .. .. .... ....|... .. .. ....|... .. .. ....|... .. .. ....
7C |... .. .. .... ....|... .. .. ....|... .. .. ....|... .. .. ....
7D |... .. .. .... ....|... .. .. ....|... .. .. ....|... .. .. ....
7E |... .. .. .... ....|... .. .. ....|... .. .. ....|... .. .. ....
7F |... .. .. .... ....|... .. .. ....|... .. .. ....|... .. .. ....
----- ORDER 18
00 |A-3 0A 0A .... ....|C#4 0A 0A ....|E-4 0B .. ....|... .. .. ....
01 |... .. .. .... ....|... .. .. ....|... .. .. ....|... .. .. ....
02 |... .. .. .... ....|... .. .. ....|... .. .. ....|... .. .. ....
03 |... .. .. .... ....|... .. .. ....|... .. .. ....|... .. .. ....
04 |... .. .. .... ....|... .. .. ....|... .. .. ....|... .. .. ....
05 |... .. .. .... ....|... .. .. ....|... .. .. ....|... .. .. ....
06 |... .. .. .... ....|... .. .. ....|... .. .. ....|... .. .. ....
07 |... .. .. .... ....|... .. .. ....|... .. .. ....|... .. .. ....
08 |... .. .. .... ....|... .. .. ....|... .. .. ....|... .. .. ....
09 |... .. .. .... ....|... .. .. ....|... .. .. ....|... .. .. ....
0A |... .. .. .... ....|... .. .. ....|... .. .. ....|... .. .. ....
0B |... .. .. .... ....|... .. .. ....|... .. .. ....|... .. .. ....
0C |... .. .. .... ....|... .. .. ....|... .. .. ....|... .. .. ....
0D |... .. .. .... ....|... .. .. ....|... .. .. ....|... .. .. ....
0E |... .. .. .... ....|... .. .. ....|... .. .. ....|... .. .. ....
0F |... .. .. .... ....|... .. .. ....|... .. .. ....|... .. .. ....
10 |... .. .. .... ....|... .. .. ....|... .. .. ....|... .. .. ....
11 |... .. .. .... ....|... .. .. ....|... .. .. ....|... .. .. ....
12 |... .. .. .... ....|... .. .. ....|... .. .. ....|... .. .. ....
13 |... .. .. .... ....|... .. .. ....|... .. .. ....|... .. .. ....
14 |... .. .. .... ....|... .. .. ....|... .. .. ....|... .. .. ....
15 |... .. .. .... ....|... .. .. ....|... .. .. ....|... .. .. ....
16 |... .. .. .... ....|... .. .. ....|... .. .. ....|... .. .. ....
17 |... .. .. .... ....|... .. .. ....|... .. .. ....|... .. .. ....
18 |... .. .. .... ....|... .. .. ....|... .. .. ....|... .. .. ....
19 |... .. .. .... ....|... .. .. ....|... .. .. ....|... .. .. ....
1A |... .. .. .... ....|... .. .. ....|... .. .. ....|... .. .. ....
1B |... .. .. .... ....|... .. .. ....|... .. .. ....|... .. .. ....
1C |... .. .. .... ....|... .. .. ....|... .. .. ....|... .. .. ....
1D |... .. .. .... ....|... .. .. ....|... .. .. ....|... .. .. ....
1E |... .. .. .... ....|... .. .. ....|... .. .. ....|... .. .. ....
1F |... .. .. .... ....|... .. .. ....|... .. .. ....|... .. .. ....
20 |... .. .. .... ....|... .. .. ....|... .. .. ....|... .. .. ....
21 |... .. .. .... ....|... .. .. ....|... .. .. ....|... .. .. ....
22 |... .. .. .... ....|... .. .. ....|... .. .. ....|... .. .. ....
23 |... .. .. .... ....|... .. .. ....|... .. .. ....|... .. .. ....
24 |... .. .. .... ....|... .. .. ....|... .. .. ....|... .. .. ....
25 |... .. .. .... ....|... .. .. ....|... .. .. ....|... .. .. ....
26 |... .. .. .... ....|... .. .. ....|... .. .. ....|... .. .. ....
27 |... .. .. .... ....|... .. .. ....|... .. .. ....|... .. .. ....
28 |... .. .. .... ....|... .. .. ....|... .. .. ....|... .. .. ....
29 |... .. .. .... ....|... .. .. ....|... .. .. ....|... .. .. ....
2A |... .. .. .... ....|... .. .. ....|... .. .. ....|... .. .. ....
2B |... .. .. .... ....|... .. .. ....|... .. .. ....|... .. .. ....
2C |... .. .. .... ....|... .. .. ....|... .. .. ....|... .. .. ....
2D |... .. .. .... ....|... .. .. ....|... .. .. ....|... .. .. ....
2E |... .. .. .... ....|... .. .. ....|... .. .. ....|... .. .. ....
2F |... .. .. .... ....|... .. .. ....|... .. .. ....|... .. .. ....
30 |... .. .. .... ....|... .. .. ....|... .. .. ....|... .. .. ....
31 |... .. .. .... ....|... .. .. ....|... .. .. ....|... .. .. ....
32 |... .. .. .... ....|... .. .. ....|... .. .. ....|... .. .. ....
33 |... .. .. .... ....|... .. .. ....|... .. .. ....|... .. .. ....
34 |... .. .. .... ....|... .. .. ....|... .. .. ....|... .. .. ....
35 |... .. .. .... ....|... .. .. ....|... .. .. ....|... .. .. ....
36 |... .. .. .... ....|... .. .. ....|... .. .. ....|... .. .. ....
37 |... .. .. .... ....|... .. .. ....|... .. .. ....|... .. .. ....
38 |... .. .. .... ....|... .. .. ....|... .. .. ....|... .. .. ....
39 |... .. .. .... ....|... .. .. ....|... .. .. ....|... .. .. ....
3A |... .. .. .... ....|... .. .. ....|... .. .. ....|... .. .. ....
3B |... .. .. .... ....|... .. .. ....|... .. .. ....|... .. .. ....
3C |... .. .. .... ....|... .. .. ....|... .. .. ....|... .. .. ....
3D |... .. .. .... ....|... .. .. ....|... .. .. ....|... .. .. ....
3E |... .. .. .... ....|... .. .. ....|... .. .. ....|... .. .. ....
3F |... .. .. .... ....|... .. .. ....|... .. .. ....|... .. .. ....
40 |B-3 0A .. .... ....|D#4 0A .. ....|F#4 0B 0F ....|... .. .. ....
41 |... .. .. .... ....|... .. .. ....|... .. .. ....|... .. .. ....
42 |... .. .. .... ....|... .. .. ....|... .. .. ....|... .. .. ....
43 |... .. .. .... ....|... .. .. ....|... .. .. ....|... .. .. ....
44 |... .. .. .... ....|... .. .. ....|... .. .. ....|... .. .. ....
45 |... .. .. .... ....|... .. .. ....|... .. .. ....|... .. .. ....
46 |... .. .. .... ....|... .. .. ....|... .. .. ....|... .. .. ....
47 |... .. .. .... ....|... .. .. ....|... .. .. ....|... .. .. ....
48 |... .. .. .... ....|... .. .. ....|... .. .. ....|... .. .. ....
49 |... .. .. .... ....|... .. .. ....|... .. .. ....|... .. .. ....
4A |... .. .. .... ....|... .. .. ....|... .. .. ....|... .. .. ....
4B |... .. .. .... ....|... .. .. ....|... .. .. ....|... .. .. ....
4C |... .. .. .... ....|... .. .. ....|... .. .. ....|... .. .. ....
4D |... .. .. .... ....|... .. .. ....|... .. .. ....|... .. .. ....
4E |... .. .. .... ....|... .. .. ....|... .. .. ....|... .. .. ....
4F |... .. .. .... ....|... .. .. ....|... .. .. ....|... .. .. ....
50 |... .. .. .... ....|... .. .. ....|... .. .. ....|... .. .. ....
51 |... .. .. .... ....|... .. .. ....|... .. .. ....|... .. .. ....
52 |... .. .. .... ....|... .. .. ....|... .. .. ....|... .. .. ....
53 |... .. .. .... ....|... .. .. ....|... .. .. ....|... .. .. ....
54 |... .. .. .... ....|... .. .. ....|... .. .. ....|... .. .. ....
55 |... .. .. .... ....|... .. .. ....|... .. .. ....|... .. .. ....
56 |... .. .. .... ....|... .. .. ....|... .. .. ....|... .. .. ....
57 |... .. .. .... ....|... .. .. ....|... .. .. ....|... .. .. ....
58 |... .. .. .... ....|... .. .. ....|... .. .. ....|... .. .. ....
59 |... .. .. .... ....|... .. .. ....|... .. .. ....|... .. .. ....
5A |... .. .. .... ....|... .. .. ....|... .. .. ....|... .. .. ....
5B |... .. .. .... ....|... .. .. ....|... .. .. ....|... .. .. ....
5C |... .. .. .... ....|... .. .. ....|... .. .. ....|... .. .. ....
5D |... .. .. .... ....|... .. .. ....|... .. .. ....|... .. .. ....
5E |... .. .. .... ....|... .. .. ....|... .. .. ....|... .. .. ....
5F |... .. .. .... ....|... .. .. ....|... .. .. ....|... .. .. ....
60 |... .. .. .... ....|... .. .. ....|... .. .. ....|... .. .. ....
61 |... .. .. .... ....|... .. .. ....|... .. .. ....|... .. .. ....
62 |... .. .. .... ....|... .. .. ....|... .. .. ....|... .. .. ....
63 |... .. .. .... ....|... .. .. ....|... .. .. ....|... .. .. ....
64 |... .. .. .... ....|... .. .. ....|... .. .. ....|... .. .. ....
65 |... .. .. .... ....|... .. .. ....|... .. .. ....|... .. .. ....
66 |... .. .. .... ....|... .. .. ....|... .. .. ....|... .. .. ....
67 |... .. .. .... ....|... .. .. ....|... .. .. ....|... .. .. ....
68 |... .. .. .... ....|... .. .. ....|... .. .. ....|... .. .. ....
69 |... .. .. .... ....|... .. .. ....|... .. .. ....|... .. .. ....
6A |... .. .. .... ....|... .. .. ....|... .. .. ....|... .. .. ....
6B |... .. .. .... ....|... .. .. ....|... .. .. ....|... .. .. ....
6C |... .. .. .... ....|... .. .. ....|... .. .. ....|... .. .. ....
6D |... .. .. .... ....|... .. .. ....|... .. .. ....|... .. .. ....
6E |... .. .. .... ....|... .. .. ....|... .. .. ....|... .. .. ....
6F |... .. .. .... ....|... .. .. ....|... .. .. ....|... .. .. ....
70 |... .. .. .... ....|... .. .. ....|... .. .. ....|... .. .. ....
71 |... .. .. .... ....|... .. .. ....|... .. .. ....|... .. .. ....
72 |... .. .. .... ....|... .. .. ....|... .. .. ....|... .. .. ....
73 |... .. .. .... ....|... .. .. ....|... .. .. ....|... .. .. ....
74 |... .. .. .... ....|... .. .. ....|... .. .. ....|... .. .. ....
75 |... .. .. .... ....|... .. .. ....|... .. .. ....|... .. .. ....
76 |... .. .. .... ....|... .. .. ....|... .. .. ....|... .. .. ....
77 |... .. .. .... ....|... .. .. ....|... .. .. ....|... .. .. ....
78 |... .. .. .... ....|... .. .. ....|... .. .. ....|... .. .. ....
79 |... .. .. .... ....|... .. .. ....|... .. .. ....|... .. .. ....
7A |... .. .. .... ....|... .. .. ....|... .. .. ....|... .. .. ....
7B |... .. .. .... ....|... .. .. ....|... .. .. ....|... .. .. ....
7C |... .. .. .... ....|... .. .. ....|... .. .. ....|... .. .. ....
7D |... .. .. .... ....|... .. .. ....|... .. .. ....|... .. .. ....
7E |... .. .. .... ....|... .. .. ....|... .. .. ....|... .. .. ....
7F |... .. .. .... ....|... .. .. ....|... .. .. ....|... .. .. ....
----- ORDER 19
00 |C#4 0A 0A 0463 ....|E-4 0A 0A 0463|G#4 0B 0F 0463|... .. .. ....
01 |... .. .. .... ....|... .. .. ....|... .. .. ....|... .. .. ....
02 |... .. .. .... ....|... .. .. ....|... .. .. ....|... .. .. ....
03 |... .. .. .... ....|... .. .. ....|... .. .. ....|... .. .. ....
04 |... .. .. .... ....|... .. .. ....|... .. .. ....|... .. .. ....
05 |... .. .. .... ....|... .. .. ....|... .. .. ....|... .. .. ....
06 |... .. .. .... ....|... .. .. ....|... .. .. ....|... .. .. ....
07 |... .. .. .... ....|... .. .. ....|... .. .. ....|... .. .. ....
08 |... .. .. .... ....|... .. .. ....|... .. .. ....|... .. .. ....
09 |... .. .. .... ....|... .. .. ....|... .. .. ....|... .. .. ....
0A |... .. .. .... ....|... .. .. ....|... .. .. ....|... .. .. ....
0B |... .. .. .... ....|... .. .. ....|... .. .. ....|... .. .. ....
0C |... .. .. .... ....|... .. .. ....|... .. .. ....|... .. .. ....
0D |... .. .. .... ....|... .. .. ....|... .. .. ....|... .. .. ....
0E |... .. .. .... ....|... .. .. ....|... .. .. ....|... .. .. ....
0F |... .. .. .... ....|... .. .. ....|... .. .. ....|... .. .. ....
10 |... .. .. .... ....|... .. .. ....|... .. .. ....|... .. .. ....
11 |... .. .. .... ....|... .. .. ....|... .. .. ....|... .. .. ....
12 |... .. .. .... ....|... .. .. ....|... .. .. ....|... .. .. ....
13 |... .. .. .... ....|... .. .. ....|... .. .. ....|... .. .. ....
14 |... .. .. .... ....|... .. .. ....|... .. .. ....|... .. .. ....
15 |... .. .. .... ....|... .. .. ....|... .. .. ....|... .. .. ....
16 |... .. .. .... ....|... .. .. ....|... .. .. ....|... .. .. ....
17 |... .. .. .... ....|... .. .. ....|... .. .. ....|... .. .. ....
18 |... .. .. .... ....|... .. .. ....|... .. .. ....|... .. .. ....
19 |... .. .. .... ....|... .. .. ....|... .. .. ....|... .. .. ....
1A |... .. .. .... ....|... .. .. ....|... .. .. ....|... .. .. ....
1B |... .. .. .... ....|... .. .. ....|... .. .. ....|... .. .. ....
1C |... .. .. .... ....|... .. .. ....|... .. .. ....|... .. .. ....
1D |... .. .. .... ....|... .. .. ....|... .. .. ....|... .. .. ....
1E |... .. .. .... ....|... .. .. ....|... .. .. ....|... .. .. ....
1F |... .. .. .... ....|... .. .. ....|... .. .. ....|... .. .. ....
20 |... .. .. .... ....|... .. .. ....|... .. .. ....|... .. .. ....
21 |... .. .. .... ....|... .. .. ....|... .. .. ....|... .. .. ....
22 |... .. .. .... ....|... .. .. ....|... .. .. ....|... .. .. ....
23 |... .. .. .... ....|... .. .. ....|... .. .. ....|... .. .. ....
24 |... .. .. .... ....|... .. .. ....|... .. .. ....|... .. .. ....
25 |... .. .. .... ....|... .. .. ....|... .. .. ....|... .. .. ....
26 |... .. .. .... ....|... .. .. ....|... .. .. ....|... .. .. ....
27 |... .. .. .... ....|... .. .. ....|... .. .. ....|... .. .. ....
28 |... .. .. .... ....|... .. .. ....|... .. .. ....|... .. .. ....
29 |... .. .. .... ....|... .. .. ....|... .. .. ....|... .. .. ....
2A |... .. .. .... ....|... .. .. ....|... .. .. ....|... .. .. ....
2B |... .. .. .... ....|... .. .. ....|... .. .. ....|... .. .. ....
2C |... .. .. .... ....|... .. .. ....|... .. .. ....|... .. .. ....
2D |... .. .. .... ....|... .. .. ....|... .. .. ....|... .. .. ....
2E |... .. .. .... ....|... .. .. ....|... .. .. ....|... .. .. ....
2F |... .. .. .... ....|... .. .. ....|... .. .. ....|... .. .. ....
30 |... .. .. .... ....|... .. .. ....|... .. .. ....|... .. .. ....
31 |... .. .. .... ....|... .. .. ....|... .. .. ....|... .. .. ....
32 |... .. .. .... ....|... .. .. ....|... .. .. ....|... .. .. ....
33 |... .. .. .... ....|... .. .. ....|... .. .. ....|... .. .. ....
34 |... .. .. .... ....|... .. .. ....|... .. .. ....|... .. .. ....
35 |... .. .. .... ....|... .. .. ....|... .. .. ....|... .. .. ....
36 |... .. .. .... ....|... .. .. ....|... .. .. ....|... .. .. ....
37 |... .. .. .... ....|... .. .. ....|... .. .. ....|... .. .. ....
38 |... .. .. .... ....|... .. .. ....|... .. .. ....|... .. .. ....
39 |... .. .. .... ....|... .. .. ....|... .. .. ....|... .. .. ....
3A |... .. .. .... ....|... .. .. ....|... .. .. ....|... .. .. ....
3B |... .. .. .... ....|... .. .. ....|... .. .. ....|... .. .. ....
3C |... .. .. .... ....|... .. .. ....|... .. .. ....|... .. .. ....
3D |... .. .. .... ....|... .. .. ....|... .. .. ....|... .. .. ....
3E |... .. .. .... ....|... .. .. ....|... .. .. ....|... .. .. ....
3F |... .. .. .... ....|... .. .. ....|... .. .. ....|... .. .. ....
40 |E-4 0A .. .... ....|G#4 0A .. ....|B-4 0B 0F ....|... .. .. ....
41 |... .. .. .... ....|... .. .. ....|... .. .. ....|... .. .. ....
42 |... .. .. .... ....|... .. .. ....|... .. .. ....|... .. .. ....
43 |... .. .. .... ....|... .. .. ....|... .. .. ....|... .. .. ....
44 |... .. .. .... ....|... .. .. ....|... .. .. ....|... .. .. ....
45 |... .. .. .... ....|... .. .. ....|... .. .. ....|... .. .. ....
46 |... .. .. .... ....|... .. .. ....|... .. .. ....|... .. .. ....
47 |... .. .. .... ....|... .. .. ....|... .. .. ....|... .. .. ....
48 |... .. .. .... ....|... .. .. ....|... .. .. ....|... .. .. ....
49 |... .. .. .... ....|... .. .. ....|... .. .. ....|... .. .. ....
4A |... .. .. .... ....|... .. .. ....|... .. .. ....|... .. .. ....
4B |... .. .. .... ....|... .. .. ....|... .. .. ....|... .. .. ....
4C |... .. .. .... ....|... .. .. ....|... .. .. ....|... .. .. ....
4D |... .. .. .... ....|... .. .. ....|... .. .. ....|... .. .. ....
4E |... .. .. .... ....|... .. .. ....|... .. .. ....|... .. .. ....
4F |... .. .. .... ....|... .. .. ....|... .. .. ....|... .. .. ....
50 |... .. .. .... ....|... .. .. ....|... .. .. ....|... .. .. ....
51 |... .. .. .... ....|... .. .. ....|... .. .. ....|... .. .. ....
52 |... .. .. .... ....|... .. .. ....|... .. .. ....|... .. .. ....
53 |... .. .. .... ....|... .. .. ....|... .. .. ....|... .. .. ....
54 |... .. .. .... ....|... .. .. ....|... .. .. ....|... .. .. ....
55 |... .. .. .... ....|... .. .. ....|... .. .. ....|... .. .. ....
56 |... .. .. .... ....|... .. .. ....|... .. .. ....|... .. .. ....
57 |... .. .. .... ....|... .. .. ....|... .. .. ....|... .. .. ....
58 |... .. .. .... ....|... .. .. ....|... .. .. ....|... .. .. ....
59 |... .. .. .... ....|... .. .. ....|... .. .. ....|... .. .. ....
5A |... .. .. .... ....|... .. .. ....|... .. .. ....|... .. .. ....
5B |... .. .. .... ....|... .. .. ....|... .. .. ....|... .. .. ....
5C |... .. .. .... ....|... .. .. ....|... .. .. ....|... .. .. ....
5D |... .. .. .... ....|... .. .. ....|... .. .. ....|... .. .. ....
5E |... .. .. .... ....|... .. .. ....|... .. .. ....|... .. .. ....
5F |... .. .. .... ....|... .. .. ....|... .. .. ....|... .. .. ....
60 |... .. .. .... ....|... .. .. ....|... .. .. ....|... .. .. ....
61 |... .. .. .... ....|... .. .. ....|... .. .. ....|... .. .. ....
62 |... .. .. .... ....|... .. .. ....|... .. .. ....|... .. .. ....
63 |... .. .. .... ....|... .. .. ....|... .. .. ....|... .. .. ....
64 |... .. .. .... ....|... .. .. ....|... .. .. ....|... .. .. ....
65 |... .. .. .... ....|... .. .. ....|... .. .. ....|... .. .. ....
66 |... .. .. .... ....|... .. .. ....|... .. .. ....|... .. .. ....
67 |... .. .. .... ....|... .. .. ....|... .. .. ....|... .. .. ....
68 |... .. .. .... ....|... .. .. ....|... .. .. ....|... .. .. ....
69 |... .. .. .... ....|... .. .. ....|... .. .. ....|... .. .. ....
6A |... .. .. .... ....|... .. .. ....|... .. .. ....|... .. .. ....
6B |... .. .. .... ....|... .. .. ....|... .. .. ....|... .. .. ....
6C |... .. .. .... ....|... .. .. ....|... .. .. ....|... .. .. ....
6D |... .. .. .... ....|... .. .. ....|... .. .. ....|... .. .. ....
6E |... .. .. .... ....|... .. .. ....|... .. .. ....|... .. .. ....
6F |... .. .. .... ....|... .. .. ....|... .. .. ....|... .. .. ....
70 |... .. .. .... ....|... .. .. ....|... .. .. ....|... .. .. ....
71 |... .. .. .... ....|... .. .. ....|... .. .. ....|... .. .. ....
72 |... .. .. .... ....|... .. .. ....|... .. .. ....|... .. .. ....
73 |... .. .. .... ....|... .. .. ....|... .. .. ....|... .. .. ....
74 |... .. .. .... ....|... .. .. ....|... .. .. ....|... .. .. ....
75 |... .. .. .... ....|... .. .. ....|... .. .. ....|... .. .. ....
76 |... .. .. .... ....|... .. .. ....|... .. .. ....|... .. .. ....
77 |... .. .. .... ....|... .. .. ....|... .. .. ....|... .. .. ....
78 |... .. .. .... ....|... .. .. ....|... .. .. ....|... .. .. ....
79 |... .. .. .... ....|... .. .. ....|... .. .. ....|... .. .. ....
7A |... .. .. .... ....|... .. .. ....|... .. .. ....|... .. .. ....
7B |... .. .. .... ....|... .. .. ....|... .. .. ....|... .. .. ....
7C |... .. .. .... ....|... .. .. ....|... .. .. ....|... .. .. ....
7D |... .. .. .... ....|... .. .. ....|... .. .. ....|... .. .. ....
7E |... .. .. .... ....|... .. .. ....|... .. .. ....|... .. .. ....
7F |... .. .. .... ....|... .. .. ....|... .. .. ....|... .. .. ....
----- ORDER 1A
00 |A-3 0A 0A .... ....|C#4 0A 0A ....|E-4 0B .. ....|... .. .. ....
01 |... .. .. .... ....|... .. .. ....|... .. .. ....|... .. .. ....
02 |... .. .. .... ....|... .. .. ....|... .. .. ....|... .. .. ....
03 |... .. .. .... ....|... .. .. ....|... .. .. ....|... .. .. ....
04 |... .. .. .... ....|... .. .. ....|... .. .. ....|... .. .. ....
05 |... .. .. .... ....|... .. .. ....|... .. .. ....|... .. .. ....
06 |... .. .. .... ....|... .. .. ....|... .. .. ....|... .. .. ....
07 |... .. .. .... ....|... .. .. ....|... .. .. ....|... .. .. ....
08 |... .. .. .... ....|... .. .. ....|... .. .. ....|... .. .. ....
09 |... .. .. .... ....|... .. .. ....|... .. .. ....|... .. .. ....
0A |... .. .. .... ....|... .. .. ....|... .. .. ....|... .. .. ....
0B |... .. .. .... ....|... .. .. ....|... .. .. ....|... .. .. ....
0C |... .. .. .... ....|... .. .. ....|... .. .. ....|... .. .. ....
0D |... .. .. .... ....|... .. .. ....|... .. .. ....|... .. .. ....
0E |... .. .. .... ....|... .. .. ....|... .. .. ....|... .. .. ....
0F |... .. .. .... ....|... .. .. ....|... .. .. ....|... .. .. ....
10 |... .. .. .... ....|... .. .. ....|... .. .. ....|... .. .. ....
11 |... .. .. .... ....|... .. .. ....|... .. .. ....|... .. .. ....
12 |... .. .. .... ....|... .. .. ....|... .. .. ....|... .. .. ....
13 |... .. .. .... ....|... .. .. ....|... .. .. ....|... .. .. ....
14 |... .. .. .... ....|... .. .. ....|... .. .. ....|... .. .. ....
15 |... .. .. .... ....|... .. .. ....|... .. .. ....|... .. .. ....
16 |... .. .. .... ....|... .. .. ....|... .. .. ....|... .. .. ....
17 |... .. .. .... ....|... .. .. ....|... .. .. ....|... .. .. ....
18 |... .. .. .... ....|... .. .. ....|... .. .. ....|... .. .. ....
19 |... .. .. .... ....|... .. .. ....|... .. .. ....|... .. .. ....
1A |... .. .. .... ....|... .. .. ....|... .. .. ....|... .. .. ....
1B |... .. .. .... ....|... .. .. ....|... .. .. ....|... .. .. ....
1C |... .. .. .... ....|... .. .. ....|... .. .. ....|... .. .. ....
1D |... .. .. .... ....|... .. .. ....|... .. .. ....|... .. .. ....
1E |... .. .. .... ....|... .. .. ....|... .. .. ....|... .. .. ....
1F |... .. .. .... ....|... .. .. ....|... .. .. ....|... .. .. ....
20 |... .. .. .... ....|... .. .. ....|... .. .. ....|... .. .. ....
21 |... .. .. .... ....|... .. .. ....|... .. .. ....|... .. .. ....
22 |... .. .. .... ....|... .. .. ....|... .. .. ....|... .. .. ....
23 |... .. .. .... ....|... .. .. ....|... .. .. ....|... .. .. ....
24 |... .. .. .... ....|... .. .. ....|... .. .. ....|... .. .. ....
25 |... .. .. .... ....|... .. .. ....|... .. .. ....|... .. .. ....
26 |... .. .. .... ....|... .. .. ....|... .. .. ....|... .. .. ....
27 |... .. .. .... ....|... .. .. ....|... .. .. ....|... .. .. ....
28 |... .. .. .... ....|... .. .. ....|... .. .. ....|... .. .. ....
29 |... .. .. .... ....|... .. .. ....|... .. .. ....|... .. .. ....
2A |... .. .. .... ....|... .. .. ....|... .. .. ....|... .. .. ....
2B |... .. .. .... ....|... .. .. ....|... .. .. ....|... .. .. ....
2C |... .. .. .... ....|... .. .. ....|... .. .. ....|... .. .. ....
2D |... .. .. .... ....|... .. .. ....|... .. .. ....|... .. .. ....
2E |... .. .. .... ....|... .. .. ....|... .. .. ....|... .. .. ....
2F |... .. .. .... ....|... .. .. ....|... .. .. ....|... .. .. ....
30 |... .. .. .... ....|... .. .. ....|... .. .. ....|... .. .. ....
31 |... .. .. .... ....|... .. .. ....|... .. .. ....|... .. .. ....
32 |... .. .. .... ....|... .. .. ....|... .. .. ....|... .. .. ....
33 |... .. .. .... ....|... .. .. ....|... .. .. ....|... .. .. ....
34 |... .. .. .... ....|... .. .. ....|... .. .. ....|... .. .. ....
35 |... .. .. .... ....|... .. .. ....|... .. .. ....|... .. .. ....
36 |... .. .. .... ....|... .. .. ....|... .. .. ....|... .. .. ....
37 |... .. .. .... ....|... .. .. ....|... .. .. ....|... .. .. ....
38 |... .. .. .... ....|... .. .. ....|... .. .. ....|... .. .. ....
39 |... .. .. .... ....|... .. .. ....|... .. .. ....|... .. .. ....
3A |... .. .. .... ....|... .. .. ....|... .. .. ....|... .. .. ....
3B |... .. .. .... ....|... .. .. ....|... .. .. ....|... .. .. ....
3C |... .. .. .... ....|... .. .. ....|... .. .. ....|... .. .. ....
3D |... .. .. .... ....|... .. .. ....|... .. .. ....|... .. .. ....
3E |... .. .. .... ....|... .. .. ....|... .. .. ....|... .. .. ....
3F |... .. .. .... ....|... .. .. ....|... .. .. ....|... .. .. ....
40 |B-3 0A .. .... ....|D#4 0A .. ....|F#4 0B 0F ....|... .. .. ....
41 |... .. .. .... ....|... .. .. ....|... .. .. ....|... .. .. ....
42 |... .. .. .... ....|... .. .. ....|... .. .. ....|... .. .. ....
43 |... .. .. .... ....|... .. .. ....|... .. .. ....|... .. .. ....
44 |... .. .. .... ....|... .. .. ....|... .. .. ....|... .. .. ....
45 |... .. .. .... ....|... .. .. ....|... .. .. ....|... .. .. ....
46 |... .. .. .... ....|... .. .. ....|... .. .. ....|... .. .. ....
47 |... .. .. .... ....|... .. .. ....|... .. .. ....|... .. .. ....
48 |... .. .. .... ....|... .. .. ....|... .. .. ....|... .. .. ....
49 |... .. .. .... ....|... .. .. ....|... .. .. ....|... .. .. ....
4A |... .. .. .... ....|... .. .. ....|... .. .. ....|... .. .. ....
4B |... .. .. .... ....|... .. .. ....|... .. .. ....|... .. .. ....
4C |... .. .. .... ....|... .. .. ....|... .. .. ....|... .. .. ....
4D |... .. .. .... ....|... .. .. ....|... .. .. ....|... .. .. ....
4E |... .. .. .... ....|... .. .. ....|... .. .. ....|... .. .. ....
4F |... .. .. .... ....|... .. .. ....|... .. .. ....|... .. .. ....
50 |... .. .. .... ....|... .. .. ....|... .. .. ....|... .. .. ....
51 |... .. .. .... ....|... .. .. ....|... .. .. ....|... .. .. ....
52 |... .. .. .... ....|... .. .. ....|... .. .. ....|... .. .. ....
53 |... .. .. .... ....|... .. .. ....|... .. .. ....|... .. .. ....
54 |... .. .. .... ....|... .. .. ....|... .. .. ....|... .. .. ....
55 |... .. .. .... ....|... .. .. ....|... .. .. ....|... .. .. ....
56 |... .. .. .... ....|... .. .. ....|... .. .. ....|... .. .. ....
57 |... .. .. .... ....|... .. .. ....|... .. .. ....|... .. .. ....
58 |... .. .. .... ....|... .. .. ....|... .. .. ....|... .. .. ....
59 |... .. .. .... ....|... .. .. ....|... .. .. ....|... .. .. ....
5A |... .. .. .... ....|... .. .. ....|... .. .. ....|... .. .. ....
5B |... .. .. .... ....|... .. .. ....|... .. .. ....|... .. .. ....
5C |... .. .. .... ....|... .. .. ....|... .. .. ....|... .. .. ....
5D |... .. .. .... ....|... .. .. ....|... .. .. ....|... .. .. ....
5E |... .. .. .... ....|... .. .. ....|... .. .. ....|... .. .. ....
5F |... .. .. .... ....|... .. .. ....|... .. .. ....|... .. .. ....
60 |... .. .. .... ....|... .. .. ....|... .. .. ....|... .. .. ....
61 |... .. .. .... ....|... .. .. ....|... .. .. ....|... .. .. ....
62 |... .. .. .... ....|... .. .. ....|... .. .. ....|... .. .. ....
63 |... .. .. .... ....|... .. .. ....|... .. .. ....|... .. .. ....
64 |... .. .. .... ....|... .. .. ....|... .. .. ....|... .. .. ....
65 |... .. .. .... ....|... .. .. ....|... .. .. ....|... .. .. ....
66 |... .. .. .... ....|... .. .. ....|... .. .. ....|... .. .. ....
67 |... .. .. .... ....|... .. .. ....|... .. .. ....|... .. .. ....
68 |... .. .. .... ....|... .. .. ....|... .. .. ....|... .. .. ....
69 |... .. .. .... ....|... .. .. ....|... .. .. ....|... .. .. ....
6A |... .. .. .... ....|... .. .. ....|... .. .. ....|... .. .. ....
6B |... .. .. .... ....|... .. .. ....|... .. .. ....|... .. .. ....
6C |... .. .. .... ....|... .. .. ....|... .. .. ....|... .. .. ....
6D |... .. .. .... ....|... .. .. ....|... .. .. ....|... .. .. ....
6E |... .. .. .... ....|... .. .. ....|... .. .. ....|... .. .. ....
6F |... .. .. .... ....|... .. .. ....|... .. .. ....|... .. .. ....
70 |... .. .. .... ....|... .. .. ....|... .. .. ....|... .. .. ....
71 |... .. .. .... ....|... .. .. ....|... .. .. ....|... .. .. ....
72 |... .. .. .... ....|... .. .. ....|... .. .. ....|... .. .. ....
73 |... .. .. .... ....|... .. .. ....|... .. .. ....|... .. .. ....
74 |... .. .. .... ....|... .. .. ....|... .. .. ....|... .. .. ....
75 |... .. .. .... ....|... .. .. ....|... .. .. ....|... .. .. ....
76 |... .. .. .... ....|... .. .. ....|... .. .. ....|... .. .. ....
77 |... .. .. .... ....|... .. .. ....|... .. .. ....|... .. .. ....
78 |... .. .. .... ....|... .. .. ....|... .. .. ....|... .. .. ....
79 |... .. .. .... ....|... .. .. ....|... .. .. ....|... .. .. ....
7A |... .. .. .... ....|... .. .. ....|... .. .. ....|... .. .. ....
7B |... .. .. .... ....|... .. .. ....|... .. .. ....|... .. .. ....
7C |... .. .. .... ....|... .. .. ....|... .. .. ....|... .. .. ....
7D |... .. .. .... ....|... .. .. ....|... .. .. ....|... .. .. ....
7E |... .. .. .... ....|... .. .. ....|... .. .. ....|... .. .. ....
7F |... .. .. .... ....|... .. .. ....|... .. .. ....|... .. .. ....
----- ORDER 1B
00 |C#4 0A 0A 0463 ....|E-4 0A 0A 0463|C#5 0C 0F 0400|... .. .. ....
01 |... .. .. .... ....|... .. .. ....|... .. .. ....|... .. .. ....
02 |... .. .. .... ....|... .. .. ....|G#5 0C 04 ....|... .. .. ....
03 |... .. .. .... ....|... .. .. ....|... .. .. ....|... .. .. ....
04 |... .. .. .... ....|... .. .. ....|D#5 0C 0F ....|... .. .. ....
05 |... .. .. .... ....|... .. .. ....|... .. .. ....|... .. .. ....
06 |... .. .. .... ....|... .. .. ....|C#5 0C 04 ....|... .. .. ....
07 |... .. .. .... ....|... .. .. ....|... .. .. ....|... .. .. ....
08 |... .. .. .... ....|... .. .. ....|E-5 0C 0F ....|... .. .. ....
09 |... .. .. .... ....|... .. .. ....|... .. .. ....|... .. .. ....
0A |... .. .. .... ....|... .. .. ....|D#5 0C 04 ....|... .. .. ....
0B |... .. .. .... ....|... .. .. ....|... .. .. ....|... .. .. ....
0C |... .. .. .... ....|... .. .. ....|G#5 0C 0F ....|... .. .. ....
0D |... .. .. .... ....|... .. .. ....|... .. .. ....|... .. .. ....
0E |... .. .. .... ....|... .. .. ....|E-5 0C 04 ....|... .. .. ....
0F |... .. .. .... ....|... .. .. ....|... .. .. ....|... .. .. ....
10 |... .. .. .... ....|... .. .. ....|C#5 0C 0F ....|... .. .. ....
11 |... .. .. .... ....|... .. .. ....|... .. .. ....|... .. .. ....
12 |... .. .. .... ....|... .. .. ....|G#5 0C 04 ....|... .. .. ....
13 |... .. .. .... ....|... .. .. ....|... .. .. ....|... .. .. ....
14 |... .. .. .... ....|... .. .. ....|D#5 0C 0F ....|... .. .. ....
15 |... .. .. .... ....|... .. .. ....|... .. .. ....|... .. .. ....
16 |... .. .. .... ....|... .. .. ....|C#5 0C 04 ....|... .. .. ....
17 |... .. .. .... ....|... .. .. ....|... .. .. ....|... .. .. ....
18 |... .. .. .... ....|... .. .. ....|E-5 0C 0F ....|... .. .. ....
19 |... .. .. .... ....|... .. .. ....|... .. .. ....|... .. .. ....
1A |... .. .. .... ....|... .. .. ....|D#5 0C 04 ....|... .. .. ....
1B |... .. .. .... ....|... .. .. ....|... .. .. ....|... .. .. ....
1C |... .. .. .... ....|... .. .. ....|G#5 0C 0F ....|... .. .. ....
1D |... .. .. .... ....|... .. .. ....|... .. .. ....|... .. .. ....
1E |... .. .. .... ....|... .. .. ....|E-5 0C 04 ....|... .. .. ....
1F |... .. .. .... ....|... .. .. ....|... .. .. ....|... .. .. ....
20 |... .. .. .... ....|... .. .. ....|C#5 0C 0F ....|... .. .. ....
21 |... .. .. .... ....|... .. .. ....|... .. .. ....|... .. .. ....
22 |... .. .. .... ....|... .. .. ....|G#5 0C 04 ....|... .. .. ....
23 |... .. .. .... ....|... .. .. ....|... .. .. ....|... .. .. ....
24 |... .. .. .... ....|... .. .. ....|D#5 0C 0F ....|... .. .. ....
25 |... .. .. .... ....|... .. .. ....|... .. .. ....|... .. .. ....
26 |... .. .. .... ....|... .. .. ....|C#5 0C 04 ....|... .. .. ....
27 |... .. .. .... ....|... .. .. ....|... .. .. ....|... .. .. ....
28 |... .. .. .... ....|... .. .. ....|E-5 0C 0F ....|... .. .. ....
29 |... .. .. .... ....|... .. .. ....|... .. .. ....|... .. .. ....
2A |... .. .. .... ....|... .. .. ....|D#5 0C 04 ....|... .. .. ....
2B |... .. .. .... ....|... .. .. ....|... .. .. ....|... .. .. ....
2C |... .. .. .... ....|... .. .. ....|G#5 0C 0F ....|... .. .. ....
2D |... .. .. .... ....|... .. .. ....|... .. .. ....|... .. .. ....
2E |... .. .. .... ....|... .. .. ....|E-5 0C 04 ....|... .. .. ....
2F |... .. .. .... ....|... .. .. ....|... .. .. ....|... .. .. ....
30 |... .. .. .... ....|... .. .. ....|C#5 0C 0F ....|... .. .. ....
31 |... .. .. .... ....|... .. .. ....|... .. .. ....|... .. .. ....
32 |... .. .. .... ....|... .. .. ....|G#5 0C 04 ....|... .. .. ....
33 |... .. .. .... ....|... .. .. ....|... .. .. ....|... .. .. ....
34 |... .. .. .... ....|... .. .. ....|D#5 0C 0F ....|... .. .. ....
35 |... .. .. .... ....|... .. .. ....|... .. .. ....|... .. .. ....
36 |... .. .. .... ....|... .. .. ....|C#5 0C 04 ....|... .. .. ....
37 |... .. .. .... ....|... .. .. ....|... .. .. ....|... .. .. ....
38 |... .. .. .... ....|... .. .. ....|E-5 0C 0F ....|... .. .. ....
39 |... .. .. .... ....|... .. .. ....|... .. .. ....|... .. .. ....
3A |... .. .. .... ....|... .. .. ....|D#5 0C 04 ....|... .. .. ....
3B |... .. .. .... ....|... .. .. ....|... .. .. ....|... .. .. ....
3C |... .. .. .... ....|... .. .. ....|G#5 0C 0F ....|... .. .. ....
3D |... .. .. .... ....|... .. .. ....|... .. .. ....|... .. .. ....
3E |... .. .. .... ....|... .. .. ....|E-5 0C 04 ....|... .. .. ....
3F |... .. .. .... ....|... .. .. ....|... .. .. ....|... .. .. ....
40 |B-3 0A .. 0463 ....|D#4 0A .. 0463|B-4 0C 0F ....|... .. .. ....
41 |... .. .. .... ....|... .. .. ....|... .. .. ....|... .. .. ....
42 |... .. .. .... ....|... .. .. ....|F#5 0C 04 ....|... .. .. ....
43 |... .. .. .... ....|... .. .. ....|... .. .. ....|... .. .. ....
44 |... .. .. .... ....|... .. .. ....|C#5 0C 0F ....|... .. .. ....
45 |... .. .. .... ....|... .. .. ....|... .. .. ....|... .. .. ....
46 |... .. .. .... ....|... .. .. ....|B-4 0C 04 ....|... .. .. ....
47 |... .. .. .... ....|... .. .. ....|... .. .. ....|... .. .. ....
48 |... .. .. .... ....|... .. .. ....|D#5 0C 0F ....|... .. .. ....
49 |... .. .. .... ....|... .. .. ....|... .. .. ....|... .. .. ....
4A |... .. .. .... ....|... .. .. ....|C#5 0C 04 ....|... .. .. ....
4B |... .. .. .... ....|... .. .. ....|... .. .. ....|... .. .. ....
4C |... .. .. .... ....|... .. .. ....|F#5 0C 0F ....|... .. .. ....
4D |... .. .. .... ....|... .. .. ....|... .. .. ....|... .. .. ....
4E |... .. .. .... ....|... .. .. ....|D#5 0C 04 ....|... .. .. ....
4F |... .. .. .... ....|... .. .. ....|... .. .. ....|... .. .. ....
50 |... .. .. .... ....|... .. .. ....|B-4 0C 0F ....|... .. .. ....
51 |... .. .. .... ....|... .. .. ....|... .. .. ....|... .. .. ....
52 |... .. .. .... ....|... .. .. ....|F#5 0C 04 ....|... .. .. ....
53 |... .. .. .... ....|... .. .. ....|... .. .. ....|... .. .. ....
54 |... .. .. .... ....|... .. .. ....|C#5 0C 0F ....|... .. .. ....
55 |... .. .. .... ....|... .. .. ....|... .. .. ....|... .. .. ....
56 |... .. .. .... ....|... .. .. ....|B-4 0C 04 ....|... .. .. ....
57 |... .. .. .... ....|... .. .. ....|... .. .. ....|... .. .. ....
58 |... .. .. .... ....|... .. .. ....|D#5 0C 0F ....|... .. .. ....
59 |... .. .. .... ....|... .. .. ....|... .. .. ....|... .. .. ....
5A |... .. .. .... ....|... .. .. ....|C#5 0C 04 ....|... .. .. ....
5B |... .. .. .... ....|... .. .. ....|... .. .. ....|... .. .. ....
5C |... .. .. .... ....|... .. .. ....|F#5 0C 0F ....|... .. .. ....
5D |... .. .. .... ....|... .. .. ....|... .. .. ....|... .. .. ....
5E |... .. .. .... ....|... .. .. ....|D#5 0C 04 ....|... .. .. ....
5F |... .. .. .... ....|... .. .. ....|... .. .. ....|... .. .. ....
60 |... .. .. .... ....|... .. .. ....|B-4 0C 0F ....|... .. .. ....
61 |... .. .. .... ....|... .. .. ....|... .. .. ....|... .. .. ....
62 |... .. .. .... ....|... .. .. ....|F#5 0C 04 ....|... .. .. ....
63 |... .. .. .... ....|... .. .. ....|... .. .. ....|... .. .. ....
64 |... .. .. .... ....|... .. .. ....|C#5 0C 0F ....|... .. .. ....
65 |... .. .. .... ....|... .. .. ....|... .. .. ....|... .. .. ....
66 |... .. .. .... ....|... .. .. ....|B-4 0C 04 ....|... .. .. ....
67 |... .. .. .... ....|... .. .. ....|... .. .. ....|... .. .. ....
68 |... .. .. .... ....|... .. .. ....|D#5 0C 0F ....|... .. .. ....
69 |... .. .. .... ....|... .. .. ....|... .. .. ....|... .. .. ....
6A |... .. .. .... ....|... .. .. ....|C#5 0C 04 ....|... .. .. ....
6B |... .. .. .... ....|... .. .. ....|... .. .. ....|... .. .. ....
6C |... .. .. .... ....|... .. .. ....|F#5 0C 0F ....|... .. .. ....
6D |... .. .. .... ....|... .. .. ....|... .. .. ....|... .. .. ....
6E |... .. .. .... ....|... .. .. ....|D#5 0C 04 ....|... .. .. ....
6F |... .. .. .... ....|... .. .. ....|... .. .. ....|... .. .. ....
70 |... .. .. .... ....|... .. .. ....|B-4 0C 0F ....|... .. .. ....
71 |... .. .. .... ....|... .. .. ....|... .. .. ....|... .. .. ....
72 |... .. .. .... ....|... .. .. ....|F#5 0C 04 ....|... .. .. ....
73 |... .. .. .... ....|... .. .. ....|... .. .. ....|... .. .. ....
74 |... .. .. .... ....|... .. .. ....|C#5 0C 0F ....|... .. .. ....
75 |... .. .. .... ....|... .. .. ....|... .. .. ....|... .. .. ....
76 |... .. .. .... ....|... .. .. ....|B-4 0C 04 ....|... .. .. ....
77 |... .. .. .... ....|... .. .. ....|... .. .. ....|... .. .. ....
78 |... .. .. .... ....|... .. .. ....|D#5 0C 0F ....|... .. .. ....
79 |... .. .. .... ....|... .. .. ....|... .. .. ....|... .. .. ....
7A |... .. .. .... ....|... .. .. ....|C#5 0C 04 ....|... .. .. ....
7B |... .. .. .... ....|... .. .. ....|... .. .. ....|... .. .. ....
7C |... .. .. .... ....|... .. .. ....|F#5 0C 0F ....|... .. .. ....
7D |... .. .. .... ....|... .. .. ....|... .. .. ....|... .. .. ....
7E |... .. .. .... ....|... .. .. ....|D#5 0C 04 ....|... .. .. ....
7F |... .. .. .... ....|... .. .. ....|... .. .. ....|... .. .. ....
----- ORDER 1C
00 |A-3 0A 0A .... ....|C#4 0A 0A ....|A-4 0C 0F ....|... .. .. ....
01 |... .. .. .... ....|... .. .. ....|... .. .. ....|... .. .. ....
02 |... .. .. .... ....|... .. .. ....|E-5 0C 04 ....|... .. .. ....
03 |... .. .. .... ....|... .. .. ....|... .. .. ....|... .. .. ....
04 |... .. .. .... ....|... .. .. ....|B-4 0C 0F ....|... .. .. ....
05 |... .. .. .... ....|... .. .. ....|... .. .. ....|... .. .. ....
06 |... .. .. .... ....|... .. .. ....|A-4 0C 04 ....|... .. .. ....
07 |... .. .. .... ....|... .. .. ....|... .. .. ....|... .. .. ....
08 |... .. .. .... ....|... .. .. ....|C#5 0C 0F ....|... .. .. ....
09 |... .. .. .... ....|... .. .. ....|... .. .. ....|... .. .. ....
0A |... .. .. .... ....|... .. .. ....|B-4 0C 04 ....|... .. .. ....
0B |... .. .. .... ....|... .. .. ....|... .. .. ....|... .. .. ....
0C |... .. .. .... ....|... .. .. ....|E-5 0C 0F ....|... .. .. ....
0D |... .. .. .... ....|... .. .. ....|... .. .. ....|... .. .. ....
0E |... .. .. .... ....|... .. .. ....|C#5 0C 04 ....|... .. .. ....
0F |... .. .. .... ....|... .. .. ....|... .. .. ....|... .. .. ....
10 |... .. .. .... ....|... .. .. ....|A-4 0C 0F ....|... .. .. ....
11 |... .. .. .... ....|... .. .. ....|... .. .. ....|... .. .. ....
12 |... .. .. .... ....|... .. .. ....|E-5 0C 04 ....|... .. .. ....
13 |... .. .. .... ....|... .. .. ....|... .. .. ....|... .. .. ....
14 |... .. .. .... ....|... .. .. ....|B-4 0C 0F ....|... .. .. ....
15 |... .. .. .... ....|... .. .. ....|... .. .. ....|... .. .. ....
16 |... .. .. .... ....|... .. .. ....|A-4 0C 04 ....|... .. .. ....
17 |... .. .. .... ....|... .. .. ....|... .. .. ....|... .. .. ....
18 |... .. .. .... ....|... .. .. ....|C#5 0C 0F ....|... .. .. ....
19 |... .. .. .... ....|... .. .. ....|... .. .. ....|... .. .. ....
1A |... .. .. .... ....|... .. .. ....|B-4 0C 04 ....|... .. .. ....
1B |... .. .. .... ....|... .. .. ....|... .. .. ....|... .. .. ....
1C |... .. .. .... ....|... .. .. ....|E-5 0C 0F ....|... .. .. ....
1D |... .. .. .... ....|... .. .. ....|... .. .. ....|... .. .. ....
1E |... .. .. .... ....|... .. .. ....|C#5 0C 04 ....|... .. .. ....
1F |... .. .. .... ....|... .. .. ....|... .. .. ....|... .. .. ....
20 |... .. .. .... ....|... .. .. ....|A-4 0C 0F ....|... .. .. ....
21 |... .. .. .... ....|... .. .. ....|... .. .. ....|... .. .. ....
22 |... .. .. .... ....|... .. .. ....|E-5 0C 04 ....|... .. .. ....
23 |... .. .. .... ....|... .. .. ....|... .. .. ....|... .. .. ....
24 |... .. .. .... ....|... .. .. ....|B-4 0C 0F ....|... .. .. ....
25 |... .. .. .... ....|... .. .. ....|... .. .. ....|... .. .. ....
26 |... .. .. .... ....|... .. .. ....|A-4 0C 04 ....|... .. .. ....
27 |... .. .. .... ....|... .. .. ....|... .. .. ....|... .. .. ....
28 |... .. .. .... ....|... .. .. ....|C#5 0C 0F ....|... .. .. ....
29 |... .. .. .... ....|... .. .. ....|... .. .. ....|... .. .. ....
2A |... .. .. .... ....|... .. .. ....|B-4 0C 04 ....|... .. .. ....
2B |... .. .. .... ....|... .. .. ....|... .. .. ....|... .. .. ....
2C |... .. .. .... ....|... .. .. ....|E-5 0C 0F ....|... .. .. ....
2D |... .. .. .... ....|... .. .. ....|... .. .. ....|... .. .. ....
2E |... .. .. .... ....|... .. .. ....|C#5 0C 04 ....|... .. .. ....
2F |... .. .. .... ....|... .. .. ....|... .. .. ....|... .. .. ....
30 |... .. .. .... ....|... .. .. ....|A-4 0C 0F ....|... .. .. ....
31 |... .. .. .... ....|... .. .. ....|... .. .. ....|... .. .. ....
32 |... .. .. .... ....|... .. .. ....|E-5 0C 04 ....|... .. .. ....
33 |... .. .. .... ....|... .. .. ....|... .. .. ....|... .. .. ....
34 |... .. .. .... ....|... .. .. ....|B-4 0C 0F ....|... .. .. ....
35 |... .. .. .... ....|... .. .. ....|... .. .. ....|... .. .. ....
36 |... .. .. .... ....|... .. .. ....|A-4 0C 04 ....|... .. .. ....
37 |... .. .. .... ....|... .. .. ....|... .. .. ....|... .. .. ....
38 |... .. .. .... ....|... .. .. ....|C#5 0C 0F ....|... .. .. ....
39 |... .. .. .... ....|... .. .. ....|... .. .. ....|... .. .. ....
3A |... .. .. .... ....|... .. .. ....|B-4 0C 04 ....|... .. .. ....
3B |... .. .. .... ....|... .. .. ....|... .. .. ....|... .. .. ....
3C |... .. .. .... ....|... .. .. ....|E-5 0C 0F ....|... .. .. ....
3D |... .. .. .... ....|... .. .. ....|... .. .. ....|... .. .. ....
3E |... .. .. .... ....|... .. .. ....|C#5 0C 04 ....|... .. .. ....
3F |... .. .. .... ....|... .. .. ....|... .. .. ....|... .. .. ....
40 |B-3 0A .. .... ....|D#4 0A .. ....|B-4 0C 0F ....|... .. .. ....
41 |... .. .. .... ....|... .. .. ....|... .. .. ....|... .. .. ....
42 |... .. .. .... ....|... .. .. ....|F#5 0C 04 ....|... .. .. ....
43 |... .. .. .... ....|... .. .. ....|... .. .. ....|... .. .. ....
44 |... .. .. .... ....|... .. .. ....|C#5 0C 0F ....|... .. .. ....
45 |... .. .. .... ....|... .. .. ....|... .. .. ....|... .. .. ....
46 |... .. .. .... ....|... .. .. ....|B-4 0C 04 ....|... .. .. ....
47 |... .. .. .... ....|... .. .. ....|... .. .. ....|... .. .. ....
48 |... .. .. .... ....|... .. .. ....|D#5 0C 0F ....|... .. .. ....
49 |... .. .. .... ....|... .. .. ....|... .. .. ....|... .. .. ....
4A |... .. .. .... ....|... .. .. ....|C#5 0C 04 ....|... .. .. ....
4B |... .. .. .... ....|... .. .. ....|... .. .. ....|... .. .. ....
4C |... .. .. .... ....|... .. .. ....|F#5 0C 0F ....|... .. .. ....
4D |... .. .. .... ....|... .. .. ....|... .. .. ....|... .. .. ....
4E |... .. .. .... ....|... .. .. ....|D#5 0C 04 ....|... .. .. ....
4F |... .. .. .... ....|... .. .. ....|... .. .. ....|... .. .. ....
50 |... .. .. .... ....|... .. .. ....|B-4 0C 0F ....|... .. .. ....
51 |... .. .. .... ....|... .. .. ....|... .. .. ....|... .. .. ....
52 |... .. .. .... ....|... .. .. ....|F#5 0C 04 ....|... .. .. ....
53 |... .. .. .... ....|... .. .. ....|... .. .. ....|... .. .. ....
54 |... .. .. .... ....|... .. .. ....|C#5 0C 0F ....|... .. .. ....
55 |... .. .. .... ....|... .. .. ....|... .. .. ....|... .. .. ....
56 |... .. .. .... ....|... .. .. ....|B-4 0C 04 ....|... .. .. ....
57 |... .. .. .... ....|... .. .. ....|... .. .. ....|... .. .. ....
58 |... .. .. .... ....|... .. .. ....|D#5 0C 0F ....|... .. .. ....
59 |... .. .. .... ....|... .. .. ....|... .. .. ....|... .. .. ....
5A |... .. .. .... ....|... .. .. ....|C#5 0C 04 ....|... .. .. ....
5B |... .. .. .... ....|... .. .. ....|... .. .. ....|... .. .. ....
5C |... .. .. .... ....|... .. .. ....|F#5 0C 0F ....|... .. .. ....
5D |... .. .. .... ....|... .. .. ....|... .. .. ....|... .. .. ....
5E |... .. .. .... ....|... .. .. ....|D#5 0C 04 ....|... .. .. ....
5F |... .. .. .... ....|... .. .. ....|... .. .. ....|... .. .. ....
60 |... .. .. .... ....|... .. .. ....|B-4 0C 0F ....|... .. .. ....
61 |... .. .. .... ....|... .. .. ....|... .. .. ....|... .. .. ....
62 |... .. .. .... ....|... .. .. ....|F#5 0C 04 ....|... .. .. ....
63 |... .. .. .... ....|... .. .. ....|... .. .. ....|... .. .. ....
64 |... .. .. .... ....|... .. .. ....|C#5 0C 0F ....|... .. .. ....
65 |... .. .. .... ....|... .. .. ....|... .. .. ....|... .. .. ....
66 |... .. .. .... ....|... .. .. ....|B-4 0C 04 ....|... .. .. ....
67 |... .. .. .... ....|... .. .. ....|... .. .. ....|... .. .. ....
68 |... .. .. .... ....|... .. .. ....|D#5 0C 0F ....|... .. .. ....
69 |... .. .. .... ....|... .. .. ....|... .. .. ....|... .. .. ....
6A |... .. .. .... ....|... .. .. ....|C#5 0C 04 ....|... .. .. ....
6B |... .. .. .... ....|... .. .. ....|... .. .. ....|... .. .. ....
6C |... .. .. .... ....|... .. .. ....|F#5 0C 0F ....|... .. .. ....
6D |... .. .. .... ....|... .. .. ....|... .. .. ....|... .. .. ....
6E |... .. .. .... ....|... .. .. ....|D#5 0C 04 ....|... .. .. ....
6F |... .. .. .... ....|... .. .. ....|... .. .. ....|... .. .. ....
70 |... .. .. .... ....|... .. .. ....|B-4 0C 0F ....|... .. .. ....
71 |... .. .. .... ....|... .. .. ....|... .. .. ....|... .. .. ....
72 |... .. .. .... ....|... .. .. ....|F#5 0C 04 ....|... .. .. ....
73 |... .. .. .... ....|... .. .. ....|... .. .. ....|... .. .. ....
74 |... .. .. .... ....|... .. .. ....|C#5 0C 0F ....|... .. .. ....
75 |... .. .. .... ....|... .. .. ....|... .. .. ....|... .. .. ....
76 |... .. .. .... ....|... .. .. ....|B-4 0C 04 ....|... .. .. ....
77 |... .. .. .... ....|... .. .. ....|... .. .. ....|... .. .. ....
78 |... .. .. .... ....|... .. .. ....|D#5 0C 0F ....|... .. .. ....
79 |... .. .. .... ....|... .. .. ....|... .. .. ....|... .. .. ....
7A |... .. .. .... ....|... .. .. ....|C#5 0C 04 ....|... .. .. ....
7B |... .. .. .... ....|... .. .. ....|... .. .. ....|... .. .. ....
7C |... .. .. .... ....|... .. .. ....|F#5 0C 0F ....|... .. .. ....
7D |... .. .. .... ....|... .. .. ....|... .. .. ....|... .. .. ....
7E |... .. .. .... ....|... .. .. ....|D#5 0C 04 ....|... .. .. ....
7F |... .. .. .... ....|... .. .. ....|... .. .. ....|... .. .. ....
----- ORDER 1D
00 |C#4 0A 0A 0463 ....|E-4 0A 0A 0463|C#5 0C 0F 0400|... .. .. ....
01 |... .. .. .... ....|... .. .. ....|... .. .. ....|... .. .. ....
02 |... .. .. .... ....|... .. .. ....|G#5 0C 04 ....|... .. .. ....
03 |... .. .. .... ....|... .. .. ....|... .. .. ....|... .. .. ....
04 |... .. .. .... ....|... .. .. ....|D#5 0C 0F ....|... .. .. ....
05 |... .. .. .... ....|... .. .. ....|... .. .. ....|... .. .. ....
06 |... .. .. .... ....|... .. .. ....|C#5 0C 04 ....|... .. .. ....
07 |... .. .. .... ....|... .. .. ....|... .. .. ....|... .. .. ....
08 |... .. .. .... ....|... .. .. ....|E-5 0C 0F ....|... .. .. ....
09 |... .. .. .... ....|... .. .. ....|... .. .. ....|... .. .. ....
0A |... .. .. .... ....|... .. .. ....|D#5 0C 04 ....|... .. .. ....
0B |... .. .. .... ....|... .. .. ....|... .. .. ....|... .. .. ....
0C |... .. .. .... ....|... .. .. ....|G#5 0C 0F ....|... .. .. ....
0D |... .. .. .... ....|... .. .. ....|... .. .. ....|... .. .. ....
0E |... .. .. .... ....|... .. .. ....|E-5 0C 04 ....|... .. .. ....
0F |... .. .. .... ....|... .. .. ....|... .. .. ....|... .. .. ....
10 |... .. .. .... ....|... .. .. ....|C#5 0C 0F ....|... .. .. ....
11 |... .. .. .... ....|... .. .. ....|... .. .. ....|... .. .. ....
12 |... .. .. .... ....|... .. .. ....|G#5 0C 04 ....|... .. .. ....
13 |... .. .. .... ....|... .. .. ....|... .. .. ....|... .. .. ....
14 |... .. .. .... ....|... .. .. ....|D#5 0C 0F ....|... .. .. ....
15 |... .. .. .... ....|... .. .. ....|... .. .. ....|... .. .. ....
16 |... .. .. .... ....|... .. .. ....|C#5 0C 04 ....|... .. .. ....
17 |... .. .. .... ....|... .. .. ....|... .. .. ....|... .. .. ....
18 |... .. .. .... ....|... .. .. ....|E-5 0C 0F ....|... .. .. ....
19 |... .. .. .... ....|... .. .. ....|... .. .. ....|... .. .. ....
1A |... .. .. .... ....|... .. .. ....|D#5 0C 04 ....|... .. .. ....
1B |... .. .. .... ....|... .. .. ....|... .. .. ....|... .. .. ....
1C |... .. .. .... ....|... .. .. ....|G#5 0C 0F ....|... .. .. ....
1D |... .. .. .... ....|... .. .. ....|... .. .. ....|... .. .. ....
1E |... .. .. .... ....|... .. .. ....|E-5 0C 04 ....|... .. .. ....
1F |... .. .. .... ....|... .. .. ....|... .. .. ....|... .. .. ....
20 |... .. .. .... ....|... .. .. ....|C#5 0C 0F ....|... .. .. ....
21 |... .. .. .... ....|... .. .. ....|... .. .. ....|... .. .. ....
22 |... .. .. .... ....|... .. .. ....|G#5 0C 04 ....|... .. .. ....
23 |... .. .. .... ....|... .. .. ....|... .. .. ....|... .. .. ....
24 |... .. .. .... ....|... .. .. ....|D#5 0C 0F ....|... .. .. ....
25 |... .. .. .... ....|... .. .. ....|... .. .. ....|... .. .. ....
26 |... .. .. .... ....|... .. .. ....|C#5 0C 04 ....|... .. .. ....
27 |... .. .. .... ....|... .. .. ....|... .. .. ....|... .. .. ....
28 |... .. .. .... ....|... .. .. ....|E-5 0C 0F ....|... .. .. ....
29 |... .. .. .... ....|... .. .. ....|... .. .. ....|... .. .. ....
2A |... .. .. .... ....|... .. .. ....|D#5 0C 04 ....|... .. .. ....
2B |... .. .. .... ....|... .. .. ....|... .. .. ....|... .. .. ....
2C |... .. .. .... ....|... .. .. ....|G#5 0C 0F ....|... .. .. ....
2D |... .. .. .... ....|... .. .. ....|... .. .. ....|... .. .. ....
2E |... .. .. .... ....|... .. .. ....|E-5 0C 04 ....|... .. .. ....
2F |... .. .. .... ....|... .. .. ....|... .. .. ....|... .. .. ....
30 |... .. .. .... ....|... .. .. ....|C#5 0C 0F ....|... .. .. ....
31 |... .. .. .... ....|... .. .. ....|... .. .. ....|... .. .. ....
32 |... .. .. .... ....|... .. .. ....|G#5 0C 04 ....|... .. .. ....
33 |... .. .. .... ....|... .. .. ....|... .. .. ....|... .. .. ....
34 |... .. .. .... ....|... .. .. ....|D#5 0C 0F ....|... .. .. ....
35 |... .. .. .... ....|... .. .. ....|... .. .. ....|... .. .. ....
36 |... .. .. .... ....|... .. .. ....|C#5 0C 04 ....|... .. .. ....
37 |... .. .. .... ....|... .. .. ....|... .. .. ....|... .. .. ....
38 |... .. .. .... ....|... .. .. ....|E-5 0C 0F ....|... .. .. ....
39 |... .. .. .... ....|... .. .. ....|... .. .. ....|... .. .. ....
3A |... .. .. .... ....|... .. .. ....|D#5 0C 04 ....|... .. .. ....
3B |... .. .. .... ....|... .. .. ....|... .. .. ....|... .. .. ....
3C |... .. .. .... ....|... .. .. ....|G#5 0C 0F ....|... .. .. ....
3D |... .. .. .... ....|... .. .. ....|... .. .. ....|... .. .. ....
3E |... .. .. .... ....|... .. .. ....|E-5 0C 04 ....|... .. .. ....
3F |... .. .. .... ....|... .. .. ....|... .. .. ....|... .. .. ....
40 |E-4 0A .. .... ....|G#4 0A .. ....|E-5 0C 0F ....|... .. .. ....
41 |... .. .. .... ....|... .. .. ....|... .. .. ....|... .. .. ....
42 |... .. .. .... ....|... .. .. ....|B-5 0C 04 ....|... .. .. ....
43 |... .. .. .... ....|... .. .. ....|... .. .. ....|... .. .. ....
44 |... .. .. .... ....|... .. .. ....|F#5 0C 0F ....|... .. .. ....
45 |... .. .. .... ....|... .. .. ....|... .. .. ....|... .. .. ....
46 |... .. .. .... ....|... .. .. ....|E-5 0C 04 ....|... .. .. ....
47 |... .. .. .... ....|... .. .. ....|... .. .. ....|... .. .. ....
48 |... .. .. .... ....|... .. .. ....|G#5 0C 0F ....|... .. .. ....
49 |... .. .. .... ....|... .. .. ....|... .. .. ....|... .. .. ....
4A |... .. .. .... ....|... .. .. ....|F#5 0C 04 ....|... .. .. ....
4B |... .. .. .... ....|... .. .. ....|... .. .. ....|... .. .. ....
4C |... .. .. .... ....|... .. .. ....|B-5 0C 0F ....|... .. .. ....
4D |... .. .. .... ....|... .. .. ....|... .. .. ....|... .. .. ....
4E |... .. .. .... ....|... .. .. ....|G#5 0C 04 ....|... .. .. ....
4F |... .. .. .... ....|... .. .. ....|... .. .. ....|... .. .. ....
50 |... .. .. .... ....|... .. .. ....|E-5 0C 0F ....|... .. .. ....
51 |... .. .. .... ....|... .. .. ....|... .. .. ....|... .. .. ....
52 |... .. .. .... ....|... .. .. ....|B-5 0C 04 ....|... .. .. ....
53 |... .. .. .... ....|... .. .. ....|... .. .. ....|... .. .. ....
54 |... .. .. .... ....|... .. .. ....|F#5 0C 0F ....|... .. .. ....
55 |... .. .. .... ....|... .. .. ....|... .. .. ....|... .. .. ....
56 |... .. .. .... ....|... .. .. ....|E-5 0C 04 ....|... .. .. ....
57 |... .. .. .... ....|... .. .. ....|... .. .. ....|... .. .. ....
58 |... .. .. .... ....|... .. .. ....|G#5 0C 0F ....|... .. .. ....
59 |... .. .. .... ....|... .. .. ....|... .. .. ....|... .. .. ....
5A |... .. .. .... ....|... .. .. ....|F#5 0C 04 ....|... .. .. ....
5B |... .. .. .... ....|... .. .. ....|... .. .. ....|... .. .. ....
5C |... .. .. .... ....|... .. .. ....|B-5 0C 0F ....|... .. .. ....
5D |... .. .. .... ....|... .. .. ....|... .. .. ....|... .. .. ....
5E |... .. .. .... ....|... .. .. ....|G#5 0C 04 ....|... .. .. ....
5F |... .. .. .... ....|... .. .. ....|... .. .. ....|... .. .. ....
60 |... .. .. .... ....|... .. .. ....|E-5 0C 0F ....|... .. .. ....
61 |... .. .. .... ....|... .. .. ....|... .. .. ....|... .. .. ....
62 |... .. .. .... ....|... .. .. ....|B-5 0C 04 ....|... .. .. ....
63 |... .. .. .... ....|... .. .. ....|... .. .. ....|... .. .. ....
64 |... .. .. .... ....|... .. .. ....|F#5 0C 0F ....|... .. .. ....
65 |... .. .. .... ....|... .. .. ....|... .. .. ....|... .. .. ....
66 |... .. .. .... ....|... .. .. ....|E-5 0C 04 ....|... .. .. ....
67 |... .. .. .... ....|... .. .. ....|... .. .. ....|... .. .. ....
68 |... .. .. .... ....|... .. .. ....|G#5 0C 0F ....|... .. .. ....
69 |... .. .. .... ....|... .. .. ....|... .. .. ....|... .. .. ....
6A |... .. .. .... ....|... .. .. ....|F#5 0C 04 ....|... .. .. ....
6B |... .. .. .... ....|... .. .. ....|... .. .. ....|... .. .. ....
6C |... .. .. .... ....|... .. .. ....|B-5 0C 0F ....|... .. .. ....
6D |... .. .. .... ....|... .. .. ....|... .. .. ....|... .. .. ....
6E |... .. .. .... ....|... .. .. ....|G#5 0C 04 ....|... .. .. ....
6F |... .. .. .... ....|... .. .. ....|... .. .. ....|... .. .. ....
70 |... .. .. .... ....|... .. .. ....|E-5 0C 0F ....|... .. .. ....
71 |... .. .. .... ....|... .. .. ....|... .. .. ....|... .. .. ....
72 |... .. .. .... ....|... .. .. ....|B-5 0C 04 ....|... .. .. ....
73 |... .. .. .... ....|... .. .. ....|... .. .. ....|... .. .. ....
74 |... .. .. .... ....|... .. .. ....|F#5 0C 0F ....|... .. .. ....
75 |... .. .. .... ....|... .. .. ....|... .. .. ....|... .. .. ....
76 |... .. .. .... ....|... .. .. ....|E-5 0C 04 ....|... .. .. ....
77 |... .. .. .... ....|... .. .. ....|... .. .. ....|... .. .. ....
78 |... .. .. .... ....|... .. .. ....|G#5 0C 0F ....|... .. .. ....
79 |... .. .. .... ....|... .. .. ....|... .. .. ....|... .. .. ....
7A |... .. .. .... ....|... .. .. ....|F#5 0C 04 ....|... .. .. ....
7B |... .. .. .... ....|... .. .. ....|... .. .. ....|... .. .. ....
7C |... .. .. .... ....|... .. .. ....|B-5 0C 0F ....|... .. .. ....
7D |... .. .. .... ....|... .. .. ....|... .. .. ....|... .. .. ....
7E |... .. .. .... ....|... .. .. ....|G#5 0C 04 ....|... .. .. ....
7F |... .. .. .... ....|... .. .. ....|... .. .. ....|... .. .. ....
----- ORDER 1E
00 |A-3 0A 0A .... ....|C#4 0A 0A ....|A-4 0C 0F ....|C-5 04 .. ....
01 |... .. .. .... ....|... .. .. ....|... .. .. ....|... .. .. ....
02 |... .. .. .... ....|... .. .. ....|E-5 0C 04 ....|... .. .. ....
03 |... .. .. .... ....|... .. .. ....|... .. .. ....|... .. .. ....
04 |... .. .. .... ....|... .. .. ....|B-4 0C 0F ....|C-5 04 .. ....
05 |... .. .. .... ....|... .. .. ....|... .. .. ....|... .. .. ....
06 |... .. .. .... ....|... .. .. ....|A-4 0C 04 ....|... .. .. ....
07 |... .. .. .... ....|... .. .. ....|... .. .. ....|... .. .. ....
08 |... .. .. .... ....|... .. .. ....|C#5 0C 0F ....|C-5 05 .. ....
09 |... .. .. .... ....|... .. .. ....|... .. .. ....|... .. .. ....
0A |... .. .. .... ....|... .. .. ....|B-4 0C 04 ....|... .. .. ....
0B |... .. .. .... ....|... .. .. ....|... .. .. ....|... .. .. ....
0C |... .. .. .... ....|... .. .. ....|E-5 0C 0F ....|C-5 04 .. ....
0D |... .. .. .... ....|... .. .. ....|... .. .. ....|... .. .. ....
0E |... .. .. .... ....|... .. .. ....|C#5 0C 04 ....|... .. .. ....
0F |... .. .. .... ....|... .. .. ....|... .. .. ....|... .. .. ....
10 |... .. .. .... ....|... .. .. ....|A-4 0C 0F ....|C-5 04 .. ....
11 |... .. .. .... ....|... .. .. ....|... .. .. ....|... .. .. ....
12 |... .. .. .... ....|... .. .. ....|E-5 0C 04 ....|... .. .. ....
13 |... .. .. .... ....|... .. .. ....|... .. .. ....|... .. .. ....
14 |... .. .. .... ....|... .. .. ....|B-4 0C 0F ....|C-5 04 .. ....
15 |... .. .. .... ....|... .. .. ....|... .. .. ....|... .. .. ....
16 |... .. .. .... ....|... .. .. ....|A-4 0C 04 ....|... .. .. ....
17 |... .. .. .... ....|... .. .. ....|... .. .. ....|... .. .. ....
18 |... .. .. .... ....|... .. .. ....|C#5 0C 0F ....|C-5 05 .. ....
19 |... .. .. .... ....|... .. .. ....|... .. .. ....|... .. .. ....
1A |... .. .. .... ....|... .. .. ....|B-4 0C 04 ....|... .. .. ....
1B |... .. .. .... ....|... .. .. ....|... .. .. ....|... .. .. ....
1C |... .. .. .... ....|... .. .. ....|E-5 0C 0F ....|C-5 04 .. ....
1D |... .. .. .... ....|... .. .. ....|... .. .. ....|... .. .. ....
1E |... .. .. .... ....|... .. .. ....|C#5 0C 04 ....|... .. .. ....
1F |... .. .. .... ....|... .. .. ....|... .. .. ....|... .. .. ....
20 |... .. .. .... ....|... .. .. ....|A-4 0C 0F ....|C-5 04 .. ....
21 |... .. .. .... ....|... .. .. ....|... .. .. ....|... .. .. ....
22 |... .. .. .... ....|... .. .. ....|E-5 0C 04 ....|... .. .. ....
23 |... .. .. .... ....|... .. .. ....|... .. .. ....|... .. .. ....
24 |... .. .. .... ....|... .. .. ....|B-4 0C 0F ....|C-5 04 .. ....
25 |... .. .. .... ....|... .. .. ....|... .. .. ....|... .. .. ....
26 |... .. .. .... ....|... .. .. ....|A-4 0C 04 ....|... .. .. ....
27 |... .. .. .... ....|... .. .. ....|... .. .. ....|... .. .. ....
28 |... .. .. .... ....|... .. .. ....|C#5 0C 0F ....|C-5 05 .. ....
29 |... .. .. .... ....|... .. .. ....|... .. .. ....|... .. .. ....
2A |... .. .. .... ....|... .. .. ....|B-4 0C 04 ....|... .. .. ....
2B |... .. .. .... ....|... .. .. ....|... .. .. ....|... .. .. ....
2C |... .. .. .... ....|... .. .. ....|E-5 0C 0F ....|C-5 04 .. ....
2D |... .. .. .... ....|... .. .. ....|... .. .. ....|... .. .. ....
2E |... .. .. .... ....|... .. .. ....|C#5 0C 04 ....|... .. .. ....
2F |... .. .. .... ....|... .. .. ....|... .. .. ....|... .. .. ....
30 |... .. .. .... ....|... .. .. ....|A-4 0C 0F ....|C-5 04 .. ....
31 |... .. .. .... ....|... .. .. ....|... .. .. ....|... .. .. ....
32 |... .. .. .... ....|... .. .. ....|E-5 0C 04 ....|... .. .. ....
33 |... .. .. .... ....|... .. .. ....|... .. .. ....|... .. .. ....
34 |... .. .. .... ....|... .. .. ....|B-4 0C 0F ....|C-5 04 .. ....
35 |... .. .. .... ....|... .. .. ....|... .. .. ....|... .. .. ....
36 |... .. .. .... ....|... .. .. ....|A-4 0C 04 ....|... .. .. ....
37 |... .. .. .... ....|... .. .. ....|... .. .. ....|... .. .. ....
38 |... .. .. .... ....|... .. .. ....|C#5 0C 0F ....|C-5 05 .. ....
39 |... .. .. .... ....|... .. .. ....|... .. .. ....|... .. .. ....
3A |... .. .. .... ....|... .. .. ....|B-4 0C 04 ....|... .. .. ....
3B |... .. .. .... ....|... .. .. ....|... .. .. ....|... .. .. ....
3C |... .. .. .... ....|... .. .. ....|E-5 0C 0F ....|C-5 04 .. ....
3D |... .. .. .... ....|... .. .. ....|... .. .. ....|... .. .. ....
3E |... .. .. .... ....|... .. .. ....|C#5 0C 04 ....|... .. .. ....
3F |... .. .. .... ....|... .. .. ....|... .. .. ....|... .. .. ....
40 |B-3 0A .. .... ....|D#4 0A .. ....|B-4 0C 0F ....|C-5 04 .. ....
41 |... .. .. .... ....|... .. .. ....|... .. .. ....|... .. .. ....
42 |... .. .. .... ....|... .. .. ....|F#5 0C 04 ....|... .. .. ....
43 |... .. .. .... ....|... .. .. ....|... .. .. ....|... .. .. ....
44 |... .. .. .... ....|... .. .. ....|C#5 0C 0F ....|C-5 04 .. ....
45 |... .. .. .... ....|... .. .. ....|... .. .. ....|... .. .. ....
46 |... .. .. .... ....|... .. .. ....|B-4 0C 04 ....|... .. .. ....
47 |... .. .. .... ....|... .. .. ....|... .. .. ....|... .. .. ....
48 |... .. .. .... ....|... .. .. ....|D#5 0C 0F ....|C-5 05 .. ....
49 |... .. .. .... ....|... .. .. ....|... .. .. ....|... .. .. ....
4A |... .. .. .... ....|... .. .. ....|C#5 0C 04 ....|... .. .. ....
4B |... .. .. .... ....|... .. .. ....|... .. .. ....|... .. .. ....
4C |... .. .. .... ....|... .. .. ....|F#5 0C 0F ....|C-5 04 .. ....
4D |... .. .. .... ....|... .. .. ....|... .. .. ....|... .. .. ....
4E |... .. .. .... ....|... .. .. ....|D#5 0C 04 ....|... .. .. ....
4F |... .. .. .... ....|... .. .. ....|... .. .. ....|... .. .. ....
50 |... .. .. .... ....|... .. .. ....|B-4 0C 0F ....|C-5 04 .. ....
51 |... .. .. .... ....|... .. .. ....|... .. .. ....|... .. .. ....
52 |... .. .. .... ....|... .. .. ....|F#5 0C 04 ....|... .. .. ....
53 |... .. .. .... ....|... .. .. ....|... .. .. ....|... .. .. ....
54 |... .. .. .... ....|... .. .. ....|C#5 0C 0F ....|C-5 04 .. ....
55 |... .. .. .... ....|... .. .. ....|... .. .. ....|... .. .. ....
56 |... .. .. .... ....|... .. .. ....|B-4 0C 04 ....|... .. .. ....
57 |... .. .. .... ....|... .. .. ....|... .. .. ....|... .. .. ....
58 |... .. .. .... ....|... .. .. ....|D#5 0C 0F ....|C-5 05 .. ....
59 |... .. .. .... ....|... .. .. ....|... .. .. ....|... .. .. ....
5A |... .. .. .... ....|... .. .. ....|C#5 0C 04 ....|... .. .. ....
5B |... .. .. .... ....|... .. .. ....|... .. .. ....|... .. .. ....
5C |... .. .. .... ....|... .. .. ....|F#5 0C 0F ....|C-5 04 .. ....
5D |... .. .. .... ....|... .. .. ....|... .. .. ....|... .. .. ....
5E |... .. .. .... ....|... .. .. ....|D#5 0C 04 ....|... .. .. ....
5F |... .. .. .... ....|... .. .. ....|... .. .. ....|... .. .. ....
60 |... .. .. .... ....|... .. .. ....|B-4 0C 0F ....|C-5 04 .. ....
61 |... .. .. .... ....|... .. .. ....|... .. .. ....|... .. .. ....
62 |... .. .. .... ....|... .. .. ....|F#5 0C 04 ....|... .. .. ....
63 |... .. .. .... ....|... .. .. ....|... .. .. ....|... .. .. ....
64 |... .. .. .... ....|... .. .. ....|C#5 0C 0F ....|C-5 04 .. ....
65 |... .. .. .... ....|... .. .. ....|... .. .. ....|... .. .. ....
66 |... .. .. .... ....|... .. .. ....|B-4 0C 04 ....|... .. .. ....
67 |... .. .. .... ....|... .. .. ....|... .. .. ....|... .. .. ....
68 |... .. .. .... ....|... .. .. ....|D#5 0C 0F ....|C-5 05 .. ....
69 |... .. .. .... ....|... .. .. ....|... .. .. ....|... .. .. ....
6A |... .. .. .... ....|... .. .. ....|C#5 0C 04 ....|... .. .. ....
6B |... .. .. .... ....|... .. .. ....|... .. .. ....|... .. .. ....
6C |... .. .. .... ....|... .. .. ....|F#5 0C 0F ....|C-5 04 .. ....
6D |... .. .. .... ....|... .. .. ....|... .. .. ....|... .. .. ....
6E |... .. .. .... ....|... .. .. ....|D#5 0C 04 ....|... .. .. ....
6F |... .. .. .... ....|... .. .. ....|... .. .. ....|... .. .. ....
70 |... .. .. .... ....|... .. .. ....|B-4 0C 0F ....|C-4 03 .. ....
71 |... .. .. .... ....|... .. .. ....|... .. .. ....|... .. .. ....
72 |... .. .. .... ....|... .. .. ....|F#5 0C 04 ....|... .. .. ....
73 |... .. .. .... ....|... .. .. ....|... .. .. ....|... .. .. ....
74 |... .. .. .... ....|... .. .. ....|C#5 0C 0F ....|C-4 03 .. ....
75 |... .. .. .... ....|... .. .. ....|... .. .. ....|... .. .. ....
76 |... .. .. .... ....|... .. .. ....|B-4 0C 04 ....|... .. .. ....
77 |... .. .. .... ....|... .. .. ....|... .. .. ....|... .. .. ....
78 |... .. .. .... ....|... .. .. ....|D#5 0C 0F ....|C-4 03 .. ....
79 |... .. .. .... ....|... .. .. ....|... .. .. ....|... .. .. ....
7A |... .. .. .... ....|... .. .. ....|C#5 0C 04 ....|... .. .. ....
7B |... .. .. .... ....|... .. .. ....|... .. .. ....|... .. .. ....
7C |... .. .. .... ....|... .. .. ....|F#5 0C 0F ....|C-4 03 .. ....
7D |... .. .. .... ....|... .. .. ....|... .. .. ....|... .. .. ....
7E |... .. .. .... ....|... .. .. ....|D#5 0C 04 ....|... .. .. ....
7F |... .. .. .... ....|... .. .. ....|... .. .. ....|... .. .. ....
