# Furnace Text Export

generated by Furnace dev229 (229)

# Song Information

- name: 
- author: 
- album: 
- system: Game Boy
- tuning: 440

- instruments: 1
- wavetables: 2
- samples: 0

# Sound Chips

- Game Boy
  - id: 06
  - volume: 1
  - panning: 0
  - front/rear: 0

# Instruments

## 00: Instrument 0

- type: 2
- Game Boy parameters:
  - volume: 15
  - direction: down
  - length: 2
  - sound length: 64
  - use software envelope: no
  - always initialize: no
  - hardware sequence:
    - 0: 00 40F1
- Wavetable Synth parameters
  - Global: no
  - Type: 130
  - Wave 1: 0
  - Wave 2: 1
  - Update Rate: 1
  - Speed: 255
  - Amount: 4
- macros:
  - duty: 1


# Wavetables

- 0 (32x16): 0 0 0 0 0 0 0 0 15 15 15 15 15 15 15 15 15 15 15 15 15 15 15 15 15 15 15 15 15 15 15 15
- 1 (32x16): 7 7 7 7 7 7 7 7 7 7 7 7 7 7 7 7 7 7 7 7 7 7 7 7 7 7 7 7 7 7 7 7

# Samples


# Subsongs

## 0: 

- tick rate: 60
- speeds: 6
- virtual tempo: 120/150
- time base: 0
- pattern length: 30

orders:
```
00 | 00 00 00 00
```

## Patterns

----- ORDER 00
00 |E-3 00 .. ....|G-3 00 .. ....|B-4 00 .. ....|... .. .. ....
01 |... .. .. ....|... .. .. ....|... .. .. ....|... .. .. ....
02 |E-3 00 .. ....|... .. .. ....|... .. .. ....|... .. .. ....
03 |... .. .. ....|G-3 00 .. ....|... .. .. ....|... .. .. ....
04 |E-3 00 .. ....|... .. .. ....|... .. .. ....|... .. .. ....
05 |... .. .. ....|... .. .. ....|B-4 00 .. ....|... .. .. ....
06 |E-3 00 .. ....|G-3 00 .. ....|... .. .. ....|... .. .. ....
07 |... .. .. ....|... .. .. ....|... .. .. ....|... .. .. ....
08 |E-3 00 .. ....|... .. .. ....|... .. .. ....|... .. .. ....
09 |... .. .. ....|G-3 00 .. ....|... .. .. ....|... .. .. ....
0A |E-3 00 .. ....|... .. .. ....|B-4 00 .. ....|... .. .. ....
0B |... .. .. ....|... .. .. ....|... .. .. ....|... .. .. ....
0C |E-3 00 .. ....|G-3 00 .. ....|... .. .. ....|... .. .. ....
0D |... .. .. ....|... .. .. ....|... .. .. ....|... .. .. ....
0E |E-3 00 .. ....|... .. .. ....|... .. .. ....|... .. .. ....
0F |... .. .. ....|G-3 00 .. ....|B-4 00 .. ....|... .. .. ....
10 |E-3 00 .. ....|... .. .. ....|... .. .. ....|... .. .. ....
11 |... .. .. ....|... .. .. ....|... .. .. ....|... .. .. ....
12 |E-3 00 .. ....|G-3 00 .. ....|... .. .. ....|... .. .. ....
13 |... .. .. ....|... .. .. ....|... .. .. ....|... .. .. ....
14 |E-3 00 .. ....|... .. .. ....|B-4 00 .. ....|... .. .. ....
15 |... .. .. ....|G-3 00 .. ....|... .. .. ....|... .. .. ....
16 |E-3 00 .. ....|... .. .. ....|... .. .. ....|... .. .. ....
17 |... .. .. ....|... .. .. ....|... .. .. ....|... .. .. ....
18 |E-3 00 .. ....|G-3 00 .. ....|... .. .. ....|... .. .. ....
19 |... .. .. ....|... .. .. ....|B-4 00 .. ....|... .. .. ....
1A |E-3 00 .. ....|... .. .. ....|... .. .. ....|... .. .. ....
1B |... .. .. ....|G-3 00 .. ....|... .. .. ....|... .. .. ....
1C |E-3 00 .. ....|... .. .. ....|... .. .. ....|... .. .. ....
1D |... .. .. ....|... .. .. ....|... .. .. ....|... .. .. ....
