# Furnace Text Export

generated by Furnace dev229 (229)

# Song Information

- name: 
- author: 
- album: 
- system: Game Boy
- tuning: 440

- instruments: 7
- wavetables: 4
- samples: 0

# Sound Chips

- Game Boy
  - id: 06
  - volume: 1
  - panning: 0
  - front/rear: 0

# Instruments

## 00: Pulse 25

- type: 2
- Game Boy parameters:
  - volume: 15
  - direction: down
  - length: 1
  - sound length: 64
  - use software envelope: yes
  - always initialize: yes
- macros:
  - vol: [ADSR] 0 11 255 0 35 106 0 0 0 0 0 0 0 0 0 0
  - duty: 1
  - panL: [SPEED 2] 3 2 3 1 3

## 01: Bass

- type: 2
- Game Boy parameters:
  - volume: 15
  - direction: down
  - length: 2
  - sound length: 64
  - use software envelope: yes
  - always initialize: yes
- Wavetable Synth parameters
  - Global: no
  - Type: 130
  - Wave 1: 0
  - Wave 2: 1
  - Update Rate: 1
  - Speed: 49
  - Amount: 20
- macros:
  - vol: 15

## 02: Pulse 50

- type: 2
- Game Boy parameters:
  - volume: 15
  - direction: down
  - length: 1
  - sound length: 64
  - use software envelope: yes
  - always initialize: yes
- macros:
  - vol: [ADSR] 0 13 255 0 35 106 0 0 0 0 0 0 0 0 0 0
  - duty: 2
  - pitch: -12

## 03: Kick

- type: 2
- Game Boy parameters:
  - volume: 15
  - direction: down
  - length: 2
  - sound length: 64
  - use software envelope: yes
  - always initialize: yes
- Wavetable Synth parameters
  - Global: no
  - Type: 130
  - Wave 1: 3
  - Wave 2: 2
  - Update Rate: 1
  - Speed: 64
  - Amount: 62
- macros:
  - vol: [ADSR] 0 15 255 0 9 0 0 0 0 0 0 0 0 0 0 0
  - pitch: [MODE 1] -1024 -1024 -1024 -512 -512 -256 -256 -128 -128 -64 -64 -32

## 04: Noise Kick

- type: 2
- Game Boy parameters:
  - volume: 15
  - direction: down
  - length: 1
  - sound length: 64
  - use software envelope: yes
  - always initialize: yes
- macros:
  - vol: [ADSR] 0 9 255 0 37 0 0 0 0 0 0 0 0 0 0 0
  - pitch: -8 -16 -20 -26

## 05: Cymbal

- type: 2
- Game Boy parameters:
  - volume: 11
  - direction: down
  - length: 4
  - sound length: 64
  - use software envelope: no
  - always initialize: no

## 06: Hihat

- type: 2
- Game Boy parameters:
  - volume: 10
  - direction: down
  - length: 1
  - sound length: 64
  - use software envelope: no
  - always initialize: no


# Wavetables

- 0 (32x16): 8 15 8 2 8 8 7 13 14 14 15 14 14 15 13 7 4 2 0 0 0 1 0 2 6 8 8 9 8 5 3 1
- 1 (32x16): 8 13 15 14 10 6 2 1 0 0 0 0 0 1 3 5 8 10 12 14 15 15 15 15 15 14 13 9 5 1 0 2
- 2 (32x16): 8 12 14 15 15 14 14 15 15 15 14 14 15 15 14 12 7 3 1 0 0 1 1 0 0 0 1 1 0 0 1 3
- 3 (32x16): 8 11 11 14 10 11 15 15 15 15 15 11 10 14 11 11 7 4 4 1 5 4 0 0 0 0 0 4 5 1 4 4

# Samples


# Subsongs

## 0: 

- tick rate: 60
- speeds: 6
- virtual tempo: 150/150
- time base: 0
- pattern length: 64

orders:
```
00 | 00 00 00 00
01 | 00 00 00 00
02 | 00 00 01 01
03 | 00 00 02 02
04 | 00 00 03 03
05 | 00 00 03 04
06 | 00 00 03 05
07 | 00 00 03 06
08 | 00 00 03 05
09 | 00 00 03 06
0A | 00 01 03 03
0B | 00 01 03 04
0C | 01 00 03 03
0D | 01 00 03 04
0E | 00 00 03 03
0F | 00 00 03 06
10 | 00 00 03 03
11 | 00 00 03 04
12 | 00 00 00 00
13 | 00 00 01 01
14 | 00 00 02 02
15 | 00 00 03 03
16 | 00 00 03 04
17 | 00 00 03 03
18 | 00 00 03 05
19 | 00 00 03 06
1A | 00 00 03 04
1B | 00 00 03 04
1C | 00 00 04 00
```

## Patterns

----- ORDER 00
00 |G-3 00 .. ....|G-3 02 .. 8080 E590|G-2 01 .. ....|OFF .. .. ....
01 |... .. .. ....|... .. .. .... ....|... .. .. ....|... .. .. ....
02 |G-2 00 .. ....|G-4 .. .. 8000 ....|... .. .. ....|... .. .. ....
03 |... .. .. ....|... .. .. .... ....|... .. .. ....|... .. .. ....
04 |G-3 00 .. ....|G-3 .. .. 8080 ....|... .. .. ....|... .. .. ....
05 |... .. .. ....|... .. .. .... ....|... .. .. ....|... .. .. ....
06 |G-2 00 .. ....|G-4 .. .. 80FF ....|... .. .. ....|... .. .. ....
07 |... .. .. ....|... .. .. .... ....|... .. .. ....|... .. .. ....
08 |G-3 00 .. ....|G-3 .. .. 8080 ....|... .. .. ....|... .. .. ....
09 |... .. .. ....|... .. .. .... ....|... .. .. ....|... .. .. ....
0A |G-2 00 .. ....|G-4 .. .. 8000 ....|... .. .. ....|... .. .. ....
0B |... .. .. ....|... .. .. .... ....|... .. .. ....|... .. .. ....
0C |G-3 00 .. ....|G-3 .. .. 8080 ....|... .. .. ....|... .. .. ....
0D |... .. .. ....|... .. .. .... ....|... .. .. ....|... .. .. ....
0E |G-2 00 .. ....|G-4 .. .. 80FF ....|... .. .. ....|... .. .. ....
0F |... .. .. ....|... .. .. .... ....|... .. .. ....|... .. .. ....
10 |A-3 00 .. ....|A-3 .. .. 8080 ....|A-2 01 .. ....|... .. .. ....
11 |... .. .. ....|... .. .. .... ....|... .. .. ....|... .. .. ....
12 |A-2 00 .. ....|A-4 .. .. 8000 ....|... .. .. ....|... .. .. ....
13 |... .. .. ....|... .. .. .... ....|... .. .. ....|... .. .. ....
14 |A-3 00 .. ....|A-3 .. .. 8080 ....|... .. .. ....|... .. .. ....
15 |... .. .. ....|... .. .. .... ....|... .. .. ....|... .. .. ....
16 |A-2 00 .. ....|A-4 .. .. 80FF ....|... .. .. ....|... .. .. ....
17 |... .. .. ....|... .. .. .... ....|... .. .. ....|... .. .. ....
18 |A-3 00 .. ....|A-3 .. .. 8080 ....|... .. .. ....|... .. .. ....
19 |... .. .. ....|... .. .. .... ....|... .. .. ....|... .. .. ....
1A |A-2 00 .. ....|A-4 .. .. 8000 ....|... .. .. ....|... .. .. ....
1B |... .. .. ....|... .. .. .... ....|... .. .. ....|... .. .. ....
1C |A-3 00 .. ....|A-3 .. .. 8080 ....|... .. .. ....|... .. .. ....
1D |... .. .. ....|... .. .. .... ....|... .. .. ....|... .. .. ....
1E |A-2 00 .. ....|A-4 .. .. 80FF ....|... .. .. ....|... .. .. ....
1F |... .. .. ....|... .. .. .... ....|... .. .. ....|... .. .. ....
20 |E-3 00 .. ....|E-3 .. .. 8080 ....|E-2 01 .. ....|... .. .. ....
21 |... .. .. ....|... .. .. .... ....|... .. .. ....|... .. .. ....
22 |E-2 00 .. ....|E-4 .. .. 8000 ....|... .. .. ....|... .. .. ....
23 |... .. .. ....|... .. .. .... ....|... .. .. ....|... .. .. ....
24 |E-3 00 .. ....|E-3 .. .. 8080 ....|... .. .. ....|... .. .. ....
25 |... .. .. ....|... .. .. .... ....|... .. .. ....|... .. .. ....
26 |E-2 00 .. ....|E-4 .. .. 80FF ....|... .. .. ....|... .. .. ....
27 |... .. .. ....|... .. .. .... ....|... .. .. ....|... .. .. ....
28 |E-3 00 .. ....|E-3 .. .. 8080 ....|... .. .. ....|... .. .. ....
29 |... .. .. ....|... .. .. .... ....|... .. .. ....|... .. .. ....
2A |E-2 00 .. ....|E-4 .. .. 8000 ....|... .. .. ....|... .. .. ....
2B |... .. .. ....|... .. .. .... ....|... .. .. ....|... .. .. ....
2C |E-3 00 .. ....|E-3 .. .. 8080 ....|... .. .. ....|... .. .. ....
2D |... .. .. ....|... .. .. .... ....|... .. .. ....|... .. .. ....
2E |E-2 00 .. ....|E-4 .. .. 80FF ....|... .. .. ....|... .. .. ....
2F |... .. .. ....|... .. .. .... ....|... .. .. ....|... .. .. ....
30 |C-3 00 .. ....|C-3 .. .. 8080 ....|C-2 01 .. ....|... .. .. ....
31 |... .. .. ....|... .. .. .... ....|... .. .. ....|... .. .. ....
32 |C-2 00 .. ....|C-4 .. .. 8000 ....|... .. .. ....|... .. .. ....
33 |... .. .. ....|... .. .. .... ....|... .. .. ....|... .. .. ....
34 |C-3 00 .. ....|C-3 .. .. 8080 ....|... .. .. ....|... .. .. ....
35 |... .. .. ....|... .. .. .... ....|... .. .. ....|... .. .. ....
36 |C-2 00 .. ....|C-4 .. .. 80FF ....|... .. .. ....|... .. .. ....
37 |... .. .. ....|... .. .. .... ....|... .. .. ....|... .. .. ....
38 |C-3 00 .. ....|C-3 .. .. 8080 ....|... .. .. ....|... .. .. ....
39 |... .. .. ....|... .. .. .... ....|... .. .. ....|... .. .. ....
3A |C-2 00 .. ....|C-4 .. .. 8000 ....|... .. .. ....|... .. .. ....
3B |... .. .. ....|... .. .. .... ....|... .. .. ....|... .. .. ....
3C |C-3 00 .. ....|C-3 .. .. 8080 ....|... .. .. ....|... .. .. ....
3D |... .. .. ....|... .. .. .... ....|... .. .. ....|... .. .. ....
3E |C-2 00 .. ....|C-4 .. .. 80FF ....|... .. .. ....|... .. .. ....
3F |... .. .. ....|... .. .. .... ....|... .. .. ....|... .. .. ....
----- ORDER 01
00 |G-3 00 .. ....|G-3 02 .. 8080 E590|G-2 01 .. ....|OFF .. .. ....
01 |... .. .. ....|... .. .. .... ....|... .. .. ....|... .. .. ....
02 |G-2 00 .. ....|G-4 .. .. 8000 ....|... .. .. ....|... .. .. ....
03 |... .. .. ....|... .. .. .... ....|... .. .. ....|... .. .. ....
04 |G-3 00 .. ....|G-3 .. .. 8080 ....|... .. .. ....|... .. .. ....
05 |... .. .. ....|... .. .. .... ....|... .. .. ....|... .. .. ....
06 |G-2 00 .. ....|G-4 .. .. 80FF ....|... .. .. ....|... .. .. ....
07 |... .. .. ....|... .. .. .... ....|... .. .. ....|... .. .. ....
08 |G-3 00 .. ....|G-3 .. .. 8080 ....|... .. .. ....|... .. .. ....
09 |... .. .. ....|... .. .. .... ....|... .. .. ....|... .. .. ....
0A |G-2 00 .. ....|G-4 .. .. 8000 ....|... .. .. ....|... .. .. ....
0B |... .. .. ....|... .. .. .... ....|... .. .. ....|... .. .. ....
0C |G-3 00 .. ....|G-3 .. .. 8080 ....|... .. .. ....|... .. .. ....
0D |... .. .. ....|... .. .. .... ....|... .. .. ....|... .. .. ....
0E |G-2 00 .. ....|G-4 .. .. 80FF ....|... .. .. ....|... .. .. ....
0F |... .. .. ....|... .. .. .... ....|... .. .. ....|... .. .. ....
10 |A-3 00 .. ....|A-3 .. .. 8080 ....|A-2 01 .. ....|... .. .. ....
11 |... .. .. ....|... .. .. .... ....|... .. .. ....|... .. .. ....
12 |A-2 00 .. ....|A-4 .. .. 8000 ....|... .. .. ....|... .. .. ....
13 |... .. .. ....|... .. .. .... ....|... .. .. ....|... .. .. ....
14 |A-3 00 .. ....|A-3 .. .. 8080 ....|... .. .. ....|... .. .. ....
15 |... .. .. ....|... .. .. .... ....|... .. .. ....|... .. .. ....
16 |A-2 00 .. ....|A-4 .. .. 80FF ....|... .. .. ....|... .. .. ....
17 |... .. .. ....|... .. .. .... ....|... .. .. ....|... .. .. ....
18 |A-3 00 .. ....|A-3 .. .. 8080 ....|... .. .. ....|... .. .. ....
19 |... .. .. ....|... .. .. .... ....|... .. .. ....|... .. .. ....
1A |A-2 00 .. ....|A-4 .. .. 8000 ....|... .. .. ....|... .. .. ....
1B |... .. .. ....|... .. .. .... ....|... .. .. ....|... .. .. ....
1C |A-3 00 .. ....|A-3 .. .. 8080 ....|... .. .. ....|... .. .. ....
1D |... .. .. ....|... .. .. .... ....|... .. .. ....|... .. .. ....
1E |A-2 00 .. ....|A-4 .. .. 80FF ....|... .. .. ....|... .. .. ....
1F |... .. .. ....|... .. .. .... ....|... .. .. ....|... .. .. ....
20 |E-3 00 .. ....|E-3 .. .. 8080 ....|E-2 01 .. ....|... .. .. ....
21 |... .. .. ....|... .. .. .... ....|... .. .. ....|... .. .. ....
22 |E-2 00 .. ....|E-4 .. .. 8000 ....|... .. .. ....|... .. .. ....
23 |... .. .. ....|... .. .. .... ....|... .. .. ....|... .. .. ....
24 |E-3 00 .. ....|E-3 .. .. 8080 ....|... .. .. ....|... .. .. ....
25 |... .. .. ....|... .. .. .... ....|... .. .. ....|... .. .. ....
26 |E-2 00 .. ....|E-4 .. .. 80FF ....|... .. .. ....|... .. .. ....
27 |... .. .. ....|... .. .. .... ....|... .. .. ....|... .. .. ....
28 |E-3 00 .. ....|E-3 .. .. 8080 ....|... .. .. ....|... .. .. ....
29 |... .. .. ....|... .. .. .... ....|... .. .. ....|... .. .. ....
2A |E-2 00 .. ....|E-4 .. .. 8000 ....|... .. .. ....|... .. .. ....
2B |... .. .. ....|... .. .. .... ....|... .. .. ....|... .. .. ....
2C |E-3 00 .. ....|E-3 .. .. 8080 ....|... .. .. ....|... .. .. ....
2D |... .. .. ....|... .. .. .... ....|... .. .. ....|... .. .. ....
2E |E-2 00 .. ....|E-4 .. .. 80FF ....|... .. .. ....|... .. .. ....
2F |... .. .. ....|... .. .. .... ....|... .. .. ....|... .. .. ....
30 |C-3 00 .. ....|C-3 .. .. 8080 ....|C-2 01 .. ....|... .. .. ....
31 |... .. .. ....|... .. .. .... ....|... .. .. ....|... .. .. ....
32 |C-2 00 .. ....|C-4 .. .. 8000 ....|... .. .. ....|... .. .. ....
33 |... .. .. ....|... .. .. .... ....|... .. .. ....|... .. .. ....
34 |C-3 00 .. ....|C-3 .. .. 8080 ....|... .. .. ....|... .. .. ....
35 |... .. .. ....|... .. .. .... ....|... .. .. ....|... .. .. ....
36 |C-2 00 .. ....|C-4 .. .. 80FF ....|... .. .. ....|... .. .. ....
37 |... .. .. ....|... .. .. .... ....|... .. .. ....|... .. .. ....
38 |C-3 00 .. ....|C-3 .. .. 8080 ....|... .. .. ....|... .. .. ....
39 |... .. .. ....|... .. .. .... ....|... .. .. ....|... .. .. ....
3A |C-2 00 .. ....|C-4 .. .. 8000 ....|... .. .. ....|... .. .. ....
3B |... .. .. ....|... .. .. .... ....|... .. .. ....|... .. .. ....
3C |C-3 00 .. ....|C-3 .. .. 8080 ....|... .. .. ....|... .. .. ....
3D |... .. .. ....|... .. .. .... ....|... .. .. ....|... .. .. ....
3E |C-2 00 .. ....|C-4 .. .. 80FF ....|... .. .. ....|... .. .. ....
3F |... .. .. ....|... .. .. .... ....|... .. .. ....|... .. .. ....
----- ORDER 02
00 |G-3 00 .. ....|G-3 02 .. 8080 E590|C-6 03 .. ....|C-5 05 .. ....
01 |... .. .. ....|... .. .. .... ....|... .. .. ....|... .. .. ....
02 |G-2 00 .. ....|G-4 .. .. 8000 ....|G-2 01 .. ....|... .. .. ....
03 |... .. .. ....|... .. .. .... ....|... .. .. ....|... .. .. ....
04 |G-3 00 .. ....|G-3 .. .. 8080 ....|... .. .. ....|... .. .. ....
05 |... .. .. ....|... .. .. .... ....|... .. .. ....|... .. .. ....
06 |G-2 00 .. ....|G-4 .. .. 80FF ....|... .. .. ....|... .. .. ....
07 |... .. .. ....|... .. .. .... ....|... .. .. ....|... .. .. ....
08 |G-3 00 .. ....|G-3 .. .. 8080 ....|... .. .. ....|... .. .. ....
09 |... .. .. ....|... .. .. .... ....|... .. .. ....|... .. .. ....
0A |G-2 00 .. ....|G-4 .. .. 8000 ....|... .. .. ....|... .. .. ....
0B |... .. .. ....|... .. .. .... ....|... .. .. ....|... .. .. ....
0C |G-3 00 .. ....|G-3 .. .. 8080 ....|... .. .. ....|... .. .. ....
0D |... .. .. ....|... .. .. .... ....|... .. .. ....|... .. .. ....
0E |G-2 00 .. ....|G-4 .. .. 80FF ....|... .. .. ....|... .. .. ....
0F |... .. .. ....|... .. .. .... ....|... .. .. ....|... .. .. ....
10 |A-3 00 .. ....|A-3 .. .. 8080 ....|C-6 03 .. ....|C-5 04 .. ....
11 |... .. .. ....|... .. .. .... ....|... .. .. ....|... .. .. ....
12 |A-2 00 .. ....|A-4 .. .. 8000 ....|A-2 01 .. ....|... .. .. ....
13 |... .. .. ....|... .. .. .... ....|... .. .. ....|... .. .. ....
14 |A-3 00 .. ....|A-3 .. .. 8080 ....|... .. .. ....|... .. .. ....
15 |... .. .. ....|... .. .. .... ....|... .. .. ....|... .. .. ....
16 |A-2 00 .. ....|A-4 .. .. 80FF ....|... .. .. ....|... .. .. ....
17 |... .. .. ....|... .. .. .... ....|... .. .. ....|... .. .. ....
18 |A-3 00 .. ....|A-3 .. .. 8080 ....|... .. .. ....|... .. .. ....
19 |... .. .. ....|... .. .. .... ....|... .. .. ....|... .. .. ....
1A |A-2 00 .. ....|A-4 .. .. 8000 ....|... .. .. ....|... .. .. ....
1B |... .. .. ....|... .. .. .... ....|... .. .. ....|... .. .. ....
1C |A-3 00 .. ....|A-3 .. .. 8080 ....|... .. .. ....|... .. .. ....
1D |... .. .. ....|... .. .. .... ....|... .. .. ....|... .. .. ....
1E |A-2 00 .. ....|A-4 .. .. 80FF ....|... .. .. ....|... .. .. ....
1F |... .. .. ....|... .. .. .... ....|... .. .. ....|... .. .. ....
20 |E-3 00 .. ....|E-3 .. .. 8080 ....|C-6 03 .. ....|C-5 04 .. ....
21 |... .. .. ....|... .. .. .... ....|... .. .. ....|... .. .. ....
22 |E-2 00 .. ....|E-4 .. .. 8000 ....|E-2 01 .. ....|... .. .. ....
23 |... .. .. ....|... .. .. .... ....|... .. .. ....|... .. .. ....
24 |E-3 00 .. ....|E-3 .. .. 8080 ....|... .. .. ....|... .. .. ....
25 |... .. .. ....|... .. .. .... ....|... .. .. ....|... .. .. ....
26 |E-2 00 .. ....|E-4 .. .. 80FF ....|... .. .. ....|... .. .. ....
27 |... .. .. ....|... .. .. .... ....|... .. .. ....|... .. .. ....
28 |E-3 00 .. ....|E-3 .. .. 8080 ....|... .. .. ....|... .. .. ....
29 |... .. .. ....|... .. .. .... ....|... .. .. ....|... .. .. ....
2A |E-2 00 .. ....|E-4 .. .. 8000 ....|... .. .. ....|... .. .. ....
2B |... .. .. ....|... .. .. .... ....|... .. .. ....|... .. .. ....
2C |E-3 00 .. ....|E-3 .. .. 8080 ....|... .. .. ....|... .. .. ....
2D |... .. .. ....|... .. .. .... ....|... .. .. ....|... .. .. ....
2E |E-2 00 .. ....|E-4 .. .. 80FF ....|... .. .. ....|... .. .. ....
2F |... .. .. ....|... .. .. .... ....|... .. .. ....|... .. .. ....
30 |C-3 00 .. ....|C-3 .. .. 8080 ....|C-6 03 .. ....|C-5 04 .. ....
31 |... .. .. ....|... .. .. .... ....|... .. .. ....|... .. .. ....
32 |C-2 00 .. ....|C-4 .. .. 8000 ....|C-2 01 .. ....|... .. .. ....
33 |... .. .. ....|... .. .. .... ....|... .. .. ....|... .. .. ....
34 |C-3 00 .. ....|C-3 .. .. 8080 ....|... .. .. ....|... .. .. ....
35 |... .. .. ....|... .. .. .... ....|... .. .. ....|... .. .. ....
36 |C-2 00 .. ....|C-4 .. .. 80FF ....|... .. .. ....|... .. .. ....
37 |... .. .. ....|... .. .. .... ....|... .. .. ....|... .. .. ....
38 |C-3 00 .. ....|C-3 .. .. 8080 ....|... .. .. ....|... .. .. ....
39 |... .. .. ....|... .. .. .... ....|... .. .. ....|... .. .. ....
3A |C-2 00 .. ....|C-4 .. .. 8000 ....|... .. .. ....|... .. .. ....
3B |... .. .. ....|... .. .. .... ....|... .. .. ....|... .. .. ....
3C |C-3 00 .. ....|C-3 .. .. 8080 ....|... .. .. ....|... .. .. ....
3D |... .. .. ....|... .. .. .... ....|... .. .. ....|... .. .. ....
3E |C-2 00 .. ....|C-4 .. .. 80FF ....|... .. .. ....|... .. .. ....
3F |... .. .. ....|... .. .. .... ....|... .. .. ....|... .. .. ....
----- ORDER 03
00 |G-3 00 .. ....|G-3 02 .. 8080 E590|C-6 03 .. ....|C-5 04 .. ....
01 |... .. .. ....|... .. .. .... ....|... .. .. ....|... .. .. ....
02 |G-2 00 .. ....|G-4 .. .. 8000 ....|G-2 01 .. ....|... .. .. ....
03 |... .. .. ....|... .. .. .... ....|... .. .. ....|... .. .. ....
04 |G-3 00 .. ....|G-3 .. .. 8080 ....|... .. .. ....|... .. .. ....
05 |... .. .. ....|... .. .. .... ....|... .. .. ....|... .. .. ....
06 |G-2 00 .. ....|G-4 .. .. 80FF ....|... .. .. ....|... .. .. ....
07 |... .. .. ....|... .. .. .... ....|... .. .. ....|... .. .. ....
08 |G-3 00 .. ....|G-3 .. .. 8080 ....|C-6 03 .. ....|C-5 04 .. ....
09 |... .. .. ....|... .. .. .... ....|... .. .. ....|... .. .. ....
0A |G-2 00 .. ....|G-4 .. .. 8000 ....|G-2 01 .. ....|... .. .. ....
0B |... .. .. ....|... .. .. .... ....|... .. .. ....|... .. .. ....
0C |G-3 00 .. ....|G-3 .. .. 8080 ....|... .. .. ....|... .. .. ....
0D |... .. .. ....|... .. .. .... ....|... .. .. ....|... .. .. ....
0E |G-2 00 .. ....|G-4 .. .. 80FF ....|... .. .. ....|... .. .. ....
0F |... .. .. ....|... .. .. .... ....|... .. .. ....|... .. .. ....
10 |A-3 00 .. ....|A-3 .. .. 8080 ....|C-6 03 .. ....|C-5 04 .. ....
11 |... .. .. ....|... .. .. .... ....|... .. .. ....|... .. .. ....
12 |A-2 00 .. ....|A-4 .. .. 8000 ....|A-2 01 .. ....|... .. .. ....
13 |... .. .. ....|... .. .. .... ....|... .. .. ....|... .. .. ....
14 |A-3 00 .. ....|A-3 .. .. 8080 ....|... .. .. ....|... .. .. ....
15 |... .. .. ....|... .. .. .... ....|... .. .. ....|... .. .. ....
16 |A-2 00 .. ....|A-4 .. .. 80FF ....|... .. .. ....|... .. .. ....
17 |... .. .. ....|... .. .. .... ....|... .. .. ....|... .. .. ....
18 |A-3 00 .. ....|A-3 .. .. 8080 ....|C-6 03 .. ....|C-5 04 .. ....
19 |... .. .. ....|... .. .. .... ....|... .. .. ....|... .. .. ....
1A |A-2 00 .. ....|A-4 .. .. 8000 ....|A-2 01 .. ....|... .. .. ....
1B |... .. .. ....|... .. .. .... ....|... .. .. ....|... .. .. ....
1C |A-3 00 .. ....|A-3 .. .. 8080 ....|... .. .. ....|... .. .. ....
1D |... .. .. ....|... .. .. .... ....|... .. .. ....|... .. .. ....
1E |A-2 00 .. ....|A-4 .. .. 80FF ....|... .. .. ....|... .. .. ....
1F |... .. .. ....|... .. .. .... ....|... .. .. ....|... .. .. ....
20 |E-3 00 .. ....|E-3 .. .. 8080 ....|C-6 03 .. ....|C-5 04 .. ....
21 |... .. .. ....|... .. .. .... ....|... .. .. ....|... .. .. ....
22 |E-2 00 .. ....|E-4 .. .. 8000 ....|E-2 01 .. ....|... .. .. ....
23 |... .. .. ....|... .. .. .... ....|... .. .. ....|... .. .. ....
24 |E-3 00 .. ....|E-3 .. .. 8080 ....|C-6 03 .. ....|C-5 04 .. ....
25 |... .. .. ....|... .. .. .... ....|... .. .. ....|... .. .. ....
26 |E-2 00 .. ....|E-4 .. .. 80FF ....|E-2 01 .. ....|... .. .. ....
27 |... .. .. ....|... .. .. .... ....|... .. .. ....|... .. .. ....
28 |E-3 00 .. ....|E-3 .. .. 8080 ....|C-6 03 .. ....|C-5 04 .. ....
29 |... .. .. ....|... .. .. .... ....|... .. .. ....|... .. .. ....
2A |E-2 00 .. ....|E-4 .. .. 8000 ....|E-2 01 .. ....|... .. .. ....
2B |... .. .. ....|... .. .. .... ....|... .. .. ....|... .. .. ....
2C |E-3 00 .. ....|E-3 .. .. 8080 ....|C-6 03 .. ....|C-5 04 .. ....
2D |... .. .. ....|... .. .. .... ....|... .. .. ....|... .. .. ....
2E |E-2 00 .. ....|E-4 .. .. 80FF ....|E-2 01 .. ....|... .. .. ....
2F |... .. .. ....|... .. .. .... ....|... .. .. ....|... .. .. ....
30 |C-3 00 .. ....|C-3 .. .. 8080 ....|C-6 03 .. ....|C-5 04 .. ....
31 |... .. .. ....|... .. .. .... ....|C-2 01 .. ....|... .. .. ....
32 |C-2 00 .. ....|C-4 .. .. 8000 ....|C-6 03 .. ....|C-5 04 .. ....
33 |... .. .. ....|... .. .. .... ....|C-2 01 .. ....|... .. .. ....
34 |C-3 00 .. ....|C-3 .. .. 8080 ....|C-6 03 .. ....|C-5 04 .. ....
35 |... .. .. ....|... .. .. .... ....|C-2 01 .. ....|... .. .. ....
36 |C-2 00 .. ....|C-4 .. .. 80FF ....|C-6 03 .. ....|C-5 04 .. ....
37 |... .. .. ....|... .. .. .... ....|C-2 01 .. ....|... .. .. ....
38 |C-3 00 .. ....|C-3 .. .. 8080 ....|C-6 03 .. ....|C-5 04 .. ....
39 |... .. .. ....|... .. .. .... ....|C-6 03 .. ....|C-5 04 .. ....
3A |C-2 00 .. ....|C-4 .. .. 8000 ....|C-6 03 .. ....|C-5 04 .. ....
3B |... .. .. ....|... .. .. .... ....|C-6 03 .. ....|C-5 04 .. ....
3C |C-3 00 .. ....|C-3 .. .. 8080 ....|C-6 03 .. ....|C-5 04 .. ....
3D |... .. .. ....|... .. .. .... ....|C-6 03 .. ....|C-5 04 .. ....
3E |C-2 00 .. ....|C-4 .. .. 80FF ....|C-6 03 .. ....|C-5 04 .. ....
3F |... .. .. ....|... .. .. .... ....|C-6 03 .. ....|C-5 04 .. ....
----- ORDER 04
00 |G-3 00 .. ....|G-3 02 .. 8080 E590|C-6 03 .. ....|C-5 05 .. ....
01 |... .. .. ....|... .. .. .... ....|... .. .. ....|... .. .. ....
02 |G-2 00 .. ....|G-4 .. .. 8000 ....|G-2 01 .. ....|... .. .. ....
03 |... .. .. ....|... .. .. .... ....|... .. .. ....|... .. .. ....
04 |G-3 00 .. ....|G-3 .. .. 8080 ....|C-6 03 .. ....|C-5 04 .. ....
05 |... .. .. ....|... .. .. .... ....|... .. .. ....|... .. .. ....
06 |G-2 00 .. ....|G-4 .. .. 80FF ....|G-2 01 .. ....|... .. .. ....
07 |... .. .. ....|... .. .. .... ....|... .. .. ....|... .. .. ....
08 |G-3 00 .. ....|G-3 .. .. 8080 ....|C-6 03 .. ....|C-5 04 .. ....
09 |... .. .. ....|... .. .. .... ....|... .. .. ....|... .. .. ....
0A |G-2 00 .. ....|G-4 .. .. 8000 ....|G-2 01 .. ....|... .. .. ....
0B |... .. .. ....|... .. .. .... ....|... .. .. ....|... .. .. ....
0C |G-3 00 .. ....|G-3 .. .. 8080 ....|C-6 03 .. ....|C-5 04 .. ....
0D |... .. .. ....|... .. .. .... ....|... .. .. ....|... .. .. ....
0E |G-2 00 .. ....|G-4 .. .. 80FF ....|G-2 01 .. ....|... .. .. ....
0F |... .. .. ....|... .. .. .... ....|... .. .. ....|... .. .. ....
10 |A-3 00 .. ....|A-3 .. .. 8080 ....|C-6 03 .. ....|C-5 04 .. ....
11 |... .. .. ....|... .. .. .... ....|... .. .. ....|... .. .. ....
12 |A-2 00 .. ....|A-4 .. .. 8000 ....|A-2 01 .. ....|... .. .. ....
13 |... .. .. ....|... .. .. .... ....|... .. .. ....|... .. .. ....
14 |A-3 00 .. ....|A-3 .. .. 8080 ....|C-6 03 .. ....|C-5 04 .. ....
15 |... .. .. ....|... .. .. .... ....|... .. .. ....|... .. .. ....
16 |A-2 00 .. ....|A-4 .. .. 80FF ....|A-2 01 .. ....|... .. .. ....
17 |... .. .. ....|... .. .. .... ....|... .. .. ....|... .. .. ....
18 |A-3 00 .. ....|A-3 .. .. 8080 ....|C-6 03 .. ....|C-5 04 .. ....
19 |... .. .. ....|... .. .. .... ....|... .. .. ....|... .. .. ....
1A |A-2 00 .. ....|A-4 .. .. 8000 ....|A-2 01 .. ....|... .. .. ....
1B |... .. .. ....|... .. .. .... ....|... .. .. ....|... .. .. ....
1C |A-3 00 .. ....|A-3 .. .. 8080 ....|C-6 03 .. ....|C-5 04 .. ....
1D |... .. .. ....|... .. .. .... ....|... .. .. ....|... .. .. ....
1E |A-2 00 .. ....|A-4 .. .. 80FF ....|A-2 01 .. ....|... .. .. ....
1F |... .. .. ....|... .. .. .... ....|... .. .. ....|... .. .. ....
20 |E-3 00 .. ....|E-3 .. .. 8080 ....|C-6 03 .. ....|C-5 04 .. ....
21 |... .. .. ....|... .. .. .... ....|... .. .. ....|... .. .. ....
22 |E-2 00 .. ....|E-4 .. .. 8000 ....|E-2 01 .. ....|... .. .. ....
23 |... .. .. ....|... .. .. .... ....|... .. .. ....|... .. .. ....
24 |E-3 00 .. ....|E-3 .. .. 8080 ....|C-6 03 .. ....|C-5 04 .. ....
25 |... .. .. ....|... .. .. .... ....|... .. .. ....|... .. .. ....
26 |E-2 00 .. ....|E-4 .. .. 80FF ....|E-2 01 .. ....|... .. .. ....
27 |... .. .. ....|... .. .. .... ....|... .. .. ....|... .. .. ....
28 |E-3 00 .. ....|E-3 .. .. 8080 ....|C-6 03 .. ....|C-5 04 .. ....
29 |... .. .. ....|... .. .. .... ....|... .. .. ....|... .. .. ....
2A |E-2 00 .. ....|E-4 .. .. 8000 ....|E-2 01 .. ....|... .. .. ....
2B |... .. .. ....|... .. .. .... ....|... .. .. ....|... .. .. ....
2C |E-3 00 .. ....|E-3 .. .. 8080 ....|C-6 03 .. ....|C-5 04 .. ....
2D |... .. .. ....|... .. .. .... ....|... .. .. ....|... .. .. ....
2E |E-2 00 .. ....|E-4 .. .. 80FF ....|E-2 01 .. ....|... .. .. ....
2F |... .. .. ....|... .. .. .... ....|... .. .. ....|... .. .. ....
30 |C-3 00 .. ....|C-3 .. .. 8080 ....|C-6 03 .. ....|C-5 04 .. ....
31 |... .. .. ....|... .. .. .... ....|... .. .. ....|... .. .. ....
32 |C-2 00 .. ....|C-4 .. .. 8000 ....|C-2 01 .. ....|... .. .. ....
33 |... .. .. ....|... .. .. .... ....|... .. .. ....|... .. .. ....
34 |C-3 00 .. ....|C-3 .. .. 8080 ....|C-6 03 .. ....|C-5 04 .. ....
35 |... .. .. ....|... .. .. .... ....|... .. .. ....|... .. .. ....
36 |C-2 00 .. ....|C-4 .. .. 80FF ....|C-2 01 .. ....|... .. .. ....
37 |... .. .. ....|... .. .. .... ....|... .. .. ....|... .. .. ....
38 |C-3 00 .. ....|C-3 .. .. 8080 ....|C-6 03 .. ....|C-5 04 .. ....
39 |... .. .. ....|... .. .. .... ....|... .. .. ....|... .. .. ....
3A |C-2 00 .. ....|C-4 .. .. 8000 ....|C-2 01 .. ....|... .. .. ....
3B |... .. .. ....|... .. .. .... ....|... .. .. ....|... .. .. ....
3C |C-3 00 .. ....|C-3 .. .. 8080 ....|C-6 03 .. ....|C-5 04 .. ....
3D |... .. .. ....|... .. .. .... ....|... .. .. ....|... .. .. ....
3E |C-2 00 .. ....|C-4 .. .. 80FF ....|C-2 01 .. ....|... .. .. ....
3F |... .. .. ....|... .. .. .... ....|... .. .. ....|... .. .. ....
----- ORDER 05
00 |G-3 00 .. ....|G-3 02 .. 8080 E590|C-6 03 .. ....|C-5 04 .. ....
01 |... .. .. ....|... .. .. .... ....|... .. .. ....|... .. .. ....
02 |G-2 00 .. ....|G-4 .. .. 8000 ....|G-2 01 .. ....|... .. .. ....
03 |... .. .. ....|... .. .. .... ....|... .. .. ....|... .. .. ....
04 |G-3 00 .. ....|G-3 .. .. 8080 ....|C-6 03 .. ....|C-5 04 .. ....
05 |... .. .. ....|... .. .. .... ....|... .. .. ....|... .. .. ....
06 |G-2 00 .. ....|G-4 .. .. 80FF ....|G-2 01 .. ....|... .. .. ....
07 |... .. .. ....|... .. .. .... ....|... .. .. ....|... .. .. ....
08 |G-3 00 .. ....|G-3 .. .. 8080 ....|C-6 03 .. ....|C-5 04 .. ....
09 |... .. .. ....|... .. .. .... ....|... .. .. ....|... .. .. ....
0A |G-2 00 .. ....|G-4 .. .. 8000 ....|G-2 01 .. ....|... .. .. ....
0B |... .. .. ....|... .. .. .... ....|... .. .. ....|... .. .. ....
0C |G-3 00 .. ....|G-3 .. .. 8080 ....|C-6 03 .. ....|C-5 04 .. ....
0D |... .. .. ....|... .. .. .... ....|... .. .. ....|... .. .. ....
0E |G-2 00 .. ....|G-4 .. .. 80FF ....|G-2 01 .. ....|... .. .. ....
0F |... .. .. ....|... .. .. .... ....|... .. .. ....|... .. .. ....
10 |A-3 00 .. ....|A-3 .. .. 8080 ....|C-6 03 .. ....|C-5 04 .. ....
11 |... .. .. ....|... .. .. .... ....|... .. .. ....|... .. .. ....
12 |A-2 00 .. ....|A-4 .. .. 8000 ....|A-2 01 .. ....|... .. .. ....
13 |... .. .. ....|... .. .. .... ....|... .. .. ....|... .. .. ....
14 |A-3 00 .. ....|A-3 .. .. 8080 ....|C-6 03 .. ....|C-5 04 .. ....
15 |... .. .. ....|... .. .. .... ....|... .. .. ....|... .. .. ....
16 |A-2 00 .. ....|A-4 .. .. 80FF ....|A-2 01 .. ....|... .. .. ....
17 |... .. .. ....|... .. .. .... ....|... .. .. ....|... .. .. ....
18 |A-3 00 .. ....|A-3 .. .. 8080 ....|C-6 03 .. ....|C-5 04 .. ....
19 |... .. .. ....|... .. .. .... ....|... .. .. ....|... .. .. ....
1A |A-2 00 .. ....|A-4 .. .. 8000 ....|A-2 01 .. ....|... .. .. ....
1B |... .. .. ....|... .. .. .... ....|... .. .. ....|... .. .. ....
1C |A-3 00 .. ....|A-3 .. .. 8080 ....|C-6 03 .. ....|C-5 04 .. ....
1D |... .. .. ....|... .. .. .... ....|... .. .. ....|... .. .. ....
1E |A-2 00 .. ....|A-4 .. .. 80FF ....|A-2 01 .. ....|... .. .. ....
1F |... .. .. ....|... .. .. .... ....|... .. .. ....|... .. .. ....
20 |E-3 00 .. ....|E-3 .. .. 8080 ....|C-6 03 .. ....|C-5 04 .. ....
21 |... .. .. ....|... .. .. .... ....|... .. .. ....|... .. .. ....
22 |E-2 00 .. ....|E-4 .. .. 8000 ....|E-2 01 .. ....|... .. .. ....
23 |... .. .. ....|... .. .. .... ....|... .. .. ....|... .. .. ....
24 |E-3 00 .. ....|E-3 .. .. 8080 ....|C-6 03 .. ....|C-5 04 .. ....
25 |... .. .. ....|... .. .. .... ....|... .. .. ....|... .. .. ....
26 |E-2 00 .. ....|E-4 .. .. 80FF ....|E-2 01 .. ....|... .. .. ....
27 |... .. .. ....|... .. .. .... ....|... .. .. ....|... .. .. ....
28 |E-3 00 .. ....|E-3 .. .. 8080 ....|C-6 03 .. ....|C-5 04 .. ....
29 |... .. .. ....|... .. .. .... ....|... .. .. ....|... .. .. ....
2A |E-2 00 .. ....|E-4 .. .. 8000 ....|E-2 01 .. ....|... .. .. ....
2B |... .. .. ....|... .. .. .... ....|... .. .. ....|... .. .. ....
2C |E-3 00 .. ....|E-3 .. .. 8080 ....|C-6 03 .. ....|C-5 04 .. ....
2D |... .. .. ....|... .. .. .... ....|... .. .. ....|... .. .. ....
2E |E-2 00 .. ....|E-4 .. .. 80FF ....|E-2 01 .. ....|... .. .. ....
2F |... .. .. ....|... .. .. .... ....|... .. .. ....|... .. .. ....
30 |C-3 00 .. ....|C-3 .. .. 8080 ....|C-6 03 .. ....|C-5 04 .. ....
31 |... .. .. ....|... .. .. .... ....|... .. .. ....|... .. .. ....
32 |C-2 00 .. ....|C-4 .. .. 8000 ....|C-2 01 .. ....|... .. .. ....
33 |... .. .. ....|... .. .. .... ....|... .. .. ....|... .. .. ....
34 |C-3 00 .. ....|C-3 .. .. 8080 ....|C-6 03 .. ....|C-5 04 .. ....
35 |... .. .. ....|... .. .. .... ....|... .. .. ....|... .. .. ....
36 |C-2 00 .. ....|C-4 .. .. 80FF ....|C-2 01 .. ....|... .. .. ....
37 |... .. .. ....|... .. .. .... ....|... .. .. ....|... .. .. ....
38 |C-3 00 .. ....|C-3 .. .. 8080 ....|C-6 03 .. ....|C-5 04 .. ....
39 |... .. .. ....|... .. .. .... ....|... .. .. ....|... .. .. ....
3A |C-2 00 .. ....|C-4 .. .. 8000 ....|C-2 01 .. ....|... .. .. ....
3B |... .. .. ....|... .. .. .... ....|... .. .. ....|... .. .. ....
3C |C-3 00 .. ....|C-3 .. .. 8080 ....|C-6 03 .. ....|C-5 04 .. ....
3D |... .. .. ....|... .. .. .... ....|... .. .. ....|... .. .. ....
3E |C-2 00 .. ....|C-4 .. .. 80FF ....|C-2 01 .. ....|... .. .. ....
3F |... .. .. ....|... .. .. .... ....|... .. .. ....|... .. .. ....
----- ORDER 06
00 |G-3 00 .. ....|G-3 02 .. 8080 E590|C-6 03 .. ....|C-5 05 .. ....
01 |... .. .. ....|... .. .. .... ....|... .. .. ....|... .. .. ....
02 |G-2 00 .. ....|G-4 .. .. 8000 ....|G-2 01 .. ....|... .. .. ....
03 |... .. .. ....|... .. .. .... ....|... .. .. ....|... .. .. ....
04 |G-3 00 .. ....|G-3 .. .. 8080 ....|C-6 03 .. ....|C-5 04 .. ....
05 |... .. .. ....|... .. .. .... ....|... .. .. ....|... .. .. ....
06 |G-2 00 .. ....|G-4 .. .. 80FF ....|G-2 01 .. ....|C-5 06 .. ....
07 |... .. .. ....|... .. .. .... ....|... .. .. ....|... .. .. ....
08 |G-3 00 .. ....|G-3 .. .. 8080 ....|C-6 03 .. ....|C-5 04 .. ....
09 |... .. .. ....|... .. .. .... ....|... .. .. ....|... .. .. ....
0A |G-2 00 .. ....|G-4 .. .. 8000 ....|G-2 01 .. ....|C-5 06 .. ....
0B |... .. .. ....|... .. .. .... ....|... .. .. ....|... .. .. ....
0C |G-3 00 .. ....|G-3 .. .. 8080 ....|C-6 03 .. ....|C-5 04 .. ....
0D |... .. .. ....|... .. .. .... ....|... .. .. ....|... .. .. ....
0E |G-2 00 .. ....|G-4 .. .. 80FF ....|G-2 01 .. ....|C-5 06 .. ....
0F |... .. .. ....|... .. .. .... ....|... .. .. ....|... .. .. ....
10 |A-3 00 .. ....|A-3 .. .. 8080 ....|C-6 03 .. ....|C-5 04 .. ....
11 |... .. .. ....|... .. .. .... ....|... .. .. ....|... .. .. ....
12 |A-2 00 .. ....|A-4 .. .. 8000 ....|A-2 01 .. ....|C-5 06 .. ....
13 |... .. .. ....|... .. .. .... ....|... .. .. ....|... .. .. ....
14 |A-3 00 .. ....|A-3 .. .. 8080 ....|C-6 03 .. ....|C-5 04 .. ....
15 |... .. .. ....|... .. .. .... ....|... .. .. ....|... .. .. ....
16 |A-2 00 .. ....|A-4 .. .. 80FF ....|A-2 01 .. ....|C-5 06 .. ....
17 |... .. .. ....|... .. .. .... ....|... .. .. ....|... .. .. ....
18 |A-3 00 .. ....|A-3 .. .. 8080 ....|C-6 03 .. ....|C-5 04 .. ....
19 |... .. .. ....|... .. .. .... ....|... .. .. ....|... .. .. ....
1A |A-2 00 .. ....|A-4 .. .. 8000 ....|A-2 01 .. ....|C-5 06 .. ....
1B |... .. .. ....|... .. .. .... ....|... .. .. ....|... .. .. ....
1C |A-3 00 .. ....|A-3 .. .. 8080 ....|C-6 03 .. ....|C-5 04 .. ....
1D |... .. .. ....|... .. .. .... ....|... .. .. ....|... .. .. ....
1E |A-2 00 .. ....|A-4 .. .. 80FF ....|A-2 01 .. ....|C-5 06 .. ....
1F |... .. .. ....|... .. .. .... ....|... .. .. ....|... .. .. ....
20 |E-3 00 .. ....|E-3 .. .. 8080 ....|C-6 03 .. ....|C-5 04 .. ....
21 |... .. .. ....|... .. .. .... ....|... .. .. ....|... .. .. ....
22 |E-2 00 .. ....|E-4 .. .. 8000 ....|E-2 01 .. ....|C-5 06 .. ....
23 |... .. .. ....|... .. .. .... ....|... .. .. ....|... .. .. ....
24 |E-3 00 .. ....|E-3 .. .. 8080 ....|C-6 03 .. ....|C-5 04 .. ....
25 |... .. .. ....|... .. .. .... ....|... .. .. ....|... .. .. ....
26 |E-2 00 .. ....|E-4 .. .. 80FF ....|E-2 01 .. ....|C-5 06 .. ....
27 |... .. .. ....|... .. .. .... ....|... .. .. ....|... .. .. ....
28 |E-3 00 .. ....|E-3 .. .. 8080 ....|C-6 03 .. ....|C-5 04 .. ....
29 |... .. .. ....|... .. .. .... ....|... .. .. ....|... .. .. ....
2A |E-2 00 .. ....|E-4 .. .. 8000 ....|E-2 01 .. ....|C-5 06 .. ....
2B |... .. .. ....|... .. .. .... ....|... .. .. ....|... .. .. ....
2C |E-3 00 .. ....|E-3 .. .. 8080 ....|C-6 03 .. ....|C-5 04 .. ....
2D |... .. .. ....|... .. .. .... ....|... .. .. ....|... .. .. ....
2E |E-2 00 .. ....|E-4 .. .. 80FF ....|E-2 01 .. ....|C-5 06 .. ....
2F |... .. .. ....|... .. .. .... ....|... .. .. ....|... .. .. ....
30 |C-3 00 .. ....|C-3 .. .. 8080 ....|C-6 03 .. ....|C-5 04 .. ....
31 |... .. .. ....|... .. .. .... ....|... .. .. ....|... .. .. ....
32 |C-2 00 .. ....|C-4 .. .. 8000 ....|C-2 01 .. ....|C-5 06 .. ....
33 |... .. .. ....|... .. .. .... ....|... .. .. ....|... .. .. ....
34 |C-3 00 .. ....|C-3 .. .. 8080 ....|C-6 03 .. ....|C-5 04 .. ....
35 |... .. .. ....|... .. .. .... ....|... .. .. ....|... .. .. ....
36 |C-2 00 .. ....|C-4 .. .. 80FF ....|C-2 01 .. ....|C-5 06 .. ....
37 |... .. .. ....|... .. .. .... ....|... .. .. ....|... .. .. ....
38 |C-3 00 .. ....|C-3 .. .. 8080 ....|C-6 03 .. ....|C-5 04 .. ....
39 |... .. .. ....|... .. .. .... ....|... .. .. ....|... .. .. ....
3A |C-2 00 .. ....|C-4 .. .. 8000 ....|C-2 01 .. ....|C-5 06 .. ....
3B |... .. .. ....|... .. .. .... ....|... .. .. ....|... .. .. ....
3C |C-3 00 .. ....|C-3 .. .. 8080 ....|C-6 03 .. ....|C-5 04 .. ....
3D |... .. .. ....|... .. .. .... ....|... .. .. ....|... .. .. ....
3E |C-2 00 .. ....|C-4 .. .. 80FF ....|C-2 01 .. ....|C-5 06 .. ....
3F |... .. .. ....|... .. .. .... ....|... .. .. ....|... .. .. ....
----- ORDER 07
00 |G-3 00 .. ....|G-3 02 .. 8080 E590|C-6 03 .. ....|C-5 04 .. ....
01 |... .. .. ....|... .. .. .... ....|... .. .. ....|... .. .. ....
02 |G-2 00 .. ....|G-4 .. .. 8000 ....|G-2 01 .. ....|C-5 06 .. ....
03 |... .. .. ....|... .. .. .... ....|... .. .. ....|... .. .. ....
04 |G-3 00 .. ....|G-3 .. .. 8080 ....|C-6 03 .. ....|C-5 04 .. ....
05 |... .. .. ....|... .. .. .... ....|... .. .. ....|... .. .. ....
06 |G-2 00 .. ....|G-4 .. .. 80FF ....|G-2 01 .. ....|C-5 06 .. ....
07 |... .. .. ....|... .. .. .... ....|... .. .. ....|... .. .. ....
08 |G-3 00 .. ....|G-3 .. .. 8080 ....|C-6 03 .. ....|C-5 04 .. ....
09 |... .. .. ....|... .. .. .... ....|... .. .. ....|... .. .. ....
0A |G-2 00 .. ....|G-4 .. .. 8000 ....|G-2 01 .. ....|C-5 06 .. ....
0B |... .. .. ....|... .. .. .... ....|... .. .. ....|... .. .. ....
0C |G-3 00 .. ....|G-3 .. .. 8080 ....|C-6 03 .. ....|C-5 04 .. ....
0D |... .. .. ....|... .. .. .... ....|... .. .. ....|... .. .. ....
0E |G-2 00 .. ....|G-4 .. .. 80FF ....|G-2 01 .. ....|C-5 06 .. ....
0F |... .. .. ....|... .. .. .... ....|... .. .. ....|... .. .. ....
10 |A-3 00 .. ....|A-3 .. .. 8080 ....|C-6 03 .. ....|C-5 04 .. ....
11 |... .. .. ....|... .. .. .... ....|... .. .. ....|... .. .. ....
12 |A-2 00 .. ....|A-4 .. .. 8000 ....|A-2 01 .. ....|C-5 06 .. ....
13 |... .. .. ....|... .. .. .... ....|... .. .. ....|... .. .. ....
14 |A-3 00 .. ....|A-3 .. .. 8080 ....|C-6 03 .. ....|C-5 04 .. ....
15 |... .. .. ....|... .. .. .... ....|... .. .. ....|... .. .. ....
16 |A-2 00 .. ....|A-4 .. .. 80FF ....|A-2 01 .. ....|C-5 06 .. ....
17 |... .. .. ....|... .. .. .... ....|... .. .. ....|... .. .. ....
18 |A-3 00 .. ....|A-3 .. .. 8080 ....|C-6 03 .. ....|C-5 04 .. ....
19 |... .. .. ....|... .. .. .... ....|... .. .. ....|... .. .. ....
1A |A-2 00 .. ....|A-4 .. .. 8000 ....|A-2 01 .. ....|C-5 06 .. ....
1B |... .. .. ....|... .. .. .... ....|... .. .. ....|... .. .. ....
1C |A-3 00 .. ....|A-3 .. .. 8080 ....|C-6 03 .. ....|C-5 04 .. ....
1D |... .. .. ....|... .. .. .... ....|... .. .. ....|... .. .. ....
1E |A-2 00 .. ....|A-4 .. .. 80FF ....|A-2 01 .. ....|C-5 06 .. ....
1F |... .. .. ....|... .. .. .... ....|... .. .. ....|... .. .. ....
20 |E-3 00 .. ....|E-3 .. .. 8080 ....|C-6 03 .. ....|C-5 04 .. ....
21 |... .. .. ....|... .. .. .... ....|... .. .. ....|... .. .. ....
22 |E-2 00 .. ....|E-4 .. .. 8000 ....|E-2 01 .. ....|C-5 06 .. ....
23 |... .. .. ....|... .. .. .... ....|... .. .. ....|... .. .. ....
24 |E-3 00 .. ....|E-3 .. .. 8080 ....|C-6 03 .. ....|C-5 04 .. ....
25 |... .. .. ....|... .. .. .... ....|... .. .. ....|... .. .. ....
26 |E-2 00 .. ....|E-4 .. .. 80FF ....|E-2 01 .. ....|C-5 06 .. ....
27 |... .. .. ....|... .. .. .... ....|... .. .. ....|... .. .. ....
28 |E-3 00 .. ....|E-3 .. .. 8080 ....|C-6 03 .. ....|C-5 04 .. ....
29 |... .. .. ....|... .. .. .... ....|... .. .. ....|... .. .. ....
2A |E-2 00 .. ....|E-4 .. .. 8000 ....|E-2 01 .. ....|C-5 06 .. ....
2B |... .. .. ....|... .. .. .... ....|... .. .. ....|... .. .. ....
2C |E-3 00 .. ....|E-3 .. .. 8080 ....|C-6 03 .. ....|C-5 04 .. ....
2D |... .. .. ....|... .. .. .... ....|... .. .. ....|... .. .. ....
2E |E-2 00 .. ....|E-4 .. .. 80FF ....|E-2 01 .. ....|C-5 06 .. ....
2F |... .. .. ....|... .. .. .... ....|... .. .. ....|... .. .. ....
30 |C-3 00 .. ....|C-3 .. .. 8080 ....|C-6 03 .. ....|C-5 04 .. ....
31 |... .. .. ....|... .. .. .... ....|... .. .. ....|... .. .. ....
32 |C-2 00 .. ....|C-4 .. .. 8000 ....|C-2 01 .. ....|C-5 06 .. ....
33 |... .. .. ....|... .. .. .... ....|... .. .. ....|... .. .. ....
34 |C-3 00 .. ....|C-3 .. .. 8080 ....|C-6 03 .. ....|C-5 04 .. ....
35 |... .. .. ....|... .. .. .... ....|... .. .. ....|... .. .. ....
36 |C-2 00 .. ....|C-4 .. .. 80FF ....|C-2 01 .. ....|C-5 06 .. ....
37 |... .. .. ....|... .. .. .... ....|... .. .. ....|... .. .. ....
38 |C-3 00 .. ....|C-3 .. .. 8080 ....|C-6 03 .. ....|C-5 04 .. ....
39 |... .. .. ....|... .. .. .... ....|... .. .. ....|... .. .. ....
3A |C-2 00 .. ....|C-4 .. .. 8000 ....|C-2 01 .. ....|C-5 06 .. ....
3B |... .. .. ....|... .. .. .... ....|... .. .. ....|... .. .. ....
3C |C-3 00 .. ....|C-3 .. .. 8080 ....|C-6 03 .. ....|C-5 04 .. ....
3D |... .. .. ....|... .. .. .... ....|... .. .. ....|... .. .. ....
3E |C-2 00 .. ....|C-4 .. .. 80FF ....|C-2 01 .. ....|C-5 06 .. ....
3F |... .. .. ....|... .. .. .... ....|... .. .. ....|... .. .. ....
----- ORDER 08
00 |G-3 00 .. ....|G-3 02 .. 8080 E590|C-6 03 .. ....|C-5 05 .. ....
01 |... .. .. ....|... .. .. .... ....|... .. .. ....|... .. .. ....
02 |G-2 00 .. ....|G-4 .. .. 8000 ....|G-2 01 .. ....|... .. .. ....
03 |... .. .. ....|... .. .. .... ....|... .. .. ....|... .. .. ....
04 |G-3 00 .. ....|G-3 .. .. 8080 ....|C-6 03 .. ....|C-5 04 .. ....
05 |... .. .. ....|... .. .. .... ....|... .. .. ....|... .. .. ....
06 |G-2 00 .. ....|G-4 .. .. 80FF ....|G-2 01 .. ....|C-5 06 .. ....
07 |... .. .. ....|... .. .. .... ....|... .. .. ....|... .. .. ....
08 |G-3 00 .. ....|G-3 .. .. 8080 ....|C-6 03 .. ....|C-5 04 .. ....
09 |... .. .. ....|... .. .. .... ....|... .. .. ....|... .. .. ....
0A |G-2 00 .. ....|G-4 .. .. 8000 ....|G-2 01 .. ....|C-5 06 .. ....
0B |... .. .. ....|... .. .. .... ....|... .. .. ....|... .. .. ....
0C |G-3 00 .. ....|G-3 .. .. 8080 ....|C-6 03 .. ....|C-5 04 .. ....
0D |... .. .. ....|... .. .. .... ....|... .. .. ....|... .. .. ....
0E |G-2 00 .. ....|G-4 .. .. 80FF ....|G-2 01 .. ....|C-5 06 .. ....
0F |... .. .. ....|... .. .. .... ....|... .. .. ....|... .. .. ....
10 |A-3 00 .. ....|A-3 .. .. 8080 ....|C-6 03 .. ....|C-5 04 .. ....
11 |... .. .. ....|... .. .. .... ....|... .. .. ....|... .. .. ....
12 |A-2 00 .. ....|A-4 .. .. 8000 ....|A-2 01 .. ....|C-5 06 .. ....
13 |... .. .. ....|... .. .. .... ....|... .. .. ....|... .. .. ....
14 |A-3 00 .. ....|A-3 .. .. 8080 ....|C-6 03 .. ....|C-5 04 .. ....
15 |... .. .. ....|... .. .. .... ....|... .. .. ....|... .. .. ....
16 |A-2 00 .. ....|A-4 .. .. 80FF ....|A-2 01 .. ....|C-5 06 .. ....
17 |... .. .. ....|... .. .. .... ....|... .. .. ....|... .. .. ....
18 |A-3 00 .. ....|A-3 .. .. 8080 ....|C-6 03 .. ....|C-5 04 .. ....
19 |... .. .. ....|... .. .. .... ....|... .. .. ....|... .. .. ....
1A |A-2 00 .. ....|A-4 .. .. 8000 ....|A-2 01 .. ....|C-5 06 .. ....
1B |... .. .. ....|... .. .. .... ....|... .. .. ....|... .. .. ....
1C |A-3 00 .. ....|A-3 .. .. 8080 ....|C-6 03 .. ....|C-5 04 .. ....
1D |... .. .. ....|... .. .. .... ....|... .. .. ....|... .. .. ....
1E |A-2 00 .. ....|A-4 .. .. 80FF ....|A-2 01 .. ....|C-5 06 .. ....
1F |... .. .. ....|... .. .. .... ....|... .. .. ....|... .. .. ....
20 |E-3 00 .. ....|E-3 .. .. 8080 ....|C-6 03 .. ....|C-5 04 .. ....
21 |... .. .. ....|... .. .. .... ....|... .. .. ....|... .. .. ....
22 |E-2 00 .. ....|E-4 .. .. 8000 ....|E-2 01 .. ....|C-5 06 .. ....
23 |... .. .. ....|... .. .. .... ....|... .. .. ....|... .. .. ....
24 |E-3 00 .. ....|E-3 .. .. 8080 ....|C-6 03 .. ....|C-5 04 .. ....
25 |... .. .. ....|... .. .. .... ....|... .. .. ....|... .. .. ....
26 |E-2 00 .. ....|E-4 .. .. 80FF ....|E-2 01 .. ....|C-5 06 .. ....
27 |... .. .. ....|... .. .. .... ....|... .. .. ....|... .. .. ....
28 |E-3 00 .. ....|E-3 .. .. 8080 ....|C-6 03 .. ....|C-5 04 .. ....
29 |... .. .. ....|... .. .. .... ....|... .. .. ....|... .. .. ....
2A |E-2 00 .. ....|E-4 .. .. 8000 ....|E-2 01 .. ....|C-5 06 .. ....
2B |... .. .. ....|... .. .. .... ....|... .. .. ....|... .. .. ....
2C |E-3 00 .. ....|E-3 .. .. 8080 ....|C-6 03 .. ....|C-5 04 .. ....
2D |... .. .. ....|... .. .. .... ....|... .. .. ....|... .. .. ....
2E |E-2 00 .. ....|E-4 .. .. 80FF ....|E-2 01 .. ....|C-5 06 .. ....
2F |... .. .. ....|... .. .. .... ....|... .. .. ....|... .. .. ....
30 |C-3 00 .. ....|C-3 .. .. 8080 ....|C-6 03 .. ....|C-5 04 .. ....
31 |... .. .. ....|... .. .. .... ....|... .. .. ....|... .. .. ....
32 |C-2 00 .. ....|C-4 .. .. 8000 ....|C-2 01 .. ....|C-5 06 .. ....
33 |... .. .. ....|... .. .. .... ....|... .. .. ....|... .. .. ....
34 |C-3 00 .. ....|C-3 .. .. 8080 ....|C-6 03 .. ....|C-5 04 .. ....
35 |... .. .. ....|... .. .. .... ....|... .. .. ....|... .. .. ....
36 |C-2 00 .. ....|C-4 .. .. 80FF ....|C-2 01 .. ....|C-5 06 .. ....
37 |... .. .. ....|... .. .. .... ....|... .. .. ....|... .. .. ....
38 |C-3 00 .. ....|C-3 .. .. 8080 ....|C-6 03 .. ....|C-5 04 .. ....
39 |... .. .. ....|... .. .. .... ....|... .. .. ....|... .. .. ....
3A |C-2 00 .. ....|C-4 .. .. 8000 ....|C-2 01 .. ....|C-5 06 .. ....
3B |... .. .. ....|... .. .. .... ....|... .. .. ....|... .. .. ....
3C |C-3 00 .. ....|C-3 .. .. 8080 ....|C-6 03 .. ....|C-5 04 .. ....
3D |... .. .. ....|... .. .. .... ....|... .. .. ....|... .. .. ....
3E |C-2 00 .. ....|C-4 .. .. 80FF ....|C-2 01 .. ....|C-5 06 .. ....
3F |... .. .. ....|... .. .. .... ....|... .. .. ....|... .. .. ....
----- ORDER 09
00 |G-3 00 .. ....|G-3 02 .. 8080 E590|C-6 03 .. ....|C-5 04 .. ....
01 |... .. .. ....|... .. .. .... ....|... .. .. ....|... .. .. ....
02 |G-2 00 .. ....|G-4 .. .. 8000 ....|G-2 01 .. ....|C-5 06 .. ....
03 |... .. .. ....|... .. .. .... ....|... .. .. ....|... .. .. ....
04 |G-3 00 .. ....|G-3 .. .. 8080 ....|C-6 03 .. ....|C-5 04 .. ....
05 |... .. .. ....|... .. .. .... ....|... .. .. ....|... .. .. ....
06 |G-2 00 .. ....|G-4 .. .. 80FF ....|G-2 01 .. ....|C-5 06 .. ....
07 |... .. .. ....|... .. .. .... ....|... .. .. ....|... .. .. ....
08 |G-3 00 .. ....|G-3 .. .. 8080 ....|C-6 03 .. ....|C-5 04 .. ....
09 |... .. .. ....|... .. .. .... ....|... .. .. ....|... .. .. ....
0A |G-2 00 .. ....|G-4 .. .. 8000 ....|G-2 01 .. ....|C-5 06 .. ....
0B |... .. .. ....|... .. .. .... ....|... .. .. ....|... .. .. ....
0C |G-3 00 .. ....|G-3 .. .. 8080 ....|C-6 03 .. ....|C-5 04 .. ....
0D |... .. .. ....|... .. .. .... ....|... .. .. ....|... .. .. ....
0E |G-2 00 .. ....|G-4 .. .. 80FF ....|G-2 01 .. ....|C-5 06 .. ....
0F |... .. .. ....|... .. .. .... ....|... .. .. ....|... .. .. ....
10 |A-3 00 .. ....|A-3 .. .. 8080 ....|C-6 03 .. ....|C-5 04 .. ....
11 |... .. .. ....|... .. .. .... ....|... .. .. ....|... .. .. ....
12 |A-2 00 .. ....|A-4 .. .. 8000 ....|A-2 01 .. ....|C-5 06 .. ....
13 |... .. .. ....|... .. .. .... ....|... .. .. ....|... .. .. ....
14 |A-3 00 .. ....|A-3 .. .. 8080 ....|C-6 03 .. ....|C-5 04 .. ....
15 |... .. .. ....|... .. .. .... ....|... .. .. ....|... .. .. ....
16 |A-2 00 .. ....|A-4 .. .. 80FF ....|A-2 01 .. ....|C-5 06 .. ....
17 |... .. .. ....|... .. .. .... ....|... .. .. ....|... .. .. ....
18 |A-3 00 .. ....|A-3 .. .. 8080 ....|C-6 03 .. ....|C-5 04 .. ....
19 |... .. .. ....|... .. .. .... ....|... .. .. ....|... .. .. ....
1A |A-2 00 .. ....|A-4 .. .. 8000 ....|A-2 01 .. ....|C-5 06 .. ....
1B |... .. .. ....|... .. .. .... ....|... .. .. ....|... .. .. ....
1C |A-3 00 .. ....|A-3 .. .. 8080 ....|C-6 03 .. ....|C-5 04 .. ....
1D |... .. .. ....|... .. .. .... ....|... .. .. ....|... .. .. ....
1E |A-2 00 .. ....|A-4 .. .. 80FF ....|A-2 01 .. ....|C-5 06 .. ....
1F |... .. .. ....|... .. .. .... ....|... .. .. ....|... .. .. ....
20 |E-3 00 .. ....|E-3 .. .. 8080 ....|C-6 03 .. ....|C-5 04 .. ....
21 |... .. .. ....|... .. .. .... ....|... .. .. ....|... .. .. ....
22 |E-2 00 .. ....|E-4 .. .. 8000 ....|E-2 01 .. ....|C-5 06 .. ....
23 |... .. .. ....|... .. .. .... ....|... .. .. ....|... .. .. ....
24 |E-3 00 .. ....|E-3 .. .. 8080 ....|C-6 03 .. ....|C-5 04 .. ....
25 |... .. .. ....|... .. .. .... ....|... .. .. ....|... .. .. ....
26 |E-2 00 .. ....|E-4 .. .. 80FF ....|E-2 01 .. ....|C-5 06 .. ....
27 |... .. .. ....|... .. .. .... ....|... .. .. ....|... .. .. ....
28 |E-3 00 .. ....|E-3 .. .. 8080 ....|C-6 03 .. ....|C-5 04 .. ....
29 |... .. .. ....|... .. .. .... ....|... .. .. ....|... .. .. ....
2A |E-2 00 .. ....|E-4 .. .. 8000 ....|E-2 01 .. ....|C-5 06 .. ....
2B |... .. .. ....|... .. .. .... ....|... .. .. ....|... .. .. ....
2C |E-3 00 .. ....|E-3 .. .. 8080 ....|C-6 03 .. ....|C-5 04 .. ....
2D |... .. .. ....|... .. .. .... ....|... .. .. ....|... .. .. ....
2E |E-2 00 .. ....|E-4 .. .. 80FF ....|E-2 01 .. ....|C-5 06 .. ....
2F |... .. .. ....|... .. .. .... ....|... .. .. ....|... .. .. ....
30 |C-3 00 .. ....|C-3 .. .. 8080 ....|C-6 03 .. ....|C-5 04 .. ....
31 |... .. .. ....|... .. .. .... ....|... .. .. ....|... .. .. ....
32 |C-2 00 .. ....|C-4 .. .. 8000 ....|C-2 01 .. ....|C-5 06 .. ....
33 |... .. .. ....|... .. .. .... ....|... .. .. ....|... .. .. ....
34 |C-3 00 .. ....|C-3 .. .. 8080 ....|C-6 03 .. ....|C-5 04 .. ....
35 |... .. .. ....|... .. .. .... ....|... .. .. ....|... .. .. ....
36 |C-2 00 .. ....|C-4 .. .. 80FF ....|C-2 01 .. ....|C-5 06 .. ....
37 |... .. .. ....|... .. .. .... ....|... .. .. ....|... .. .. ....
38 |C-3 00 .. ....|C-3 .. .. 8080 ....|C-6 03 .. ....|C-5 04 .. ....
39 |... .. .. ....|... .. .. .... ....|... .. .. ....|... .. .. ....
3A |C-2 00 .. ....|C-4 .. .. 8000 ....|C-2 01 .. ....|C-5 06 .. ....
3B |... .. .. ....|... .. .. .... ....|... .. .. ....|... .. .. ....
3C |C-3 00 .. ....|C-3 .. .. 8080 ....|C-6 03 .. ....|C-5 04 .. ....
3D |... .. .. ....|... .. .. .... ....|... .. .. ....|... .. .. ....
3E |C-2 00 .. ....|C-4 .. .. 80FF ....|C-2 01 .. ....|C-5 06 .. ....
3F |... .. .. ....|... .. .. .... ....|... .. .. ....|... .. .. ....
----- ORDER 0A
00 |G-3 00 .. ....|OFF .. .. .... ....|C-6 03 .. ....|C-5 05 .. ....
01 |... .. .. ....|... .. .. .... ....|... .. .. ....|... .. .. ....
02 |G-2 00 .. ....|... .. .. .... ....|G-2 01 .. ....|... .. .. ....
03 |... .. .. ....|... .. .. .... ....|... .. .. ....|... .. .. ....
04 |G-3 00 .. ....|... .. .. .... ....|C-6 03 .. ....|C-5 04 .. ....
05 |... .. .. ....|... .. .. .... ....|... .. .. ....|... .. .. ....
06 |G-2 00 .. ....|... .. .. .... ....|G-2 01 .. ....|... .. .. ....
07 |... .. .. ....|... .. .. .... ....|... .. .. ....|... .. .. ....
08 |G-3 00 .. ....|... .. .. .... ....|C-6 03 .. ....|C-5 04 .. ....
09 |... .. .. ....|... .. .. .... ....|... .. .. ....|... .. .. ....
0A |G-2 00 .. ....|... .. .. .... ....|G-2 01 .. ....|... .. .. ....
0B |... .. .. ....|... .. .. .... ....|... .. .. ....|... .. .. ....
0C |G-3 00 .. ....|... .. .. .... ....|C-6 03 .. ....|C-5 04 .. ....
0D |... .. .. ....|... .. .. .... ....|... .. .. ....|... .. .. ....
0E |G-2 00 .. ....|... .. .. .... ....|G-2 01 .. ....|... .. .. ....
0F |... .. .. ....|... .. .. .... ....|... .. .. ....|... .. .. ....
10 |A-3 00 .. ....|... .. .. .... ....|C-6 03 .. ....|C-5 04 .. ....
11 |... .. .. ....|... .. .. .... ....|... .. .. ....|... .. .. ....
12 |A-2 00 .. ....|... .. .. .... ....|A-2 01 .. ....|... .. .. ....
13 |... .. .. ....|... .. .. .... ....|... .. .. ....|... .. .. ....
14 |A-3 00 .. ....|... .. .. .... ....|C-6 03 .. ....|C-5 04 .. ....
15 |... .. .. ....|... .. .. .... ....|... .. .. ....|... .. .. ....
16 |A-2 00 .. ....|... .. .. .... ....|A-2 01 .. ....|... .. .. ....
17 |... .. .. ....|... .. .. .... ....|... .. .. ....|... .. .. ....
18 |A-3 00 .. ....|... .. .. .... ....|C-6 03 .. ....|C-5 04 .. ....
19 |... .. .. ....|... .. .. .... ....|... .. .. ....|... .. .. ....
1A |A-2 00 .. ....|... .. .. .... ....|A-2 01 .. ....|... .. .. ....
1B |... .. .. ....|... .. .. .... ....|... .. .. ....|... .. .. ....
1C |A-3 00 .. ....|... .. .. .... ....|C-6 03 .. ....|C-5 04 .. ....
1D |... .. .. ....|... .. .. .... ....|... .. .. ....|... .. .. ....
1E |A-2 00 .. ....|... .. .. .... ....|A-2 01 .. ....|... .. .. ....
1F |... .. .. ....|... .. .. .... ....|... .. .. ....|... .. .. ....
20 |E-3 00 .. ....|... .. .. .... ....|C-6 03 .. ....|C-5 04 .. ....
21 |... .. .. ....|... .. .. .... ....|... .. .. ....|... .. .. ....
22 |E-2 00 .. ....|... .. .. .... ....|E-2 01 .. ....|... .. .. ....
23 |... .. .. ....|... .. .. .... ....|... .. .. ....|... .. .. ....
24 |E-3 00 .. ....|... .. .. .... ....|C-6 03 .. ....|C-5 04 .. ....
25 |... .. .. ....|... .. .. .... ....|... .. .. ....|... .. .. ....
26 |E-2 00 .. ....|... .. .. .... ....|E-2 01 .. ....|... .. .. ....
27 |... .. .. ....|... .. .. .... ....|... .. .. ....|... .. .. ....
28 |E-3 00 .. ....|... .. .. .... ....|C-6 03 .. ....|C-5 04 .. ....
29 |... .. .. ....|... .. .. .... ....|... .. .. ....|... .. .. ....
2A |E-2 00 .. ....|... .. .. .... ....|E-2 01 .. ....|... .. .. ....
2B |... .. .. ....|... .. .. .... ....|... .. .. ....|... .. .. ....
2C |E-3 00 .. ....|... .. .. .... ....|C-6 03 .. ....|C-5 04 .. ....
2D |... .. .. ....|... .. .. .... ....|... .. .. ....|... .. .. ....
2E |E-2 00 .. ....|... .. .. .... ....|E-2 01 .. ....|... .. .. ....
2F |... .. .. ....|... .. .. .... ....|... .. .. ....|... .. .. ....
30 |C-3 00 .. ....|... .. .. .... ....|C-6 03 .. ....|C-5 04 .. ....
31 |... .. .. ....|... .. .. .... ....|... .. .. ....|... .. .. ....
32 |C-2 00 .. ....|... .. .. .... ....|C-2 01 .. ....|... .. .. ....
33 |... .. .. ....|... .. .. .... ....|... .. .. ....|... .. .. ....
34 |C-3 00 .. ....|... .. .. .... ....|C-6 03 .. ....|C-5 04 .. ....
35 |... .. .. ....|... .. .. .... ....|... .. .. ....|... .. .. ....
36 |C-2 00 .. ....|... .. .. .... ....|C-2 01 .. ....|... .. .. ....
37 |... .. .. ....|... .. .. .... ....|... .. .. ....|... .. .. ....
38 |C-3 00 .. ....|... .. .. .... ....|C-6 03 .. ....|C-5 04 .. ....
39 |... .. .. ....|... .. .. .... ....|... .. .. ....|... .. .. ....
3A |C-2 00 .. ....|... .. .. .... ....|C-2 01 .. ....|... .. .. ....
3B |... .. .. ....|... .. .. .... ....|... .. .. ....|... .. .. ....
3C |C-3 00 .. ....|... .. .. .... ....|C-6 03 .. ....|C-5 04 .. ....
3D |... .. .. ....|... .. .. .... ....|... .. .. ....|... .. .. ....
3E |C-2 00 .. ....|... .. .. .... ....|C-2 01 .. ....|... .. .. ....
3F |... .. .. ....|... .. .. .... ....|... .. .. ....|... .. .. ....
----- ORDER 0B
00 |G-3 00 .. ....|OFF .. .. .... ....|C-6 03 .. ....|C-5 04 .. ....
01 |... .. .. ....|... .. .. .... ....|... .. .. ....|... .. .. ....
02 |G-2 00 .. ....|... .. .. .... ....|G-2 01 .. ....|... .. .. ....
03 |... .. .. ....|... .. .. .... ....|... .. .. ....|... .. .. ....
04 |G-3 00 .. ....|... .. .. .... ....|C-6 03 .. ....|C-5 04 .. ....
05 |... .. .. ....|... .. .. .... ....|... .. .. ....|... .. .. ....
06 |G-2 00 .. ....|... .. .. .... ....|G-2 01 .. ....|... .. .. ....
07 |... .. .. ....|... .. .. .... ....|... .. .. ....|... .. .. ....
08 |G-3 00 .. ....|... .. .. .... ....|C-6 03 .. ....|C-5 04 .. ....
09 |... .. .. ....|... .. .. .... ....|... .. .. ....|... .. .. ....
0A |G-2 00 .. ....|... .. .. .... ....|G-2 01 .. ....|... .. .. ....
0B |... .. .. ....|... .. .. .... ....|... .. .. ....|... .. .. ....
0C |G-3 00 .. ....|... .. .. .... ....|C-6 03 .. ....|C-5 04 .. ....
0D |... .. .. ....|... .. .. .... ....|... .. .. ....|... .. .. ....
0E |G-2 00 .. ....|... .. .. .... ....|G-2 01 .. ....|... .. .. ....
0F |... .. .. ....|... .. .. .... ....|... .. .. ....|... .. .. ....
10 |A-3 00 .. ....|... .. .. .... ....|C-6 03 .. ....|C-5 04 .. ....
11 |... .. .. ....|... .. .. .... ....|... .. .. ....|... .. .. ....
12 |A-2 00 .. ....|... .. .. .... ....|A-2 01 .. ....|... .. .. ....
13 |... .. .. ....|... .. .. .... ....|... .. .. ....|... .. .. ....
14 |A-3 00 .. ....|... .. .. .... ....|C-6 03 .. ....|C-5 04 .. ....
15 |... .. .. ....|... .. .. .... ....|... .. .. ....|... .. .. ....
16 |A-2 00 .. ....|... .. .. .... ....|A-2 01 .. ....|... .. .. ....
17 |... .. .. ....|... .. .. .... ....|... .. .. ....|... .. .. ....
18 |A-3 00 .. ....|... .. .. .... ....|C-6 03 .. ....|C-5 04 .. ....
19 |... .. .. ....|... .. .. .... ....|... .. .. ....|... .. .. ....
1A |A-2 00 .. ....|... .. .. .... ....|A-2 01 .. ....|... .. .. ....
1B |... .. .. ....|... .. .. .... ....|... .. .. ....|... .. .. ....
1C |A-3 00 .. ....|... .. .. .... ....|C-6 03 .. ....|C-5 04 .. ....
1D |... .. .. ....|... .. .. .... ....|... .. .. ....|... .. .. ....
1E |A-2 00 .. ....|... .. .. .... ....|A-2 01 .. ....|... .. .. ....
1F |... .. .. ....|... .. .. .... ....|... .. .. ....|... .. .. ....
20 |E-3 00 .. ....|... .. .. .... ....|C-6 03 .. ....|C-5 04 .. ....
21 |... .. .. ....|... .. .. .... ....|... .. .. ....|... .. .. ....
22 |E-2 00 .. ....|... .. .. .... ....|E-2 01 .. ....|... .. .. ....
23 |... .. .. ....|... .. .. .... ....|... .. .. ....|... .. .. ....
24 |E-3 00 .. ....|... .. .. .... ....|C-6 03 .. ....|C-5 04 .. ....
25 |... .. .. ....|... .. .. .... ....|... .. .. ....|... .. .. ....
26 |E-2 00 .. ....|... .. .. .... ....|E-2 01 .. ....|... .. .. ....
27 |... .. .. ....|... .. .. .... ....|... .. .. ....|... .. .. ....
28 |E-3 00 .. ....|... .. .. .... ....|C-6 03 .. ....|C-5 04 .. ....
29 |... .. .. ....|... .. .. .... ....|... .. .. ....|... .. .. ....
2A |E-2 00 .. ....|... .. .. .... ....|E-2 01 .. ....|... .. .. ....
2B |... .. .. ....|... .. .. .... ....|... .. .. ....|... .. .. ....
2C |E-3 00 .. ....|... .. .. .... ....|C-6 03 .. ....|C-5 04 .. ....
2D |... .. .. ....|... .. .. .... ....|... .. .. ....|... .. .. ....
2E |E-2 00 .. ....|... .. .. .... ....|E-2 01 .. ....|... .. .. ....
2F |... .. .. ....|... .. .. .... ....|... .. .. ....|... .. .. ....
30 |C-3 00 .. ....|... .. .. .... ....|C-6 03 .. ....|C-5 04 .. ....
31 |... .. .. ....|... .. .. .... ....|... .. .. ....|... .. .. ....
32 |C-2 00 .. ....|... .. .. .... ....|C-2 01 .. ....|... .. .. ....
33 |... .. .. ....|... .. .. .... ....|... .. .. ....|... .. .. ....
34 |C-3 00 .. ....|... .. .. .... ....|C-6 03 .. ....|C-5 04 .. ....
35 |... .. .. ....|... .. .. .... ....|... .. .. ....|... .. .. ....
36 |C-2 00 .. ....|... .. .. .... ....|C-2 01 .. ....|... .. .. ....
37 |... .. .. ....|... .. .. .... ....|... .. .. ....|... .. .. ....
38 |C-3 00 .. ....|... .. .. .... ....|C-6 03 .. ....|C-5 04 .. ....
39 |... .. .. ....|... .. .. .... ....|... .. .. ....|... .. .. ....
3A |C-2 00 .. ....|... .. .. .... ....|C-2 01 .. ....|... .. .. ....
3B |... .. .. ....|... .. .. .... ....|... .. .. ....|... .. .. ....
3C |C-3 00 .. ....|... .. .. .... ....|C-6 03 .. ....|C-5 04 .. ....
3D |... .. .. ....|... .. .. .... ....|... .. .. ....|... .. .. ....
3E |C-2 00 .. ....|... .. .. .... ....|C-2 01 .. ....|... .. .. ....
3F |... .. .. ....|... .. .. .... ....|... .. .. ....|... .. .. ....
----- ORDER 0C
00 |OFF .. .. ....|G-3 02 .. 8080 E590|C-6 03 .. ....|C-5 05 .. ....
01 |... .. .. ....|... .. .. .... ....|... .. .. ....|... .. .. ....
02 |... .. .. ....|G-4 .. .. 8000 ....|G-2 01 .. ....|... .. .. ....
03 |... .. .. ....|... .. .. .... ....|... .. .. ....|... .. .. ....
04 |... .. .. ....|G-3 .. .. 8080 ....|C-6 03 .. ....|C-5 04 .. ....
05 |... .. .. ....|... .. .. .... ....|... .. .. ....|... .. .. ....
06 |... .. .. ....|G-4 .. .. 80FF ....|G-2 01 .. ....|... .. .. ....
07 |... .. .. ....|... .. .. .... ....|... .. .. ....|... .. .. ....
08 |... .. .. ....|G-3 .. .. 8080 ....|C-6 03 .. ....|C-5 04 .. ....
09 |... .. .. ....|... .. .. .... ....|... .. .. ....|... .. .. ....
0A |... .. .. ....|G-4 .. .. 8000 ....|G-2 01 .. ....|... .. .. ....
0B |... .. .. ....|... .. .. .... ....|... .. .. ....|... .. .. ....
0C |... .. .. ....|G-3 .. .. 8080 ....|C-6 03 .. ....|C-5 04 .. ....
0D |... .. .. ....|... .. .. .... ....|... .. .. ....|... .. .. ....
0E |... .. .. ....|G-4 .. .. 80FF ....|G-2 01 .. ....|... .. .. ....
0F |... .. .. ....|... .. .. .... ....|... .. .. ....|... .. .. ....
10 |... .. .. ....|A-3 .. .. 8080 ....|C-6 03 .. ....|C-5 04 .. ....
11 |... .. .. ....|... .. .. .... ....|... .. .. ....|... .. .. ....
12 |... .. .. ....|A-4 .. .. 8000 ....|A-2 01 .. ....|... .. .. ....
13 |... .. .. ....|... .. .. .... ....|... .. .. ....|... .. .. ....
14 |... .. .. ....|A-3 .. .. 8080 ....|C-6 03 .. ....|C-5 04 .. ....
15 |... .. .. ....|... .. .. .... ....|... .. .. ....|... .. .. ....
16 |... .. .. ....|A-4 .. .. 80FF ....|A-2 01 .. ....|... .. .. ....
17 |... .. .. ....|... .. .. .... ....|... .. .. ....|... .. .. ....
18 |... .. .. ....|A-3 .. .. 8080 ....|C-6 03 .. ....|C-5 04 .. ....
19 |... .. .. ....|... .. .. .... ....|... .. .. ....|... .. .. ....
1A |... .. .. ....|A-4 .. .. 8000 ....|A-2 01 .. ....|... .. .. ....
1B |... .. .. ....|... .. .. .... ....|... .. .. ....|... .. .. ....
1C |... .. .. ....|A-3 .. .. 8080 ....|C-6 03 .. ....|C-5 04 .. ....
1D |... .. .. ....|... .. .. .... ....|... .. .. ....|... .. .. ....
1E |... .. .. ....|A-4 .. .. 80FF ....|A-2 01 .. ....|... .. .. ....
1F |... .. .. ....|... .. .. .... ....|... .. .. ....|... .. .. ....
20 |... .. .. ....|E-3 .. .. 8080 ....|C-6 03 .. ....|C-5 04 .. ....
21 |... .. .. ....|... .. .. .... ....|... .. .. ....|... .. .. ....
22 |... .. .. ....|E-4 .. .. 8000 ....|E-2 01 .. ....|... .. .. ....
23 |... .. .. ....|... .. .. .... ....|... .. .. ....|... .. .. ....
24 |... .. .. ....|E-3 .. .. 8080 ....|C-6 03 .. ....|C-5 04 .. ....
25 |... .. .. ....|... .. .. .... ....|... .. .. ....|... .. .. ....
26 |... .. .. ....|E-4 .. .. 80FF ....|E-2 01 .. ....|... .. .. ....
27 |... .. .. ....|... .. .. .... ....|... .. .. ....|... .. .. ....
28 |... .. .. ....|E-3 .. .. 8080 ....|C-6 03 .. ....|C-5 04 .. ....
29 |... .. .. ....|... .. .. .... ....|... .. .. ....|... .. .. ....
2A |... .. .. ....|E-4 .. .. 8000 ....|E-2 01 .. ....|... .. .. ....
2B |... .. .. ....|... .. .. .... ....|... .. .. ....|... .. .. ....
2C |... .. .. ....|E-3 .. .. 8080 ....|C-6 03 .. ....|C-5 04 .. ....
2D |... .. .. ....|... .. .. .... ....|... .. .. ....|... .. .. ....
2E |... .. .. ....|E-4 .. .. 80FF ....|E-2 01 .. ....|... .. .. ....
2F |... .. .. ....|... .. .. .... ....|... .. .. ....|... .. .. ....
30 |... .. .. ....|C-3 .. .. 8080 ....|C-6 03 .. ....|C-5 04 .. ....
31 |... .. .. ....|... .. .. .... ....|... .. .. ....|... .. .. ....
32 |... .. .. ....|C-4 .. .. 8000 ....|C-2 01 .. ....|... .. .. ....
33 |... .. .. ....|... .. .. .... ....|... .. .. ....|... .. .. ....
34 |... .. .. ....|C-3 .. .. 8080 ....|C-6 03 .. ....|C-5 04 .. ....
35 |... .. .. ....|... .. .. .... ....|... .. .. ....|... .. .. ....
36 |... .. .. ....|C-4 .. .. 80FF ....|C-2 01 .. ....|... .. .. ....
37 |... .. .. ....|... .. .. .... ....|... .. .. ....|... .. .. ....
38 |... .. .. ....|C-3 .. .. 8080 ....|C-6 03 .. ....|C-5 04 .. ....
39 |... .. .. ....|... .. .. .... ....|... .. .. ....|... .. .. ....
3A |... .. .. ....|C-4 .. .. 8000 ....|C-2 01 .. ....|... .. .. ....
3B |... .. .. ....|... .. .. .... ....|... .. .. ....|... .. .. ....
3C |... .. .. ....|C-3 .. .. 8080 ....|C-6 03 .. ....|C-5 04 .. ....
3D |... .. .. ....|... .. .. .... ....|... .. .. ....|... .. .. ....
3E |... .. .. ....|C-4 .. .. 80FF ....|C-2 01 .. ....|... .. .. ....
3F |... .. .. ....|... .. .. .... ....|... .. .. ....|... .. .. ....
----- ORDER 0D
00 |OFF .. .. ....|G-3 02 .. 8080 E590|C-6 03 .. ....|C-5 04 .. ....
01 |... .. .. ....|... .. .. .... ....|... .. .. ....|... .. .. ....
02 |... .. .. ....|G-4 .. .. 8000 ....|G-2 01 .. ....|... .. .. ....
03 |... .. .. ....|... .. .. .... ....|... .. .. ....|... .. .. ....
04 |... .. .. ....|G-3 .. .. 8080 ....|C-6 03 .. ....|C-5 04 .. ....
05 |... .. .. ....|... .. .. .... ....|... .. .. ....|... .. .. ....
06 |... .. .. ....|G-4 .. .. 80FF ....|G-2 01 .. ....|... .. .. ....
07 |... .. .. ....|... .. .. .... ....|... .. .. ....|... .. .. ....
08 |... .. .. ....|G-3 .. .. 8080 ....|C-6 03 .. ....|C-5 04 .. ....
09 |... .. .. ....|... .. .. .... ....|... .. .. ....|... .. .. ....
0A |... .. .. ....|G-4 .. .. 8000 ....|G-2 01 .. ....|... .. .. ....
0B |... .. .. ....|... .. .. .... ....|... .. .. ....|... .. .. ....
0C |... .. .. ....|G-3 .. .. 8080 ....|C-6 03 .. ....|C-5 04 .. ....
0D |... .. .. ....|... .. .. .... ....|... .. .. ....|... .. .. ....
0E |... .. .. ....|G-4 .. .. 80FF ....|G-2 01 .. ....|... .. .. ....
0F |... .. .. ....|... .. .. .... ....|... .. .. ....|... .. .. ....
10 |... .. .. ....|A-3 .. .. 8080 ....|C-6 03 .. ....|C-5 04 .. ....
11 |... .. .. ....|... .. .. .... ....|... .. .. ....|... .. .. ....
12 |... .. .. ....|A-4 .. .. 8000 ....|A-2 01 .. ....|... .. .. ....
13 |... .. .. ....|... .. .. .... ....|... .. .. ....|... .. .. ....
14 |... .. .. ....|A-3 .. .. 8080 ....|C-6 03 .. ....|C-5 04 .. ....
15 |... .. .. ....|... .. .. .... ....|... .. .. ....|... .. .. ....
16 |... .. .. ....|A-4 .. .. 80FF ....|A-2 01 .. ....|... .. .. ....
17 |... .. .. ....|... .. .. .... ....|... .. .. ....|... .. .. ....
18 |... .. .. ....|A-3 .. .. 8080 ....|C-6 03 .. ....|C-5 04 .. ....
19 |... .. .. ....|... .. .. .... ....|... .. .. ....|... .. .. ....
1A |... .. .. ....|A-4 .. .. 8000 ....|A-2 01 .. ....|... .. .. ....
1B |... .. .. ....|... .. .. .... ....|... .. .. ....|... .. .. ....
1C |... .. .. ....|A-3 .. .. 8080 ....|C-6 03 .. ....|C-5 04 .. ....
1D |... .. .. ....|... .. .. .... ....|... .. .. ....|... .. .. ....
1E |... .. .. ....|A-4 .. .. 80FF ....|A-2 01 .. ....|... .. .. ....
1F |... .. .. ....|... .. .. .... ....|... .. .. ....|... .. .. ....
20 |... .. .. ....|E-3 .. .. 8080 ....|C-6 03 .. ....|C-5 04 .. ....
21 |... .. .. ....|... .. .. .... ....|... .. .. ....|... .. .. ....
22 |... .. .. ....|E-4 .. .. 8000 ....|E-2 01 .. ....|... .. .. ....
23 |... .. .. ....|... .. .. .... ....|... .. .. ....|... .. .. ....
24 |... .. .. ....|E-3 .. .. 8080 ....|C-6 03 .. ....|C-5 04 .. ....
25 |... .. .. ....|... .. .. .... ....|... .. .. ....|... .. .. ....
26 |... .. .. ....|E-4 .. .. 80FF ....|E-2 01 .. ....|... .. .. ....
27 |... .. .. ....|... .. .. .... ....|... .. .. ....|... .. .. ....
28 |... .. .. ....|E-3 .. .. 8080 ....|C-6 03 .. ....|C-5 04 .. ....
29 |... .. .. ....|... .. .. .... ....|... .. .. ....|... .. .. ....
2A |... .. .. ....|E-4 .. .. 8000 ....|E-2 01 .. ....|... .. .. ....
2B |... .. .. ....|... .. .. .... ....|... .. .. ....|... .. .. ....
2C |... .. .. ....|E-3 .. .. 8080 ....|C-6 03 .. ....|C-5 04 .. ....
2D |... .. .. ....|... .. .. .... ....|... .. .. ....|... .. .. ....
2E |... .. .. ....|E-4 .. .. 80FF ....|E-2 01 .. ....|... .. .. ....
2F |... .. .. ....|... .. .. .... ....|... .. .. ....|... .. .. ....
30 |... .. .. ....|C-3 .. .. 8080 ....|C-6 03 .. ....|C-5 04 .. ....
31 |... .. .. ....|... .. .. .... ....|... .. .. ....|... .. .. ....
32 |... .. .. ....|C-4 .. .. 8000 ....|C-2 01 .. ....|... .. .. ....
33 |... .. .. ....|... .. .. .... ....|... .. .. ....|... .. .. ....
34 |... .. .. ....|C-3 .. .. 8080 ....|C-6 03 .. ....|C-5 04 .. ....
35 |... .. .. ....|... .. .. .... ....|... .. .. ....|... .. .. ....
36 |... .. .. ....|C-4 .. .. 80FF ....|C-2 01 .. ....|... .. .. ....
37 |... .. .. ....|... .. .. .... ....|... .. .. ....|... .. .. ....
38 |... .. .. ....|C-3 .. .. 8080 ....|C-6 03 .. ....|C-5 04 .. ....
39 |... .. .. ....|... .. .. .... ....|... .. .. ....|... .. .. ....
3A |... .. .. ....|C-4 .. .. 8000 ....|C-2 01 .. ....|... .. .. ....
3B |... .. .. ....|... .. .. .... ....|... .. .. ....|... .. .. ....
3C |... .. .. ....|C-3 .. .. 8080 ....|C-6 03 .. ....|C-5 04 .. ....
3D |... .. .. ....|... .. .. .... ....|... .. .. ....|... .. .. ....
3E |... .. .. ....|C-4 .. .. 80FF ....|C-2 01 .. ....|... .. .. ....
3F |... .. .. ....|... .. .. .... ....|... .. .. ....|... .. .. ....
----- ORDER 0E
00 |G-3 00 .. ....|G-3 02 .. 8080 E590|C-6 03 .. ....|C-5 05 .. ....
01 |... .. .. ....|... .. .. .... ....|... .. .. ....|... .. .. ....
02 |G-2 00 .. ....|G-4 .. .. 8000 ....|G-2 01 .. ....|... .. .. ....
03 |... .. .. ....|... .. .. .... ....|... .. .. ....|... .. .. ....
04 |G-3 00 .. ....|G-3 .. .. 8080 ....|C-6 03 .. ....|C-5 04 .. ....
05 |... .. .. ....|... .. .. .... ....|... .. .. ....|... .. .. ....
06 |G-2 00 .. ....|G-4 .. .. 80FF ....|G-2 01 .. ....|... .. .. ....
07 |... .. .. ....|... .. .. .... ....|... .. .. ....|... .. .. ....
08 |G-3 00 .. ....|G-3 .. .. 8080 ....|C-6 03 .. ....|C-5 04 .. ....
09 |... .. .. ....|... .. .. .... ....|... .. .. ....|... .. .. ....
0A |G-2 00 .. ....|G-4 .. .. 8000 ....|G-2 01 .. ....|... .. .. ....
0B |... .. .. ....|... .. .. .... ....|... .. .. ....|... .. .. ....
0C |G-3 00 .. ....|G-3 .. .. 8080 ....|C-6 03 .. ....|C-5 04 .. ....
0D |... .. .. ....|... .. .. .... ....|... .. .. ....|... .. .. ....
0E |G-2 00 .. ....|G-4 .. .. 80FF ....|G-2 01 .. ....|... .. .. ....
0F |... .. .. ....|... .. .. .... ....|... .. .. ....|... .. .. ....
10 |A-3 00 .. ....|A-3 .. .. 8080 ....|C-6 03 .. ....|C-5 04 .. ....
11 |... .. .. ....|... .. .. .... ....|... .. .. ....|... .. .. ....
12 |A-2 00 .. ....|A-4 .. .. 8000 ....|A-2 01 .. ....|... .. .. ....
13 |... .. .. ....|... .. .. .... ....|... .. .. ....|... .. .. ....
14 |A-3 00 .. ....|A-3 .. .. 8080 ....|C-6 03 .. ....|C-5 04 .. ....
15 |... .. .. ....|... .. .. .... ....|... .. .. ....|... .. .. ....
16 |A-2 00 .. ....|A-4 .. .. 80FF ....|A-2 01 .. ....|... .. .. ....
17 |... .. .. ....|... .. .. .... ....|... .. .. ....|... .. .. ....
18 |A-3 00 .. ....|A-3 .. .. 8080 ....|C-6 03 .. ....|C-5 04 .. ....
19 |... .. .. ....|... .. .. .... ....|... .. .. ....|... .. .. ....
1A |A-2 00 .. ....|A-4 .. .. 8000 ....|A-2 01 .. ....|... .. .. ....
1B |... .. .. ....|... .. .. .... ....|... .. .. ....|... .. .. ....
1C |A-3 00 .. ....|A-3 .. .. 8080 ....|C-6 03 .. ....|C-5 04 .. ....
1D |... .. .. ....|... .. .. .... ....|... .. .. ....|... .. .. ....
1E |A-2 00 .. ....|A-4 .. .. 80FF ....|A-2 01 .. ....|... .. .. ....
1F |... .. .. ....|... .. .. .... ....|... .. .. ....|... .. .. ....
20 |E-3 00 .. ....|E-3 .. .. 8080 ....|C-6 03 .. ....|C-5 04 .. ....
21 |... .. .. ....|... .. .. .... ....|... .. .. ....|... .. .. ....
22 |E-2 00 .. ....|E-4 .. .. 8000 ....|E-2 01 .. ....|... .. .. ....
23 |... .. .. ....|... .. .. .... ....|... .. .. ....|... .. .. ....
24 |E-3 00 .. ....|E-3 .. .. 8080 ....|C-6 03 .. ....|C-5 04 .. ....
25 |... .. .. ....|... .. .. .... ....|... .. .. ....|... .. .. ....
26 |E-2 00 .. ....|E-4 .. .. 80FF ....|E-2 01 .. ....|... .. .. ....
27 |... .. .. ....|... .. .. .... ....|... .. .. ....|... .. .. ....
28 |E-3 00 .. ....|E-3 .. .. 8080 ....|C-6 03 .. ....|C-5 04 .. ....
29 |... .. .. ....|... .. .. .... ....|... .. .. ....|... .. .. ....
2A |E-2 00 .. ....|E-4 .. .. 8000 ....|E-2 01 .. ....|... .. .. ....
2B |... .. .. ....|... .. .. .... ....|... .. .. ....|... .. .. ....
2C |E-3 00 .. ....|E-3 .. .. 8080 ....|C-6 03 .. ....|C-5 04 .. ....
2D |... .. .. ....|... .. .. .... ....|... .. .. ....|... .. .. ....
2E |E-2 00 .. ....|E-4 .. .. 80FF ....|E-2 01 .. ....|... .. .. ....
2F |... .. .. ....|... .. .. .... ....|... .. .. ....|... .. .. ....
30 |C-3 00 .. ....|C-3 .. .. 8080 ....|C-6 03 .. ....|C-5 04 .. ....
31 |... .. .. ....|... .. .. .... ....|... .. .. ....|... .. .. ....
32 |C-2 00 .. ....|C-4 .. .. 8000 ....|C-2 01 .. ....|... .. .. ....
33 |... .. .. ....|... .. .. .... ....|... .. .. ....|... .. .. ....
34 |C-3 00 .. ....|C-3 .. .. 8080 ....|C-6 03 .. ....|C-5 04 .. ....
35 |... .. .. ....|... .. .. .... ....|... .. .. ....|... .. .. ....
36 |C-2 00 .. ....|C-4 .. .. 80FF ....|C-2 01 .. ....|... .. .. ....
37 |... .. .. ....|... .. .. .... ....|... .. .. ....|... .. .. ....
38 |C-3 00 .. ....|C-3 .. .. 8080 ....|C-6 03 .. ....|C-5 04 .. ....
39 |... .. .. ....|... .. .. .... ....|... .. .. ....|... .. .. ....
3A |C-2 00 .. ....|C-4 .. .. 8000 ....|C-2 01 .. ....|... .. .. ....
3B |... .. .. ....|... .. .. .... ....|... .. .. ....|... .. .. ....
3C |C-3 00 .. ....|C-3 .. .. 8080 ....|C-6 03 .. ....|C-5 04 .. ....
3D |... .. .. ....|... .. .. .... ....|... .. .. ....|... .. .. ....
3E |C-2 00 .. ....|C-4 .. .. 80FF ....|C-2 01 .. ....|... .. .. ....
3F |... .. .. ....|... .. .. .... ....|... .. .. ....|... .. .. ....
----- ORDER 0F
00 |G-3 00 .. ....|G-3 02 .. 8080 E590|C-6 03 .. ....|C-5 04 .. ....
01 |... .. .. ....|... .. .. .... ....|... .. .. ....|... .. .. ....
02 |G-2 00 .. ....|G-4 .. .. 8000 ....|G-2 01 .. ....|C-5 06 .. ....
03 |... .. .. ....|... .. .. .... ....|... .. .. ....|... .. .. ....
04 |G-3 00 .. ....|G-3 .. .. 8080 ....|C-6 03 .. ....|C-5 04 .. ....
05 |... .. .. ....|... .. .. .... ....|... .. .. ....|... .. .. ....
06 |G-2 00 .. ....|G-4 .. .. 80FF ....|G-2 01 .. ....|C-5 06 .. ....
07 |... .. .. ....|... .. .. .... ....|... .. .. ....|... .. .. ....
08 |G-3 00 .. ....|G-3 .. .. 8080 ....|C-6 03 .. ....|C-5 04 .. ....
09 |... .. .. ....|... .. .. .... ....|... .. .. ....|... .. .. ....
0A |G-2 00 .. ....|G-4 .. .. 8000 ....|G-2 01 .. ....|C-5 06 .. ....
0B |... .. .. ....|... .. .. .... ....|... .. .. ....|... .. .. ....
0C |G-3 00 .. ....|G-3 .. .. 8080 ....|C-6 03 .. ....|C-5 04 .. ....
0D |... .. .. ....|... .. .. .... ....|... .. .. ....|... .. .. ....
0E |G-2 00 .. ....|G-4 .. .. 80FF ....|G-2 01 .. ....|C-5 06 .. ....
0F |... .. .. ....|... .. .. .... ....|... .. .. ....|... .. .. ....
10 |A-3 00 .. ....|A-3 .. .. 8080 ....|C-6 03 .. ....|C-5 04 .. ....
11 |... .. .. ....|... .. .. .... ....|... .. .. ....|... .. .. ....
12 |A-2 00 .. ....|A-4 .. .. 8000 ....|A-2 01 .. ....|C-5 06 .. ....
13 |... .. .. ....|... .. .. .... ....|... .. .. ....|... .. .. ....
14 |A-3 00 .. ....|A-3 .. .. 8080 ....|C-6 03 .. ....|C-5 04 .. ....
15 |... .. .. ....|... .. .. .... ....|... .. .. ....|... .. .. ....
16 |A-2 00 .. ....|A-4 .. .. 80FF ....|A-2 01 .. ....|C-5 06 .. ....
17 |... .. .. ....|... .. .. .... ....|... .. .. ....|... .. .. ....
18 |A-3 00 .. ....|A-3 .. .. 8080 ....|C-6 03 .. ....|C-5 04 .. ....
19 |... .. .. ....|... .. .. .... ....|... .. .. ....|... .. .. ....
1A |A-2 00 .. ....|A-4 .. .. 8000 ....|A-2 01 .. ....|C-5 06 .. ....
1B |... .. .. ....|... .. .. .... ....|... .. .. ....|... .. .. ....
1C |A-3 00 .. ....|A-3 .. .. 8080 ....|C-6 03 .. ....|C-5 04 .. ....
1D |... .. .. ....|... .. .. .... ....|... .. .. ....|... .. .. ....
1E |A-2 00 .. ....|A-4 .. .. 80FF ....|A-2 01 .. ....|C-5 06 .. ....
1F |... .. .. ....|... .. .. .... ....|... .. .. ....|... .. .. ....
20 |E-3 00 .. ....|E-3 .. .. 8080 ....|C-6 03 .. ....|C-5 04 .. ....
21 |... .. .. ....|... .. .. .... ....|... .. .. ....|... .. .. ....
22 |E-2 00 .. ....|E-4 .. .. 8000 ....|E-2 01 .. ....|C-5 06 .. ....
23 |... .. .. ....|... .. .. .... ....|... .. .. ....|... .. .. ....
24 |E-3 00 .. ....|E-3 .. .. 8080 ....|C-6 03 .. ....|C-5 04 .. ....
25 |... .. .. ....|... .. .. .... ....|... .. .. ....|... .. .. ....
26 |E-2 00 .. ....|E-4 .. .. 80FF ....|E-2 01 .. ....|C-5 06 .. ....
27 |... .. .. ....|... .. .. .... ....|... .. .. ....|... .. .. ....
28 |E-3 00 .. ....|E-3 .. .. 8080 ....|C-6 03 .. ....|C-5 04 .. ....
29 |... .. .. ....|... .. .. .... ....|... .. .. ....|... .. .. ....
2A |E-2 00 .. ....|E-4 .. .. 8000 ....|E-2 01 .. ....|C-5 06 .. ....
2B |... .. .. ....|... .. .. .... ....|... .. .. ....|... .. .. ....
2C |E-3 00 .. ....|E-3 .. .. 8080 ....|C-6 03 .. ....|C-5 04 .. ....
2D |... .. .. ....|... .. .. .... ....|... .. .. ....|... .. .. ....
2E |E-2 00 .. ....|E-4 .. .. 80FF ....|E-2 01 .. ....|C-5 06 .. ....
2F |... .. .. ....|... .. .. .... ....|... .. .. ....|... .. .. ....
30 |C-3 00 .. ....|C-3 .. .. 8080 ....|C-6 03 .. ....|C-5 04 .. ....
31 |... .. .. ....|... .. .. .... ....|... .. .. ....|... .. .. ....
32 |C-2 00 .. ....|C-4 .. .. 8000 ....|C-2 01 .. ....|C-5 06 .. ....
33 |... .. .. ....|... .. .. .... ....|... .. .. ....|... .. .. ....
34 |C-3 00 .. ....|C-3 .. .. 8080 ....|C-6 03 .. ....|C-5 04 .. ....
35 |... .. .. ....|... .. .. .... ....|... .. .. ....|... .. .. ....
36 |C-2 00 .. ....|C-4 .. .. 80FF ....|C-2 01 .. ....|C-5 06 .. ....
37 |... .. .. ....|... .. .. .... ....|... .. .. ....|... .. .. ....
38 |C-3 00 .. ....|C-3 .. .. 8080 ....|C-6 03 .. ....|C-5 04 .. ....
39 |... .. .. ....|... .. .. .... ....|... .. .. ....|... .. .. ....
3A |C-2 00 .. ....|C-4 .. .. 8000 ....|C-2 01 .. ....|C-5 06 .. ....
3B |... .. .. ....|... .. .. .... ....|... .. .. ....|... .. .. ....
3C |C-3 00 .. ....|C-3 .. .. 8080 ....|C-6 03 .. ....|C-5 04 .. ....
3D |... .. .. ....|... .. .. .... ....|... .. .. ....|... .. .. ....
3E |C-2 00 .. ....|C-4 .. .. 80FF ....|C-2 01 .. ....|C-5 06 .. ....
3F |... .. .. ....|... .. .. .... ....|... .. .. ....|... .. .. ....
----- ORDER 10
00 |G-3 00 .. ....|G-3 02 .. 8080 E590|C-6 03 .. ....|C-5 05 .. ....
01 |... .. .. ....|... .. .. .... ....|... .. .. ....|... .. .. ....
02 |G-2 00 .. ....|G-4 .. .. 8000 ....|G-2 01 .. ....|... .. .. ....
03 |... .. .. ....|... .. .. .... ....|... .. .. ....|... .. .. ....
04 |G-3 00 .. ....|G-3 .. .. 8080 ....|C-6 03 .. ....|C-5 04 .. ....
05 |... .. .. ....|... .. .. .... ....|... .. .. ....|... .. .. ....
06 |G-2 00 .. ....|G-4 .. .. 80FF ....|G-2 01 .. ....|... .. .. ....
07 |... .. .. ....|... .. .. .... ....|... .. .. ....|... .. .. ....
08 |G-3 00 .. ....|G-3 .. .. 8080 ....|C-6 03 .. ....|C-5 04 .. ....
09 |... .. .. ....|... .. .. .... ....|... .. .. ....|... .. .. ....
0A |G-2 00 .. ....|G-4 .. .. 8000 ....|G-2 01 .. ....|... .. .. ....
0B |... .. .. ....|... .. .. .... ....|... .. .. ....|... .. .. ....
0C |G-3 00 .. ....|G-3 .. .. 8080 ....|C-6 03 .. ....|C-5 04 .. ....
0D |... .. .. ....|... .. .. .... ....|... .. .. ....|... .. .. ....
0E |G-2 00 .. ....|G-4 .. .. 80FF ....|G-2 01 .. ....|... .. .. ....
0F |... .. .. ....|... .. .. .... ....|... .. .. ....|... .. .. ....
10 |A-3 00 .. ....|A-3 .. .. 8080 ....|C-6 03 .. ....|C-5 04 .. ....
11 |... .. .. ....|... .. .. .... ....|... .. .. ....|... .. .. ....
12 |A-2 00 .. ....|A-4 .. .. 8000 ....|A-2 01 .. ....|... .. .. ....
13 |... .. .. ....|... .. .. .... ....|... .. .. ....|... .. .. ....
14 |A-3 00 .. ....|A-3 .. .. 8080 ....|C-6 03 .. ....|C-5 04 .. ....
15 |... .. .. ....|... .. .. .... ....|... .. .. ....|... .. .. ....
16 |A-2 00 .. ....|A-4 .. .. 80FF ....|A-2 01 .. ....|... .. .. ....
17 |... .. .. ....|... .. .. .... ....|... .. .. ....|... .. .. ....
18 |A-3 00 .. ....|A-3 .. .. 8080 ....|C-6 03 .. ....|C-5 04 .. ....
19 |... .. .. ....|... .. .. .... ....|... .. .. ....|... .. .. ....
1A |A-2 00 .. ....|A-4 .. .. 8000 ....|A-2 01 .. ....|... .. .. ....
1B |... .. .. ....|... .. .. .... ....|... .. .. ....|... .. .. ....
1C |A-3 00 .. ....|A-3 .. .. 8080 ....|C-6 03 .. ....|C-5 04 .. ....
1D |... .. .. ....|... .. .. .... ....|... .. .. ....|... .. .. ....
1E |A-2 00 .. ....|A-4 .. .. 80FF ....|A-2 01 .. ....|... .. .. ....
1F |... .. .. ....|... .. .. .... ....|... .. .. ....|... .. .. ....
20 |E-3 00 .. ....|E-3 .. .. 8080 ....|C-6 03 .. ....|C-5 04 .. ....
21 |... .. .. ....|... .. .. .... ....|... .. .. ....|... .. .. ....
22 |E-2 00 .. ....|E-4 .. .. 8000 ....|E-2 01 .. ....|... .. .. ....
23 |... .. .. ....|... .. .. .... ....|... .. .. ....|... .. .. ....
24 |E-3 00 .. ....|E-3 .. .. 8080 ....|C-6 03 .. ....|C-5 04 .. ....
25 |... .. .. ....|... .. .. .... ....|... .. .. ....|... .. .. ....
26 |E-2 00 .. ....|E-4 .. .. 80FF ....|E-2 01 .. ....|... .. .. ....
27 |... .. .. ....|... .. .. .... ....|... .. .. ....|... .. .. ....
28 |E-3 00 .. ....|E-3 .. .. 8080 ....|C-6 03 .. ....|C-5 04 .. ....
29 |... .. .. ....|... .. .. .... ....|... .. .. ....|... .. .. ....
2A |E-2 00 .. ....|E-4 .. .. 8000 ....|E-2 01 .. ....|... .. .. ....
2B |... .. .. ....|... .. .. .... ....|... .. .. ....|... .. .. ....
2C |E-3 00 .. ....|E-3 .. .. 8080 ....|C-6 03 .. ....|C-5 04 .. ....
2D |... .. .. ....|... .. .. .... ....|... .. .. ....|... .. .. ....
2E |E-2 00 .. ....|E-4 .. .. 80FF ....|E-2 01 .. ....|... .. .. ....
2F |... .. .. ....|... .. .. .... ....|... .. .. ....|... .. .. ....
30 |C-3 00 .. ....|C-3 .. .. 8080 ....|C-6 03 .. ....|C-5 04 .. ....
31 |... .. .. ....|... .. .. .... ....|... .. .. ....|... .. .. ....
32 |C-2 00 .. ....|C-4 .. .. 8000 ....|C-2 01 .. ....|... .. .. ....
33 |... .. .. ....|... .. .. .... ....|... .. .. ....|... .. .. ....
34 |C-3 00 .. ....|C-3 .. .. 8080 ....|C-6 03 .. ....|C-5 04 .. ....
35 |... .. .. ....|... .. .. .... ....|... .. .. ....|... .. .. ....
36 |C-2 00 .. ....|C-4 .. .. 80FF ....|C-2 01 .. ....|... .. .. ....
37 |... .. .. ....|... .. .. .... ....|... .. .. ....|... .. .. ....
38 |C-3 00 .. ....|C-3 .. .. 8080 ....|C-6 03 .. ....|C-5 04 .. ....
39 |... .. .. ....|... .. .. .... ....|... .. .. ....|... .. .. ....
3A |C-2 00 .. ....|C-4 .. .. 8000 ....|C-2 01 .. ....|... .. .. ....
3B |... .. .. ....|... .. .. .... ....|... .. .. ....|... .. .. ....
3C |C-3 00 .. ....|C-3 .. .. 8080 ....|C-6 03 .. ....|C-5 04 .. ....
3D |... .. .. ....|... .. .. .... ....|... .. .. ....|... .. .. ....
3E |C-2 00 .. ....|C-4 .. .. 80FF ....|C-2 01 .. ....|... .. .. ....
3F |... .. .. ....|... .. .. .... ....|... .. .. ....|... .. .. ....
----- ORDER 11
00 |G-3 00 .. ....|G-3 02 .. 8080 E590|C-6 03 .. ....|C-5 04 .. ....
01 |... .. .. ....|... .. .. .... ....|... .. .. ....|... .. .. ....
02 |G-2 00 .. ....|G-4 .. .. 8000 ....|G-2 01 .. ....|... .. .. ....
03 |... .. .. ....|... .. .. .... ....|... .. .. ....|... .. .. ....
04 |G-3 00 .. ....|G-3 .. .. 8080 ....|C-6 03 .. ....|C-5 04 .. ....
05 |... .. .. ....|... .. .. .... ....|... .. .. ....|... .. .. ....
06 |G-2 00 .. ....|G-4 .. .. 80FF ....|G-2 01 .. ....|... .. .. ....
07 |... .. .. ....|... .. .. .... ....|... .. .. ....|... .. .. ....
08 |G-3 00 .. ....|G-3 .. .. 8080 ....|C-6 03 .. ....|C-5 04 .. ....
09 |... .. .. ....|... .. .. .... ....|... .. .. ....|... .. .. ....
0A |G-2 00 .. ....|G-4 .. .. 8000 ....|G-2 01 .. ....|... .. .. ....
0B |... .. .. ....|... .. .. .... ....|... .. .. ....|... .. .. ....
0C |G-3 00 .. ....|G-3 .. .. 8080 ....|C-6 03 .. ....|C-5 04 .. ....
0D |... .. .. ....|... .. .. .... ....|... .. .. ....|... .. .. ....
0E |G-2 00 .. ....|G-4 .. .. 80FF ....|G-2 01 .. ....|... .. .. ....
0F |... .. .. ....|... .. .. .... ....|... .. .. ....|... .. .. ....
10 |A-3 00 .. ....|A-3 .. .. 8080 ....|C-6 03 .. ....|C-5 04 .. ....
11 |... .. .. ....|... .. .. .... ....|... .. .. ....|... .. .. ....
12 |A-2 00 .. ....|A-4 .. .. 8000 ....|A-2 01 .. ....|... .. .. ....
13 |... .. .. ....|... .. .. .... ....|... .. .. ....|... .. .. ....
14 |A-3 00 .. ....|A-3 .. .. 8080 ....|C-6 03 .. ....|C-5 04 .. ....
15 |... .. .. ....|... .. .. .... ....|... .. .. ....|... .. .. ....
16 |A-2 00 .. ....|A-4 .. .. 80FF ....|A-2 01 .. ....|... .. .. ....
17 |... .. .. ....|... .. .. .... ....|... .. .. ....|... .. .. ....
18 |A-3 00 .. ....|A-3 .. .. 8080 ....|C-6 03 .. ....|C-5 04 .. ....
19 |... .. .. ....|... .. .. .... ....|... .. .. ....|... .. .. ....
1A |A-2 00 .. ....|A-4 .. .. 8000 ....|A-2 01 .. ....|... .. .. ....
1B |... .. .. ....|... .. .. .... ....|... .. .. ....|... .. .. ....
1C |A-3 00 .. ....|A-3 .. .. 8080 ....|C-6 03 .. ....|C-5 04 .. ....
1D |... .. .. ....|... .. .. .... ....|... .. .. ....|... .. .. ....
1E |A-2 00 .. ....|A-4 .. .. 80FF ....|A-2 01 .. ....|... .. .. ....
1F |... .. .. ....|... .. .. .... ....|... .. .. ....|... .. .. ....
20 |E-3 00 .. ....|E-3 .. .. 8080 ....|C-6 03 .. ....|C-5 04 .. ....
21 |... .. .. ....|... .. .. .... ....|... .. .. ....|... .. .. ....
22 |E-2 00 .. ....|E-4 .. .. 8000 ....|E-2 01 .. ....|... .. .. ....
23 |... .. .. ....|... .. .. .... ....|... .. .. ....|... .. .. ....
24 |E-3 00 .. ....|E-3 .. .. 8080 ....|C-6 03 .. ....|C-5 04 .. ....
25 |... .. .. ....|... .. .. .... ....|... .. .. ....|... .. .. ....
26 |E-2 00 .. ....|E-4 .. .. 80FF ....|E-2 01 .. ....|... .. .. ....
27 |... .. .. ....|... .. .. .... ....|... .. .. ....|... .. .. ....
28 |E-3 00 .. ....|E-3 .. .. 8080 ....|C-6 03 .. ....|C-5 04 .. ....
29 |... .. .. ....|... .. .. .... ....|... .. .. ....|... .. .. ....
2A |E-2 00 .. ....|E-4 .. .. 8000 ....|E-2 01 .. ....|... .. .. ....
2B |... .. .. ....|... .. .. .... ....|... .. .. ....|... .. .. ....
2C |E-3 00 .. ....|E-3 .. .. 8080 ....|C-6 03 .. ....|C-5 04 .. ....
2D |... .. .. ....|... .. .. .... ....|... .. .. ....|... .. .. ....
2E |E-2 00 .. ....|E-4 .. .. 80FF ....|E-2 01 .. ....|... .. .. ....
2F |... .. .. ....|... .. .. .... ....|... .. .. ....|... .. .. ....
30 |C-3 00 .. ....|C-3 .. .. 8080 ....|C-6 03 .. ....|C-5 04 .. ....
31 |... .. .. ....|... .. .. .... ....|... .. .. ....|... .. .. ....
32 |C-2 00 .. ....|C-4 .. .. 8000 ....|C-2 01 .. ....|... .. .. ....
33 |... .. .. ....|... .. .. .... ....|... .. .. ....|... .. .. ....
34 |C-3 00 .. ....|C-3 .. .. 8080 ....|C-6 03 .. ....|C-5 04 .. ....
35 |... .. .. ....|... .. .. .... ....|... .. .. ....|... .. .. ....
36 |C-2 00 .. ....|C-4 .. .. 80FF ....|C-2 01 .. ....|... .. .. ....
37 |... .. .. ....|... .. .. .... ....|... .. .. ....|... .. .. ....
38 |C-3 00 .. ....|C-3 .. .. 8080 ....|C-6 03 .. ....|C-5 04 .. ....
39 |... .. .. ....|... .. .. .... ....|... .. .. ....|... .. .. ....
3A |C-2 00 .. ....|C-4 .. .. 8000 ....|C-2 01 .. ....|... .. .. ....
3B |... .. .. ....|... .. .. .... ....|... .. .. ....|... .. .. ....
3C |C-3 00 .. ....|C-3 .. .. 8080 ....|C-6 03 .. ....|C-5 04 .. ....
3D |... .. .. ....|... .. .. .... ....|... .. .. ....|... .. .. ....
3E |C-2 00 .. ....|C-4 .. .. 80FF ....|C-2 01 .. ....|... .. .. ....
3F |... .. .. ....|... .. .. .... ....|... .. .. ....|... .. .. ....
----- ORDER 12
00 |G-3 00 .. ....|G-3 02 .. 8080 E590|G-2 01 .. ....|OFF .. .. ....
01 |... .. .. ....|... .. .. .... ....|... .. .. ....|... .. .. ....
02 |G-2 00 .. ....|G-4 .. .. 8000 ....|... .. .. ....|... .. .. ....
03 |... .. .. ....|... .. .. .... ....|... .. .. ....|... .. .. ....
04 |G-3 00 .. ....|G-3 .. .. 8080 ....|... .. .. ....|... .. .. ....
05 |... .. .. ....|... .. .. .... ....|... .. .. ....|... .. .. ....
06 |G-2 00 .. ....|G-4 .. .. 80FF ....|... .. .. ....|... .. .. ....
07 |... .. .. ....|... .. .. .... ....|... .. .. ....|... .. .. ....
08 |G-3 00 .. ....|G-3 .. .. 8080 ....|... .. .. ....|... .. .. ....
09 |... .. .. ....|... .. .. .... ....|... .. .. ....|... .. .. ....
0A |G-2 00 .. ....|G-4 .. .. 8000 ....|... .. .. ....|... .. .. ....
0B |... .. .. ....|... .. .. .... ....|... .. .. ....|... .. .. ....
0C |G-3 00 .. ....|G-3 .. .. 8080 ....|... .. .. ....|... .. .. ....
0D |... .. .. ....|... .. .. .... ....|... .. .. ....|... .. .. ....
0E |G-2 00 .. ....|G-4 .. .. 80FF ....|... .. .. ....|... .. .. ....
0F |... .. .. ....|... .. .. .... ....|... .. .. ....|... .. .. ....
10 |A-3 00 .. ....|A-3 .. .. 8080 ....|A-2 01 .. ....|... .. .. ....
11 |... .. .. ....|... .. .. .... ....|... .. .. ....|... .. .. ....
12 |A-2 00 .. ....|A-4 .. .. 8000 ....|... .. .. ....|... .. .. ....
13 |... .. .. ....|... .. .. .... ....|... .. .. ....|... .. .. ....
14 |A-3 00 .. ....|A-3 .. .. 8080 ....|... .. .. ....|... .. .. ....
15 |... .. .. ....|... .. .. .... ....|... .. .. ....|... .. .. ....
16 |A-2 00 .. ....|A-4 .. .. 80FF ....|... .. .. ....|... .. .. ....
17 |... .. .. ....|... .. .. .... ....|... .. .. ....|... .. .. ....
18 |A-3 00 .. ....|A-3 .. .. 8080 ....|... .. .. ....|... .. .. ....
19 |... .. .. ....|... .. .. .... ....|... .. .. ....|... .. .. ....
1A |A-2 00 .. ....|A-4 .. .. 8000 ....|... .. .. ....|... .. .. ....
1B |... .. .. ....|... .. .. .... ....|... .. .. ....|... .. .. ....
1C |A-3 00 .. ....|A-3 .. .. 8080 ....|... .. .. ....|... .. .. ....
1D |... .. .. ....|... .. .. .... ....|... .. .. ....|... .. .. ....
1E |A-2 00 .. ....|A-4 .. .. 80FF ....|... .. .. ....|... .. .. ....
1F |... .. .. ....|... .. .. .... ....|... .. .. ....|... .. .. ....
20 |E-3 00 .. ....|E-3 .. .. 8080 ....|E-2 01 .. ....|... .. .. ....
21 |... .. .. ....|... .. .. .... ....|... .. .. ....|... .. .. ....
22 |E-2 00 .. ....|E-4 .. .. 8000 ....|... .. .. ....|... .. .. ....
23 |... .. .. ....|... .. .. .... ....|... .. .. ....|... .. .. ....
24 |E-3 00 .. ....|E-3 .. .. 8080 ....|... .. .. ....|... .. .. ....
25 |... .. .. ....|... .. .. .... ....|... .. .. ....|... .. .. ....
26 |E-2 00 .. ....|E-4 .. .. 80FF ....|... .. .. ....|... .. .. ....
27 |... .. .. ....|... .. .. .... ....|... .. .. ....|... .. .. ....
28 |E-3 00 .. ....|E-3 .. .. 8080 ....|... .. .. ....|... .. .. ....
29 |... .. .. ....|... .. .. .... ....|... .. .. ....|... .. .. ....
2A |E-2 00 .. ....|E-4 .. .. 8000 ....|... .. .. ....|... .. .. ....
2B |... .. .. ....|... .. .. .... ....|... .. .. ....|... .. .. ....
2C |E-3 00 .. ....|E-3 .. .. 8080 ....|... .. .. ....|... .. .. ....
2D |... .. .. ....|... .. .. .... ....|... .. .. ....|... .. .. ....
2E |E-2 00 .. ....|E-4 .. .. 80FF ....|... .. .. ....|... .. .. ....
2F |... .. .. ....|... .. .. .... ....|... .. .. ....|... .. .. ....
30 |C-3 00 .. ....|C-3 .. .. 8080 ....|C-2 01 .. ....|... .. .. ....
31 |... .. .. ....|... .. .. .... ....|... .. .. ....|... .. .. ....
32 |C-2 00 .. ....|C-4 .. .. 8000 ....|... .. .. ....|... .. .. ....
33 |... .. .. ....|... .. .. .... ....|... .. .. ....|... .. .. ....
34 |C-3 00 .. ....|C-3 .. .. 8080 ....|... .. .. ....|... .. .. ....
35 |... .. .. ....|... .. .. .... ....|... .. .. ....|... .. .. ....
36 |C-2 00 .. ....|C-4 .. .. 80FF ....|... .. .. ....|... .. .. ....
37 |... .. .. ....|... .. .. .... ....|... .. .. ....|... .. .. ....
38 |C-3 00 .. ....|C-3 .. .. 8080 ....|... .. .. ....|... .. .. ....
39 |... .. .. ....|... .. .. .... ....|... .. .. ....|... .. .. ....
3A |C-2 00 .. ....|C-4 .. .. 8000 ....|... .. .. ....|... .. .. ....
3B |... .. .. ....|... .. .. .... ....|... .. .. ....|... .. .. ....
3C |C-3 00 .. ....|C-3 .. .. 8080 ....|... .. .. ....|... .. .. ....
3D |... .. .. ....|... .. .. .... ....|... .. .. ....|... .. .. ....
3E |C-2 00 .. ....|C-4 .. .. 80FF ....|... .. .. ....|... .. .. ....
3F |... .. .. ....|... .. .. .... ....|... .. .. ....|... .. .. ....
----- ORDER 13
00 |G-3 00 .. ....|G-3 02 .. 8080 E590|C-6 03 .. ....|C-5 05 .. ....
01 |... .. .. ....|... .. .. .... ....|... .. .. ....|... .. .. ....
02 |G-2 00 .. ....|G-4 .. .. 8000 ....|G-2 01 .. ....|... .. .. ....
03 |... .. .. ....|... .. .. .... ....|... .. .. ....|... .. .. ....
04 |G-3 00 .. ....|G-3 .. .. 8080 ....|... .. .. ....|... .. .. ....
05 |... .. .. ....|... .. .. .... ....|... .. .. ....|... .. .. ....
06 |G-2 00 .. ....|G-4 .. .. 80FF ....|... .. .. ....|... .. .. ....
07 |... .. .. ....|... .. .. .... ....|... .. .. ....|... .. .. ....
08 |G-3 00 .. ....|G-3 .. .. 8080 ....|... .. .. ....|... .. .. ....
09 |... .. .. ....|... .. .. .... ....|... .. .. ....|... .. .. ....
0A |G-2 00 .. ....|G-4 .. .. 8000 ....|... .. .. ....|... .. .. ....
0B |... .. .. ....|... .. .. .... ....|... .. .. ....|... .. .. ....
0C |G-3 00 .. ....|G-3 .. .. 8080 ....|... .. .. ....|... .. .. ....
0D |... .. .. ....|... .. .. .... ....|... .. .. ....|... .. .. ....
0E |G-2 00 .. ....|G-4 .. .. 80FF ....|... .. .. ....|... .. .. ....
0F |... .. .. ....|... .. .. .... ....|... .. .. ....|... .. .. ....
10 |A-3 00 .. ....|A-3 .. .. 8080 ....|C-6 03 .. ....|C-5 04 .. ....
11 |... .. .. ....|... .. .. .... ....|... .. .. ....|... .. .. ....
12 |A-2 00 .. ....|A-4 .. .. 8000 ....|A-2 01 .. ....|... .. .. ....
13 |... .. .. ....|... .. .. .... ....|... .. .. ....|... .. .. ....
14 |A-3 00 .. ....|A-3 .. .. 8080 ....|... .. .. ....|... .. .. ....
15 |... .. .. ....|... .. .. .... ....|... .. .. ....|... .. .. ....
16 |A-2 00 .. ....|A-4 .. .. 80FF ....|... .. .. ....|... .. .. ....
17 |... .. .. ....|... .. .. .... ....|... .. .. ....|... .. .. ....
18 |A-3 00 .. ....|A-3 .. .. 8080 ....|... .. .. ....|... .. .. ....
19 |... .. .. ....|... .. .. .... ....|... .. .. ....|... .. .. ....
1A |A-2 00 .. ....|A-4 .. .. 8000 ....|... .. .. ....|... .. .. ....
1B |... .. .. ....|... .. .. .... ....|... .. .. ....|... .. .. ....
1C |A-3 00 .. ....|A-3 .. .. 8080 ....|... .. .. ....|... .. .. ....
1D |... .. .. ....|... .. .. .... ....|... .. .. ....|... .. .. ....
1E |A-2 00 .. ....|A-4 .. .. 80FF ....|... .. .. ....|... .. .. ....
1F |... .. .. ....|... .. .. .... ....|... .. .. ....|... .. .. ....
20 |E-3 00 .. ....|E-3 .. .. 8080 ....|C-6 03 .. ....|C-5 04 .. ....
21 |... .. .. ....|... .. .. .... ....|... .. .. ....|... .. .. ....
22 |E-2 00 .. ....|E-4 .. .. 8000 ....|E-2 01 .. ....|... .. .. ....
23 |... .. .. ....|... .. .. .... ....|... .. .. ....|... .. .. ....
24 |E-3 00 .. ....|E-3 .. .. 8080 ....|... .. .. ....|... .. .. ....
25 |... .. .. ....|... .. .. .... ....|... .. .. ....|... .. .. ....
26 |E-2 00 .. ....|E-4 .. .. 80FF ....|... .. .. ....|... .. .. ....
27 |... .. .. ....|... .. .. .... ....|... .. .. ....|... .. .. ....
28 |E-3 00 .. ....|E-3 .. .. 8080 ....|... .. .. ....|... .. .. ....
29 |... .. .. ....|... .. .. .... ....|... .. .. ....|... .. .. ....
2A |E-2 00 .. ....|E-4 .. .. 8000 ....|... .. .. ....|... .. .. ....
2B |... .. .. ....|... .. .. .... ....|... .. .. ....|... .. .. ....
2C |E-3 00 .. ....|E-3 .. .. 8080 ....|... .. .. ....|... .. .. ....
2D |... .. .. ....|... .. .. .... ....|... .. .. ....|... .. .. ....
2E |E-2 00 .. ....|E-4 .. .. 80FF ....|... .. .. ....|... .. .. ....
2F |... .. .. ....|... .. .. .... ....|... .. .. ....|... .. .. ....
30 |C-3 00 .. ....|C-3 .. .. 8080 ....|C-6 03 .. ....|C-5 04 .. ....
31 |... .. .. ....|... .. .. .... ....|... .. .. ....|... .. .. ....
32 |C-2 00 .. ....|C-4 .. .. 8000 ....|C-2 01 .. ....|... .. .. ....
33 |... .. .. ....|... .. .. .... ....|... .. .. ....|... .. .. ....
34 |C-3 00 .. ....|C-3 .. .. 8080 ....|... .. .. ....|... .. .. ....
35 |... .. .. ....|... .. .. .... ....|... .. .. ....|... .. .. ....
36 |C-2 00 .. ....|C-4 .. .. 80FF ....|... .. .. ....|... .. .. ....
37 |... .. .. ....|... .. .. .... ....|... .. .. ....|... .. .. ....
38 |C-3 00 .. ....|C-3 .. .. 8080 ....|... .. .. ....|... .. .. ....
39 |... .. .. ....|... .. .. .... ....|... .. .. ....|... .. .. ....
3A |C-2 00 .. ....|C-4 .. .. 8000 ....|... .. .. ....|... .. .. ....
3B |... .. .. ....|... .. .. .... ....|... .. .. ....|... .. .. ....
3C |C-3 00 .. ....|C-3 .. .. 8080 ....|... .. .. ....|... .. .. ....
3D |... .. .. ....|... .. .. .... ....|... .. .. ....|... .. .. ....
3E |C-2 00 .. ....|C-4 .. .. 80FF ....|... .. .. ....|... .. .. ....
3F |... .. .. ....|... .. .. .... ....|... .. .. ....|... .. .. ....
----- ORDER 14
00 |G-3 00 .. ....|G-3 02 .. 8080 E590|C-6 03 .. ....|C-5 04 .. ....
01 |... .. .. ....|... .. .. .... ....|... .. .. ....|... .. .. ....
02 |G-2 00 .. ....|G-4 .. .. 8000 ....|G-2 01 .. ....|... .. .. ....
03 |... .. .. ....|... .. .. .... ....|... .. .. ....|... .. .. ....
04 |G-3 00 .. ....|G-3 .. .. 8080 ....|... .. .. ....|... .. .. ....
05 |... .. .. ....|... .. .. .... ....|... .. .. ....|... .. .. ....
06 |G-2 00 .. ....|G-4 .. .. 80FF ....|... .. .. ....|... .. .. ....
07 |... .. .. ....|... .. .. .... ....|... .. .. ....|... .. .. ....
08 |G-3 00 .. ....|G-3 .. .. 8080 ....|C-6 03 .. ....|C-5 04 .. ....
09 |... .. .. ....|... .. .. .... ....|... .. .. ....|... .. .. ....
0A |G-2 00 .. ....|G-4 .. .. 8000 ....|G-2 01 .. ....|... .. .. ....
0B |... .. .. ....|... .. .. .... ....|... .. .. ....|... .. .. ....
0C |G-3 00 .. ....|G-3 .. .. 8080 ....|... .. .. ....|... .. .. ....
0D |... .. .. ....|... .. .. .... ....|... .. .. ....|... .. .. ....
0E |G-2 00 .. ....|G-4 .. .. 80FF ....|... .. .. ....|... .. .. ....
0F |... .. .. ....|... .. .. .... ....|... .. .. ....|... .. .. ....
10 |A-3 00 .. ....|A-3 .. .. 8080 ....|C-6 03 .. ....|C-5 04 .. ....
11 |... .. .. ....|... .. .. .... ....|... .. .. ....|... .. .. ....
12 |A-2 00 .. ....|A-4 .. .. 8000 ....|A-2 01 .. ....|... .. .. ....
13 |... .. .. ....|... .. .. .... ....|... .. .. ....|... .. .. ....
14 |A-3 00 .. ....|A-3 .. .. 8080 ....|... .. .. ....|... .. .. ....
15 |... .. .. ....|... .. .. .... ....|... .. .. ....|... .. .. ....
16 |A-2 00 .. ....|A-4 .. .. 80FF ....|... .. .. ....|... .. .. ....
17 |... .. .. ....|... .. .. .... ....|... .. .. ....|... .. .. ....
18 |A-3 00 .. ....|A-3 .. .. 8080 ....|C-6 03 .. ....|C-5 04 .. ....
19 |... .. .. ....|... .. .. .... ....|... .. .. ....|... .. .. ....
1A |A-2 00 .. ....|A-4 .. .. 8000 ....|A-2 01 .. ....|... .. .. ....
1B |... .. .. ....|... .. .. .... ....|... .. .. ....|... .. .. ....
1C |A-3 00 .. ....|A-3 .. .. 8080 ....|... .. .. ....|... .. .. ....
1D |... .. .. ....|... .. .. .... ....|... .. .. ....|... .. .. ....
1E |A-2 00 .. ....|A-4 .. .. 80FF ....|... .. .. ....|... .. .. ....
1F |... .. .. ....|... .. .. .... ....|... .. .. ....|... .. .. ....
20 |E-3 00 .. ....|E-3 .. .. 8080 ....|C-6 03 .. ....|C-5 04 .. ....
21 |... .. .. ....|... .. .. .... ....|... .. .. ....|... .. .. ....
22 |E-2 00 .. ....|E-4 .. .. 8000 ....|E-2 01 .. ....|... .. .. ....
23 |... .. .. ....|... .. .. .... ....|... .. .. ....|... .. .. ....
24 |E-3 00 .. ....|E-3 .. .. 8080 ....|C-6 03 .. ....|C-5 04 .. ....
25 |... .. .. ....|... .. .. .... ....|... .. .. ....|... .. .. ....
26 |E-2 00 .. ....|E-4 .. .. 80FF ....|E-2 01 .. ....|... .. .. ....
27 |... .. .. ....|... .. .. .... ....|... .. .. ....|... .. .. ....
28 |E-3 00 .. ....|E-3 .. .. 8080 ....|C-6 03 .. ....|C-5 04 .. ....
29 |... .. .. ....|... .. .. .... ....|... .. .. ....|... .. .. ....
2A |E-2 00 .. ....|E-4 .. .. 8000 ....|E-2 01 .. ....|... .. .. ....
2B |... .. .. ....|... .. .. .... ....|... .. .. ....|... .. .. ....
2C |E-3 00 .. ....|E-3 .. .. 8080 ....|C-6 03 .. ....|C-5 04 .. ....
2D |... .. .. ....|... .. .. .... ....|... .. .. ....|... .. .. ....
2E |E-2 00 .. ....|E-4 .. .. 80FF ....|E-2 01 .. ....|... .. .. ....
2F |... .. .. ....|... .. .. .... ....|... .. .. ....|... .. .. ....
30 |C-3 00 .. ....|C-3 .. .. 8080 ....|C-6 03 .. ....|C-5 04 .. ....
31 |... .. .. ....|... .. .. .... ....|C-2 01 .. ....|... .. .. ....
32 |C-2 00 .. ....|C-4 .. .. 8000 ....|C-6 03 .. ....|C-5 04 .. ....
33 |... .. .. ....|... .. .. .... ....|C-2 01 .. ....|... .. .. ....
34 |C-3 00 .. ....|C-3 .. .. 8080 ....|C-6 03 .. ....|C-5 04 .. ....
35 |... .. .. ....|... .. .. .... ....|C-2 01 .. ....|... .. .. ....
36 |C-2 00 .. ....|C-4 .. .. 80FF ....|C-6 03 .. ....|C-5 04 .. ....
37 |... .. .. ....|... .. .. .... ....|C-2 01 .. ....|... .. .. ....
38 |C-3 00 .. ....|C-3 .. .. 8080 ....|C-6 03 .. ....|C-5 04 .. ....
39 |... .. .. ....|... .. .. .... ....|C-6 03 .. ....|C-5 04 .. ....
3A |C-2 00 .. ....|C-4 .. .. 8000 ....|C-6 03 .. ....|C-5 04 .. ....
3B |... .. .. ....|... .. .. .... ....|C-6 03 .. ....|C-5 04 .. ....
3C |C-3 00 .. ....|C-3 .. .. 8080 ....|C-6 03 .. ....|C-5 04 .. ....
3D |... .. .. ....|... .. .. .... ....|C-6 03 .. ....|C-5 04 .. ....
3E |C-2 00 .. ....|C-4 .. .. 80FF ....|C-6 03 .. ....|C-5 04 .. ....
3F |... .. .. ....|... .. .. .... ....|C-6 03 .. ....|C-5 04 .. ....
----- ORDER 15
00 |G-3 00 .. ....|G-3 02 .. 8080 E590|C-6 03 .. ....|C-5 05 .. ....
01 |... .. .. ....|... .. .. .... ....|... .. .. ....|... .. .. ....
02 |G-2 00 .. ....|G-4 .. .. 8000 ....|G-2 01 .. ....|... .. .. ....
03 |... .. .. ....|... .. .. .... ....|... .. .. ....|... .. .. ....
04 |G-3 00 .. ....|G-3 .. .. 8080 ....|C-6 03 .. ....|C-5 04 .. ....
05 |... .. .. ....|... .. .. .... ....|... .. .. ....|... .. .. ....
06 |G-2 00 .. ....|G-4 .. .. 80FF ....|G-2 01 .. ....|... .. .. ....
07 |... .. .. ....|... .. .. .... ....|... .. .. ....|... .. .. ....
08 |G-3 00 .. ....|G-3 .. .. 8080 ....|C-6 03 .. ....|C-5 04 .. ....
09 |... .. .. ....|... .. .. .... ....|... .. .. ....|... .. .. ....
0A |G-2 00 .. ....|G-4 .. .. 8000 ....|G-2 01 .. ....|... .. .. ....
0B |... .. .. ....|... .. .. .... ....|... .. .. ....|... .. .. ....
0C |G-3 00 .. ....|G-3 .. .. 8080 ....|C-6 03 .. ....|C-5 04 .. ....
0D |... .. .. ....|... .. .. .... ....|... .. .. ....|... .. .. ....
0E |G-2 00 .. ....|G-4 .. .. 80FF ....|G-2 01 .. ....|... .. .. ....
0F |... .. .. ....|... .. .. .... ....|... .. .. ....|... .. .. ....
10 |A-3 00 .. ....|A-3 .. .. 8080 ....|C-6 03 .. ....|C-5 04 .. ....
11 |... .. .. ....|... .. .. .... ....|... .. .. ....|... .. .. ....
12 |A-2 00 .. ....|A-4 .. .. 8000 ....|A-2 01 .. ....|... .. .. ....
13 |... .. .. ....|... .. .. .... ....|... .. .. ....|... .. .. ....
14 |A-3 00 .. ....|A-3 .. .. 8080 ....|C-6 03 .. ....|C-5 04 .. ....
15 |... .. .. ....|... .. .. .... ....|... .. .. ....|... .. .. ....
16 |A-2 00 .. ....|A-4 .. .. 80FF ....|A-2 01 .. ....|... .. .. ....
17 |... .. .. ....|... .. .. .... ....|... .. .. ....|... .. .. ....
18 |A-3 00 .. ....|A-3 .. .. 8080 ....|C-6 03 .. ....|C-5 04 .. ....
19 |... .. .. ....|... .. .. .... ....|... .. .. ....|... .. .. ....
1A |A-2 00 .. ....|A-4 .. .. 8000 ....|A-2 01 .. ....|... .. .. ....
1B |... .. .. ....|... .. .. .... ....|... .. .. ....|... .. .. ....
1C |A-3 00 .. ....|A-3 .. .. 8080 ....|C-6 03 .. ....|C-5 04 .. ....
1D |... .. .. ....|... .. .. .... ....|... .. .. ....|... .. .. ....
1E |A-2 00 .. ....|A-4 .. .. 80FF ....|A-2 01 .. ....|... .. .. ....
1F |... .. .. ....|... .. .. .... ....|... .. .. ....|... .. .. ....
20 |E-3 00 .. ....|E-3 .. .. 8080 ....|C-6 03 .. ....|C-5 04 .. ....
21 |... .. .. ....|... .. .. .... ....|... .. .. ....|... .. .. ....
22 |E-2 00 .. ....|E-4 .. .. 8000 ....|E-2 01 .. ....|... .. .. ....
23 |... .. .. ....|... .. .. .... ....|... .. .. ....|... .. .. ....
24 |E-3 00 .. ....|E-3 .. .. 8080 ....|C-6 03 .. ....|C-5 04 .. ....
25 |... .. .. ....|... .. .. .... ....|... .. .. ....|... .. .. ....
26 |E-2 00 .. ....|E-4 .. .. 80FF ....|E-2 01 .. ....|... .. .. ....
27 |... .. .. ....|... .. .. .... ....|... .. .. ....|... .. .. ....
28 |E-3 00 .. ....|E-3 .. .. 8080 ....|C-6 03 .. ....|C-5 04 .. ....
29 |... .. .. ....|... .. .. .... ....|... .. .. ....|... .. .. ....
2A |E-2 00 .. ....|E-4 .. .. 8000 ....|E-2 01 .. ....|... .. .. ....
2B |... .. .. ....|... .. .. .... ....|... .. .. ....|... .. .. ....
2C |E-3 00 .. ....|E-3 .. .. 8080 ....|C-6 03 .. ....|C-5 04 .. ....
2D |... .. .. ....|... .. .. .... ....|... .. .. ....|... .. .. ....
2E |E-2 00 .. ....|E-4 .. .. 80FF ....|E-2 01 .. ....|... .. .. ....
2F |... .. .. ....|... .. .. .... ....|... .. .. ....|... .. .. ....
30 |C-3 00 .. ....|C-3 .. .. 8080 ....|C-6 03 .. ....|C-5 04 .. ....
31 |... .. .. ....|... .. .. .... ....|... .. .. ....|... .. .. ....
32 |C-2 00 .. ....|C-4 .. .. 8000 ....|C-2 01 .. ....|... .. .. ....
33 |... .. .. ....|... .. .. .... ....|... .. .. ....|... .. .. ....
34 |C-3 00 .. ....|C-3 .. .. 8080 ....|C-6 03 .. ....|C-5 04 .. ....
35 |... .. .. ....|... .. .. .... ....|... .. .. ....|... .. .. ....
36 |C-2 00 .. ....|C-4 .. .. 80FF ....|C-2 01 .. ....|... .. .. ....
37 |... .. .. ....|... .. .. .... ....|... .. .. ....|... .. .. ....
38 |C-3 00 .. ....|C-3 .. .. 8080 ....|C-6 03 .. ....|C-5 04 .. ....
39 |... .. .. ....|... .. .. .... ....|... .. .. ....|... .. .. ....
3A |C-2 00 .. ....|C-4 .. .. 8000 ....|C-2 01 .. ....|... .. .. ....
3B |... .. .. ....|... .. .. .... ....|... .. .. ....|... .. .. ....
3C |C-3 00 .. ....|C-3 .. .. 8080 ....|C-6 03 .. ....|C-5 04 .. ....
3D |... .. .. ....|... .. .. .... ....|... .. .. ....|... .. .. ....
3E |C-2 00 .. ....|C-4 .. .. 80FF ....|C-2 01 .. ....|... .. .. ....
3F |... .. .. ....|... .. .. .... ....|... .. .. ....|... .. .. ....
----- ORDER 16
00 |G-3 00 .. ....|G-3 02 .. 8080 E590|C-6 03 .. ....|C-5 04 .. ....
01 |... .. .. ....|... .. .. .... ....|... .. .. ....|... .. .. ....
02 |G-2 00 .. ....|G-4 .. .. 8000 ....|G-2 01 .. ....|... .. .. ....
03 |... .. .. ....|... .. .. .... ....|... .. .. ....|... .. .. ....
04 |G-3 00 .. ....|G-3 .. .. 8080 ....|C-6 03 .. ....|C-5 04 .. ....
05 |... .. .. ....|... .. .. .... ....|... .. .. ....|... .. .. ....
06 |G-2 00 .. ....|G-4 .. .. 80FF ....|G-2 01 .. ....|... .. .. ....
07 |... .. .. ....|... .. .. .... ....|... .. .. ....|... .. .. ....
08 |G-3 00 .. ....|G-3 .. .. 8080 ....|C-6 03 .. ....|C-5 04 .. ....
09 |... .. .. ....|... .. .. .... ....|... .. .. ....|... .. .. ....
0A |G-2 00 .. ....|G-4 .. .. 8000 ....|G-2 01 .. ....|... .. .. ....
0B |... .. .. ....|... .. .. .... ....|... .. .. ....|... .. .. ....
0C |G-3 00 .. ....|G-3 .. .. 8080 ....|C-6 03 .. ....|C-5 04 .. ....
0D |... .. .. ....|... .. .. .... ....|... .. .. ....|... .. .. ....
0E |G-2 00 .. ....|G-4 .. .. 80FF ....|G-2 01 .. ....|... .. .. ....
0F |... .. .. ....|... .. .. .... ....|... .. .. ....|... .. .. ....
10 |A-3 00 .. ....|A-3 .. .. 8080 ....|C-6 03 .. ....|C-5 04 .. ....
11 |... .. .. ....|... .. .. .... ....|... .. .. ....|... .. .. ....
12 |A-2 00 .. ....|A-4 .. .. 8000 ....|A-2 01 .. ....|... .. .. ....
13 |... .. .. ....|... .. .. .... ....|... .. .. ....|... .. .. ....
14 |A-3 00 .. ....|A-3 .. .. 8080 ....|C-6 03 .. ....|C-5 04 .. ....
15 |... .. .. ....|... .. .. .... ....|... .. .. ....|... .. .. ....
16 |A-2 00 .. ....|A-4 .. .. 80FF ....|A-2 01 .. ....|... .. .. ....
17 |... .. .. ....|... .. .. .... ....|... .. .. ....|... .. .. ....
18 |A-3 00 .. ....|A-3 .. .. 8080 ....|C-6 03 .. ....|C-5 04 .. ....
19 |... .. .. ....|... .. .. .... ....|... .. .. ....|... .. .. ....
1A |A-2 00 .. ....|A-4 .. .. 8000 ....|A-2 01 .. ....|... .. .. ....
1B |... .. .. ....|... .. .. .... ....|... .. .. ....|... .. .. ....
1C |A-3 00 .. ....|A-3 .. .. 8080 ....|C-6 03 .. ....|C-5 04 .. ....
1D |... .. .. ....|... .. .. .... ....|... .. .. ....|... .. .. ....
1E |A-2 00 .. ....|A-4 .. .. 80FF ....|A-2 01 .. ....|... .. .. ....
1F |... .. .. ....|... .. .. .... ....|... .. .. ....|... .. .. ....
20 |E-3 00 .. ....|E-3 .. .. 8080 ....|C-6 03 .. ....|C-5 04 .. ....
21 |... .. .. ....|... .. .. .... ....|... .. .. ....|... .. .. ....
22 |E-2 00 .. ....|E-4 .. .. 8000 ....|E-2 01 .. ....|... .. .. ....
23 |... .. .. ....|... .. .. .... ....|... .. .. ....|... .. .. ....
24 |E-3 00 .. ....|E-3 .. .. 8080 ....|C-6 03 .. ....|C-5 04 .. ....
25 |... .. .. ....|... .. .. .... ....|... .. .. ....|... .. .. ....
26 |E-2 00 .. ....|E-4 .. .. 80FF ....|E-2 01 .. ....|... .. .. ....
27 |... .. .. ....|... .. .. .... ....|... .. .. ....|... .. .. ....
28 |E-3 00 .. ....|E-3 .. .. 8080 ....|C-6 03 .. ....|C-5 04 .. ....
29 |... .. .. ....|... .. .. .... ....|... .. .. ....|... .. .. ....
2A |E-2 00 .. ....|E-4 .. .. 8000 ....|E-2 01 .. ....|... .. .. ....
2B |... .. .. ....|... .. .. .... ....|... .. .. ....|... .. .. ....
2C |E-3 00 .. ....|E-3 .. .. 8080 ....|C-6 03 .. ....|C-5 04 .. ....
2D |... .. .. ....|... .. .. .... ....|... .. .. ....|... .. .. ....
2E |E-2 00 .. ....|E-4 .. .. 80FF ....|E-2 01 .. ....|... .. .. ....
2F |... .. .. ....|... .. .. .... ....|... .. .. ....|... .. .. ....
30 |C-3 00 .. ....|C-3 .. .. 8080 ....|C-6 03 .. ....|C-5 04 .. ....
31 |... .. .. ....|... .. .. .... ....|... .. .. ....|... .. .. ....
32 |C-2 00 .. ....|C-4 .. .. 8000 ....|C-2 01 .. ....|... .. .. ....
33 |... .. .. ....|... .. .. .... ....|... .. .. ....|... .. .. ....
34 |C-3 00 .. ....|C-3 .. .. 8080 ....|C-6 03 .. ....|C-5 04 .. ....
35 |... .. .. ....|... .. .. .... ....|... .. .. ....|... .. .. ....
36 |C-2 00 .. ....|C-4 .. .. 80FF ....|C-2 01 .. ....|... .. .. ....
37 |... .. .. ....|... .. .. .... ....|... .. .. ....|... .. .. ....
38 |C-3 00 .. ....|C-3 .. .. 8080 ....|C-6 03 .. ....|C-5 04 .. ....
39 |... .. .. ....|... .. .. .... ....|... .. .. ....|... .. .. ....
3A |C-2 00 .. ....|C-4 .. .. 8000 ....|C-2 01 .. ....|... .. .. ....
3B |... .. .. ....|... .. .. .... ....|... .. .. ....|... .. .. ....
3C |C-3 00 .. ....|C-3 .. .. 8080 ....|C-6 03 .. ....|C-5 04 .. ....
3D |... .. .. ....|... .. .. .... ....|... .. .. ....|... .. .. ....
3E |C-2 00 .. ....|C-4 .. .. 80FF ....|C-2 01 .. ....|... .. .. ....
3F |... .. .. ....|... .. .. .... ....|... .. .. ....|... .. .. ....
----- ORDER 17
00 |G-3 00 .. ....|G-3 02 .. 8080 E590|C-6 03 .. ....|C-5 05 .. ....
01 |... .. .. ....|... .. .. .... ....|... .. .. ....|... .. .. ....
02 |G-2 00 .. ....|G-4 .. .. 8000 ....|G-2 01 .. ....|... .. .. ....
03 |... .. .. ....|... .. .. .... ....|... .. .. ....|... .. .. ....
04 |G-3 00 .. ....|G-3 .. .. 8080 ....|C-6 03 .. ....|C-5 04 .. ....
05 |... .. .. ....|... .. .. .... ....|... .. .. ....|... .. .. ....
06 |G-2 00 .. ....|G-4 .. .. 80FF ....|G-2 01 .. ....|... .. .. ....
07 |... .. .. ....|... .. .. .... ....|... .. .. ....|... .. .. ....
08 |G-3 00 .. ....|G-3 .. .. 8080 ....|C-6 03 .. ....|C-5 04 .. ....
09 |... .. .. ....|... .. .. .... ....|... .. .. ....|... .. .. ....
0A |G-2 00 .. ....|G-4 .. .. 8000 ....|G-2 01 .. ....|... .. .. ....
0B |... .. .. ....|... .. .. .... ....|... .. .. ....|... .. .. ....
0C |G-3 00 .. ....|G-3 .. .. 8080 ....|C-6 03 .. ....|C-5 04 .. ....
0D |... .. .. ....|... .. .. .... ....|... .. .. ....|... .. .. ....
0E |G-2 00 .. ....|G-4 .. .. 80FF ....|G-2 01 .. ....|... .. .. ....
0F |... .. .. ....|... .. .. .... ....|... .. .. ....|... .. .. ....
10 |A-3 00 .. ....|A-3 .. .. 8080 ....|C-6 03 .. ....|C-5 04 .. ....
11 |... .. .. ....|... .. .. .... ....|... .. .. ....|... .. .. ....
12 |A-2 00 .. ....|A-4 .. .. 8000 ....|A-2 01 .. ....|... .. .. ....
13 |... .. .. ....|... .. .. .... ....|... .. .. ....|... .. .. ....
14 |A-3 00 .. ....|A-3 .. .. 8080 ....|C-6 03 .. ....|C-5 04 .. ....
15 |... .. .. ....|... .. .. .... ....|... .. .. ....|... .. .. ....
16 |A-2 00 .. ....|A-4 .. .. 80FF ....|A-2 01 .. ....|... .. .. ....
17 |... .. .. ....|... .. .. .... ....|... .. .. ....|... .. .. ....
18 |A-3 00 .. ....|A-3 .. .. 8080 ....|C-6 03 .. ....|C-5 04 .. ....
19 |... .. .. ....|... .. .. .... ....|... .. .. ....|... .. .. ....
1A |A-2 00 .. ....|A-4 .. .. 8000 ....|A-2 01 .. ....|... .. .. ....
1B |... .. .. ....|... .. .. .... ....|... .. .. ....|... .. .. ....
1C |A-3 00 .. ....|A-3 .. .. 8080 ....|C-6 03 .. ....|C-5 04 .. ....
1D |... .. .. ....|... .. .. .... ....|... .. .. ....|... .. .. ....
1E |A-2 00 .. ....|A-4 .. .. 80FF ....|A-2 01 .. ....|... .. .. ....
1F |... .. .. ....|... .. .. .... ....|... .. .. ....|... .. .. ....
20 |E-3 00 .. ....|E-3 .. .. 8080 ....|C-6 03 .. ....|C-5 04 .. ....
21 |... .. .. ....|... .. .. .... ....|... .. .. ....|... .. .. ....
22 |E-2 00 .. ....|E-4 .. .. 8000 ....|E-2 01 .. ....|... .. .. ....
23 |... .. .. ....|... .. .. .... ....|... .. .. ....|... .. .. ....
24 |E-3 00 .. ....|E-3 .. .. 8080 ....|C-6 03 .. ....|C-5 04 .. ....
25 |... .. .. ....|... .. .. .... ....|... .. .. ....|... .. .. ....
26 |E-2 00 .. ....|E-4 .. .. 80FF ....|E-2 01 .. ....|... .. .. ....
27 |... .. .. ....|... .. .. .... ....|... .. .. ....|... .. .. ....
28 |E-3 00 .. ....|E-3 .. .. 8080 ....|C-6 03 .. ....|C-5 04 .. ....
29 |... .. .. ....|... .. .. .... ....|... .. .. ....|... .. .. ....
2A |E-2 00 .. ....|E-4 .. .. 8000 ....|E-2 01 .. ....|... .. .. ....
2B |... .. .. ....|... .. .. .... ....|... .. .. ....|... .. .. ....
2C |E-3 00 .. ....|E-3 .. .. 8080 ....|C-6 03 .. ....|C-5 04 .. ....
2D |... .. .. ....|... .. .. .... ....|... .. .. ....|... .. .. ....
2E |E-2 00 .. ....|E-4 .. .. 80FF ....|E-2 01 .. ....|... .. .. ....
2F |... .. .. ....|... .. .. .... ....|... .. .. ....|... .. .. ....
30 |C-3 00 .. ....|C-3 .. .. 8080 ....|C-6 03 .. ....|C-5 04 .. ....
31 |... .. .. ....|... .. .. .... ....|... .. .. ....|... .. .. ....
32 |C-2 00 .. ....|C-4 .. .. 8000 ....|C-2 01 .. ....|... .. .. ....
33 |... .. .. ....|... .. .. .... ....|... .. .. ....|... .. .. ....
34 |C-3 00 .. ....|C-3 .. .. 8080 ....|C-6 03 .. ....|C-5 04 .. ....
35 |... .. .. ....|... .. .. .... ....|... .. .. ....|... .. .. ....
36 |C-2 00 .. ....|C-4 .. .. 80FF ....|C-2 01 .. ....|... .. .. ....
37 |... .. .. ....|... .. .. .... ....|... .. .. ....|... .. .. ....
38 |C-3 00 .. ....|C-3 .. .. 8080 ....|C-6 03 .. ....|C-5 04 .. ....
39 |... .. .. ....|... .. .. .... ....|... .. .. ....|... .. .. ....
3A |C-2 00 .. ....|C-4 .. .. 8000 ....|C-2 01 .. ....|... .. .. ....
3B |... .. .. ....|... .. .. .... ....|... .. .. ....|... .. .. ....
3C |C-3 00 .. ....|C-3 .. .. 8080 ....|C-6 03 .. ....|C-5 04 .. ....
3D |... .. .. ....|... .. .. .... ....|... .. .. ....|... .. .. ....
3E |C-2 00 .. ....|C-4 .. .. 80FF ....|C-2 01 .. ....|... .. .. ....
3F |... .. .. ....|... .. .. .... ....|... .. .. ....|... .. .. ....
----- ORDER 18
00 |G-3 00 .. ....|G-3 02 .. 8080 E590|C-6 03 .. ....|C-5 05 .. ....
01 |... .. .. ....|... .. .. .... ....|... .. .. ....|... .. .. ....
02 |G-2 00 .. ....|G-4 .. .. 8000 ....|G-2 01 .. ....|... .. .. ....
03 |... .. .. ....|... .. .. .... ....|... .. .. ....|... .. .. ....
04 |G-3 00 .. ....|G-3 .. .. 8080 ....|C-6 03 .. ....|C-5 04 .. ....
05 |... .. .. ....|... .. .. .... ....|... .. .. ....|... .. .. ....
06 |G-2 00 .. ....|G-4 .. .. 80FF ....|G-2 01 .. ....|C-5 06 .. ....
07 |... .. .. ....|... .. .. .... ....|... .. .. ....|... .. .. ....
08 |G-3 00 .. ....|G-3 .. .. 8080 ....|C-6 03 .. ....|C-5 04 .. ....
09 |... .. .. ....|... .. .. .... ....|... .. .. ....|... .. .. ....
0A |G-2 00 .. ....|G-4 .. .. 8000 ....|G-2 01 .. ....|C-5 06 .. ....
0B |... .. .. ....|... .. .. .... ....|... .. .. ....|... .. .. ....
0C |G-3 00 .. ....|G-3 .. .. 8080 ....|C-6 03 .. ....|C-5 04 .. ....
0D |... .. .. ....|... .. .. .... ....|... .. .. ....|... .. .. ....
0E |G-2 00 .. ....|G-4 .. .. 80FF ....|G-2 01 .. ....|C-5 06 .. ....
0F |... .. .. ....|... .. .. .... ....|... .. .. ....|... .. .. ....
10 |A-3 00 .. ....|A-3 .. .. 8080 ....|C-6 03 .. ....|C-5 04 .. ....
11 |... .. .. ....|... .. .. .... ....|... .. .. ....|... .. .. ....
12 |A-2 00 .. ....|A-4 .. .. 8000 ....|A-2 01 .. ....|C-5 06 .. ....
13 |... .. .. ....|... .. .. .... ....|... .. .. ....|... .. .. ....
14 |A-3 00 .. ....|A-3 .. .. 8080 ....|C-6 03 .. ....|C-5 04 .. ....
15 |... .. .. ....|... .. .. .... ....|... .. .. ....|... .. .. ....
16 |A-2 00 .. ....|A-4 .. .. 80FF ....|A-2 01 .. ....|C-5 06 .. ....
17 |... .. .. ....|... .. .. .... ....|... .. .. ....|... .. .. ....
18 |A-3 00 .. ....|A-3 .. .. 8080 ....|C-6 03 .. ....|C-5 04 .. ....
19 |... .. .. ....|... .. .. .... ....|... .. .. ....|... .. .. ....
1A |A-2 00 .. ....|A-4 .. .. 8000 ....|A-2 01 .. ....|C-5 06 .. ....
1B |... .. .. ....|... .. .. .... ....|... .. .. ....|... .. .. ....
1C |A-3 00 .. ....|A-3 .. .. 8080 ....|C-6 03 .. ....|C-5 04 .. ....
1D |... .. .. ....|... .. .. .... ....|... .. .. ....|... .. .. ....
1E |A-2 00 .. ....|A-4 .. .. 80FF ....|A-2 01 .. ....|C-5 06 .. ....
1F |... .. .. ....|... .. .. .... ....|... .. .. ....|... .. .. ....
20 |E-3 00 .. ....|E-3 .. .. 8080 ....|C-6 03 .. ....|C-5 04 .. ....
21 |... .. .. ....|... .. .. .... ....|... .. .. ....|... .. .. ....
22 |E-2 00 .. ....|E-4 .. .. 8000 ....|E-2 01 .. ....|C-5 06 .. ....
23 |... .. .. ....|... .. .. .... ....|... .. .. ....|... .. .. ....
24 |E-3 00 .. ....|E-3 .. .. 8080 ....|C-6 03 .. ....|C-5 04 .. ....
25 |... .. .. ....|... .. .. .... ....|... .. .. ....|... .. .. ....
26 |E-2 00 .. ....|E-4 .. .. 80FF ....|E-2 01 .. ....|C-5 06 .. ....
27 |... .. .. ....|... .. .. .... ....|... .. .. ....|... .. .. ....
28 |E-3 00 .. ....|E-3 .. .. 8080 ....|C-6 03 .. ....|C-5 04 .. ....
29 |... .. .. ....|... .. .. .... ....|... .. .. ....|... .. .. ....
2A |E-2 00 .. ....|E-4 .. .. 8000 ....|E-2 01 .. ....|C-5 06 .. ....
2B |... .. .. ....|... .. .. .... ....|... .. .. ....|... .. .. ....
2C |E-3 00 .. ....|E-3 .. .. 8080 ....|C-6 03 .. ....|C-5 04 .. ....
2D |... .. .. ....|... .. .. .... ....|... .. .. ....|... .. .. ....
2E |E-2 00 .. ....|E-4 .. .. 80FF ....|E-2 01 .. ....|C-5 06 .. ....
2F |... .. .. ....|... .. .. .... ....|... .. .. ....|... .. .. ....
30 |C-3 00 .. ....|C-3 .. .. 8080 ....|C-6 03 .. ....|C-5 04 .. ....
31 |... .. .. ....|... .. .. .... ....|... .. .. ....|... .. .. ....
32 |C-2 00 .. ....|C-4 .. .. 8000 ....|C-2 01 .. ....|C-5 06 .. ....
33 |... .. .. ....|... .. .. .... ....|... .. .. ....|... .. .. ....
34 |C-3 00 .. ....|C-3 .. .. 8080 ....|C-6 03 .. ....|C-5 04 .. ....
35 |... .. .. ....|... .. .. .... ....|... .. .. ....|... .. .. ....
36 |C-2 00 .. ....|C-4 .. .. 80FF ....|C-2 01 .. ....|C-5 06 .. ....
37 |... .. .. ....|... .. .. .... ....|... .. .. ....|... .. .. ....
38 |C-3 00 .. ....|C-3 .. .. 8080 ....|C-6 03 .. ....|C-5 04 .. ....
39 |... .. .. ....|... .. .. .... ....|... .. .. ....|... .. .. ....
3A |C-2 00 .. ....|C-4 .. .. 8000 ....|C-2 01 .. ....|C-5 06 .. ....
3B |... .. .. ....|... .. .. .... ....|... .. .. ....|... .. .. ....
3C |C-3 00 .. ....|C-3 .. .. 8080 ....|C-6 03 .. ....|C-5 04 .. ....
3D |... .. .. ....|... .. .. .... ....|... .. .. ....|... .. .. ....
3E |C-2 00 .. ....|C-4 .. .. 80FF ....|C-2 01 .. ....|C-5 06 .. ....
3F |... .. .. ....|... .. .. .... ....|... .. .. ....|... .. .. ....
----- ORDER 19
00 |G-3 00 .. ....|G-3 02 .. 8080 E590|C-6 03 .. ....|C-5 04 .. ....
01 |... .. .. ....|... .. .. .... ....|... .. .. ....|... .. .. ....
02 |G-2 00 .. ....|G-4 .. .. 8000 ....|G-2 01 .. ....|C-5 06 .. ....
03 |... .. .. ....|... .. .. .... ....|... .. .. ....|... .. .. ....
04 |G-3 00 .. ....|G-3 .. .. 8080 ....|C-6 03 .. ....|C-5 04 .. ....
05 |... .. .. ....|... .. .. .... ....|... .. .. ....|... .. .. ....
06 |G-2 00 .. ....|G-4 .. .. 80FF ....|G-2 01 .. ....|C-5 06 .. ....
07 |... .. .. ....|... .. .. .... ....|... .. .. ....|... .. .. ....
08 |G-3 00 .. ....|G-3 .. .. 8080 ....|C-6 03 .. ....|C-5 04 .. ....
09 |... .. .. ....|... .. .. .... ....|... .. .. ....|... .. .. ....
0A |G-2 00 .. ....|G-4 .. .. 8000 ....|G-2 01 .. ....|C-5 06 .. ....
0B |... .. .. ....|... .. .. .... ....|... .. .. ....|... .. .. ....
0C |G-3 00 .. ....|G-3 .. .. 8080 ....|C-6 03 .. ....|C-5 04 .. ....
0D |... .. .. ....|... .. .. .... ....|... .. .. ....|... .. .. ....
0E |G-2 00 .. ....|G-4 .. .. 80FF ....|G-2 01 .. ....|C-5 06 .. ....
0F |... .. .. ....|... .. .. .... ....|... .. .. ....|... .. .. ....
10 |A-3 00 .. ....|A-3 .. .. 8080 ....|C-6 03 .. ....|C-5 04 .. ....
11 |... .. .. ....|... .. .. .... ....|... .. .. ....|... .. .. ....
12 |A-2 00 .. ....|A-4 .. .. 8000 ....|A-2 01 .. ....|C-5 06 .. ....
13 |... .. .. ....|... .. .. .... ....|... .. .. ....|... .. .. ....
14 |A-3 00 .. ....|A-3 .. .. 8080 ....|C-6 03 .. ....|C-5 04 .. ....
15 |... .. .. ....|... .. .. .... ....|... .. .. ....|... .. .. ....
16 |A-2 00 .. ....|A-4 .. .. 80FF ....|A-2 01 .. ....|C-5 06 .. ....
17 |... .. .. ....|... .. .. .... ....|... .. .. ....|... .. .. ....
18 |A-3 00 .. ....|A-3 .. .. 8080 ....|C-6 03 .. ....|C-5 04 .. ....
19 |... .. .. ....|... .. .. .... ....|... .. .. ....|... .. .. ....
1A |A-2 00 .. ....|A-4 .. .. 8000 ....|A-2 01 .. ....|C-5 06 .. ....
1B |... .. .. ....|... .. .. .... ....|... .. .. ....|... .. .. ....
1C |A-3 00 .. ....|A-3 .. .. 8080 ....|C-6 03 .. ....|C-5 04 .. ....
1D |... .. .. ....|... .. .. .... ....|... .. .. ....|... .. .. ....
1E |A-2 00 .. ....|A-4 .. .. 80FF ....|A-2 01 .. ....|C-5 06 .. ....
1F |... .. .. ....|... .. .. .... ....|... .. .. ....|... .. .. ....
20 |E-3 00 .. ....|E-3 .. .. 8080 ....|C-6 03 .. ....|C-5 04 .. ....
21 |... .. .. ....|... .. .. .... ....|... .. .. ....|... .. .. ....
22 |E-2 00 .. ....|E-4 .. .. 8000 ....|E-2 01 .. ....|C-5 06 .. ....
23 |... .. .. ....|... .. .. .... ....|... .. .. ....|... .. .. ....
24 |E-3 00 .. ....|E-3 .. .. 8080 ....|C-6 03 .. ....|C-5 04 .. ....
25 |... .. .. ....|... .. .. .... ....|... .. .. ....|... .. .. ....
26 |E-2 00 .. ....|E-4 .. .. 80FF ....|E-2 01 .. ....|C-5 06 .. ....
27 |... .. .. ....|... .. .. .... ....|... .. .. ....|... .. .. ....
28 |E-3 00 .. ....|E-3 .. .. 8080 ....|C-6 03 .. ....|C-5 04 .. ....
29 |... .. .. ....|... .. .. .... ....|... .. .. ....|... .. .. ....
2A |E-2 00 .. ....|E-4 .. .. 8000 ....|E-2 01 .. ....|C-5 06 .. ....
2B |... .. .. ....|... .. .. .... ....|... .. .. ....|... .. .. ....
2C |E-3 00 .. ....|E-3 .. .. 8080 ....|C-6 03 .. ....|C-5 04 .. ....
2D |... .. .. ....|... .. .. .... ....|... .. .. ....|... .. .. ....
2E |E-2 00 .. ....|E-4 .. .. 80FF ....|E-2 01 .. ....|C-5 06 .. ....
2F |... .. .. ....|... .. .. .... ....|... .. .. ....|... .. .. ....
30 |C-3 00 .. ....|C-3 .. .. 8080 ....|C-6 03 .. ....|C-5 04 .. ....
31 |... .. .. ....|... .. .. .... ....|... .. .. ....|... .. .. ....
32 |C-2 00 .. ....|C-4 .. .. 8000 ....|C-2 01 .. ....|C-5 06 .. ....
33 |... .. .. ....|... .. .. .... ....|... .. .. ....|... .. .. ....
34 |C-3 00 .. ....|C-3 .. .. 8080 ....|C-6 03 .. ....|C-5 04 .. ....
35 |... .. .. ....|... .. .. .... ....|... .. .. ....|... .. .. ....
36 |C-2 00 .. ....|C-4 .. .. 80FF ....|C-2 01 .. ....|C-5 06 .. ....
37 |... .. .. ....|... .. .. .... ....|... .. .. ....|... .. .. ....
38 |C-3 00 .. ....|C-3 .. .. 8080 ....|C-6 03 .. ....|C-5 04 .. ....
39 |... .. .. ....|... .. .. .... ....|... .. .. ....|... .. .. ....
3A |C-2 00 .. ....|C-4 .. .. 8000 ....|C-2 01 .. ....|C-5 06 .. ....
3B |... .. .. ....|... .. .. .... ....|... .. .. ....|... .. .. ....
3C |C-3 00 .. ....|C-3 .. .. 8080 ....|C-6 03 .. ....|C-5 04 .. ....
3D |... .. .. ....|... .. .. .... ....|... .. .. ....|... .. .. ....
3E |C-2 00 .. ....|C-4 .. .. 80FF ....|C-2 01 .. ....|C-5 06 .. ....
3F |... .. .. ....|... .. .. .... ....|... .. .. ....|... .. .. ....
----- ORDER 1A
00 |G-3 00 .. ....|G-3 02 .. 8080 E590|C-6 03 .. ....|C-5 04 .. ....
01 |... .. .. ....|... .. .. .... ....|... .. .. ....|... .. .. ....
02 |G-2 00 .. ....|G-4 .. .. 8000 ....|G-2 01 .. ....|... .. .. ....
03 |... .. .. ....|... .. .. .... ....|... .. .. ....|... .. .. ....
04 |G-3 00 .. ....|G-3 .. .. 8080 ....|C-6 03 .. ....|C-5 04 .. ....
05 |... .. .. ....|... .. .. .... ....|... .. .. ....|... .. .. ....
06 |G-2 00 .. ....|G-4 .. .. 80FF ....|G-2 01 .. ....|... .. .. ....
07 |... .. .. ....|... .. .. .... ....|... .. .. ....|... .. .. ....
08 |G-3 00 .. ....|G-3 .. .. 8080 ....|C-6 03 .. ....|C-5 04 .. ....
09 |... .. .. ....|... .. .. .... ....|... .. .. ....|... .. .. ....
0A |G-2 00 .. ....|G-4 .. .. 8000 ....|G-2 01 .. ....|... .. .. ....
0B |... .. .. ....|... .. .. .... ....|... .. .. ....|... .. .. ....
0C |G-3 00 .. ....|G-3 .. .. 8080 ....|C-6 03 .. ....|C-5 04 .. ....
0D |... .. .. ....|... .. .. .... ....|... .. .. ....|... .. .. ....
0E |G-2 00 .. ....|G-4 .. .. 80FF ....|G-2 01 .. ....|... .. .. ....
0F |... .. .. ....|... .. .. .... ....|... .. .. ....|... .. .. ....
10 |A-3 00 .. ....|A-3 .. .. 8080 ....|C-6 03 .. ....|C-5 04 .. ....
11 |... .. .. ....|... .. .. .... ....|... .. .. ....|... .. .. ....
12 |A-2 00 .. ....|A-4 .. .. 8000 ....|A-2 01 .. ....|... .. .. ....
13 |... .. .. ....|... .. .. .... ....|... .. .. ....|... .. .. ....
14 |A-3 00 .. ....|A-3 .. .. 8080 ....|C-6 03 .. ....|C-5 04 .. ....
15 |... .. .. ....|... .. .. .... ....|... .. .. ....|... .. .. ....
16 |A-2 00 .. ....|A-4 .. .. 80FF ....|A-2 01 .. ....|... .. .. ....
17 |... .. .. ....|... .. .. .... ....|... .. .. ....|... .. .. ....
18 |A-3 00 .. ....|A-3 .. .. 8080 ....|C-6 03 .. ....|C-5 04 .. ....
19 |... .. .. ....|... .. .. .... ....|... .. .. ....|... .. .. ....
1A |A-2 00 .. ....|A-4 .. .. 8000 ....|A-2 01 .. ....|... .. .. ....
1B |... .. .. ....|... .. .. .... ....|... .. .. ....|... .. .. ....
1C |A-3 00 .. ....|A-3 .. .. 8080 ....|C-6 03 .. ....|C-5 04 .. ....
1D |... .. .. ....|... .. .. .... ....|... .. .. ....|... .. .. ....
1E |A-2 00 .. ....|A-4 .. .. 80FF ....|A-2 01 .. ....|... .. .. ....
1F |... .. .. ....|... .. .. .... ....|... .. .. ....|... .. .. ....
20 |E-3 00 .. ....|E-3 .. .. 8080 ....|C-6 03 .. ....|C-5 04 .. ....
21 |... .. .. ....|... .. .. .... ....|... .. .. ....|... .. .. ....
22 |E-2 00 .. ....|E-4 .. .. 8000 ....|E-2 01 .. ....|... .. .. ....
23 |... .. .. ....|... .. .. .... ....|... .. .. ....|... .. .. ....
24 |E-3 00 .. ....|E-3 .. .. 8080 ....|C-6 03 .. ....|C-5 04 .. ....
25 |... .. .. ....|... .. .. .... ....|... .. .. ....|... .. .. ....
26 |E-2 00 .. ....|E-4 .. .. 80FF ....|E-2 01 .. ....|... .. .. ....
27 |... .. .. ....|... .. .. .... ....|... .. .. ....|... .. .. ....
28 |E-3 00 .. ....|E-3 .. .. 8080 ....|C-6 03 .. ....|C-5 04 .. ....
29 |... .. .. ....|... .. .. .... ....|... .. .. ....|... .. .. ....
2A |E-2 00 .. ....|E-4 .. .. 8000 ....|E-2 01 .. ....|... .. .. ....
2B |... .. .. ....|... .. .. .... ....|... .. .. ....|... .. .. ....
2C |E-3 00 .. ....|E-3 .. .. 8080 ....|C-6 03 .. ....|C-5 04 .. ....
2D |... .. .. ....|... .. .. .... ....|... .. .. ....|... .. .. ....
2E |E-2 00 .. ....|E-4 .. .. 80FF ....|E-2 01 .. ....|... .. .. ....
2F |... .. .. ....|... .. .. .... ....|... .. .. ....|... .. .. ....
30 |C-3 00 .. ....|C-3 .. .. 8080 ....|C-6 03 .. ....|C-5 04 .. ....
31 |... .. .. ....|... .. .. .... ....|... .. .. ....|... .. .. ....
32 |C-2 00 .. ....|C-4 .. .. 8000 ....|C-2 01 .. ....|... .. .. ....
33 |... .. .. ....|... .. .. .... ....|... .. .. ....|... .. .. ....
34 |C-3 00 .. ....|C-3 .. .. 8080 ....|C-6 03 .. ....|C-5 04 .. ....
35 |... .. .. ....|... .. .. .... ....|... .. .. ....|... .. .. ....
36 |C-2 00 .. ....|C-4 .. .. 80FF ....|C-2 01 .. ....|... .. .. ....
37 |... .. .. ....|... .. .. .... ....|... .. .. ....|... .. .. ....
38 |C-3 00 .. ....|C-3 .. .. 8080 ....|C-6 03 .. ....|C-5 04 .. ....
39 |... .. .. ....|... .. .. .... ....|... .. .. ....|... .. .. ....
3A |C-2 00 .. ....|C-4 .. .. 8000 ....|C-2 01 .. ....|... .. .. ....
3B |... .. .. ....|... .. .. .... ....|... .. .. ....|... .. .. ....
3C |C-3 00 .. ....|C-3 .. .. 8080 ....|C-6 03 .. ....|C-5 04 .. ....
3D |... .. .. ....|... .. .. .... ....|... .. .. ....|... .. .. ....
3E |C-2 00 .. ....|C-4 .. .. 80FF ....|C-2 01 .. ....|... .. .. ....
3F |... .. .. ....|... .. .. .... ....|... .. .. ....|... .. .. ....
----- ORDER 1B
00 |G-3 00 .. ....|G-3 02 .. 8080 E590|C-6 03 .. ....|C-5 04 .. ....
01 |... .. .. ....|... .. .. .... ....|... .. .. ....|... .. .. ....
02 |G-2 00 .. ....|G-4 .. .. 8000 ....|G-2 01 .. ....|... .. .. ....
03 |... .. .. ....|... .. .. .... ....|... .. .. ....|... .. .. ....
04 |G-3 00 .. ....|G-3 .. .. 8080 ....|C-6 03 .. ....|C-5 04 .. ....
05 |... .. .. ....|... .. .. .... ....|... .. .. ....|... .. .. ....
06 |G-2 00 .. ....|G-4 .. .. 80FF ....|G-2 01 .. ....|... .. .. ....
07 |... .. .. ....|... .. .. .... ....|... .. .. ....|... .. .. ....
08 |G-3 00 .. ....|G-3 .. .. 8080 ....|C-6 03 .. ....|C-5 04 .. ....
09 |... .. .. ....|... .. .. .... ....|... .. .. ....|... .. .. ....
0A |G-2 00 .. ....|G-4 .. .. 8000 ....|G-2 01 .. ....|... .. .. ....
0B |... .. .. ....|... .. .. .... ....|... .. .. ....|... .. .. ....
0C |G-3 00 .. ....|G-3 .. .. 8080 ....|C-6 03 .. ....|C-5 04 .. ....
0D |... .. .. ....|... .. .. .... ....|... .. .. ....|... .. .. ....
0E |G-2 00 .. ....|G-4 .. .. 80FF ....|G-2 01 .. ....|... .. .. ....
0F |... .. .. ....|... .. .. .... ....|... .. .. ....|... .. .. ....
10 |A-3 00 .. ....|A-3 .. .. 8080 ....|C-6 03 .. ....|C-5 04 .. ....
11 |... .. .. ....|... .. .. .... ....|... .. .. ....|... .. .. ....
12 |A-2 00 .. ....|A-4 .. .. 8000 ....|A-2 01 .. ....|... .. .. ....
13 |... .. .. ....|... .. .. .... ....|... .. .. ....|... .. .. ....
14 |A-3 00 .. ....|A-3 .. .. 8080 ....|C-6 03 .. ....|C-5 04 .. ....
15 |... .. .. ....|... .. .. .... ....|... .. .. ....|... .. .. ....
16 |A-2 00 .. ....|A-4 .. .. 80FF ....|A-2 01 .. ....|... .. .. ....
17 |... .. .. ....|... .. .. .... ....|... .. .. ....|... .. .. ....
18 |A-3 00 .. ....|A-3 .. .. 8080 ....|C-6 03 .. ....|C-5 04 .. ....
19 |... .. .. ....|... .. .. .... ....|... .. .. ....|... .. .. ....
1A |A-2 00 .. ....|A-4 .. .. 8000 ....|A-2 01 .. ....|... .. .. ....
1B |... .. .. ....|... .. .. .... ....|... .. .. ....|... .. .. ....
1C |A-3 00 .. ....|A-3 .. .. 8080 ....|C-6 03 .. ....|C-5 04 .. ....
1D |... .. .. ....|... .. .. .... ....|... .. .. ....|... .. .. ....
1E |A-2 00 .. ....|A-4 .. .. 80FF ....|A-2 01 .. ....|... .. .. ....
1F |... .. .. ....|... .. .. .... ....|... .. .. ....|... .. .. ....
20 |E-3 00 .. ....|E-3 .. .. 8080 ....|C-6 03 .. ....|C-5 04 .. ....
21 |... .. .. ....|... .. .. .... ....|... .. .. ....|... .. .. ....
22 |E-2 00 .. ....|E-4 .. .. 8000 ....|E-2 01 .. ....|... .. .. ....
23 |... .. .. ....|... .. .. .... ....|... .. .. ....|... .. .. ....
24 |E-3 00 .. ....|E-3 .. .. 8080 ....|C-6 03 .. ....|C-5 04 .. ....
25 |... .. .. ....|... .. .. .... ....|... .. .. ....|... .. .. ....
26 |E-2 00 .. ....|E-4 .. .. 80FF ....|E-2 01 .. ....|... .. .. ....
27 |... .. .. ....|... .. .. .... ....|... .. .. ....|... .. .. ....
28 |E-3 00 .. ....|E-3 .. .. 8080 ....|C-6 03 .. ....|C-5 04 .. ....
29 |... .. .. ....|... .. .. .... ....|... .. .. ....|... .. .. ....
2A |E-2 00 .. ....|E-4 .. .. 8000 ....|E-2 01 .. ....|... .. .. ....
2B |... .. .. ....|... .. .. .... ....|... .. .. ....|... .. .. ....
2C |E-3 00 .. ....|E-3 .. .. 8080 ....|C-6 03 .. ....|C-5 04 .. ....
2D |... .. .. ....|... .. .. .... ....|... .. .. ....|... .. .. ....
2E |E-2 00 .. ....|E-4 .. .. 80FF ....|E-2 01 .. ....|... .. .. ....
2F |... .. .. ....|... .. .. .... ....|... .. .. ....|... .. .. ....
30 |C-3 00 .. ....|C-3 .. .. 8080 ....|C-6 03 .. ....|C-5 04 .. ....
31 |... .. .. ....|... .. .. .... ....|... .. .. ....|... .. .. ....
32 |C-2 00 .. ....|C-4 .. .. 8000 ....|C-2 01 .. ....|... .. .. ....
33 |... .. .. ....|... .. .. .... ....|... .. .. ....|... .. .. ....
34 |C-3 00 .. ....|C-3 .. .. 8080 ....|C-6 03 .. ....|C-5 04 .. ....
35 |... .. .. ....|... .. .. .... ....|... .. .. ....|... .. .. ....
36 |C-2 00 .. ....|C-4 .. .. 80FF ....|C-2 01 .. ....|... .. .. ....
37 |... .. .. ....|... .. .. .... ....|... .. .. ....|... .. .. ....
38 |C-3 00 .. ....|C-3 .. .. 8080 ....|C-6 03 .. ....|C-5 04 .. ....
39 |... .. .. ....|... .. .. .... ....|... .. .. ....|... .. .. ....
3A |C-2 00 .. ....|C-4 .. .. 8000 ....|C-2 01 .. ....|... .. .. ....
3B |... .. .. ....|... .. .. .... ....|... .. .. ....|... .. .. ....
3C |C-3 00 .. ....|C-3 .. .. 8080 ....|C-6 03 .. ....|C-5 04 .. ....
3D |... .. .. ....|... .. .. .... ....|... .. .. ....|... .. .. ....
3E |C-2 00 .. ....|C-4 .. .. 80FF ....|C-2 01 .. ....|... .. .. ....
3F |... .. .. ....|... .. .. .... ....|... .. .. ....|... .. .. ....
----- ORDER 1C
00 |G-3 00 .. ....|G-3 02 .. 8080 E590|OFF .. .. ....|OFF .. .. ....
01 |... .. .. ....|... .. .. .... ....|... .. .. ....|... .. .. ....
02 |G-2 00 .. ....|G-4 .. .. 8000 ....|... .. .. ....|... .. .. ....
03 |... .. .. ....|... .. .. .... ....|... .. .. ....|... .. .. ....
04 |G-3 00 .. ....|G-3 .. .. 8080 ....|... .. .. ....|... .. .. ....
05 |... .. .. ....|... .. .. .... ....|... .. .. ....|... .. .. ....
06 |G-2 00 .. ....|G-4 .. .. 80FF ....|... .. .. ....|... .. .. ....
07 |... .. .. ....|... .. .. .... ....|... .. .. ....|... .. .. ....
08 |G-3 00 .. ....|G-3 .. .. 8080 ....|... .. .. ....|... .. .. ....
09 |... .. .. ....|... .. .. .... ....|... .. .. ....|... .. .. ....
0A |G-2 00 .. ....|G-4 .. .. 8000 ....|... .. .. ....|... .. .. ....
0B |... .. .. ....|... .. .. .... ....|... .. .. ....|... .. .. ....
0C |G-3 00 .. ....|G-3 .. .. 8080 ....|... .. .. ....|... .. .. ....
0D |... .. .. ....|... .. .. .... ....|... .. .. ....|... .. .. ....
0E |G-2 00 .. ....|G-4 .. .. 80FF ....|... .. .. ....|... .. .. ....
0F |... .. .. ....|... .. .. .... ....|... .. .. ....|... .. .. ....
10 |A-3 00 .. ....|A-3 .. .. 8080 ....|... .. .. ....|... .. .. ....
11 |... .. .. ....|... .. .. .... ....|... .. .. ....|... .. .. ....
12 |A-2 00 .. ....|A-4 .. .. 8000 ....|... .. .. ....|... .. .. ....
13 |... .. .. ....|... .. .. .... ....|... .. .. ....|... .. .. ....
14 |A-3 00 .. ....|A-3 .. .. 8080 ....|... .. .. ....|... .. .. ....
15 |... .. .. ....|... .. .. .... ....|... .. .. ....|... .. .. ....
16 |A-2 00 .. ....|A-4 .. .. 80FF ....|... .. .. ....|... .. .. ....
17 |... .. .. ....|... .. .. .... ....|... .. .. ....|... .. .. ....
18 |A-3 00 .. ....|A-3 .. .. 8080 ....|... .. .. ....|... .. .. ....
19 |... .. .. ....|... .. .. .... ....|... .. .. ....|... .. .. ....
1A |A-2 00 .. ....|A-4 .. .. 8000 ....|... .. .. ....|... .. .. ....
1B |... .. .. ....|... .. .. .... ....|... .. .. ....|... .. .. ....
1C |A-3 00 .. ....|A-3 .. .. 8080 ....|... .. .. ....|... .. .. ....
1D |... .. .. ....|... .. .. .... ....|... .. .. ....|... .. .. ....
1E |A-2 00 .. ....|A-4 .. .. 80FF ....|... .. .. ....|... .. .. ....
1F |... .. .. ....|... .. .. .... ....|... .. .. ....|... .. .. ....
20 |E-3 00 .. ....|E-3 .. .. 8080 ....|... .. .. ....|... .. .. ....
21 |... .. .. ....|... .. .. .... ....|... .. .. ....|... .. .. ....
22 |E-2 00 .. ....|E-4 .. .. 8000 ....|... .. .. ....|... .. .. ....
23 |... .. .. ....|... .. .. .... ....|... .. .. ....|... .. .. ....
24 |E-3 00 .. ....|E-3 .. .. 8080 ....|... .. .. ....|... .. .. ....
25 |... .. .. ....|... .. .. .... ....|... .. .. ....|... .. .. ....
26 |E-2 00 .. ....|E-4 .. .. 80FF ....|... .. .. ....|... .. .. ....
27 |... .. .. ....|... .. .. .... ....|... .. .. ....|... .. .. ....
28 |E-3 00 .. ....|E-3 .. .. 8080 ....|... .. .. ....|... .. .. ....
29 |... .. .. ....|... .. .. .... ....|... .. .. ....|... .. .. ....
2A |E-2 00 .. ....|E-4 .. .. 8000 ....|... .. .. ....|... .. .. ....
2B |... .. .. ....|... .. .. .... ....|... .. .. ....|... .. .. ....
2C |E-3 00 .. ....|E-3 .. .. 8080 ....|... .. .. ....|... .. .. ....
2D |... .. .. ....|... .. .. .... ....|... .. .. ....|... .. .. ....
2E |E-2 00 .. ....|E-4 .. .. 80FF ....|... .. .. ....|... .. .. ....
2F |... .. .. ....|... .. .. .... ....|... .. .. ....|... .. .. ....
30 |C-3 00 .. ....|C-3 .. .. 8080 ....|... .. .. ....|... .. .. ....
31 |... .. .. ....|... .. .. .... ....|... .. .. ....|... .. .. ....
32 |C-2 00 .. ....|C-4 .. .. 8000 ....|... .. .. ....|... .. .. ....
33 |... .. .. ....|... .. .. .... ....|... .. .. ....|... .. .. ....
34 |C-3 00 .. ....|C-3 .. .. 8080 ....|... .. .. ....|... .. .. ....
35 |... .. .. ....|... .. .. .... ....|... .. .. ....|... .. .. ....
36 |C-2 00 .. ....|C-4 .. .. 80FF ....|... .. .. ....|... .. .. ....
37 |... .. .. ....|... .. .. .... ....|... .. .. ....|... .. .. ....
38 |C-3 00 .. ....|C-3 .. .. 8080 ....|... .. .. ....|... .. .. ....
39 |... .. .. ....|... .. .. .... ....|... .. .. ....|... .. .. ....
3A |C-2 00 .. ....|C-4 .. .. 8000 ....|... .. .. ....|... .. .. ....
3B |... .. .. ....|... .. .. .... ....|... .. .. ....|... .. .. ....
3C |C-3 00 .. ....|C-3 .. .. 8080 ....|... .. .. ....|... .. .. ....
3D |... .. .. ....|... .. .. .... ....|... .. .. ....|... .. .. ....
3E |C-2 00 .. ....|C-4 .. .. 80FF ....|... .. .. ....|... .. .. ....
3F |... .. .. ....|... .. .. .... ....|... .. .. 0B00|... .. .. ....
